<svg id="Glyph" height="512" viewBox="0 0 64 64" width="512" xmlns="http://www.w3.org/2000/svg"><path d="m54.41 32.98c-3.12 8.15-10.13 13.79-18.41 14.84v1.18c0 .55-.45 1-1 1h-6c-.55 0-1-.45-1-1v-1.18c-8.28-1.05-15.29-6.69-18.41-14.84l-1.34 22.79c-.14 2.29 1.69 4.23 3.99 4.23h39.52c2.3 0 4.13-1.94 3.99-4.23z"/><path d="m28 45.8v-1.8c0-.55.45-1 1-1h6c.55 0 1 .45 1 1v1.8c8.03-1.15 14.82-7.14 17.2-15.48l.82-2.89c-.24-.83-1.01-1.43-1.91-1.43h-3.11v-4c0-.55-.45-1-1-1v-1c0-4.42-1.79-8.42-4.68-11.32-2.9-2.89-6.9-4.68-11.32-4.68-8.84 0-16 7.16-16 16v1c-.55 0-1 .45-1 1v4h-3.11c-.9 0-1.67.6-1.91 1.43l.82 2.89c2.38 8.34 9.17 14.33 17.2 15.48zm-8-24.8v-1c0-6.63 5.37-12 12-12 3.32 0 6.32 1.34 8.49 3.51s3.51 5.17 3.51 8.49v1c-.55 0-1 .45-1 1v4h-22v-4c0-.55-.45-1-1-1z"/></svg>