<?xml version="1.0" encoding="UTF-8"?>
<svg xmlns="http://www.w3.org/2000/svg" viewBox="0 0 60 60" width="512" height="512"><g id="Icons"><path d="M24.573,17.112l-1.681-1.787a1.033,1.033,0,0,0-.909-.31.9.9,0,0,0-.693.5,4.051,4.051,0,0,0-.159,3.682A5.892,5.892,0,0,1,24.573,17.112Z"/><path d="M47.075,38.037a26.641,26.641,0,0,1-7.35-1.076C28.644,33.8,25.352,34.444,20.79,35.345c-1.12.22-2.279.449-3.648.645-5.262.75-10.927-1.639-13.837-3.129L2.218,35.036a1.971,1.971,0,0,0,.26,2.188C3.75,38.64,6.559,40.445,12.708,41l30.656,0a17.714,17.714,0,0,0,5.367-.818c4.793-1.521,8.058-3.282,9.029-4.828A22.3,22.3,0,0,1,47.075,38.037Z"/><path d="M16.859,34.01c1.317-.188,2.449-.411,3.544-.628,4.653-.917,8.325-1.642,19.871,1.657,7.7,2.2,13.482.361,17.161-1.786A5.145,5.145,0,0,0,53.8,30.98c-.654-.13-1.325-.243-2.029-.362A44.638,44.638,0,0,1,41.221,27.71L39.8,29.6a1,1,0,1,1-1.6-1.2l1.134-1.507c-.707-.322-1.443-.672-2.212-1.058L35.8,27.6a1,1,0,0,1-1.6-1.2l1.124-1.5c-.682-.365-1.385-.754-2.115-1.172L31.8,25.6a1,1,0,0,1-1.6-1.2l1.272-1.691q-1-.6-2.054-1.264L27.8,23.6a1,1,0,1,1-1.6-1.2l1.633-2.173a3.822,3.822,0,0,0-2.664-1.176c-1.143.054-2.265.9-3.337,2.5-1.973,2.959-4.65,4.579-7.558,4.579-.062,0-.125,0-.186,0A8.965,8.965,0,0,1,6.76,21.515,11.806,11.806,0,0,0,5.7,19.973,18.146,18.146,0,0,0,5.617,22a25.719,25.719,0,0,1-1.052,8.316.876.876,0,0,1-.053.131l-.313.625C6.665,32.329,12.087,34.694,16.859,34.01Z"/></g></svg>
