<?xml version="1.0" encoding="UTF-8" standalone="no"?>
<svg version="1.1" width="1024" height="1024" id="svg5" xmlns="http://www.w3.org/2000/svg">
  <defs
     id="defs5" />
  <path
     id="path2"
     d="M 757.45703 198.38867 C 754.12837 198.42224 750.80684 199.16942 747.85352 200.5625 C 742.64534 205.2862 737.89526 210.24852 733.29883 215.56641 C 723.76662 226.43441 713.62649 236.68893 703.40039 246.89844 C 701.91199 248.38752 700.42367 249.87587 698.93555 251.36523 C 695.84112 254.46112 692.74399 257.55563 689.64648 260.64844 C 685.69374 264.59545 681.74572 268.54714 677.79883 272.5 C 674.73617 275.56628 671.67124 278.63019 668.60547 281.69336 C 667.14881 283.14936 665.69344 284.60694 664.23828 286.06445 C 662.20323 288.10206 660.1641 290.13636 658.125 292.16992 L 656.34375 293.95898 C 652.69354 297.591 648.90503 301.00762 645.01172 304.37695 C 642.63468 306.46479 640.39138 308.66193 638.16211 310.90625 C 637.26758 311.80408 636.37281 312.70191 635.45117 313.62695 C 634.98728 314.09496 634.52287 314.56272 634.04492 315.04492 C 632.56593 316.53689 631.08465 318.02578 629.60156 319.51367 C 625.9218 323.20668 622.24667 326.90517 618.57227 330.60352 C 615.45495 333.74069 612.3351 336.8755 609.21289 340.00781 C 607.76636 341.46073 606.32417 342.91692 604.88086 344.37305 C 600.41883 348.85154 595.90507 353.16775 591.10742 357.2832 C 587.43313 360.53205 584.0197 364.04531 580.57227 367.53125 C 579.78131 368.326 578.99071 369.12061 578.17578 369.93945 C 574.82619 373.30523 571.48082 376.6776 568.13672 380.04883 C 565.67934 382.52439 563.22035 384.99638 560.75977 387.46875 C 560.01683 388.21999 559.27326 388.97208 558.50781 389.74609 C 554.5117 393.76068 550.41754 397.56898 546.12695 401.26562 C 542.73807 404.26224 539.56993 407.47347 536.38477 410.68359 C 535.68582 411.38396 534.98575 412.08505 534.26562 412.80664 C 532.063 415.0148 529.865 417.22572 527.66602 419.4375 C 526.16104 420.9475 524.65584 422.45727 523.15039 423.9668 C 519.48626 427.64187 515.82528 431.32007 512.16602 435 C 509.37463 433.65052 507.24479 432.3481 504.99414 430.20703 C 504.41656 429.66305 503.83922 429.11906 503.24414 428.55859 L 501.41602 426.8125 C 500.15257 425.62017 498.88825 424.42875 497.62305 423.23828 C 497.02058 422.67061 496.4176 422.10245 495.79688 421.51758 C 493.94209 419.79159 492.03785 418.13611 490.10352 416.5 C 485.87032 412.85854 481.98428 408.87203 478.08398 404.88086 C 475.29728 402.04876 472.45424 399.35239 469.43555 396.76758 C 465.28352 393.15097 461.37709 389.33908 457.5 385.43164 C 456.78017 384.71034 456.06001 383.98924 455.31836 383.24609 C 453.76935 381.6933 452.22063 380.13898 450.67383 378.58398 C 448.22024 376.11754 445.76426 373.65384 443.30664 371.19141 C 438.09017 365.96354 432.87797 360.73236 427.66602 355.5 C 421.62225 349.43257 415.577 343.36624 409.52734 337.30469 C 407.11693 334.88783 404.70804 332.46885 402.30078 330.04883 C 400.8109 328.55532 399.32221 327.06157 397.83203 325.56836 C 397.17205 324.90322 396.51201 324.23803 395.83203 323.55273 C 392.06319 319.78347 388.1734 316.23015 384.14062 312.74609 C 380.85324 309.83799 377.76569 306.73834 374.66797 303.63086 C 373.96603 302.93068 373.26422 302.23116 372.54102 301.50977 C 370.24567 299.21878 367.95359 296.92376 365.66211 294.62891 C 364.05378 293.02125 362.44456 291.41401 360.83594 289.80664 C 357.47477 286.44694 354.1159 283.08543 350.75781 279.72266 C 346.46874 275.42788 342.17578 271.13659 337.88086 266.84766 C 334.5615 263.53193 331.24398 260.21532 327.92773 256.89648 C 326.34614 255.31423 324.76279 253.73115 323.17969 252.15039 C 320.96192 249.93518 318.74886 247.7173 316.53516 245.49805 C 315.89029 244.85521 315.24449 244.2131 314.58008 243.55078 C 310.82653 239.77995 307.26071 235.89789 303.80078 231.85547 C 300.91456 228.58044 297.78149 225.55483 294.66602 222.5 C 290.15376 218.03622 285.76079 213.55621 281.65039 208.71484 C 273.49845 199.2972 273.49843 199.29719 267.49414 198.76172 C 260.77852 198.59979 256.4617 198.69722 251.16602 203 C 249.51421 205.27504 248.39739 207.44251 247.16602 210 L 246.16602 212 C 245.92774 214.39062 245.92774 214.39062 245.85352 217.25 C 245.81612 218.18328 245.77871 219.11657 245.74023 220.07812 C 246.79169 227.29365 253.29312 232.40344 258.23047 237.29883 C 259.04974 238.11911 259.86879 238.93806 260.71289 239.7832 C 262.97846 242.04955 265.24759 244.3123 267.51953 246.57227 C 269.97248 249.01449 272.42131 251.4628 274.86914 253.91016 C 279.10949 258.14814 283.35326 262.38131 287.59961 266.61328 C 293.74721 272.74016 299.88732 278.87334 306.02734 285.00781 C 316.00067 294.9719 325.97861 304.93357 335.95898 314.89062 C 336.556 315.48624 337.15247 316.08164 337.76758 316.69531 C 338.66419 317.58984 338.66535 317.58936 339.58008 318.50195 C 348.04811 326.95022 356.51458 335.3992 364.98047 343.84961 C 365.87353 344.74104 365.87405 344.74095 366.78516 345.65039 C 376.72322 355.5704 386.65877 365.49291 396.59375 375.41602 C 402.7167 381.5314 408.84101 387.64528 414.96875 393.75586 C 419.17017 397.94568 423.36999 402.13721 427.56836 406.33008 C 429.98814 408.74654 432.40916 411.16085 434.83203 413.57422 C 437.46351 416.19622 440.09308 418.82142 442.7207 421.44727 C 443.47966 422.20195 444.23757 422.95682 445.01953 423.73438 C 449.06172 427.78086 452.93193 431.91668 456.65234 436.26172 C 458.91283 438.85757 461.32545 441.25325 463.77539 443.67188 C 464.51563 444.40643 464.51434 444.40686 465.26953 445.15625 C 466.81545 446.69017 468.36593 448.22029 469.91602 449.75 C 471.97624 451.78352 474.03305 453.82043 476.08789 455.85938 C 477.44286 457.19694 477.44188 457.19597 478.82422 458.56055 C 480.80839 460.6275 482.47807 462.6962 484.16602 465 C 483.5895 465.57538 483.01196 466.15132 482.41797 466.74414 C 448.26423 500.83077 414.11819 534.92467 379.98242 569.0293 C 375.88554 573.12242 371.78839 577.21558 367.69141 581.30859 C 366.87576 582.12346 366.06107 582.93778 365.2207 583.77734 C 352.00611 596.97888 338.78629 610.17486 325.56445 623.36914 C 312.00215 636.90342 298.44588 650.44499 284.89453 663.99023 C 276.52953 672.35113 268.15831 680.70587 259.7832 689.05664 C 254.04391 694.7801 248.31148 700.51081 242.58203 706.24414 C 239.27414 709.55396 235.96335 712.86129 232.64648 716.16211 C 229.61073 719.1833 226.58193 722.21052 223.55859 725.24414 C 222.46291 726.34108 221.36466 727.43575 220.26367 728.52734 C 218.76809 730.01089 217.28285 731.50296 215.79883 732.99805 C 214.97066 733.82508 214.14233 734.65181 213.28906 735.50391 C 209.52961 739.92314 207.56604 744.02013 207.81445 749.91406 C 208.68275 755.06602 210.9999 758.91718 214.79102 762.4375 C 218.46609 764.85531 220.57555 765.18485 224.97852 765.25 C 226.01621 765.2758 227.05391 765.30163 228.12305 765.32812 C 234.6058 764.6291 238.70574 759.86775 243.22852 755.5625 C 244.25331 754.5957 244.25332 754.5957 245.29883 753.60938 C 252.0516 747.19485 258.62478 740.60003 265.16211 733.9668 C 269.33994 729.7441 273.58281 725.71507 278.08789 721.8457 C 282.30603 718.09769 286.24889 714.06013 290.22852 710.0625 C 291.08767 709.20721 291.94683 708.35191 292.83203 707.4707 C 293.67572 706.62572 294.51941 705.78074 295.38867 704.91016 C 296.13898 704.15871 296.88906 703.40702 297.66211 702.63281 C 299.55824 700.63867 301.34278 698.63014 303.125 696.53906 C 307.93679 691.02956 313.12601 685.89847 318.30078 680.73438 C 319.41206 679.62174 320.52389 678.50952 321.63477 677.39648 C 324.62999 674.39673 327.62787 671.4002 330.62695 668.4043 C 333.77053 665.26327 336.91121 662.11965 340.05273 658.97656 C 345.32057 653.70691 350.59216 648.43823 355.86328 643.17188 C 361.9609 637.07972 368.05436 630.98434 374.14648 624.88672 C 379.38299 619.64568 384.62125 614.40738 389.86133 609.16992 C 392.98888 606.04393 396.11511 602.91749 399.24023 599.78906 C 402.17235 596.85407 405.10846 593.9209 408.04492 590.99023 C 409.12375 589.91273 410.20026 588.83514 411.27734 587.75586 C 412.74314 586.28734 414.21197 584.82013 415.68164 583.35547 C 416.504 582.53348 417.32655 581.71213 418.17383 580.86523 C 420.03036 578.94837 420.03124 578.94859 422.16602 578 L 422.16602 576 L 424.16602 576 L 424.16602 574 C 424.71292 573.77809 425.2588 573.55675 425.82227 573.32812 C 428.89463 571.58712 431.18629 569.24968 433.64844 566.75977 C 434.18398 566.22613 434.71971 565.69239 435.27148 565.14258 C 437.03908 563.37868 438.80041 561.60728 440.56055 559.83594 C 441.79323 558.60206 443.02637 557.36791 444.25977 556.13477 C 446.84599 553.54698 449.42753 550.95699 452.00781 548.36328 C 455.29765 545.05653 458.59389 541.75495 461.89258 538.45703 C 464.4418 535.90753 466.98941 533.3557 469.53516 530.80273 C 470.74848 529.58626 471.96125 528.37153 473.17578 527.15625 C 484.62172 515.69559 484.62175 515.69521 489.85156 509.53906 C 493.04596 505.79531 496.62608 502.41221 500.16602 499 C 500.89562 498.28715 501.62523 497.5743 502.37695 496.83984 C 503.07046 496.19145 503.76399 495.54305 504.47852 494.875 C 505.0934 494.29492 505.70829 493.71484 506.3418 493.11719 C 508.08513 491.78693 508.08537 491.78693 510.06836 492.24805 C 512.47811 493.11178 513.71932 494.14217 515.55664 495.91406 C 516.17926 496.50639 516.80188 497.09871 517.44336 497.70898 C 518.09434 498.34127 518.74532 498.97355 519.41602 499.625 C 520.77455 500.92014 522.13393 502.21443 523.49414 503.50781 C 524.10162 504.09192 524.70811 504.67554 525.33398 505.27734 C 527.78976 507.58709 530.33813 509.78435 532.88867 511.98828 C 545.52008 523.14485 557.39583 535.09404 569.28906 547.02344 C 571.80039 549.54124 574.31612 552.05513 576.83008 554.57031 C 581.1694 558.9125 585.50544 563.2564 589.8418 567.60156 C 596.11937 573.89178 602.40184 580.17881 608.68359 586.46484 C 618.8903 596.67859 629.0936 606.89415 639.29688 617.11133 C 639.90535 617.72064 640.51371 618.32926 641.14062 618.95703 C 645.46118 623.2835 649.78303 627.61095 654.10352 631.9375 C 659.05113 636.89206 663.99758 641.84634 668.94531 646.80078 C 669.55515 647.41145 670.1666 648.02316 670.79492 648.65234 C 680.97279 658.84391 691.15273 669.0325 701.33398 679.2207 C 707.59933 685.49053 713.86179 691.7632 720.12305 698.03711 C 724.40942 702.33194 728.69874 706.62436 732.98828 710.91602 C 735.45947 713.38854 737.92835 715.86231 740.39648 718.33789 C 743.07712 721.02576 745.76083 723.71051 748.44531 726.39453 C 749.2172 727.17001 749.98987 727.94515 750.78516 728.74414 C 754.87888 732.83014 759.05849 736.74627 763.45312 740.50781 C 765.88168 742.62271 768.12303 744.89714 770.36523 747.20703 C 771.71391 748.58085 771.71392 748.58085 773.08984 749.98242 C 774.48071 751.40671 775.87126 752.83134 777.25586 754.26172 C 778.61868 755.66696 779.99197 757.06201 781.36523 758.45703 C 782.56925 759.69417 782.56853 759.6949 783.79688 760.95703 C 788.78242 765.25906 793.84078 765.55511 800.2168 765.44531 C 804.87585 764.74183 807.30816 762.62664 810.16602 759 C 813.24928 754.62375 813.53723 750.7577 813.66211 745.5625 C 812.23871 738.21013 805.47407 733.10829 800.35352 728.125 C 798.78202 726.58848 797.21297 725.04944 795.64648 723.50781 C 794.9545 722.83379 794.26179 722.15929 793.54883 721.46484 C 791.60989 719.45937 789.78854 717.42495 787.9707 715.3125 C 783.78684 710.49596 779.31009 706.00033 774.79492 701.49609 C 773.91376 700.61398 773.03287 699.73111 772.125 698.82227 C 769.80051 696.49693 767.47226 694.17561 765.14453 691.85352 C 763.72847 690.43941 762.31572 689.02227 760.90234 687.60547 C 758.16099 684.85789 755.41588 682.11408 752.66992 679.37109 C 751.83634 678.53549 751.00142 677.70076 750.14258 676.83984 C 749.34493 676.04534 748.54838 675.25021 747.72656 674.43164 C 746.69234 673.39861 746.69184 673.39765 745.63672 672.34375 C 743.69776 670.50441 741.73613 668.77158 739.70508 667.03906 C 733.50508 661.64278 727.77646 655.74941 721.97266 649.93555 C 720.65313 648.61737 719.33361 647.30018 718.01367 645.98242 C 714.44988 642.42317 710.88806 638.85999 707.32812 635.29688 C 703.59852 631.56473 699.86642 627.83556 696.13477 624.10547 C 689.87646 617.84899 683.62024 611.58985 677.36523 605.33008 C 670.12792 598.08732 662.88732 590.84862 655.64453 583.61133 C 649.42262 577.39394 643.20272 571.17409 636.98438 564.95312 C 633.27152 561.23871 629.55904 557.52644 625.84375 553.81445 C 622.35719 550.33078 618.87285 546.84348 615.39062 543.35547 C 614.10994 542.07344 612.82738 540.79198 611.54492 539.51172 C 609.80052 537.77003 608.0589 536.0268 606.31836 534.28125 C 605.80534 533.77047 605.29223 533.25868 604.76367 532.73242 C 602.13408 530.11469 602.1354 530.115 600.16602 527 L 598.16602 527 C 597.91604 526.42437 597.66575 525.84893 597.4082 525.25586 C 595.99095 522.6829 594.37293 520.97382 592.28516 518.9082 C 591.48706 518.11347 590.68948 517.31881 589.86719 516.5 C 589.00265 515.64891 588.13879 514.79875 587.24805 513.92188 C 586.35744 513.03648 585.46643 512.15052 584.54883 511.23828 C 582.17942 508.88367 579.8055 506.53368 577.42969 504.18555 C 574.10227 500.89603 570.78039 497.60223 567.46094 494.30469 C 565.69626 492.55214 563.92863 490.80143 562.1582 489.05469 C 557.78423 484.71581 553.57148 480.31305 549.57227 475.625 C 547.39774 473.11511 544.98483 470.89092 542.54883 468.64062 C 540.89146 466.67426 540.40893 465.56136 540.16602 463 C 541.49374 460.99507 541.49375 460.99507 543.54102 459.17188 C 544.64896 458.09487 544.64897 458.09486 545.7793 456.99609 C 546.56692 456.25488 547.35454 455.51367 548.16602 454.75 C 549.68929 453.289 551.21015 451.82547 552.72852 450.35938 C 553.41042 449.71453 554.09234 449.0687 554.79492 448.4043 C 556.77386 446.39684 558.61188 444.35518 560.45117 442.22266 C 564.13406 437.97674 568.04398 434.01116 572.04102 430.0625 C 572.76917 429.33813 573.49587 428.61351 574.24609 427.86719 C 576.54981 425.57558 578.85821 423.28749 581.16602 421 C 584.21066 417.98215 587.25185 414.96087 590.29102 411.9375 L 592.36719 409.88477 C 595.45589 406.81157 598.44749 403.71706 601.26953 400.39648 C 606.32101 394.54531 611.87949 389.17571 617.35938 383.73047 C 619.42258 381.68015 621.48184 379.62662 623.54102 377.57227 C 627.91291 373.21173 632.2896 368.856 636.66602 364.5 C 641.74219 359.44753 646.81644 354.39238 651.88672 349.33398 C 653.90472 347.32242 655.92611 345.31502 657.94727 343.30664 C 659.1981 342.05943 660.44869 340.81197 661.69922 339.56445 C 662.25216 339.01669 662.80531 338.46866 663.375 337.9043 C 666.23324 335.04643 668.9599 332.12271 671.60352 329.06445 C 675.11591 325.00831 678.82821 321.19715 682.62695 317.41016 C 683.33689 316.69847 684.0459 315.98717 684.77734 315.25391 C 687.1008 312.92609 689.42853 310.60128 691.75586 308.27734 C 693.38594 306.6466 695.01474 305.0158 696.64453 303.38477 C 700.05131 299.97652 703.46125 296.56923 706.87109 293.16406 C 711.22641 288.81446 715.57632 284.46092 719.92578 280.10547 C 723.28783 276.73979 726.65243 273.37624 730.01758 270.01367 C 731.62217 268.40974 733.22504 266.80464 734.82812 265.19922 C 737.07446 262.95031 739.32578 260.70579 741.57617 258.46094 C 742.55446 257.47961 742.55272 257.47966 743.55078 256.47852 C 747.39544 252.65125 751.35522 249.01039 755.46484 245.46875 C 758.74606 242.63429 761.82772 239.60343 764.91602 236.5625 C 765.56183 235.94568 766.20766 235.32887 766.87305 234.69336 C 771.63954 229.99047 775.63105 225.13538 776.51367 218.3125 C 775.56201 210.59496 773.17818 205.45891 767.10352 200.5 C 764.12152 199.03516 760.7857 198.35511 757.45703 198.38867 z M 136.01758 288.88672 C 132.756 288.85123 129.47575 289.82545 126.0293 291.74609 C 122.49245 294.12624 119.76854 296.67101 118.66992 300.9082 C 117.86568 307.28831 118.8129 312.70635 120.28711 318.92578 C 120.53329 320.01442 120.77956 321.10298 121.0332 322.22461 C 121.87496 325.92417 122.7388 329.61824 123.60352 333.3125 C 124.06736 335.32321 124.52857 337.3345 124.99023 339.3457 C 133.53971 376.56431 142.58365 413.6701 151.53711 450.79297 C 156.50825 471.40678 161.44679 492.02823 166.375 512.65234 C 167.03913 515.43156 167.70286 518.21107 168.36719 520.99023 C 171.37626 533.57854 174.38406 546.16695 177.39062 558.75586 C 178.19964 562.14331 179.00926 565.5325 179.81836 568.91992 C 183.3382 583.65661 186.85582 598.39354 190.37305 613.13086 C 191.50992 617.89433 192.64771 622.65659 193.78516 627.41992 C 199.63831 651.93261 205.48677 676.44632 211.16602 701 C 216.99028 698.27669 221.22832 693.53905 225.77539 689.08984 C 226.90839 687.99 228.053 686.90002 229.20703 685.82227 C 230.8811 684.25809 232.51972 682.66387 234.1543 681.05859 C 234.67188 680.58635 235.18939 680.1135 235.72266 679.62695 C 238.60332 676.71117 239.16345 675.18582 239.19336 671.06836 C 238.89044 669.37129 238.5429 667.68219 238.16602 666 C 237.93879 664.92678 237.71067 663.85379 237.47656 662.74805 C 236.60026 658.77037 235.66615 654.8093 234.7207 650.84766 C 234.35864 649.31292 233.99589 647.77715 233.63477 646.24219 C 232.8537 642.92667 232.07015 639.61295 231.2832 636.29883 C 230.02168 630.98588 228.76679 625.6704 227.51367 620.35547 C 226.17107 614.66266 224.82811 608.97137 223.48242 603.2793 C 218.69219 583.01698 213.93582 562.74541 209.18164 542.47461 C 207.45432 535.10969 205.72526 527.74535 203.99609 520.38086 C 199.03671 499.25746 194.08691 478.13241 189.16602 457 C 190.28572 457.62938 191.40494 458.25974 192.55859 458.9082 C 219.89276 474.18599 249.49829 479.37926 280.10352 471.3125 C 295.6363 466.5238 308.63003 458.86795 322.16602 450 C 336.23958 440.91121 351.33177 434.75582 368.16602 434 C 369.69548 433.9207 369.69549 433.9207 371.25586 433.83984 C 396.18461 433.14486 418.95858 445.21753 438.35156 459.7832 C 439.08004 460.32903 439.80999 460.87512 440.56055 461.4375 L 442.52344 462.93359 C 444.1648 464 444.16602 464 446.16602 464 C 445.58479 460.74773 444.66342 459.13207 442.31641 456.82812 C 441.71843 456.23361 441.12196 455.63793 440.50586 455.02539 C 439.8549 454.39305 439.20389 453.76088 438.5332 453.10938 L 436.50195 451.09961 C 434.35503 448.97609 432.199 446.86227 430.04102 444.75 C 427.90613 442.65039 425.77246 440.54805 423.64258 438.44336 C 422.31796 437.13546 420.99153 435.83031 419.66016 434.5293 C 415.26495 430.20363 411.18881 425.67149 407.16602 421 C 404.63431 418.17683 402.04117 415.42377 399.41602 412.6875 C 398.77664 411.98561 398.13726 411.28371 397.47852 410.56055 C 390.81252 403.67803 383.80056 402.03198 374.4043 401.60156 C 372.42907 401.58886 370.45359 401.5976 368.47852 401.625 C 367.43051 401.634 366.38249 401.6445 365.30273 401.6543 C 356.59988 401.82203 348.59635 402.81042 340.16602 405 L 338.2168 405.48828 C 322.70898 409.45966 309.59691 417.28868 296.33594 426.03711 C 277.226 438.54621 257.57272 444.5587 234.81055 439.96875 C 225.58494 437.76012 217.43276 433.53899 209.16602 429 C 207.28191 427.97264 205.39779 426.9453 203.51367 425.91797 C 200.60098 424.32897 197.68957 422.73612 194.78906 421.125 C 193.90106 420.63387 193.01453 420.14273 192.09961 419.63672 C 191.31643 419.20061 190.53348 418.76377 189.72656 418.31445 C 187.16627 416.99926 187.1648 417.00025 183.59961 416.23047 C 180.78542 415.02069 180.22715 414.14389 178.99805 411.2793 C 177.9341 407.43968 177.0783 403.57965 176.27539 399.67969 C 175.94743 398.19994 175.61504 396.72064 175.28125 395.24219 C 174.57773 392.10776 173.89217 388.97068 173.2168 385.83008 C 172.19167 381.08321 171.107 376.35038 170.00391 371.62109 C 169.73283 370.45792 169.73163 370.45815 169.45508 369.27148 C 169.08874 367.70023 168.72212 366.12977 168.35547 364.55859 C 167.43467 360.60318 166.5256 356.64534 165.61523 352.6875 C 165.43451 351.90261 165.25261 351.11727 165.06641 350.30859 C 164.13801 346.27496 163.21301 342.24018 162.29102 338.20508 C 161.37355 334.19099 160.45012 330.17949 159.52148 326.16797 C 159.17615 324.67046 158.83234 323.17253 158.49219 321.67383 C 152.9548 297.28844 152.95534 297.28827 145.88867 292.08203 C 142.52208 289.96741 139.27916 288.92221 136.01758 288.88672 z M 886.72852 288.95898 C 884.65342 288.98774 882.44816 289.3551 880.10352 290.0625 C 875.48817 291.99451 872.80014 294.80341 870.16602 299 C 866.66692 307.83949 865.07145 317.6036 862.92773 326.85156 C 862.52073 328.59589 862.11272 330.33981 861.70508 332.08398 C 860.63455 336.66734 859.56799 341.25153 858.50195 345.83594 C 857.436 350.41943 856.36862 355.00288 855.30078 359.58594 C 855.09306 360.47844 854.88392 361.37147 854.66992 362.29102 C 853.64098 366.70763 852.60596 371.12138 851.55664 375.5332 C 851.15444 377.22654 850.75339 378.91985 850.35156 380.61328 C 850.06209 381.83259 850.06093 381.8342 849.76562 383.07812 C 848.62215 387.9353 847.57935 392.79939 846.60547 397.69336 C 844.62139 409.71799 844.62138 409.71728 837.11133 418.65234 C 834.28461 419.9664 834.2846 419.9664 831.29102 420.9375 C 829.21556 421.82132 827.14135 422.70805 825.06836 423.59766 C 824.05758 423.99743 823.04532 424.39671 822.00391 424.80859 C 818.04441 426.46933 814.5032 428.63401 810.85352 430.875 C 793.34641 440.91544 774.70978 444.23741 754.85352 439.5 C 741.57482 435.84213 730.04409 429.16331 718.75977 421.43945 C 706.91315 413.35112 695.14626 407.46815 681.16602 404 C 680.43448 403.81454 679.70293 403.62858 678.94922 403.4375 C 671.73962 401.7908 664.66431 401.63294 657.29102 401.625 C 656.10122 401.6005 654.91141 401.57598 653.68555 401.55078 C 651.91631 401.54478 651.91631 401.54476 650.11133 401.53906 C 648.5415 401.52676 648.541 401.52627 646.93945 401.51367 C 633.67708 403.22102 626.87929 409.17612 617.96289 418.42188 C 616.7487 419.65102 615.53214 420.87785 614.31445 422.10352 C 611.14003 425.30824 607.99051 428.53773 604.8457 431.77148 C 601.62213 435.07743 598.37572 438.35947 595.13086 441.64453 C 588.78651 448.07425 582.46812 454.52888 576.16602 461 L 577.16602 464 C 577.72362 463.61779 578.28097 463.23559 578.85547 462.8418 C 607.42781 443.32983 634.96844 429.55332 670.83398 435.65234 C 684.50766 439.00953 695.68352 446.21386 707.06055 454.15234 C 733.12725 472.23193 762.96357 478.57632 794.36523 473.00391 C 807.25912 470.43736 818.61962 465.09353 830.16602 459 L 832.16602 458 C 829.29172 471.92262 826.19935 485.78716 823.00977 499.64062 C 822.50884 501.82177 822.00847 504.00239 821.50781 506.18359 C 820.44569 510.80968 819.38221 515.4368 818.31836 520.0625 C 816.93119 526.09523 815.54678 532.12836 814.16406 538.16211 C 808.7314 561.86858 803.27872 585.56984 797.73242 609.25 C 796.31137 615.32302 794.8986 621.39804 793.48438 627.47266 C 792.16002 633.15679 790.82236 638.83653 789.47656 644.51562 C 788.6538 647.99998 787.84343 651.48883 787.03516 654.97656 C 786.661 656.58015 786.28067 658.18198 785.89648 659.7832 C 785.3773 661.94928 784.87496 664.11803 784.37695 666.28906 C 784.09261 667.49695 783.80857 668.70472 783.51562 669.94922 C 783.1404 673.21447 783.30476 674.35718 785.16602 677 C 786.78842 678.70978 788.46003 680.37361 790.16602 682 L 792.56836 684.4043 L 810.16602 702 C 816.70192 692.19614 817.78486 676.80826 820.31445 665.41992 C 825.50156 642.08209 831.11928 618.84429 836.68164 595.59375 C 838.14295 589.48373 839.60113 583.37219 841.06055 577.26172 C 844.18005 564.20252 847.30373 551.14405 850.42773 538.08594 C 851.11282 535.22233 851.79743 532.35972 852.48242 529.49609 C 854.63228 520.50883 856.78377 511.52196 858.93555 502.53516 C 859.75508 499.11233 860.57351 495.68856 861.39258 492.26562 C 862.22424 488.79035 863.05658 485.31501 863.88867 481.83984 C 864.05454 481.14705 864.21973 480.45402 864.39062 479.74023 C 866.51741 470.85925 868.64991 461.97957 870.78906 453.10156 C 890.13888 372.79372 890.1397 372.7943 898.08594 337.21875 C 898.53588 335.20764 898.98827 333.1979 899.44141 331.1875 C 900.26153 327.53732 901.07183 323.88399 901.87695 320.23047 C 902.11326 319.1809 902.34832 318.13215 902.5918 317.05078 C 905.58788 303.25827 905.58915 303.25743 902.16602 297.875 C 898.01032 291.84103 892.95379 288.87272 886.72852 288.95898 z M 269.16602 767 C 267.06836 768.55469 267.06835 768.55469 265.10352 770.875 C 261.43492 774.86914 257.69387 777.97864 253.22852 781 C 252.37665 781.5779 252.37689 781.57839 251.50781 782.16797 C 249.43601 783.55334 247.39724 784.88439 245.16602 786 L 245.16602 788 C 254.63112 797.01564 266.79238 801.32828 279.66211 801.25781 C 280.48353 801.26181 281.30603 801.26398 282.15234 801.26758 C 284.89859 801.27658 287.64437 801.27204 290.39062 801.26758 C 292.38197 801.27158 294.37194 801.27555 296.36328 801.28125 C 301.83095 801.29345 307.2999 801.29302 312.76758 801.29102 C 318.66614 801.29061 324.56434 801.303 330.46289 801.3125 C 342.01728 801.3291 353.5706 801.33484 365.125 801.33594 C 374.51639 801.33686 383.90939 801.3393 393.30078 801.3457 C 396.00533 801.3477 398.70952 801.35056 401.41406 801.35156 C 402.08644 801.352 402.75841 801.35144 403.45117 801.35156 C 422.36031 801.36386 441.27054 801.37199 460.17969 801.37109 L 462.33789 801.37109 C 465.95013 801.37092 469.56354 801.37129 473.17578 801.37109 L 475.34961 801.37109 C 476.80035 801.37101 478.25044 801.37117 479.70117 801.37109 C 502.27249 801.37009 524.84472 801.38481 547.41602 801.41211 C 572.7819 801.44281 598.14777 801.45883 623.51367 801.45703 C 626.21916 801.45689 628.92342 801.45709 631.62891 801.45703 C 632.62813 801.45699 632.62903 801.45706 633.64844 801.45703 C 643.69821 801.45697 653.74712 801.46828 663.79688 801.48438 C 675.2288 801.50257 686.66181 801.50774 698.09375 801.49414 C 703.92597 801.48714 709.75764 801.48621 715.58984 801.50391 C 720.93115 801.51961 726.27199 801.51595 731.61328 801.49805 C 733.54324 801.49505 735.47243 801.49865 737.40234 801.50977 C 753.05862 801.59417 763.74303 799.48069 775.66602 788.75 C 777.16601 787 777.16602 787 777.16602 785 C 776.13864 784.45473 775.11124 783.90945 774.05273 783.34766 C 770.2104 781.15134 767.15296 778.49637 763.97852 775.4375 C 762.05347 773.61029 760.11577 771.80126 758.16602 770 L 756.30273 768.09766 C 753.47588 766.64547 751.43925 767.298 748.38281 767.73047 C 744.86817 768.15769 741.37809 768.1363 737.8418 768.125 C 736.63781 768.127 736.63847 768.12691 735.41016 768.12891 C 732.72783 768.13291 730.04561 768.13013 727.36328 768.12695 C 725.41787 768.12795 723.47275 768.13081 721.52734 768.13281 C 716.18686 768.13681 710.84634 768.13385 705.50586 768.13086 C 699.74442 768.12886 693.98215 768.13177 688.2207 768.13477 C 676.9367 768.13877 665.65315 768.13718 654.36914 768.13477 C 645.20035 768.13277 636.03208 768.13277 626.86328 768.13477 C 625.5589 768.13492 624.25406 768.13461 622.91016 768.13477 C 620.26046 768.13509 617.61063 768.13639 614.96094 768.13672 C 590.81887 768.13972 566.67722 768.13576 542.53516 768.13086 C 520.49426 768.12586 498.45301 768.1264 476.41211 768.13086 C 451.648 768.13586 426.88326 768.13777 402.11914 768.13477 C 399.47974 768.13445 396.84057 768.13508 394.20117 768.13477 C 392.90248 768.13461 391.60367 768.13493 390.26562 768.13477 C 381.10466 768.1339 371.94416 768.13431 362.7832 768.13672 C 351.6238 768.13972 340.46408 768.13977 329.30469 768.13477 C 323.60884 768.13177 317.91264 768.12916 312.2168 768.13281 C 307.006 768.13581 301.79477 768.13391 296.58398 768.12891 C 294.69584 768.12791 292.80807 768.12831 290.91992 768.13086 C 288.35894 768.13386 285.79731 768.13189 283.23633 768.12695 C 282.49873 768.12895 281.7619 768.13081 281.00195 768.13281 C 277.84075 768.12131 274.90992 767.95552 271.79297 767.39648 L 269.16602 767 z " />
</svg>
