<?xml version="1.0" encoding="UTF-8" standalone="no"?>
<svg version="1.1" width="1024" height="1024" id="svg12" xmlns="http://www.w3.org/2000/svg">
  <defs
     id="defs12" />
  <path
     id="path2"
     d="M -40.724121 -12.271484 C -55.145922 -11.721142 -69.304115 -6.4350515 -79.864746 3.8691406 L -81.657715 5.7675781 L -83.919434 8.0410156 C -94.78586 19.428313 -101.21203 33.213311 -100.99365 49.111328 C -100.41904 53.654801 -99.436925 56.112333 -95.907715 59.080078 C -91.755207 61.236188 -88.996689 61.455512 -84.532715 60.142578 C -79.815122 56.68301 -78.490421 52.581927 -77.220215 47.080078 C -76.485185 43.894949 -75.6926 40.863199 -74.571777 37.791016 C -69.526834 26.126591 -62.130857 19.232503 -50.345215 14.392578 C -39.670037 10.834186 -28.83003 12.318972 -18.806152 17.138672 C -8.6287219 22.984386 -2.5539348 31.58226 0.72509766 42.783203 C 3.1920099 54.711817 0.3016795 65.004473 -6.1225586 75.060547 C -12.058694 83.399071 -18.805928 87.374358 -28.782715 89.455078 C -34.097122 90.453333 -38.761006 91.45277 -43.657715 93.767578 C -47.036312 96.470149 -48.506667 97.855603 -49.226074 102.18164 L -49.145996 106.03711 C -49.123988 108.15557 -49.095626 110.27093 -49.034668 112.38867 C -48.991279 113.85783 -48.958184 115.32729 -48.933105 116.79688 C -48.885798 120.19889 -48.823233 123.6006 -48.737793 127.00195 L -48.657715 129.76758 C -111.05578 129.31056 -174.7963 152.79094 -223.61475 191.34961 L -226.65771 193.76758 C -233.02682 198.69529 -238.96373 203.89301 -244.65771 209.58008 C -293.76801 259.21736 -326.13912 321.71316 -325.91357 392.53516 C -325.90794 394.18543 -325.90619 395.83604 -325.90771 397.48633 C -325.91636 402.08615 -325.9176 406.68532 -325.90967 411.28516 C -325.90094 416.29412 -325.90056 421.30353 -325.90381 426.3125 C -325.91057 436.14199 -325.90904 445.97129 -325.8999 455.80078 C -325.88911 467.33508 -325.8859 478.86999 -325.88623 490.4043 C -325.88709 510.95715 -325.88109 531.50965 -325.8667 552.0625 C -325.85258 572.06906 -325.84286 592.07546 -325.84326 612.08203 L -325.84326 615.83008 L -325.84326 619.57227 C -325.84401 642.46768 -325.8384 665.36434 -325.82959 688.25977 C -325.82642 696.33156 -325.82616 704.40281 -325.82568 712.47461 C -325.82513 722.39758 -325.82228 732.32117 -325.81396 742.24414 C -325.80922 747.30516 -325.80204 752.36477 -325.80225 757.42578 C -325.80342 762.12119 -325.80447 766.81828 -325.79834 771.51367 C -325.79564 773.21878 -325.79239 774.92379 -325.79053 776.62891 C -325.79295 778.9896 -325.79715 781.35024 -325.79248 783.71094 L -325.78662 785.83398 C -325.78019 797.25211 -321.56209 806.47191 -313.65771 814.76758 C -302.31946 824.4126 -290.18754 825.35064 -275.94678 825.27344 C -273.89695 825.26159 -271.84624 825.25738 -269.79639 825.25977 C -264.12556 825.27533 -258.45548 825.2754 -252.78467 825.25781 C -246.592 825.23844 -240.39924 825.23568 -234.20654 825.24023 C -222.77398 825.2494 -211.34025 825.24487 -199.90771 825.22461 C -188.53641 825.20413 -177.16576 825.18788 -165.79443 825.18555 L -163.65186 825.18555 C -160.78116 825.18502 -157.91121 825.18596 -155.04053 825.18555 C -128.89524 825.18225 -102.75023 825.16126 -76.60498 825.12695 C -51.875722 825.09445 -27.14676 825.07039 -2.4174805 825.0625 L -0.10498047 825.0625 C 3.7386902 825.06127 7.5825985 825.05979 11.42627 825.05859 L 13.725098 825.05859 C 15.254901 825.05812 16.785138 825.05712 18.314941 825.05664 C 42.681573 825.04921 67.047925 825.03547 91.414551 825.01758 C 98.532752 825.01232 105.64986 825.00616 112.76807 825.00195 C 127.17233 824.99351 141.57669 824.98368 155.98096 824.96484 C 162.23813 824.95611 168.49527 824.94531 174.75244 824.94141 C 180.55978 824.93876 186.36699 824.93581 192.17432 824.92578 C 194.28181 824.92166 196.39103 824.91736 198.49854 824.91406 C 201.41968 824.91447 204.33912 824.9149 207.26025 824.9082 L 209.88525 824.90234 C 221.48022 824.92364 229.74455 821.96338 238.27197 813.89648 C 248.55545 803.32197 250.94138 792.43612 250.85791 778.02734 C 250.84746 776.35286 250.84634 774.67842 250.8501 773.00391 C 250.86943 768.36443 250.87371 763.72543 250.85986 759.08594 C 250.84456 754.0212 250.84549 748.95731 250.854 743.89258 C 250.87144 733.95964 250.87067 724.02669 250.85596 714.09375 C 250.83844 702.4141 250.83684 690.73435 250.84033 679.05469 C 250.84699 658.22899 250.83737 637.40381 250.81299 616.57812 C 250.78909 596.32729 250.7757 576.07507 250.78564 555.82422 C 250.79714 533.67787 250.80324 511.53307 250.78955 489.38672 C 250.78801 487.0192 250.78718 484.65072 250.78564 482.2832 L 250.78174 478.75195 C 250.77641 470.59038 250.77573 462.42916 250.77979 454.26758 C 250.78504 444.22628 250.78517 434.18582 250.76807 424.14453 C 250.75786 419.00355 250.74376 413.86171 250.74854 408.7207 C 250.77746 390.26628 251.40812 371.72985 248.09619 353.49805 L 247.34229 349.76758 C 246.81701 347.007 246.29357 344.26017 245.65674 341.52344 L 245.09229 339.26758 C 241.06142 322.86921 235.5654 307.12097 228.33643 291.86133 L 227.34229 289.76758 C 219.16437 272.13234 209.02582 255.58269 197.07666 240.24414 C 196.16404 239.0862 195.25247 237.92743 194.34229 236.76758 C 182.64829 221.19046 168.04317 207.26985 152.91846 195.03516 L 151.34229 193.76758 C 135.69958 181.00963 118.81334 169.77322 100.67041 160.90234 L 98.342285 159.76758 C 62.556833 141.89437 20.155492 129.73908 -19.931152 129.70117 L -25.657715 129.76758 L -25.657715 112.76758 L -21.970215 112.64258 C -8.5595842 111.10331 2.5399697 102.42401 11.092285 92.517578 C 22.405782 77.991608 27.067454 60.964007 25.342285 42.767578 C 22.733291 25.528145 13.483002 10.837541 0.00048828125 0 C -11.616264 -8.6364311 -26.302321 -12.821828 -40.724121 -12.271484 z M -14.770996 152.72852 C 39.787185 154.02708 95.812434 177.41949 137.34229 211.76758 L 139.1001 213.21875 C 152.71628 224.54328 165.4997 236.72885 176.34229 250.76758 L 178.68604 253.66602 C 206.99418 289.23035 228.39311 337.12329 228.479 383.19531 L 228.48682 385.33398 C 228.49445 387.68691 228.49598 390.03964 228.49658 392.39258 C 228.5006 394.10145 228.50543 395.81067 228.51025 397.51953 C 228.52217 402.20626 228.52717 406.89334 228.53174 411.58008 C 228.53771 416.63806 228.54836 421.69591 228.55908 426.75391 C 228.58356 438.95978 228.5989 451.1652 228.61182 463.37109 C 228.61554 466.81837 228.61947 470.26561 228.62354 473.71289 C 228.64877 495.12401 228.67163 516.53614 228.68408 537.94727 C 228.68701 542.90214 228.68888 547.85565 228.69189 552.81055 L 228.69385 556.54297 C 228.70652 576.51214 228.74011 596.48204 228.78174 616.45117 C 228.82414 636.95435 228.84877 657.45772 228.854 677.96094 C 228.85741 689.47249 228.86797 700.9846 228.90088 712.49609 C 228.92885 722.29437 228.94139 732.09229 228.93018 741.89062 C 228.92499 746.89015 228.92694 751.88921 228.95166 756.88867 C 228.97409 761.46568 228.97261 766.04215 228.95361 770.61914 C 228.9508 772.27449 228.95817 773.92871 228.97314 775.58398 C 229.11162 791.8894 229.11084 791.89012 223.34229 797.76758 C 217.58018 802.26201 213.19641 802.91412 206.08838 802.89844 L 203.49268 802.9043 C 200.59885 802.90999 197.70683 802.90962 194.81299 802.9082 C 192.72753 802.91079 190.64062 802.91456 188.55518 802.91797 C 182.80435 802.92606 177.05405 802.92699 171.30322 802.92773 C 165.10885 802.92957 158.91361 802.93662 152.71924 802.94336 C 138.45873 802.95767 124.19849 802.96417 109.93799 802.96875 C 102.89344 802.97109 95.849732 802.97476 88.805176 802.97852 C 64.698384 802.99135 40.591661 803.00241 16.484863 803.00586 L 11.943848 803.00586 L 7.3911133 803.00586 C 4.3470393 803.0063 1.3023746 803.00736 -1.7416992 803.00781 L -4.0288086 803.00781 C -28.508677 803.01145 -52.988404 803.02748 -77.468262 803.05078 C -103.34039 803.07537 -129.21331 803.08864 -155.08545 803.08984 C -157.92434 803.09001 -160.76221 803.09155 -163.60107 803.0918 L -165.72021 803.0918 C -176.98005 803.09295 -188.23968 803.10265 -199.49951 803.11719 C -210.8122 803.13154 -222.1243 803.13474 -233.43701 803.12695 C -239.56828 803.12303 -245.70029 803.12469 -251.83154 803.13867 C -257.44042 803.15135 -263.04885 803.15086 -268.65771 803.13867 C -270.69069 803.13671 -272.72241 803.13977 -274.75537 803.14844 C -277.51195 803.15945 -280.26835 803.15072 -283.0249 803.13867 L -285.43506 803.16211 C -290.90305 803.11026 -295.11968 802.08255 -299.30225 798.26758 C -303.16512 793.30655 -303.78353 790.22192 -303.79248 784.02148 L -303.79834 781.92188 C -303.80504 779.58237 -303.80461 777.24185 -303.8042 774.90234 C -303.8075 773.21475 -303.81181 771.52743 -303.81592 769.83984 C -303.82596 765.18798 -303.82889 760.53663 -303.83154 755.88477 C -303.83544 750.87201 -303.84624 745.85846 -303.85498 740.8457 C -303.87476 728.72515 -303.88515 716.60494 -303.89404 704.48438 C -303.89842 698.77106 -303.90247 693.05705 -303.90771 687.34375 C -303.92473 668.33667 -303.93954 649.32935 -303.94678 630.32227 C -303.94869 625.38697 -303.95069 620.45286 -303.95264 615.51758 L -303.95459 611.80078 C -303.96287 591.97603 -303.98847 572.1509 -304.021 552.32617 C -304.05416 531.95189 -304.07249 511.57743 -304.07568 491.20312 C -304.07784 479.77256 -304.08519 468.34068 -304.11084 456.91016 C -304.13267 447.16388 -304.14003 437.41817 -304.13037 427.67188 C -304.12586 422.70868 -304.12835 417.74637 -304.14795 412.7832 C -304.39333 346.95313 -285.587 289.57495 -241.65771 239.76758 L -240.23975 238.1582 C -235.31985 232.60782 -230.35293 227.22537 -224.65381 222.45508 C -222.41907 220.56582 -220.29862 218.57493 -218.15771 216.58008 C -205.17284 204.93506 -190.66835 195.57259 -175.65771 186.76758 L -173.49951 185.49805 C -145.81223 169.45865 -114.18872 159.59623 -82.657715 154.76758 L -80.39209 154.41602 C -69.753674 152.82932 -59.410466 152.58686 -48.657715 152.76758 L -48.657715 169.76758 L -53.470215 170.70508 C -66.678982 174.02685 -79.745003 180.38455 -89.657715 189.76758 L -91.64209 191.51758 C -97.859957 197.28775 -102.5844 204.26509 -107.43506 211.17773 C -109.77034 214.21393 -112.45924 216.45276 -115.54443 218.70117 L -117.86279 220.39844 L -120.34521 222.20508 C -125.84151 226.2238 -131.32411 230.25521 -136.74365 234.37695 C -163.06784 254.36265 -191.23816 271.76209 -220.60693 286.89258 C -237.95034 295.83399 -250.15354 304.9869 -256.41943 324.08984 C -267.6858 360.77703 -269.93273 400.68424 -272.65771 438.76758 L -272.84521 441.38867 C -277.15507 502.47156 -278.52159 563.86196 -279.34521 625.08008 L -279.37451 627.2168 C -279.48896 635.73081 -279.57035 644.24511 -279.62451 652.75977 C -279.65033 656.3453 -279.70025 659.93037 -279.75146 663.51562 C -279.79179 666.54766 -279.81861 669.57913 -279.84326 672.61133 C -279.85765 674.05852 -279.87664 675.5061 -279.90186 676.95312 C -280.37445 687.37545 -280.37468 687.37478 -276.65771 696.76758 C -271.29956 701.04806 -264.35926 700.24431 -257.82178 700.2793 L -254.08154 700.33398 C -250.14887 700.38804 -246.21563 700.42169 -242.28271 700.45508 C -239.61211 700.48662 -236.94155 700.52274 -234.271 700.55859 C -227.73336 700.64348 -221.19567 700.71185 -214.65771 700.76758 L -214.70459 704.11328 C -214.75926 708.24504 -214.79347 712.37582 -214.82178 716.50781 C -214.83678 718.28944 -214.85817 720.07202 -214.88428 721.85352 C -214.92105 724.42789 -214.93752 727.00157 -214.95068 729.57617 L -214.99756 731.95508 C -215.00004 740.25294 -212.66134 747.47275 -207.47021 753.97461 C -202.30865 759.08055 -195.75433 761.87025 -188.53271 761.91406 L -186.06592 761.93555 L -183.38623 761.94531 L -180.54053 761.96484 C -177.4299 761.98456 -174.31916 761.99589 -171.2085 762.00586 L -167.97412 762.01758 C -162.31357 762.03845 -156.65228 762.05313 -150.9917 762.0625 C -145.1843 762.07351 -139.3771 762.1086 -133.56982 762.14844 C -129.07324 762.17478 -124.57821 762.18198 -120.08154 762.18555 C -117.94365 762.19038 -115.8053 762.202 -113.66748 762.2207 C -97.996261 762.34919 -82.317108 761.70963 -68.220215 754.01758 L -66.233887 752.97461 C -56.305199 747.59631 -48.92506 740.33392 -41.657715 731.76758 L -39.720215 733.70508 L -38.325684 735.08398 C -37.099398 736.32175 -35.896924 737.58326 -34.708496 738.85742 C -20.789864 753.47575 -1.7223802 761.59319 18.398926 762.22461 C 23.493776 762.30402 28.5869 762.293 33.682129 762.26367 C 35.902139 762.26383 38.122276 762.26482 40.342285 762.26758 C 44.963933 762.26896 49.585935 762.25728 54.20752 762.23438 C 60.114008 762.20588 66.01975 762.20801 71.92627 762.2207 C 76.49804 762.22767 81.069353 762.21945 85.641113 762.20703 C 87.819079 762.20254 89.996342 762.2031 92.174316 762.20703 C 95.21724 762.20996 98.260392 762.19359 101.30322 762.17188 L 103.99072 762.18555 C 113.1448 762.07749 121.14307 759.64821 127.93604 753.27148 C 134.36653 746.44696 135.81531 738.70205 135.63525 729.57617 L 135.62158 727.05859 C 135.60496 724.44033 135.56817 721.82311 135.52979 719.20508 C 135.51472 717.41538 135.50104 715.62566 135.48877 713.83594 C 135.45594 709.47952 135.40428 705.12366 135.34229 700.76758 L 137.58057 700.75 C 144.55433 700.69199 151.52705 700.61905 158.50049 700.53125 C 162.08524 700.48661 165.66946 700.44867 169.25439 700.42188 C 172.71703 700.39578 176.1807 700.3549 179.64307 700.30469 C 181.60043 700.28 183.55664 700.26953 185.51416 700.25977 L 189.15283 700.19922 L 192.34229 700.16602 C 196.8076 699.57241 200.16005 697.9498 203.34229 694.76758 C 204.8326 690.87065 204.48924 686.6464 204.48682 682.53516 L 204.49854 680.00781 C 204.50796 677.2232 204.50887 674.43893 204.51025 671.6543 C 204.51428 669.67979 204.51754 667.70498 204.52197 665.73047 C 204.53357 659.30526 204.53285 652.8803 204.52979 646.45508 L 204.52979 643.13672 C 204.52431 603.66558 203.98256 564.25103 202.42236 524.81055 C 202.34098 522.75332 202.26061 520.69594 202.18018 518.63867 C 201.02996 489.38198 199.5229 460.15475 197.34229 430.95508 L 197.10596 427.76953 C 195.07297 362.91263 195.07367 362.91169 171.34229 304.76758 L 169.97119 302.99023 C 164.2352 296.41991 155.925 292.79738 148.34229 288.76758 C 46.279963 234.3145 46.279611 234.31426 28.967285 207.01758 C 15.429723 186.89254 -2.496624 175.55785 -25.657715 169.76758 L -25.657715 152.76758 C -22.038261 152.65447 -18.408208 152.64194 -14.770996 152.72852 z M -36.269043 192.14648 C -27.384465 192.14811 -18.21655 194.51961 -9.1577148 199.76758 C 1.5719786 207.04403 9.4592894 216.69963 16.768066 227.25586 C 18.974705 230.39688 21.527863 232.90191 24.279785 235.58008 C 26.28172 238.00027 27.359786 239.60846 27.312988 242.79688 C 26.686506 247.49701 25.415135 251.97891 24.010254 256.49805 C 22.916581 260.20774 22.131853 263.98334 21.342285 267.76758 C 13.006382 265.26863 5.3048164 261.61544 -2.5327148 257.89258 C -3.8436822 257.27361 -5.1548862 256.65512 -6.4663086 256.03711 L -8.4135742 255.11914 L -10.337402 254.21289 L -12.237793 253.31641 C -16.104621 251.49453 -19.972567 249.67742 -23.853027 247.88477 L -26.39209 246.70898 C -32.381268 244.22114 -38.925023 243.53578 -45.151855 245.58984 L -47.813965 246.74414 L -50.987793 248.11914 C -59.434662 251.89176 -67.81901 255.80094 -76.206543 259.70312 C -78.667901 260.8472 -81.131694 261.98753 -83.595215 263.12695 L -85.870605 264.19141 C -89.107391 265.6865 -92.181381 266.98187 -95.657715 267.76758 C -96.695985 263.87619 -97.71024 259.97889 -98.720215 256.08008 L -99.612793 252.73828 L -100.44287 249.50586 L -101.22021 246.53906 C -101.68922 243.56713 -101.5274 241.63492 -100.65771 238.76758 C -98.65382 236.04102 -98.6538 236.04101 -96.095215 233.14258 C -92.726676 229.25964 -89.560156 225.35088 -86.595215 221.14258 C -73.98789 203.60855 -55.815115 192.14291 -36.269043 192.14648 z M -121.65771 252.76758 L -121.01514 255.32227 C -118.9895 263.36627 -116.95957 271.40886 -114.92725 279.45117 C -113.88316 283.58327 -112.84035 287.7165 -111.80029 291.84961 C -104.72805 319.94748 -96.878706 347.65371 -88.095215 375.26758 L -87.429199 377.36328 C -71.295619 429.50781 -71.295771 429.50723 -50.353027 479.83203 C -48.198211 485.82815 -51.386512 492.23768 -53.657715 497.76758 C -57.060371 494.62666 -59.541528 491.13588 -62.032715 487.26758 C -65.988087 481.23062 -70.061485 475.29112 -74.220215 469.39258 C -81.822375 458.59006 -89.234934 447.66128 -96.647949 436.72852 C -103.03546 427.32023 -109.46878 417.94335 -115.91357 408.57422 C -116.8138 407.26361 -117.71133 405.95049 -118.60693 404.63672 C -120.96917 401.17921 -123.37838 397.76788 -125.85693 394.39258 L -127.43506 392.20508 C -128.43611 390.81936 -129.45053 389.44531 -130.48193 388.08203 C -131.83301 386.1941 -131.83351 386.19334 -133.65771 382.76758 C -132.61825 379.2585 -130.87317 376.26491 -128.97803 373.15039 L -127.41162 370.56055 L -125.78271 367.89258 C -124.21149 365.30444 -122.64162 362.71479 -121.07959 360.12109 C -120.19274 358.65338 -119.29778 357.19202 -118.38818 355.73828 C -116.37547 352.43415 -115.06421 350.04683 -115.53271 346.14258 L -115.7124 343.97852 C -118.66699 337.0682 -128.36346 333.15821 -134.47021 329.51758 C -136.56074 328.26352 -138.65063 327.00836 -140.73975 325.75195 L -143.52881 324.08789 C -145.65844 322.76856 -145.65773 322.76758 -146.65771 321.76758 C -145.80918 311.16219 -143.55726 300.73105 -141.48584 290.31055 C -141.01675 287.908 -140.56618 285.50292 -140.13232 283.09375 C -136.03976 260.44398 -136.03973 260.44366 -128.8999 255.14648 C -124.49041 252.76759 -124.49038 252.76758 -121.65771 252.76758 z M 47.342285 252.76758 L 49.217285 253.70898 C 50.585501 254.39088 51.960169 255.05962 53.342285 255.71289 C 57.011957 257.87743 59.000415 259.80185 60.439941 263.87891 L 61.29541 267.64648 L 61.781738 269.74414 C 62.318308 272.08165 62.831607 274.42428 63.342285 276.76758 C 63.728095 278.49908 64.11417 280.23151 64.500488 281.96289 C 65.517436 286.55596 66.508112 291.15297 67.48877 295.75391 C 68.100788 298.62194 68.719611 301.48886 69.338379 304.35547 C 69.730679 306.18677 70.122622 308.01815 70.51416 309.84961 L 71.072754 312.43359 L 71.580566 314.82617 L 72.027832 316.91992 C 72.342582 318.7675 72.342285 318.76758 72.342285 321.76758 C 70.126719 323.42163 70.1267 323.42163 67.049316 325.20117 L 63.699707 327.16797 C 62.518429 327.84763 61.336783 328.52667 60.154785 329.20508 C 57.866369 330.53163 55.582542 331.86565 53.299316 333.20117 L 50.205566 334.98438 C 44.984694 338.10104 44.983935 338.10083 41.342285 342.76758 C 40.082644 350.49615 42.84058 355.4263 46.967285 361.76758 L 48.549316 364.30664 C 52.035049 369.8666 55.678563 375.32376 59.342285 380.76758 C 55.990493 387.06407 52.292537 392.97956 48.217285 398.83008 L 46.492676 401.32812 C 45.330566 403.01104 44.167814 404.69238 43.002441 406.37305 C 40.606033 409.83083 38.224047 413.29968 35.842285 416.76758 L 34.496582 418.72266 C 32.101312 422.20324 29.712185 425.68779 27.330566 429.17773 C 21.274108 438.0512 15.175674 446.89327 9.0297852 455.70508 C 4.3589904 462.40341 -0.27060408 469.11761 -4.7709961 475.93164 C -8.9849417 482.26564 -13.329745 488.5112 -17.657715 494.76758 L -19.649902 497.65039 C -21.796168 500.7539 -23.945018 503.8543 -26.095215 506.95508 L -28.175293 509.96289 L -30.153809 512.81055 L -31.909668 515.3418 C -33.745048 517.88763 -35.677903 520.33291 -37.657715 522.76758 C -36.060463 514.5 -33.406264 506.6458 -30.657715 498.70508 L -29.92334 496.57031 C -26.39338 486.33496 -22.534119 476.30316 -18.284668 466.3418 C -13.70926 455.61462 -9.601794 444.74144 -5.6577148 433.76758 L -4.4038086 430.2832 C 11.637406 385.35584 25.419929 339.63169 36.945801 293.34961 C 38.933061 285.37766 40.996164 277.42488 43.053223 269.4707 C 43.983166 265.87015 44.907312 262.26829 45.830566 258.66602 L 46.723145 255.1875 L 47.342285 252.76758 z M -37.308105 267.39648 C -32.543353 267.5606 -28.237535 269.7509 -22.782715 272.64258 C -13.198198 277.6007 -3.455599 282.03229 6.480957 286.23828 L 9.5493164 287.55273 L 12.283691 288.70508 C 14.343011 289.76733 14.342288 289.76758 15.342285 291.76758 C 14.729634 294.58862 14.040366 297.33191 13.271973 300.11133 L 12.568848 302.71484 C 11.793939 305.56805 11.006266 308.41822 10.217285 311.26758 L 9.4008789 314.24023 C -3.6647289 361.71413 -18.820374 408.86079 -36.657715 454.76758 C -40.132017 450.91885 -41.462028 446.30014 -43.14209 441.49414 L -44.149902 438.66211 C -45.244471 435.57482 -46.326526 432.48458 -47.407715 429.39258 L -48.544434 426.16211 C -60.960754 390.82119 -72.43979 355.28101 -82.433105 319.17773 C -83.525025 315.23471 -84.642364 311.29903 -85.76709 307.36523 C -86.335462 305.35372 -86.903246 303.34201 -87.470215 301.33008 L -88.224121 298.71289 C -89.772403 293.11241 -89.772647 293.11236 -88.657715 289.76758 C -86.414801 288.39234 -86.414786 288.39233 -83.427246 286.98242 L -80.083496 285.38672 L -76.470215 283.70508 C -75.245691 283.12926 -74.022379 282.55341 -72.79834 281.97656 C -70.302907 280.80289 -67.802822 279.63533 -65.302246 278.47266 C -61.924333 276.89852 -58.569586 275.28031 -55.216309 273.6543 C -53.280626 272.73266 -51.344444 271.81202 -49.407715 270.89258 L -46.728027 269.57617 C -43.192333 267.9286 -40.166958 267.298 -37.308105 267.39648 z M -160.65771 278.76758 C -161.2174 281.62232 -161.77998 284.47644 -162.34521 287.33008 L -162.87646 290.01172 C -163.87486 295.01113 -164.9195 299.99639 -166.03662 304.9707 L -166.72803 308.05859 C -167.17332 310.0361 -167.62327 312.01178 -168.08154 313.98633 C -169.7857 321.31264 -169.78643 321.31294 -169.65771 328.76758 C -166.30569 333.97822 -162.05944 336.73801 -156.78271 339.83008 C -155.40896 340.652 -154.03654 341.47622 -152.66553 342.30273 L -150.65381 343.51367 C -147.55092 345.46114 -144.6127 347.60341 -141.65771 349.76758 C -142.28937 352.90776 -143.36751 355.20681 -145.05615 357.91992 L -146.50928 360.27344 L -148.03271 362.70508 C -149.01977 364.29748 -150.00675 365.88993 -150.99365 367.48242 C -152.473 369.86765 -153.96163 372.2444 -155.47021 374.61133 C -157.37645 378.07265 -157.51011 381.00699 -156.65771 384.76758 C -154.70715 389.01882 -152.21812 392.86031 -149.65771 396.76758 L -148.53857 398.49805 C -143.43256 406.38581 -138.05478 414.07564 -132.61084 421.73242 C -125.82265 431.30992 -119.27731 441.05478 -112.69092 450.77148 C -109.77372 455.06918 -106.8428 459.35709 -103.90771 463.64258 L -102.31201 465.97266 C -99.777893 469.67355 -97.242037 473.37364 -94.70459 477.07227 C -87.5914 487.44696 -80.524259 497.85262 -73.470215 508.26758 L -72.040527 510.37891 C -70.69014 512.37292 -69.339738 514.36703 -67.989746 516.36133 L -66.753418 518.18555 C -62.97013 523.77641 -61.385863 526.57547 -61.970215 533.33008 L -62.116699 535.34766 C -62.332969 538.21937 -62.578802 541.08411 -62.907715 543.94531 C -63.674117 550.70754 -63.819056 557.39813 -63.835449 564.19922 L -63.85498 567.8457 C -63.874579 571.80028 -63.886012 575.75439 -63.895996 579.70898 C -63.900052 581.08242 -63.903538 582.45663 -63.907715 583.83008 C -63.92672 590.28801 -63.942317 596.74517 -63.950684 603.20312 C -63.960437 610.60437 -63.986397 618.00512 -64.026855 625.40625 C -64.057221 631.16291 -64.072391 636.91905 -64.075684 642.67578 C -64.078011 646.09742 -64.085356 649.51986 -64.11084 652.94141 C -64.225646 670.81268 -63.752632 686.83446 -56.032715 703.26758 C -53.358301 709.65654 -53.358295 709.65658 -54.399902 713.52148 C -55.956838 715.90529 -57.63285 717.77176 -59.657715 719.76758 C -60.576276 720.97447 -61.493031 722.18275 -62.407715 723.39258 C -72.909333 735.17622 -88.54864 740.75291 -103.95264 741.94531 C -109.95811 742.23983 -115.96666 742.23907 -121.97803 742.23633 C -123.89517 742.24345 -125.81284 742.25152 -127.72998 742.25977 C -131.71523 742.27311 -135.69979 742.27348 -139.68506 742.26758 C -144.78841 742.26164 -149.89048 742.29378 -154.99365 742.33398 C -158.9382 742.3598 -162.88302 742.36301 -166.82764 742.35938 C -168.71029 742.36105 -170.59351 742.37086 -172.47607 742.38867 C -175.09882 742.4108 -177.71857 742.40045 -180.34131 742.38281 L -182.68115 742.42383 C -186.69452 742.36111 -188.46581 741.92084 -191.64014 739.38086 C -193.86093 736.50354 -194.26544 735.37229 -194.18115 731.80273 L -194.146 728.87109 L -194.03271 725.83008 L -193.98975 722.98828 C -193.89254 718.01437 -193.67667 713.04977 -193.41748 708.08203 C -192.71594 694.42009 -192.5042 680.79532 -192.49756 667.11719 C -192.49292 664.84066 -192.4873 662.56364 -192.48193 660.28711 C -192.46896 654.16832 -192.46297 648.05045 -192.4585 641.93164 C -192.45554 638.08554 -192.45122 634.23866 -192.44678 630.39258 C -192.4347 619.67056 -192.42283 608.94859 -192.41943 598.22656 L -192.41943 596.16016 L -192.41943 594.08984 C -192.41899 592.70605 -192.41793 591.32131 -192.41748 589.9375 L -192.41748 587.85742 C -192.41354 576.77824 -192.3959 565.70025 -192.37256 554.62109 C -192.34861 543.15063 -192.33687 531.67948 -192.33545 520.20898 C -192.33442 513.8074 -192.32824 507.40546 -192.31006 501.00391 C -192.21074 466.61001 -192.20968 466.61023 -194.03271 432.27734 L -194.22021 429.99219 C -197.41306 392.05174 -205.61663 349.36534 -229.65771 318.76758 C -228.18737 314.1008 -224.28756 312.40394 -220.28271 310.14258 L -217.99756 308.82617 C -211.61317 305.19684 -205.07619 301.90941 -198.48584 298.67383 C -191.83438 295.39677 -185.29326 291.94101 -178.78271 288.39258 L -175.9917 286.87695 C -172.28278 284.84418 -168.63581 282.81506 -165.1499 280.41602 C -162.65771 278.76758 -162.65771 278.76758 -160.65771 278.76758 z M 86.342285 278.76758 L 88.262207 279.83008 C 95.219433 283.65357 102.24744 287.32274 109.31104 290.94531 C 114.39361 293.5569 119.46303 296.19351 124.53369 298.82812 C 126.2539 299.72079 127.9758 300.6107 129.69775 301.5 C 132.69202 303.05246 135.6748 304.62542 138.65479 306.20508 L 141.28955 307.55859 C 153.83581 314.287 159.16649 323.42209 163.26221 336.6875 C 171.47332 364.8372 173.41415 395.37369 175.83447 424.52148 L 176.02783 426.82812 C 177.53052 444.99674 178.51727 463.18507 179.40479 481.39258 C 179.48958 483.11388 179.5738 484.83534 179.65869 486.55664 C 182.80719 550.66627 183.60211 614.58678 183.34229 678.76758 L 134.34229 678.76758 L 134.04541 665.81836 C 133.9563 662.40505 133.86368 658.99125 133.76807 655.57812 C 133.6683 651.97855 133.57496 648.37944 133.49854 644.7793 C 133.42463 641.30982 133.33275 637.84168 133.22705 634.37305 C 133.1721 632.40975 133.13536 630.44618 133.1001 628.48242 L 132.979 624.84375 L 132.89893 621.64648 C 132.20957 618.0829 130.82665 616.3683 128.34229 613.76758 C 125.14056 612.16672 121.8165 612.26841 118.34229 612.76758 C 115.53226 614.56122 113.83286 615.78639 112.34229 618.76758 C 112.24926 621.22086 112.21848 623.64078 112.23877 626.09375 L 112.24854 628.37695 C 112.31802 637.77125 112.66142 647.15721 112.99854 656.54492 C 113.06611 658.49206 113.13275 660.43956 113.19971 662.38672 C 113.37481 667.461 113.55363 672.53523 113.73291 677.60938 C 114.0204 685.75175 114.30514 693.89452 114.58643 702.03711 C 114.68458 704.85871 114.78464 707.68045 114.88525 710.50195 C 115.02938 714.58582 115.16182 718.66925 115.28174 722.75391 C 115.33426 724.52841 115.39431 726.30187 115.45361 728.07617 L 115.5083 730.75781 L 115.56104 732.88672 C 115.15117 736.41585 113.99142 738.22808 111.26416 740.49219 C 107.29249 742.22529 103.8718 742.19549 99.58252 742.17188 L 96.939941 742.19336 C 94.057037 742.21165 91.174448 742.20685 88.291504 742.20117 C 86.274318 742.20574 84.257899 742.21079 82.240723 742.2168 C 78.006471 742.22574 73.771848 742.22283 69.537598 742.21289 C 64.152668 742.20148 58.768139 742.22263 53.383301 742.25195 C 49.210973 742.27045 45.038075 742.26935 40.865723 742.26367 C 38.883316 742.26352 36.900824 742.26874 34.918457 742.28125 C 14.560872 742.39151 -3.0415444 739.71245 -18.384277 725.0957 C -39.084915 703.89711 -42.944884 676.432 -43.274902 648.12695 L -43.313965 644.7168 C -43.378786 638.76447 -43.42904 632.8119 -43.468262 626.85938 C -43.503892 621.97062 -43.573579 617.08511 -43.67334 612.19727 C -43.794513 606.24916 -43.855213 600.30278 -43.874512 594.35352 C -43.891482 592.10654 -43.928565 589.85955 -43.987793 587.61328 C -44.368311 572.36696 -42.246756 562.97376 -32.056152 551.37891 C -30.225198 549.26892 -28.623449 547.02405 -27.028809 544.73242 C -26.051448 543.38961 -25.073593 542.04715 -24.095215 540.70508 C -19.603024 534.51242 -15.205853 528.26528 -10.89209 521.94727 C -7.188501 516.52498 -3.4299203 511.1423 0.34228516 505.76758 C 6.395643 497.13704 12.385155 488.46472 18.342285 479.76758 C 24.556004 470.70038 30.806255 461.65983 37.092285 452.64258 C 43.12646 443.98361 49.105896 435.29002 55.037598 426.56055 C 57.800342 422.49486 60.567081 418.43215 63.373535 414.39648 C 76.892499 397.58617 76.892066 397.58654 81.930176 378.24609 C 80.908388 373.94273 78.546831 370.65864 76.029785 367.08008 L 74.555176 364.89844 C 72.76275 362.25202 70.950694 359.62149 69.094238 357.01953 C 66.341804 353.08559 66.342285 353.08506 66.342285 349.76758 C 68.282461 348.20533 68.28248 348.20531 70.979004 346.55273 L 73.918457 344.72266 L 77.029785 342.83008 C 79.035311 341.59443 81.039278 340.35621 83.041504 339.11523 L 85.754395 337.45898 C 90.796783 334.32861 90.797543 334.32881 94.342285 329.76758 C 95.594593 319.60539 92.603371 309.58395 90.342285 299.76758 C 89.768437 297.23387 89.198866 294.6992 88.631348 292.16406 C 88.279568 290.59717 87.921665 289.03168 87.561035 287.4668 C 86.886917 284.49938 86.342285 281.82172 86.342285 278.76758 z M -239.65771 342.76758 C -222.58673 364.44999 -218.98906 399.96837 -215.90771 426.26758 L -215.55811 429.16602 C -212.61547 456.69088 -213.52122 484.68062 -213.55615 512.31445 C -213.56248 518.18398 -213.56278 524.05234 -213.56396 529.92188 C -213.56704 540.99196 -213.57536 552.06271 -213.58545 563.13281 C -213.5967 575.75469 -213.60193 588.37617 -213.60693 600.99805 C -213.61733 626.92085 -213.6361 652.84476 -213.65771 678.76758 L -258.65771 678.76758 C -258.95873 601.10381 -257.83299 523.00464 -251.8667 445.54102 C -251.64136 442.56018 -251.42774 439.57756 -251.21631 436.5957 C -249.69553 415.17342 -248.07667 393.79356 -245.09521 372.51758 L -244.79248 370.3457 C -243.47731 361.05732 -241.73798 351.91468 -239.65771 342.76758 z M 111.97314 449.14258 C 110.12029 449.12115 107.73012 449.15918 104.54541 449.20898 C 103.09913 449.23297 101.65399 449.2472 100.20752 449.25391 C 96.405253 449.26101 92.603228 449.28655 88.80127 449.33594 C 85.654734 449.37681 82.50859 449.40464 79.361816 449.41797 C 75.555304 449.43239 71.748341 449.45179 67.941895 449.47852 L 65.76416 449.49414 C 64.335344 449.50394 62.905854 449.5139 61.477051 449.52539 L 57.533691 449.57422 C 54.423602 449.609 52.1218 449.37782 49.342285 450.76758 C 46.881764 453.37722 45.476975 455.30579 44.467285 458.76758 C 44.325833 462.16242 44.642968 463.83239 46.342285 466.76758 C 49.038947 469.39393 50.675319 470.66052 54.428223 471.26172 L 57.92041 471.25391 C 59.947475 471.26342 61.97545 471.27161 64.002441 471.25195 C 65.449616 471.23647 66.896984 471.22697 68.344238 471.22461 C 71.36755 471.22567 74.38936 471.22149 77.412598 471.19922 C 81.339011 471.16476 85.265309 471.13847 89.191895 471.13867 C 92.260207 471.13986 95.328681 471.13502 98.396973 471.12305 C 99.860438 471.11603 101.32413 471.10994 102.7876 471.10352 C 104.21436 471.10206 105.64208 471.10071 107.06885 471.09766 L 111.02197 471.05859 C 115.23864 471.03066 116.78884 471.13654 120.34229 468.76758 C 122.5222 466.22434 124.17216 464.16977 124.58447 460.77148 C 124.36321 456.86985 123.7708 455.29163 121.21729 452.17383 C 118.26769 449.80051 117.53169 449.20687 111.97314 449.14258 z M -13.987793 579.23438 C -16.850874 579.25582 -19.551777 579.93267 -22.095215 581.89258 C -25.12549 585.2924 -27.579074 588.05706 -27.716309 592.78711 C -27.355373 596.92636 -26.655772 599.8729 -23.657715 602.76758 C -19.395788 606.42065 -16.228466 607.36804 -10.76709 607.08398 C -6.3157053 606.41628 -4.2522819 604.44249 -1.3452148 601.14258 C 0.813175 596.8258 1.0529064 593.50505 0.34228516 588.76758 C -1.493251 584.17873 -4.2515502 581.93061 -8.6577148 579.76758 C -10.494103 579.44509 -12.269944 579.22151 -13.987793 579.23438 z "
     transform="translate(549.65771484375,107.232421875)" />
</svg>
