<?xml version="1.0" encoding="UTF-8" standalone="no"?>
<svg version="1.1" width="1024" height="1024" id="svg4" xmlns="http://www.w3.org/2000/svg">
  <defs
     id="defs4" />
  <path
     id="path2"
     d="M 702.40234 131.51367 C 696.14719 131.39755 692.392 136.51777 677.375 157 C 671.49078 165.03489 665.46349 172.9412 659.3125 180.77344 C 657.696 182.82953 656.08528 184.88756 654.49609 186.96484 C 648.98653 194.21211 643.3803 200.99986 636.8125 207.34375 C 635.38364 208.69323 633.95524 210.04332 632.54297 211.41016 C 609.93728 233.30009 581.25197 241.5094 551.54492 249.59375 C 550.72235 249.81686 549.92338 250.03346 549.125 250.25 C 539.86969 252.76705 530.60709 255.14113 521.23438 257.18359 C 498.19505 262.08668 481.57824 274.93084 465.44336 291.49219 C 462.69461 294.31384 459.97083 297.13362 457.0293 299.75586 C 451.40449 304.57691 446.19836 309.72288 441 315 C 437.06624 318.99336 433.18955 323.05396 428.99805 326.7793 C 422.84117 332.03947 417.18266 337.74012 411.5 343.5 C 406.3849 348.68461 401.33696 353.93282 395.81641 358.69141 C 392.25404 361.73663 388.91215 364.95716 385.5957 368.26758 C 384.86191 369.00535 384.14971 369.72143 383.4375 370.4375 C 379.2572 374.59523 375.1493 378.76746 371.28906 383.22656 C 369.36177 385.46366 367.43503 387.56332 365.33984 389.65234 C 357.51433 397.09613 351.83694 404.23936 348.70312 414.70312 C 346.13285 426.75484 348.06079 436.45654 354 447 C 361.92975 457.53803 372.11004 464.78438 385 468 C 404.95014 470.4973 420.67519 462.55515 436.35938 450.97656 L 439 449 C 436.25867 453.26053 433.29897 457.27428 430.17969 461.26562 C 428.94851 462.83254 427.7178 464.40292 426.49023 465.97266 C 425.84651 466.79643 425.22245 467.59499 424.59766 468.39453 C 422.05229 471.64847 419.52157 474.91302 417.00781 478.19141 C 413.25165 483.09622 409.45593 487.96614 405.625 492.8125 C 402.71798 496.48787 399.8475 500.18313 397.05859 503.94922 C 395.06608 506.6484 393.05928 509.3352 391.03125 512.00781 C 390.01824 513.33657 389.00782 514.6673 388 516 C 386.53048 518.01239 385.05779 520.01892 383.54883 522.00195 C 379.44326 527.17335 376.54228 530.64909 369.6875 531.5625 C 355.27209 532.36908 355.27157 532.3686 329.65234 546.27344 C 321.43188 550.75116 313.04352 556.00356 303.95703 558.44141 C 280.88035 561.69902 262.55871 558.18641 243 546 C 227.9846 536.50819 210.49861 529.8969 192.5 529.8125 C 190.7325 529.9072 190.7325 529.9072 189 530 C 189 527.77055 188.99902 527.77014 187.57812 521.83594 C 187.35999 520.9353 187.14923 520.06165 186.9375 519.1875 C 185.7062 514.05531 184.46745 508.92533 183.2207 503.79688 C 182.68012 501.57517 182.14108 499.35283 181.60156 497.13086 L 180.75 493.625 C 178.86681 485.89876 177.0251 478.16603 175.28516 470.40625 C 174.88891 468.63722 174.49239 466.87005 174.09375 465.10156 C 173.49878 462.46403 172.90357 459.82592 172.3125 457.1875 C 171.76081 454.67194 171.20993 452.15705 170.64453 449.64453 C 170.46407 448.84517 170.28843 448.06882 170.11328 447.29297 C 168.8638 441.45331 167.20243 436.09925 164 431 C 160.70735 428.00668 158.25828 426.77165 153.875 426.625 C 148.72024 427.12385 147.18897 427.67892 143.75 431.5 C 140.18333 438.63334 140.18382 438.63261 144.64844 458.05469 C 144.97124 459.45509 145.29015 460.85767 145.60547 462.25977 C 147.61397 471.22531 149.73863 480.1571 152 489.0625 C 154.33188 498.17291 156.46205 507.31992 158.5 516.5 C 160.21618 524.30827 162.00526 532.086 163.95312 539.83984 C 167.69002 554.66475 171.27505 569.52323 174.83008 584.39258 C 175.75669 588.26925 176.68408 592.14543 177.61328 596.02148 C 180.95182 609.94739 184.29521 623.87265 187.5 637.83008 C 189.69617 647.41655 191.94566 656.9806 194.37109 666.51172 C 197.51767 678.83583 200.55177 691.1752 203.3125 703.5918 C 205.25996 712.37212 207.20885 721.13102 209.5625 729.8125 C 211.53519 737.06587 213.26935 744.35815 214.9375 751.6875 C 216.83902 760.04812 218.82132 768.37862 220.9375 776.6875 C 222.46638 782.68329 223.94711 788.68246 225.2832 794.72461 C 225.43266 795.40493 225.57759 796.06626 225.72266 796.72656 C 225.87282 797.41007 226.01831 798.07292 226.16406 798.73633 C 231.36852 822.43683 236.17476 847.95336 253.79297 865.95312 C 273.51512 885.07164 295.75277 893.51892 322.99609 893.38086 C 324.61726 893.37186 326.23819 893.36909 327.85938 893.37109 C 332.36702 893.38318 336.87517 893.38389 341.38281 893.37109 C 346.29614 893.35699 351.2097 893.35538 356.12305 893.35938 C 365.76157 893.36757 375.3986 893.36306 385.03711 893.34766 C 396.35328 893.32986 407.67015 893.32318 418.98633 893.32227 C 439.15057 893.32107 459.3143 893.30886 479.47852 893.28516 C 499.10609 893.26186 518.73375 893.24423 538.36133 893.24023 C 540.21608 893.23989 540.21714 893.24057 542.03516 893.24023 C 544.47858 893.24012 546.92182 893.23873 549.36523 893.23828 C 550.60762 893.23806 551.81368 893.2385 553.01953 893.23828 C 554.86051 893.23795 554.85954 893.23861 556.66406 893.23828 C 575.46549 893.23488 594.26694 893.22314 613.06836 893.21094 C 619.8555 893.20644 626.64253 893.20222 633.42969 893.19922 C 644.29363 893.19482 655.15755 893.18938 666.02148 893.17578 C 670.99035 893.16868 675.95886 893.16216 680.92773 893.16016 C 685.53287 893.15956 690.13901 893.15839 694.74414 893.15039 L 699.77734 893.14062 C 702.08984 893.14162 704.40235 893.14272 706.71484 893.13672 C 707.77402 893.13372 707.77234 893.13386 708.81055 893.13086 C 726.22778 893.11318 741.11804 887.04116 755.84766 878.3125 C 780.46028 862.08611 788.7186 838.12072 795.33594 810.88672 C 796.19683 807.31978 797.05944 803.75318 797.93359 800.18945 C 801.1907 786.94638 804.42304 773.70169 807.39258 760.39062 C 811.09708 743.72945 815.06045 727.13635 819.08984 710.55078 C 822.5087 696.48532 825.84705 682.40384 829.11523 668.30273 C 832.58567 653.32598 836.08594 638.35564 839.65625 623.40234 C 839.88347 622.45132 840.10368 621.52851 840.32422 620.60547 C 841.66213 615.00545 843.00116 609.406 844.3418 603.80664 C 846.36792 595.34536 848.39311 586.88393 850.41602 578.42188 C 850.6398 577.48569 850.85702 576.57663 851.07422 575.66797 C 854.34709 561.97835 857.59154 548.28333 860.77344 534.57227 C 863.72029 521.87019 866.77086 509.19359 869.84375 496.52148 C 872.78676 484.39145 875.72678 472.25986 878.57617 460.10742 C 878.84777 458.94473 879.11139 457.81599 879.375 456.6875 C 880.94171 450.0587 884.17376 441.57362 882.43359 434.79297 C 879.89612 430.70313 877.72698 428.57566 873 427 C 869.60244 426.7735 867.07195 426.46403 864 428 C 859.02086 431.34587 857.21821 433.90799 855.69531 439.68359 C 855.47999 440.59883 855.27149 441.48667 855.0625 442.375 C 852.57875 452.14659 850.37032 461.98654 848.19141 471.83008 C 845.72369 483.00509 843.03454 494.11135 840.16992 505.19141 C 838.21972 512.72654 836.50458 520.20257 835.30859 527.89648 C 835.20392 528.61193 835.10159 529.3056 835 530 C 826.31956 529.83958 817.17195 529.05556 808.6875 531.19141 C 807.77375 531.46633 806.88688 531.73316 806 532 C 792.72922 535.79608 780.98739 541.18474 769.07617 548.12109 C 764.8083 550.60985 760.53319 553.02313 756 555 C 739.41434 561.27828 718.09457 561.78544 701.6875 555.05078 C 697.13203 552.93215 691.97567 550.60618 690.13281 545.68359 C 689.73943 542.90189 689.73943 542.90188 691.51953 540.5625 C 692.29914 539.69125 693.05582 538.84562 693.8125 538 C 694.67578 537.00125 695.51367 536.03188 696.35156 535.0625 C 701.89602 528.7121 701.89603 528.71207 715.625 510 C 720.02019 504.00553 724.4613 498.05262 728.97461 492.14648 C 736.53989 482.26254 744.03168 472.33023 751.35547 462.26562 C 751.91478 461.49532 752.45714 460.74766 753 460 C 771.71395 434.27606 785.99741 407.33815 794.1875 376.4375 C 796.61116 366.86821 799.20901 357.9774 805.05664 349.89453 C 806.10661 348.48697 807.1452 347.07026 808.17578 345.64844 C 808.73484 344.8753 809.2777 344.1254 809.82031 343.375 C 812.15665 340.17073 814.45512 336.94645 816.70312 333.67969 C 817.12314 333.06626 817.52983 332.47039 817.9375 331.875 C 821.16516 327.17522 824.36911 322.45943 827.5625 317.73633 C 828.00634 317.07969 828.4364 316.44201 828.86719 315.80469 C 829.53826 314.81206 829.53753 314.8128 830.19531 313.83984 L 831.54883 311.83594 C 832.46978 310.47375 833.39165 309.11225 834.3125 307.75 C 839.80003 299.62726 845.29856 291.5183 850.95508 283.51172 C 855.21625 277.48722 859.46694 271.45136 863.51562 265.28125 C 863.97806 264.56945 864.42616 263.87836 864.875 263.1875 C 868.09644 258.41016 869.59534 254.90261 869 249 C 866.80484 244.60967 863.86387 241.76681 859.875 239 C 855.82578 236.25908 851.83782 233.45418 847.88281 230.58008 C 840.63968 225.31177 833.34819 220.12071 826 215 C 820.35167 211.06504 814.72954 207.10073 809.16016 203.05469 C 803.12529 198.66377 797.06537 194.32823 790.89648 190.12695 C 783.81963 185.32205 776.79691 180.46378 769.875 175.4375 C 762.69581 170.22046 755.47235 165.07232 748.21484 159.96484 C 745.3928 157.98032 742.57232 155.99356 739.75391 154.00391 C 738.33632 153.00206 736.91836 152.00075 735.5 151 C 731.89129 148.47269 728.28081 145.95262 724.74609 143.32227 C 723.9718 142.74105 723.22027 142.17741 722.46875 141.61328 C 720.97883 140.51348 719.48923 139.41324 718 138.3125 C 715.42026 136.31873 712.92278 134.4593 710 133 C 706.84943 132.17258 704.4874 131.55238 702.40234 131.51367 z M 704 164 C 708.26574 165.46931 711.65344 167.71791 715.25 170.375 C 716.49955 171.28317 717.74957 172.1907 719 173.09766 C 719.65355 173.57348 720.30711 174.04882 720.98047 174.53906 C 724.37974 176.99729 727.8169 179.40187 731.25 181.8125 C 737.16146 185.97171 743.02851 190.18758 748.875 194.4375 C 755.0516 198.92544 761.30348 203.2814 767.625 207.5625 C 774.27949 212.07118 780.75427 216.75502 787.15234 221.61914 C 793.61307 226.51113 800.27597 231.08254 806.98242 235.62891 C 809.73286 237.49934 812.4696 239.38794 815.20703 241.27734 C 822.42414 246.25723 829.6849 251.16482 837 256 C 835.244 259.83473 832.91169 263.26269 830.5625 266.75 C 830.1222 267.40686 829.68216 268.06349 829.22852 268.74023 C 824.66354 275.53337 820.02302 282.27468 815.37305 289.00977 C 806.78351 301.45283 798.24086 313.92758 789.74609 326.43555 C 788.1714 328.74676 786.58611 331.05085 784.99609 333.35156 C 784.12209 334.63 783.24836 335.90863 782.375 337.1875 C 781.64023 338.25355 780.90547 339.31961 780.14844 340.41797 C 774.96745 348.62849 772.09031 357.4778 769.6875 366.8125 C 764.87564 384.63777 758.96618 401.81713 750 418 C 749.66952 418.60296 749.33855 419.20691 748.99805 419.82812 C 743.08381 430.49033 735.92137 440.18338 728.58398 449.90039 C 726.58432 452.54876 724.60698 455.21337 722.625 457.875 C 719.88616 461.52 717.12441 465.14644 714.35156 468.76562 C 706.82429 478.59668 699.41689 488.49041 692.19922 498.55078 C 679.08735 516.82194 665.48543 534.72929 651.625 552.4375 C 647.2601 558.01788 643.03899 563.66436 638.9668 569.46094 C 632.57727 578.50223 625.74045 587.21965 619 596 C 618.04538 597.24724 617.09092 598.49462 616.13672 599.74219 C 611.07152 606.35613 605.94298 612.91915 600.78516 619.46094 C 598.93045 621.81391 597.08464 624.17344 595.24609 626.53906 C 589.81628 633.51366 584.25438 640.34617 578.50781 647.0625 C 576.75618 649.11425 575.02719 651.17592 573.3125 653.25781 C 570.25672 656.88138 568.25107 658.72077 563.44922 659.31641 C 558.85788 659.50901 555.70862 659.32901 551.5 657.375 C 547.59766 653.66777 545.87227 650.21778 545.4375 644.875 C 546.04631 632.21597 556.59334 621.70325 564.12109 612.34766 C 567.12308 608.59829 570.05921 604.79742 573 601 C 576.49123 596.5048 579.98713 592.01345 583.5 587.53516 C 591.29788 577.57983 598.8775 567.48476 606.33398 557.27148 C 607.97559 555.03151 609.63054 552.80171 611.28906 550.57422 C 612.05634 549.54011 612.05707 549.53936 612.83984 548.48438 C 613.79516 547.19726 614.75171 545.9136 615.71289 544.63086 C 619.9248 538.9346 621.02813 534.00688 620 527 C 617.80977 524.17576 616.16983 522.58491 613 521 C 607.18341 520.44071 604.5685 521.44417 600 525 C 598.02353 527.18593 596.32944 529.53613 594.625 531.9375 C 593.57536 533.37583 592.52451 534.81329 591.47266 536.25 C 590.91465 537.01699 590.35616 537.78398 589.78125 538.57422 C 586.59957 542.90596 583.32721 547.16818 580.0625 551.4375 C 578.69658 553.22784 577.33069 555.01822 575.96484 556.80859 C 574.64335 558.53914 573.32172 560.26961 572 562 C 571.39946 562.78649 570.79843 563.57249 570.17969 564.38281 C 563.93141 572.56469 557.67241 580.73835 551.39062 588.89453 C 549.774 590.99457 548.15907 593.0958 546.54688 595.19922 C 537.20805 607.37795 527.70469 619.40886 518.00781 631.30469 C 515.55322 634.31664 513.1136 637.34 510.6875 640.375 L 508.82422 642.69531 C 507.53723 644.32127 506.27082 645.96361 505.01953 647.61719 C 500.33067 653.72995 495.50535 659.49821 488 662 C 483.34051 662.54139 479.89447 662.43067 475.625 660.375 C 471.53878 656.67794 470.22564 653.69231 469.5 648.25 C 470.02389 637.59093 478.60129 628.88807 485 621 C 485.51691 620.36224 486.03383 619.7235 486.56641 619.06641 C 488.76841 616.35368 490.97334 613.64547 493.18359 610.93945 C 497.77307 605.31221 502.20788 599.58139 506.61328 593.80859 C 516.25388 581.23169 525.98015 568.70111 535.92578 556.36328 C 541.61016 549.31034 547.16259 542.18663 552.56641 534.91602 C 555.84767 530.50951 559.20555 526.1749 562.625 521.875 C 574.61154 508.34918 574.61156 508.34912 579 492 C 577.29486 488.16343 575.83859 486.57285 572 485 C 569.84724 484.61308 569.84724 484.61308 567.625 484.625 C 566.89539 484.5966 566.16578 484.56826 565.41406 484.53906 C 559.543 485.66008 556.01629 489.82804 552.625 494.4375 C 551.75934 495.59652 550.89344 496.75536 550.02734 497.91406 C 549.55152 498.55763 549.07618 499.20218 548.58594 499.86523 C 545.48686 504.03996 542.33492 508.17416 539.1875 512.3125 C 538.50099 513.21613 537.81473 514.11977 537.10742 515.05078 C 531.87193 521.91732 526.48204 528.63976 521.00781 535.31641 C 516.24111 541.13406 511.622 547.06719 507 553 C 506.44667 553.70947 505.89237 554.41943 505.32227 555.15039 C 498.72764 563.6076 492.15782 572.08181 485.62891 580.58984 C 483.02663 583.9731 480.40209 587.33731 477.77734 590.70312 C 473.24275 596.51811 468.71807 602.33645 464.3125 608.25 C 439.31622 641.73295 439.31616 641.73301 427.80078 644.53516 C 423.98636 644.81851 421.90774 643.94255 418.6875 641.9375 C 414.90834 637.8068 413.33274 634.20439 412.5 628.6875 C 414.20302 616.12778 424.5118 606.5429 432.45898 597.35547 C 436.35634 592.82176 439.98384 588.14107 443.52734 583.32422 C 446.58739 579.17781 449.76704 575.12468 452.9375 571.0625 C 456.97408 565.88687 461.00412 560.70713 465 555.5 C 473.10204 544.95005 481.27308 534.45285 489.5 524 C 502.59957 507.35249 515.6448 490.65146 528.25 473.625 C 528.71624 473.00021 529.18175 472.37615 529.66211 471.73242 C 533.41271 466.63064 534.90837 462.37102 534 456 C 531.90419 452.55689 529.87346 450.25318 526 449 C 521.77057 448.44834 519.07455 448.98422 515.62109 451.55859 C 509.32081 457.16055 504.3847 464.03751 499.39844 470.78516 C 496.931 474.11404 494.38074 477.37353 491.8125 480.625 C 487.45288 486.14649 483.12554 491.69204 478.8125 497.25 C 474.56899 502.71452 470.30154 508.15581 465.96484 513.54688 C 462.123 518.34347 458.33455 523.18209 454.54688 528.02148 C 453.49217 529.36898 452.43875 530.71791 451.38281 532.06445 C 444.63207 540.67746 437.97243 549.34694 431.4375 558.125 C 426.72681 564.43825 421.95037 570.68487 417 576.8125 C 416.49654 577.43979 415.99332 578.06659 415.47461 578.71289 C 403.96873 592.80802 403.96845 592.80853 395.90625 594.41797 C 391.05967 594.85781 388.3371 593.97141 384.5625 590.875 C 380.27354 586.61162 379.01263 582.81291 378.5 576.875 C 379.03502 563.3657 391.07491 551.66277 398.95508 541.61523 C 401.96258 537.76918 404.91771 533.88472 407.875 530 C 410.75159 526.23432 413.63089 522.47096 416.53516 518.72656 C 421.32178 512.54675 426.00245 506.30311 430.625 500 C 437.66554 490.4026 444.86469 480.93035 452.10156 471.48047 C 453.87405 469.16471 455.64262 466.84688 457.41016 464.52734 C 462.2983 458.11671 467.2074 451.7257 472.17578 445.37695 C 478.25083 437.61095 484.17664 429.75335 490 421.79688 C 494.89505 415.11484 499.90899 408.53386 505 402 C 508.86435 402.54726 512.16103 403.362 515.75 404.875 C 536.82808 412.56527 563.23168 412.61316 585 408 C 585.73767 407.84402 586.47436 407.68805 587.23438 407.52734 C 607.752 403.07238 630.21963 396.5774 646 382 C 647.61975 377.14076 647.77843 372.7904 645.75 368.125 C 642.97054 364.74995 640.46925 364.08462 636.1875 363.3125 C 630.56171 363.41378 626.50316 366.45568 621.91992 369.36719 C 609.6457 377.10794 596.33799 380.52339 582.29102 383.51172 C 580.44476 383.9056 578.60414 384.32536 576.76562 384.75391 C 563.54662 387.48557 540.45197 389.22597 528 383 C 529 380 529 380 531.9375 377.5625 C 535.37361 374.80484 535.37361 374.80484 537 371 C 537.33953 366.72189 537.44508 364.07757 535.8125 360.125 C 533.58391 357.51217 532.35993 356.74665 529 356 C 518.55295 355.81988 510.80529 363.02379 503.49219 369.77734 C 498.80684 373.95596 493.78763 377.72846 488.83008 381.57617 C 485.87725 383.87212 482.93956 386.18711 480 388.5 C 478.82425 389.42322 477.64847 390.3464 476.47266 391.26953 C 474.22712 393.03357 471.98505 394.80185 469.74609 396.57422 C 407.38177 445.88793 407.38159 445.88803 390.8125 444.5625 C 385.26023 443.45204 381.57214 441.61351 377.625 437.5625 C 374.07169 431.95923 372.8693 426.6117 374 420 C 377.20856 412.43086 383.51271 407.19078 389.3125 401.5625 C 391.35414 399.56773 393.39126 397.56841 395.42578 395.56641 C 395.91822 395.08296 396.41061 394.59965 396.91797 394.10156 C 400.2381 390.81922 403.32032 387.40307 406.34766 383.85352 C 409.38682 380.44618 412.76779 377.40123 416.125 374.3125 C 422.05518 368.80115 427.88417 363.22188 433.53711 357.42578 C 436.19765 354.71862 438.92969 352.16645 441.80859 349.69141 C 446.43793 345.68642 450.71038 341.36282 455 337 C 459.87659 332.0402 464.7907 327.24489 470.06641 322.71094 C 473.36352 319.79348 476.41879 316.64197 479.5 313.5 C 483.95862 308.99797 488.3991 304.54391 493.26172 300.47266 C 494.48563 299.43577 495.67333 298.35538 496.83203 297.24609 C 506.65405 287.98419 518.31653 284.83795 531.06641 281.7207 C 548.5408 277.43136 565.74199 272.61542 582.8125 266.9375 C 583.54951 266.6941 584.28557 266.45 585.04492 266.19922 C 598.70121 261.67131 612.7741 256.96128 625.25 249.6875 C 625.90436 249.30908 626.55823 248.93091 627.23242 248.54102 C 645.17102 237.9239 660.44261 222.54064 673 206 C 673.97575 204.74025 674.95238 203.48117 675.92969 202.22266 C 681.90692 194.4937 687.75858 186.67218 693.5625 178.8125 C 694.14604 178.02295 694.72886 177.2334 695.33008 176.41992 C 698.32727 172.3438 701.23568 168.23773 704 164 z M 194 556 C 209.15251 556.36078 221.30448 563.55339 233.91211 571.23633 C 249.72257 580.78763 265.49036 585.59411 284.0625 585.5 C 284.74286 585.497 285.42402 585.49519 286.125 585.49219 C 310.71778 585.30859 330.64937 575.90202 351.48047 563.39844 C 354 561.9996 354 562 356 562 C 355.84016 562.81984 355.68031 563.6397 355.51562 564.48438 C 353.48782 578.31045 354.6836 590.74432 362.26953 602.67578 C 369.08924 611.83544 378.39723 615.76026 389 619 C 388.9536 620.01578 388.90719 621.03158 388.85938 622.07812 C 388.42983 635.46782 390.70922 646.73031 400 657 C 408.54182 664.59435 418.46021 668.77631 429.93359 668.40234 C 434.31495 667.82746 438.27916 666.52029 442.40625 664.97266 C 444.60081 664.1497 446.71697 663.51153 449 663 C 449.3893 663.70125 449.77859 664.4025 450.17969 665.125 C 455.68021 674.45309 462.70287 681.68851 473.10156 685.37891 C 485.12285 687.95488 496.80162 686.22905 507.375 680.0625 C 514.09004 675.60501 519.50452 669.84075 525 664 C 528.43114 665.14371 528.68167 665.71674 530.5625 668.625 C 534.22137 673.68203 538.67502 676.83016 544 680 C 544.60199 680.36352 545.20398 680.72703 545.82422 681.10156 C 553.62594 684.85341 564.44574 684.08896 572.67578 682.12109 C 587.80866 676.73302 596.89666 665.12431 606.125 652.5625 C 611.02549 645.95623 615.984 639.4079 621.0625 632.9375 C 626.42436 626.09461 631.61035 619.13906 636.74023 612.12109 C 641.40734 605.75651 646.21665 599.5131 651.08398 593.30078 C 654.44469 589.0096 657.75057 584.68862 661 580.3125 C 664.17415 576.04668 667.47345 571.97867 671 568 C 675.04309 569.44396 678.30784 571.43893 681.875 573.8125 C 695.51321 582.50641 711.18848 585.39946 727.1875 585.3125 C 728.82997 585.3035 728.83021 585.30302 730.50586 585.29492 C 751.58517 584.9813 768.63227 578.40605 786.58008 567.75781 C 800.85208 559.34984 812.50901 555.58309 829 556 L 828.37109 558.66406 C 828.05981 559.98436 827.74862 561.30467 827.4375 562.625 C 827.26259 563.36718 827.08841 564.10839 826.9082 564.87305 C 825.73866 569.84294 824.5769 574.81578 823.42188 579.78906 C 820.47842 592.45575 817.50475 605.1126 814.4375 617.75 C 811.46209 630.01481 808.60377 642.30278 805.78125 654.60352 C 801.29663 674.09476 796.69748 693.55906 792 713 C 791.1148 716.66495 790.2289 720.32918 789.34375 723.99414 C 788.73862 726.49956 788.13478 729.00639 787.5293 731.51172 C 785.90078 738.2546 784.28482 744.99967 782.6875 751.75 C 781.03413 758.7307 779.34502 765.70252 777.64453 772.67188 C 777.43119 773.54637 777.21786 774.42127 776.99805 775.32227 C 775.88876 779.86676 774.77722 784.41005 773.66211 788.95312 C 771.64822 797.16787 769.66645 805.38339 767.82422 813.63867 C 763.53905 832.63165 755.72882 848.53642 739.1875 859.6875 C 730.77213 864.72674 721.75833 867.12337 712.01562 867.12891 C 711.32123 867.13091 710.62561 867.13181 709.91016 867.13281 C 707.57794 867.13781 705.24628 867.13505 702.91406 867.13281 C 701.22713 867.13481 699.54043 867.13764 697.85352 867.14062 C 693.21333 867.14662 688.57378 867.14553 683.93359 867.14453 C 678.9307 867.14433 673.92672 867.15115 668.92383 867.15625 C 659.11932 867.16425 649.31428 867.16747 639.50977 867.16797 C 631.53898 867.16845 623.56844 867.17083 615.59766 867.17383 C 592.99964 867.18283 570.40269 867.18625 547.80469 867.18555 L 544.11133 867.18555 L 540.41406 867.18555 C 520.64788 867.18514 500.8814 867.19468 481.11523 867.20898 C 460.82003 867.22338 440.52373 867.22942 420.22852 867.22852 C 408.83421 867.22819 397.44117 867.23099 386.04688 867.24219 C 376.34307 867.25119 366.63935 867.25339 356.93555 867.24609 C 351.98628 867.24309 347.03716 867.24395 342.08789 867.25195 C 337.55206 867.25995 333.01629 867.258 328.48047 867.25 C 326.84448 867.248 325.20823 867.25013 323.57227 867.25586 C 304.61587 867.31626 289.16781 864.71531 275.0625 851.32617 C 260.6392 836.84409 257.1741 816.67701 252.5 797.5625 C 251.93952 795.30256 251.37832 793.04279 250.81641 790.7832 C 247.97449 779.31069 245.22225 767.82169 242.66016 756.2832 C 241.42273 750.73425 240.04757 745.23774 238.5625 739.75 C 236.71336 732.8409 235.02314 725.91192 233.4375 718.9375 C 230.41681 705.66231 227.24509 692.42465 224.0625 679.1875 C 223.79827 678.08833 223.53395 676.9899 223.26172 675.85742 C 221.73026 669.48824 220.19657 663.11846 218.66211 656.75 C 218.07433 654.31052 217.48782 651.87121 216.90039 649.43164 C 214.45284 639.26817 212.00209 629.10611 209.52734 618.94922 C 208.66357 615.40403 207.80003 611.85799 206.9375 608.3125 C 206.7688 607.61961 206.59959 606.92678 206.42578 606.21289 C 203.8547 595.64426 201.36488 585.06015 198.99023 574.44531 C 197.57835 568.20903 195.92353 562.09826 194 556 z " />
</svg>
