<?xml version="1.0" encoding="UTF-8" standalone="no"?>
<svg version="1.1" width="1024" height="1024" id="svg12" xmlns="http://www.w3.org/2000/svg">
  <defs
     id="defs12" />
  <path
     id="path3"
     d="M 580.95046 -0.39814091 L 578.12625 -0.36103153 C 574.86531 -0.38138175 571.60596 -0.39476869 568.345 -0.37665653 C 565.94538 -0.3624117 563.54541 -0.35557293 561.14578 -0.35907841 C 555.21545 -0.37778773 549.28509 -0.3864359 543.35476 -0.36884403 C 535.41167 -0.34321389 527.46783 -0.33920505 519.52468 -0.34735966 C 506.1547 -0.36198114 492.78527 -0.35652323 479.41531 -0.33368778 C 466.10998 -0.31053346 452.80465 -0.2937922 439.49929 -0.29267216 L 436.99539 -0.29267216 C 433.63806 -0.29245559 430.28044 -0.29276898 426.92312 -0.29267216 C 395.43348 -0.29237116 363.94398 -0.2669865 332.45437 -0.22626591 C 304.42529 -0.19001933 276.39559 -0.1686252 248.36648 -0.16571903 L 245.66335 -0.16571903 C 242.96441 -0.16544196 240.26466 -0.16403763 237.5657 -0.16376591 C 233.9798 -0.1634054 230.39377 -0.16414439 226.80789 -0.16376591 L 224.1282 -0.16376591 C 196.45762 -0.16094094 168.7851 -0.14434837 141.11453 -0.12470341 C 131.95301 -0.11807857 122.79167 -0.11216133 113.63015 -0.10907841 L 111.12625 -0.10712528 L 108.62625 -0.10712528 C 92.693245 -0.10210988 76.760391 -0.09278921 60.827417 -0.068062782 C 52.836859 -0.055411001 44.845331 -0.04578447 36.854761 -0.046578407 C 31.481344 -0.047112907 26.109029 -0.040226019 20.73562 -0.029000282 C 18.265098 -0.02289802 15.794039 -0.01782766 13.323511 -0.013375282 C 9.9100254 -0.0172248 6.4967514 -0.021737527 3.0832767 -0.011422157 L -0.00070762634 0.00029659271 C -8.198916 -0.033163528 -16.572891 -0.24599799 -22.940161 5.7385778 C -27.986365 11.333196 -29.879306 16.006371 -29.971411 23.562797 L -29.934301 26.779593 C -29.955667 30.458571 -29.968947 34.13572 -29.95188 37.81475 C -29.932134 41.230534 -29.935848 44.64698 -29.94602 48.062797 C -29.964762 54.054824 -29.968041 60.045366 -29.953833 66.037406 C -29.930486 75.011819 -29.927866 83.986798 -29.938208 92.961234 C -29.957615 108.99209 -29.953565 125.02217 -29.932348 141.05303 C -29.913678 155.15321 -29.901856 169.25364 -29.903051 183.35381 L -29.903051 186.18194 C -29.903423 189.97227 -29.902581 193.76268 -29.903051 197.55303 C -29.908002 233.1159 -29.890283 268.67966 -29.854223 304.24248 C -29.822092 335.90341 -29.805283 367.56396 -29.811255 399.22491 C -29.811648 401.2591 -29.812821 403.29421 -29.813208 405.32842 L -29.813208 408.37725 C -29.814172 413.4421 -29.816225 418.50574 -29.817114 423.57061 L -29.817114 426.59991 C -29.821729 453.1038 -29.812167 479.60773 -29.797583 506.11162 L -29.797583 508.96709 L -29.79563 511.8167 L -29.793676 514.66241 C -29.792631 516.55405 -29.79082 518.44652 -29.78977 520.33819 C -29.782287 533.50912 -29.778632 546.67895 -29.780005 559.84991 C -29.781897 576.9089 -29.777579 593.96866 -29.752661 611.02764 C -29.739127 620.05455 -29.730205 629.0808 -29.737036 638.10772 C -29.741641 644.17815 -29.737275 650.24822 -29.723364 656.31866 C -29.714047 659.78299 -29.70388 663.24882 -29.709692 666.71319 C -29.718061 669.89618 -29.720403 673.079 -29.709692 676.26202 L -29.694067 679.74053 C -29.745762 688.24366 -29.167971 694.60468 -24.623755 702.01006 C -18.783477 707.6925 -13.259909 708.70183 -5.3874264 708.61944 C -3.2067659 708.55215 -1.0256077 708.49257 1.1555424 708.44366 L 4.3430424 708.37725 L 9.6887455 708.26006 C 9.6676891 713.78023 9.650949 719.30041 9.6399174 724.82061 C 9.6358232 727.07126 9.6312602 729.32191 9.6262455 731.57256 C 9.6135318 734.8942 9.6005975 738.21575 9.5949955 741.53741 L 9.5910892 744.68584 L 9.5754642 747.7542 L 9.5754642 750.60577 C 9.5602326 756.28724 11.188061 759.74603 14.688745 764.26006 C 19.305795 767.48938 22.563227 768.7162 28.175074 768.76787 L 30.606714 768.73077 C 33.345073 768.73771 36.081324 768.73758 38.819605 768.71319 C 40.773103 768.69463 42.727353 768.6829 44.680933 768.67803 C 48.761151 768.67444 52.841026 768.66709 56.921167 768.64092 C 62.22164 768.60121 67.520937 768.56604 72.821558 768.55498 C 77.958387 768.54561 83.094919 768.53092 88.231714 768.51006 L 91.17312 768.49834 C 94.012647 768.48837 96.851222 768.47705 99.690699 768.45733 L 102.29031 768.4378 C 106.2702 768.42459 109.87016 768.53292 113.68875 767.26006 C 119.08216 763.4732 119.08219 763.47315 123.68875 754.26006 L 123.68875 708.26006 L 451.68875 708.26006 C 451.68875 731.7951 443.72498 749.61615 458.68875 765.26006 C 462.88528 767.90733 466.15219 768.60866 470.98562 768.64483 L 473.39968 768.61553 C 476.10933 768.62201 478.81897 768.62481 481.52859 768.60772 C 483.46341 768.59458 485.39842 768.58731 487.33328 768.58428 C 491.37137 768.58275 495.40848 768.57753 499.44656 768.55889 C 504.69554 768.53043 509.94554 768.50578 515.1946 768.5003 C 519.29441 768.49681 523.39366 768.49127 527.49343 768.48077 C 529.44775 768.475 531.40242 768.46894 533.35671 768.46319 C 536.16857 768.45766 538.98043 768.45046 541.79226 768.43584 L 544.36453 768.42022 C 551.45884 768.41034 555.96873 767.81273 561.68875 763.26006 C 565.36327 758.19601 566.14384 753.33308 566.14187 747.1878 L 566.07937 744.19756 C 566.06178 740.98995 566.03832 737.78379 565.98953 734.57647 C 565.9548 732.35164 565.92755 730.12568 565.9075 727.90069 C 565.86365 721.93008 565.80492 715.96062 565.71609 709.99053 L 565.68875 708.26006 C 568.19784 708.30145 570.70673 708.33427 573.21609 708.35772 L 576.31375 708.38506 C 583.44526 708.50469 589.70985 708.83834 595.91921 704.81475 L 597.87625 703.13506 L 599.85671 701.50225 C 604.4082 695.93179 605.0347 689.89805 605.09304 682.96123 L 605.07546 679.74639 C 605.09231 676.06961 605.10313 672.39392 605.09695 668.71709 C 605.08886 665.30317 605.095 661.88882 605.10476 658.47491 C 605.1224 652.48594 605.1304 646.49708 605.1282 640.50811 C 605.12364 631.53817 605.13042 622.56788 605.14578 613.59795 C 605.17531 596.64027 605.18695 579.68262 605.18875 562.72491 C 605.19007 549.56425 605.19489 536.40314 605.20437 523.24248 C 605.20711 519.4608 605.20952 515.67849 605.21218 511.89678 L 605.21414 509.04717 C 605.23275 482.60681 605.24648 456.16723 605.24539 429.72686 L 605.24539 426.70342 C 605.24515 421.64566 605.24569 416.58738 605.24539 411.52959 L 605.24539 408.48467 L 605.24539 402.38702 C 605.24337 370.73916 605.26115 339.09147 605.30203 307.44366 C 605.3482 271.8281 605.37896 236.21156 605.37625 200.596 C 605.37595 196.79927 605.37442 193.00404 605.37429 189.20733 L 605.37429 186.37139 C 605.37373 171.33572 605.38946 156.30159 605.41531 141.26592 C 605.44141 126.0842 605.44975 110.90274 605.43093 95.721 C 605.41913 86.697647 605.41512 77.674011 605.4446 68.650687 C 605.46449 62.582602 605.46945 56.513707 605.45242 50.445609 C 605.43995 46.980837 605.42271 43.51585 605.4407 40.051078 C 605.46332 36.870615 605.47386 33.692563 605.45828 30.512015 L 605.43484 27.025687 C 605.55611 18.433995 604.63263 11.850023 598.68875 5.2600622 C 593.23431 1.1171154 587.71694 -0.30770294 580.95046 -0.39814091 z M 1.6887455 31.260062 L 573.68875 31.260062 L 573.68875 164.26006 L 1.6887455 164.26006 L 1.6887455 31.260062 z M 92.862574 58.75225 C 80.035726 58.8389 67.522168 65.416921 59.415308 76.392875 C 53.66495 85.942114 51.274014 95.771676 53.106714 106.76787 C 55.900159 118.72907 62.306049 127.72954 72.688745 134.26006 C 82.111399 139.47947 95.342364 140.18288 105.68875 137.26006 C 116.98105 133.18982 124.68974 125.72036 130.06375 115.01006 C 133.30404 106.44547 133.6126 92.821567 129.85671 84.392875 L 128.87625 82.385062 C 125.28303 74.905317 119.2013 69.241314 112.68875 64.260062 C 106.38614 60.443238 99.581399 58.706862 92.862574 58.75225 z M 485.52859 63.469047 C 481.08181 63.384205 476.66876 63.946564 472.88015 65.1585 L 470.68875 66.260062 C 466.80481 68.154666 463.53123 70.504869 460.31375 73.388968 C 453.19037 80.688086 449.55942 88.424515 449.37625 98.697562 C 449.90627 109.46914 453.91765 117.76224 461.68875 125.26006 C 471.07264 132.76718 480.89243 134.3568 492.68875 133.26006 C 502.16429 131.01559 509.58157 126.68678 515.21609 118.65459 C 521.15977 108.99021 522.29857 98.854644 520.21609 87.736625 C 517.08203 78.240616 509.87604 71.963245 501.58718 67.00225 C 497.01856 64.757188 491.24587 63.578128 485.52859 63.469047 z M 375.62234 63.71514 C 372.21235 63.70901 368.72068 64.069138 365.13406 64.732718 C 357.01928 67.453941 350.34094 72.555132 345.9739 79.853812 L 344.68875 82.260062 C 340.27042 90.518612 339.49765 98.517571 341.12625 107.73662 C 343.39341 115.75673 348.62142 123.80526 355.77468 128.23272 L 357.68875 129.26006 C 362.905 132.19784 367.62807 133.4734 373.64382 133.68389 C 386.18791 133.76382 395.29877 130.35958 404.43875 121.63506 C 411.26237 112.43387 412.89833 102.49013 411.68875 91.260062 C 409.22199 82.33752 404.69846 75.068603 397.07937 69.732718 C 390.23054 65.513742 383.12431 63.728627 375.62234 63.71514 z M 1.6887455 195.26006 L 573.68875 195.26006 L 573.68875 676.26006 L 1.6887455 676.26006 L 1.6887455 195.26006 z M 290.04812 228.20147 C 278.84259 228.08925 267.70339 228.94767 256.85476 230.85772 L 254.68875 231.26006 C 223.21087 237.00923 194.02275 248.24386 167.89578 266.89678 L 164.68875 269.26006 C 155.81702 275.75849 147.70226 282.74576 140.06375 290.66631 C 99.544629 333.49816 80.850969 386.18276 82.434839 444.87139 C 84.123517 495.89773 108.05465 546.84222 145.10671 581.77764 L 146.68875 583.26006 C 168.11165 603.60866 193.45267 619.23411 221.54617 628.56475 L 223.68875 629.26006 C 246.80108 636.80833 271.14864 640.32891 295.45828 639.36358 L 297.68875 639.26006 C 301.05016 639.10934 304.38266 638.91453 307.73171 638.59209 L 310.68875 638.26006 C 345.02547 634.87475 379.00443 621.51879 406.99734 601.48077 L 408.68875 600.26006 C 417.6584 593.88511 425.55247 586.8502 433.14578 578.88506 L 434.68875 577.26006 C 446.61162 564.82874 457.39768 551.43434 465.90359 536.39678 C 493.20636 486.86443 500.42025 429.04596 485.11843 374.44756 C 470.33155 324.6999 436.08802 280.11958 390.22 255.11944 L 386.68875 253.26006 C 357.88387 237.61335 323.66472 228.53812 290.04812 228.20147 z M 287.30789 258.8792 C 302.99975 258.78068 318.713 260.68739 333.05984 264.52569 L 335.68875 265.26006 C 351.4078 269.53481 366.27452 276.26748 380.31375 284.51006 C 420.28707 308.82072 447.83229 348.70172 459.08718 393.79717 L 459.68875 396.26006 C 464.3795 414.78287 464.21117 436.09732 462.00125 455.02373 C 455.58304 500.95401 433.21046 542.58473 396.38015 571.23662 L 393.68875 573.26006 C 376.43978 586.81444 356.85208 596.48708 335.74734 602.43194 L 332.68875 603.26006 C 313.34389 608.5148 294.34492 609.03016 274.4446 608.41827 C 235.9792 606.79575 193.04558 588.62937 166.55203 560.31475 L 164.68875 558.26006 C 142.30813 534.98992 126.56504 508.79553 118.26492 477.47881 L 117.68875 475.26006 C 116.64962 471.31304 115.24486 467.3478 115.68875 463.26006 C 121.14988 456.76061 128.61115 451.78551 135.79812 447.33428 C 160.78861 433.31598 191.69884 428.01673 219.70632 435.69561 L 221.68875 436.26006 C 236.93288 440.41847 250.95928 446.91251 265.16921 453.68584 C 281.78411 461.61551 298.502 469.40021 316.21609 474.56084 L 318.68875 475.26006 C 329.86816 478.4555 340.69282 479.58245 352.31375 479.63311 L 354.31375 479.63506 C 361.84969 479.64607 369.12182 479.51742 376.48953 477.82647 L 378.68875 477.26006 C 396.9184 472.58849 417.02263 464.23132 430.8489 451.13116 L 432.68875 449.26006 C 436.52159 445.47773 440.3184 441.76224 442.92312 437.00616 C 445.97422 428.96104 445.53757 420.27239 442.68875 412.26006 C 440.56375 411.57256 440.56374 411.57256 437.68875 411.26006 C 432.80018 412.88959 432.80016 412.88959 425.99343 419.88897 C 414.17554 432.04737 401.71653 440.56081 385.68093 446.36162 C 350.97577 458.11429 318.25877 446.94721 286.69851 431.61748 C 268.34493 422.69895 250.05028 414.0231 230.22781 408.89678 L 227.68875 408.26006 C 190.95013 398.84895 153.4918 407.48912 121.31375 426.1585 C 118.81634 427.63237 116.2934 428.98427 113.68875 430.26006 C 113.57533 426.28432 113.54189 422.31511 113.62039 418.33819 C 114.92143 378.78653 134.45657 337.84892 163.04421 310.64678 L 165.68875 308.26006 C 176.78266 298.22534 188.39727 288.63884 201.75125 281.74834 L 204.68875 280.26006 C 215.7301 274.28344 226.81265 269.55905 238.88992 266.05498 L 241.68875 265.26006 C 255.94644 261.0805 271.61602 258.97773 287.30789 258.8792 z M 220.96414 496.14873 C 219.03715 496.06791 217.08755 496.46046 214.68875 497.26006 C 210.65046 500.0558 207.8624 502.82915 205.68875 507.26006 C 205.39471 510.47139 205.59106 513.22499 206.68875 516.26006 C 222.04243 536.99432 250.89978 546.44838 275.15945 551.17998 C 294.24001 554.44172 321.06112 553.87512 337.50125 542.27569 C 341.15936 538.90499 342.50235 535.72461 343.12625 530.82256 C 342.41478 525.02917 340.27932 521.66989 335.93875 517.82256 C 331.73869 515.8033 329.31327 515.881 324.68875 516.26006 C 322.02162 517.1491 319.35553 518.00803 316.64968 518.77178 C 287.68601 526.43324 262.39862 518.42158 237.38601 503.92412 L 235.13796 502.61162 C 233.71628 501.78804 232.29564 500.9626 230.87625 500.13506 C 229.62608 499.37198 228.36989 498.61859 227.10671 497.87725 C 224.79553 496.78372 222.89112 496.22955 220.96414 496.14873 z M 39.688745 708.26006 L 92.688745 708.26006 L 92.688745 738.26006 L 39.688745 738.26006 L 39.688745 708.26006 z M 482.68875 708.26006 L 535.68875 708.26006 L 535.68875 738.26006 L 482.68875 738.26006 L 482.68875 708.26006 z "
     transform="translate(224.31125450134277,127.7399377822876)" />
</svg>
