<?xml version="1.0" encoding="UTF-8" standalone="no"?>
<svg height="24px" viewBox="0 -960 960 960" width="24px" fill="#FBC02D" version="1.1" id="svg1"
    xmlns="http://www.w3.org/2000/svg">
  <defs
      id="defs1">
    <!-- Removed inkscape:path-effect -->
  </defs>
  <!-- Removed sodipodi:namedview -->
  <path
      d="M480-80q-83 0-156-31.5T197-197q-54-54-85.5-127T80-480q0-83 31.5-156T197-763q54-54 127-85.5T480-880q83 0 156 31.5T763-763q54 54 85.5 127T880-480q0 83-31.5 156T763-197q-54 54-127 85.5T480-80Zm0-80q134 0 227-93t93-227q0-134-93-227t-227-93q-134 0-227 93t-93 227q0 134 93 227t227 93Zm0 0q-134 0-227-93t-93-227q0-134 93-227t227-93q134 0 227 93t93 227q0 134-93 227t-227 93Z"
      id="path1" />
  <rect
      style="fill:#FBC02D;stroke-width:40;fill-opacity:1"
      id="rect1"
      x="81.544403"
      y="-880.92664"
      width="798.14673"
      height="801.85327"
      rx="98.994949"
      ry="98.994949" />
</svg>
