<?xml version="1.0" encoding="UTF-8" standalone="no"?>
<svg
   version="1.1"
   width="1024"
   height="1024"
   id="svg2"
   xmlns="http://www.w3.org/2000/svg">
  <defs
     id="defs2" />
  <path
     d="M0 0 C5.36165701 3.66962134 10.63284458 7.44069831 15.84594727 11.31835938 C17.52038515 12.55799847 19.19486552 13.79758019 20.86938477 15.03710938 C21.71597656 15.66488281 22.56256836 16.29265625 23.43481445 16.93945312 C27.44080468 19.90731034 31.4561395 22.86244779 35.47094727 25.81835938 C37.05432974 26.98495935 38.63766297 28.15162616 40.22094727 29.31835938 C41.00469727 29.89585937 41.78844727 30.47335937 42.59594727 31.06835938 C44.97094727 32.81835937 47.34594727 34.56835938 49.72094727 36.31835938 C50.50453613 36.89569824 51.288125 37.47303711 52.09545898 38.06787109 C53.68058354 39.23594335 55.26554421 40.40423806 56.8503418 41.57275391 C60.77996357 44.46975079 64.71225079 47.36297077 68.65063477 50.24804688 C77.30011269 56.58943824 85.90980208 62.98314482 94.47094727 69.44335938 C95.82518799 70.4563208 95.82518799 70.4563208 97.20678711 71.48974609 C98.04677246 72.1267041 98.88675781 72.76366211 99.75219727 73.41992188 C100.86691406 74.26031006 100.86691406 74.26031006 102.00415039 75.11767578 C104.66762481 77.42077444 106.70815187 79.49491229 107.40454102 83.00195312 C107.40583008 83.74574219 107.40711914 84.48953125 107.40844727 85.25585938 C107.4277832 85.99707031 107.44711914 86.73828125 107.46704102 87.50195312 C106.06272846 94.05909758 99.45798227 97.61672272 94.34594727 101.25585938 C87.64898028 106.10205166 81.03931074 111.03069108 74.53344727 116.13085938 C68.84807463 120.58125723 63.13285898 124.97802083 57.34204102 129.29101562 C52.77497913 132.70236626 48.25210138 136.17206766 43.72094727 139.63085938 C35.49500139 145.90663855 27.23959782 152.14055712 18.9519043 158.33447266 C16.79735583 159.9483925 14.64749119 161.56841878 12.49829102 163.18945312 C11.39384644 164.02138184 11.39384644 164.02138184 10.26708984 164.87011719 C8.85064937 165.93726564 7.43508008 167.00557168 6.02050781 168.07519531 C1.05548895 171.81144948 -1.55197718 173.22341644 -7.70092773 173.17382812 C-11.65674955 172.5698352 -13.33563697 170.71378132 -16.02905273 167.81835938 C-16.99718527 164.91396177 -17.15050107 163.09017697 -17.14257812 160.0715332 C-17.14250259 159.1107637 -17.14242706 158.1499942 -17.14234924 157.16011047 C-17.13718796 156.12565292 -17.13202667 155.09119537 -17.12670898 154.02539062 C-17.12458656 152.43364265 -17.12458656 152.43364265 -17.12242126 150.80973816 C-17.1168188 147.41675002 -17.10426587 144.02382761 -17.09155273 140.63085938 C-17.08653805 138.3320322 -17.08197509 136.033204 -17.07788086 133.734375 C-17.06684857 128.09568066 -17.05010803 122.45702471 -17.02905273 116.81835938 C-62.66312751 127.16219923 -99.44023906 149.86741032 -125.02905273 189.81835938 C-148.88660534 228.45591487 -160.18162896 273.05813194 -165.02905273 317.81835938 C-165.10677917 318.47354616 -165.18450562 319.12873295 -165.2645874 319.80377388 C-166.12495448 327.53680639 -166.36929949 335.27377646 -166.57836914 343.04736328 C-166.59926267 343.79436029 -166.6201562 344.54135729 -166.64168286 345.31099057 C-167.16710708 364.48781209 -167.19673312 383.66690785 -167.22828293 402.84968185 C-167.23920166 409.3060331 -167.25948658 415.76233634 -167.28140259 422.21865845 C-167.3425939 440.54451373 -167.39761094 458.87035889 -167.43041992 477.19628906 C-167.44874299 487.38820565 -167.47761007 497.58003443 -167.51842463 507.77188647 C-167.53945571 513.13991204 -167.55494722 518.5078275 -167.5572319 523.87589645 C-167.55937267 528.8947006 -167.57518285 533.91327173 -167.60162163 538.93200493 C-167.60882555 540.77146178 -167.61091031 542.61094682 -167.60751915 544.45041466 C-167.60363259 546.95846185 -167.61804965 549.46576139 -167.63705444 551.97372437 C-167.63152475 552.70180278 -167.62599505 553.4298812 -167.62029779 554.1800226 C-167.67771627 558.56183048 -168.37059844 561.31479958 -171.02905273 564.81835938 C-174.36543048 567.25458639 -177.60609712 567.07729746 -181.64599609 567.09301758 C-182.30179153 567.09812851 -182.95758698 567.10323944 -183.633255 567.10850525 C-185.79522904 567.12237439 -187.95688333 567.12144657 -190.11889648 567.11914062 C-191.6257794 567.12302903 -193.13266122 567.127364 -194.63954163 567.13212585 C-197.79602615 567.13958228 -200.95239882 567.139301 -204.10888672 567.1340332 C-208.14855174 567.12823916 -212.18775817 567.14517039 -216.22734737 567.16837788 C-219.33894008 567.18312872 -222.45042267 567.1839851 -225.56204414 567.18086815 C-227.05115225 567.18138068 -228.54026663 567.18660566 -230.02934074 567.19668007 C-232.11409961 567.20905397 -234.1979696 567.20224821 -236.28271484 567.19067383 C-237.46755966 567.19130325 -238.65240448 567.19193268 -239.87315369 567.19258118 C-243.40450512 566.77383879 -245.2407738 566.00348538 -248.02905273 563.81835938 C-250.7152311 560.03497386 -250.31521451 555.79599271 -250.30079651 551.34765625 C-250.30842676 550.05287637 -250.30842676 550.05287637 -250.31621116 548.73193932 C-250.33089714 545.83361763 -250.33140606 542.93546569 -250.33203125 540.03710938 C-250.3396917 537.96061878 -250.34823793 535.8841313 -250.35760498 533.80764771 C-250.37590434 529.33003395 -250.3879303 524.85246212 -250.39514351 520.37481689 C-250.40663649 513.27831503 -250.4321026 506.18190513 -250.4594574 499.08544922 C-250.50115291 487.84006292 -250.53353315 476.59467211 -250.56193155 465.34924507 C-250.61275051 445.26962852 -250.67549447 425.19005258 -250.74727196 405.11050034 C-250.77200919 398.074512 -250.79152546 391.03853494 -250.8066541 384.00251961 C-250.81696515 379.5940854 -250.83111265 375.18566882 -250.84613037 370.77724838 C-250.85221131 368.75382791 -250.85671161 366.73040187 -250.85938835 364.70697403 C-250.883516 347.43076903 -251.25556648 330.17339967 -253.34155273 313.00585938 C-253.47198975 311.91748779 -253.60242676 310.82911621 -253.73681641 309.70776367 C-258.03046587 275.06964477 -266.62581648 241.25583984 -282.02905273 209.81835938 C-282.39111816 209.07505371 -282.75318359 208.33174805 -283.1262207 207.56591797 C-302.19169757 168.87799525 -333.92981882 137.6020867 -375.09155273 123.38867188 C-383.62692714 120.57319081 -392.23070973 118.64125884 -401.02905273 116.81835938 C-401.02017029 117.40638336 -401.01128784 117.99440735 -401.00213623 118.60025024 C-400.91349491 124.73226175 -400.8532489 130.8640906 -400.80932617 136.99658203 C-400.78923757 139.28376664 -400.76196146 141.57090005 -400.72729492 143.85791016 C-400.67865715 147.14954272 -400.65605594 150.44049495 -400.63842773 153.73242188 C-400.60746002 155.26088242 -400.60746002 155.26088242 -400.5758667 156.82022095 C-400.57398082 162.81601184 -400.99032263 166.27729512 -405.02905273 170.81835938 C-408.5436465 173.16142189 -410.38943474 173.43216223 -414.51831055 173.32714844 C-419.52218454 172.31313897 -423.06270111 168.88722694 -426.90405273 165.69335938 C-428.76479013 164.21002949 -430.62679474 162.728288 -432.48999023 161.24804688 C-433.41908203 160.50006836 -434.34817383 159.75208984 -435.30541992 158.98144531 C-439.29703727 155.81133688 -443.40504812 152.81284568 -447.52905273 149.81835938 C-456.20839372 143.46630666 -464.7622626 136.95607952 -473.30639648 130.42382812 C-476.86640875 127.70236862 -480.43870312 124.99963042 -484.02905273 122.31835938 C-490.48532863 117.49470497 -496.889548 112.60285402 -503.2902832 107.70581055 C-507.14978314 104.75621442 -511.00866986 101.81207961 -514.94311523 98.96289062 C-516.00272461 98.19332031 -517.06233398 97.42375 -518.15405273 96.63085938 C-519.04350586 95.99792969 -519.93295898 95.365 -520.84936523 94.71289062 C-524.06626277 91.91684169 -525.73209351 89.1546759 -526.65405273 85.00585938 C-525.08066482 76.98158099 -516.59669069 71.65410624 -510.27905273 67.19335938 C-508.58616209 65.97225792 -506.89345901 64.7508964 -505.20092773 63.52929688 C-504.34176758 62.9140918 -503.48260742 62.29888672 -502.59741211 61.66503906 C-498.54737179 58.75301387 -494.53976747 55.78417847 -490.52905273 52.81835938 C-488.94722197 51.65272267 -487.36519019 50.48735871 -485.78295898 49.32226562 C-482.60154662 46.9782392 -479.42204657 44.63165056 -476.24389648 42.28320312 C-468.55674709 36.60597125 -460.85210412 30.95742112 -453.09155273 25.38085938 C-445.59934479 19.99588691 -438.20388585 14.48871622 -430.83984375 8.92993164 C-429.28690133 7.75850849 -427.73159505 6.59021041 -426.17358398 5.42553711 C-424.79335377 4.3911501 -423.42028931 3.34709512 -422.05639648 2.29125977 C-417.81578952 -0.91251425 -415.30524233 -1.91712467 -410.11108398 -1.60742188 C-406.9087944 -0.95254464 -405.21022095 0.43890314 -403.02905273 2.81835938 C-401.10709202 5.95573254 -400.78390526 8.29857015 -400.80200195 11.95410156 C-400.80215302 12.97485779 -400.80230408 13.99561401 -400.80245972 15.04730225 C-400.81278229 16.14221985 -400.82310486 17.23713745 -400.83374023 18.36523438 C-400.83657013 19.49157288 -400.83940002 20.61791138 -400.84231567 21.77838135 C-400.853509 25.37514884 -400.87861237 28.97166716 -400.90405273 32.56835938 C-400.91408362 35.00715786 -400.92320928 37.44596025 -400.93139648 39.88476562 C-400.95344558 45.8627152 -400.9869149 51.84051948 -401.02905273 57.81835938 C-400.10616455 57.87677002 -399.18327637 57.93518066 -398.23242188 57.99536133 C-361.8998792 60.41816487 -326.37740975 73.77996651 -298.02905273 96.81835938 C-297.21694336 97.429375 -296.40483398 98.04039062 -295.56811523 98.66992188 C-280.52203767 110.29012331 -267.29521056 124.5605496 -256.02905273 139.81835938 C-255.22983398 140.8109375 -254.43061523 141.80351562 -253.60717773 142.82617188 C-235.20252815 165.74406356 -222.63890864 192.20542407 -213.02905273 219.81835938 C-212.72741211 220.67349121 -212.42577148 221.52862305 -212.11499023 222.40966797 C-211.83913086 223.20840332 -211.56327148 224.00713867 -211.27905273 224.83007812 C-211.03670898 225.52963623 -210.79436523 226.22919434 -210.54467773 226.94995117 C-210.02905273 228.81835938 -210.02905273 228.81835938 -210.02905273 231.81835938 C-209.36905273 231.81835938 -208.70905273 231.81835938 -208.02905273 231.81835938 C-207.90699463 230.790896 -207.78493652 229.76343262 -207.65917969 228.70483398 C-206.67371147 222.62669819 -204.40610848 217.11666182 -202.21655273 211.38085938 C-201.97462189 210.74507965 -201.73269104 210.10929993 -201.48342896 209.45425415 C-192.14239626 185.03539587 -179.6536964 162.73666331 -164.02905273 141.81835938 C-163.60543457 141.24907715 -163.18181641 140.67979492 -162.74536133 140.09326172 C-143.67410081 114.65296045 -120.44665869 93.34085891 -92.02905273 78.81835938 C-91.2854248 78.43695801 -90.54179688 78.05555664 -89.77563477 77.66259766 C-67.60923148 66.4288405 -42.14266154 57.67796701 -17.02905273 57.81835938 C-17.03793518 57.18022308 -17.04681763 56.54208679 -17.05596924 55.88461304 C-17.1445702 49.23355073 -17.20484018 42.58265651 -17.2487793 35.93115234 C-17.26887515 33.44996326 -17.29615657 30.96882143 -17.33081055 28.48779297 C-17.37941567 24.91817556 -17.40204246 21.34918521 -17.41967773 17.77929688 C-17.45064545 16.11959366 -17.45064545 16.11959366 -17.48223877 14.42636108 C-17.48403657 8.23409332 -17.21486433 4.51198682 -13.02905273 -0.18164062 C-9.00698907 -3.37155318 -4.27666506 -2.49056177 0 0 Z "
     fill="#000000"
     transform="translate(721.029052734375,229.181640625)"
     id="path2" />
</svg>
