<?xml version="1.0" encoding="UTF-8" standalone="no"?>
<svg version="1.1" width="1024" height="1024" id="svg9" xmlns="http://www.w3.org/2000/svg">
  <defs
     id="defs9" />
  <path
     id="path2"
     d="M 614.96828 -0.27434409 L 611.97024 -0.24504721 C 608.5556 -0.26177675 605.14272 -0.27273444 601.72805 -0.25871909 C 599.20724 -0.24764312 596.68638 -0.24390837 594.16555 -0.24700034 C 587.95049 -0.26268262 581.73414 -0.27012539 575.51906 -0.25676596 C 567.18414 -0.23720103 558.8501 -0.2317812 550.51516 -0.23918784 C 536.49503 -0.25235741 522.47474 -0.25025848 508.45461 -0.23332846 C 494.49739 -0.21611881 480.54075 -0.20396997 466.58352 -0.20403159 L 463.95852 -0.20403159 C 460.44056 -0.20409355 456.92179 -0.20388232 453.40383 -0.20403159 C 420.39364 -0.20589166 387.38276 -0.18981167 354.37258 -0.15910971 C 324.97466 -0.13175599 295.57716 -0.1168683 266.17922 -0.11809409 C 264.29013 -0.1181804 262.40229 -0.11801322 260.51321 -0.11809409 L 257.68117 -0.11809409 C 252.97776 -0.11829921 248.27521 -0.11792787 243.5718 -0.11809409 L 240.7593 -0.11809409 C 216.158 -0.11898139 191.55591 -0.11087492 166.95461 -0.098562837 L 164.30617 -0.098562837 C 160.78885 -0.096787729 157.27077 -0.094498478 153.75344 -0.092703462 C 141.52392 -0.086332954 129.29547 -0.08190299 117.06594 -0.080984712 C 101.22631 -0.079839704 85.386035 -0.074957977 69.546408 -0.055594087 C 61.164441 -0.045106747 52.7819 -0.036924513 44.399924 -0.039969087 C 38.763188 -0.042021503 33.126495 -0.038571125 27.489768 -0.028250337 C 24.904348 -0.022853677 22.319331 -0.018312074 19.733908 -0.014578462 C 16.147186 -0.019423512 12.560858 -0.023944702 8.9741427 -0.014578462 L 5.7573458 -0.0048128366 L 2.745627 -0.016531587 L -0.00046670437 -0.00090658665 C -3.4052744 0.0016368683 -5.5958091 0.44489445 -8.5102323 2.2529997 C -11.132238 5.4217489 -12.410081 7.5287688 -12.980935 11.624093 L -12.936014 15.260812 C -12.92319 17.275059 -12.910497 19.289949 -12.867654 21.303781 C -12.838122 22.690334 -12.816681 24.077118 -12.805154 25.463937 C -12.780453 29.731772 -12.752548 33.991582 -12.510232 38.253 C -10.466318 48.564207 -4.3527225 56.617046 3.4897677 63.253 L 15.489768 69.253 L 16.489768 111.253 C 14.489772 110.253 14.490284 110.2535 12.595236 109.63972 L 10.259299 108.94636 C 6.4121536 107.8023 2.5602081 106.67266 -1.2914823 105.54402 C -3.4063387 104.92713 -5.5209281 104.30928 -7.6352323 103.6905 C -10.747919 102.76493 -13.859919 101.83936 -16.977029 100.92878 L -19.955545 100.06159 C -24.86112 98.588901 -29.7318 97.11268 -34.857889 96.702218 C -38.510713 97.252755 -38.510016 97.252414 -41.199685 99.713937 C -43.759459 103.0228 -44.106422 105.72996 -44.166482 109.84284 L -44.12742 112.41902 C -44.146875 115.36202 -44.160086 118.30408 -44.141092 121.24714 C -44.126174 123.41806 -44.118743 125.58789 -44.12156 127.75886 C -44.140614 133.7472 -44.141975 139.73536 -44.119607 145.7237 C -44.09495 152.27016 -44.092663 158.81589 -44.098123 165.36237 C -44.10911 177.44034 -44.100798 189.51881 -44.074685 201.59675 C -44.048298 213.61818 -44.027421 225.63974 -44.023904 237.6612 L -44.023904 239.92292 C -44.022898 243.7143 -44.020738 247.50459 -44.019998 251.29597 C -44.014761 278.15361 -43.988542 305.01257 -43.945779 331.87019 C -43.90409 358.0058 -43.873954 384.14078 -43.861795 410.27644 L -43.859842 412.7198 C -43.856825 419.20612 -43.854951 425.69246 -43.852029 432.17878 C -43.839612 460.16666 -43.81674 488.1538 -43.791482 516.14167 C -43.786718 521.40811 -43.782064 526.67406 -43.77781 531.9405 C -43.764968 547.84464 -43.750722 563.74926 -43.725076 579.65339 C -43.715379 585.58741 -43.70502 591.5221 -43.699685 597.45612 C -43.695125 603.59687 -43.690198 609.73727 -43.678201 615.878 C -43.673372 618.10284 -43.668542 620.32699 -43.664529 622.55183 C -43.663933 625.64302 -43.662492 628.73407 -43.654764 631.82527 L -43.646951 634.59089 C -43.65414 639.74888 -44.222892 643.4333 -40.510232 647.378 C -34.851823 650.91451 -34.85178 650.9145 -19.000467 647.36433 L -15.572732 646.5655 C -8.4841943 644.9861 -1.4601269 643.26733 5.5346895 641.31745 L 7.948752 640.63972 C 9.5692939 640.18744 11.189572 639.73665 12.81008 639.28425 L 16.489768 638.253 C 16.467491 653.25675 16.449441 668.26095 16.438986 683.26472 C 16.433966 690.55847 16.428676 697.85183 16.417502 705.14558 C 16.40747 711.55221 16.399127 717.95964 16.396018 724.36628 C 16.394831 727.74955 16.394453 731.13146 16.388205 734.51472 C 16.381227 737.75205 16.377064 740.99027 16.376486 744.22761 L 16.376486 747.80573 L 16.364768 751.20027 L 16.368674 754.29792 C 16.365476 757.38402 16.502959 759.29257 17.489768 762.253 C 20.40811 765.75501 23.843394 768.04424 28.394065 768.62019 L 31.624533 768.61042 L 35.306174 768.61823 C 37.294134 768.59939 39.28102 768.58171 41.269065 768.57722 C 44.065013 768.57569 46.861845 768.57049 49.657736 768.55183 C 53.289276 768.52335 56.92061 768.49871 60.552268 768.49323 C 63.391134 768.48975 66.229043 768.48421 69.067893 768.4737 C 70.420688 768.46794 71.773691 768.46188 73.126486 768.45612 L 77.09133 768.44245 L 80.741721 768.41511 C 83.739175 768.39588 85.812929 768.59142 88.489768 767.253 C 95.893663 762.54064 97.355299 756.75219 99.21633 748.54402 C 99.519435 747.20227 99.83102 745.86358 100.15383 744.52644 C 101.3181 739.77848 102.405 735.0215 103.48977 730.253 L 107.48977 712.253 L 164.48977 713.253 L 162.48977 717.253 C 160.83996 720.38872 159.20105 723.52711 157.605 726.6905 C 152.59066 736.88245 146.68229 748.83057 150.48977 760.253 C 155.18291 765.7148 162.06194 767.66978 168.89992 769.02839 L 171.55227 769.503 C 185.25974 772.03174 197.93676 771.86924 211.55422 768.6905 L 214.17727 768.0655 C 218.84749 766.97291 223.50382 765.88201 228.07766 764.43073 C 247.10528 758.00002 263.72163 756.76019 282.61086 764.42683 C 299.13464 771.17097 314.48672 777.11936 332.42336 772.49714 C 343.35975 769.39169 354.43102 765.92273 365.86672 765.61628 L 368.30227 765.628 C 382.71731 765.66516 396.06275 770.23416 409.36477 775.253 C 432.10753 783.87688 453.00768 787.25288 476.67141 779.43464 C 478.81673 778.71067 480.96578 777.99902 483.11867 777.29792 C 486.24344 776.28646 489.36703 775.27071 492.48977 774.253 C 507.93777 769.16017 523.11238 768.57076 538.84328 772.91706 C 558.55579 778.40044 578.73809 783.78248 598.97414 777.98347 C 602.6261 776.91285 606.28105 775.85576 609.94289 774.81941 C 611.79212 774.29824 613.6411 773.77616 615.48977 773.253 C 631.87124 768.46985 647.19752 768.49242 664.11477 770.253 C 681.55622 772.08376 698.73962 772.09253 715.76321 767.33894 C 720.50551 765.62837 724.22948 763.97905 726.48977 759.253 C 727.31103 754.27301 726.93729 749.65302 725.11477 744.9405 C 715.56667 726.10953 698.66629 713.22017 679.17727 706.128 C 675.36725 704.82074 671.79036 703.42092 668.2593 701.44831 C 663.40064 697.59703 661.23566 693.71368 660.2261 687.59675 C 660.02145 686.20224 659.79748 684.81027 659.56008 683.42097 L 659.18508 681.27253 C 658.63843 678.07677 658.05855 674.90738 657.30227 671.753 C 652.40696 654.96185 643.15422 642.84096 627.81008 634.31941 L 625.98586 633.31941 C 624.73831 632.62853 623.48961 631.93972 622.23977 631.253 C 616.46706 628.17422 612.11425 625.13734 609.52102 618.93659 C 608.9083 616.34609 608.25841 613.80298 607.48977 611.253 C 601.89132 599.77638 601.82039 589.66486 601.96047 577.06159 C 601.9876 574.71955 602.00597 572.37839 602.01516 570.0362 C 602.02807 563.87624 602.05822 557.71743 602.11281 551.55769 C 602.16968 545.18294 602.20398 538.80762 602.23 532.43269 C 602.28419 518.70586 602.37357 504.97943 602.48977 491.253 L 604.13821 493.53034 L 606.30813 496.52448 C 612.32993 504.83643 620.19177 517.59553 629.48977 522.253 C 636.16677 523.30066 640.10312 521.27307 645.81789 517.87605 L 648.73977 516.0655 C 652.40655 513.90161 656.0261 511.73244 659.48977 509.253 C 662.35961 506.29003 663.36803 505.24723 663.86477 501.1905 C 663.34468 497.11652 662.12392 494.98186 659.42336 491.878 C 641.242 472.75769 630.65756 452.34409 626.48977 426.253 C 633.06693 426.253 633.06721 426.252 647.1343 414.77058 C 656.34072 407.18234 665.01867 401.7938 676.49367 398.18269 C 678.50653 397.5581 680.51439 396.91719 682.51711 396.26081 C 690.20836 393.59726 695.69617 390.84018 699.48977 383.253 C 700.17394 377.07645 699.91424 373.23825 696.26711 368.15534 C 685.69339 353.49842 679.57034 339.09842 674.48977 321.8155 C 671.20988 310.64449 667.925 299.69044 662.57375 289.29987 L 661.48977 287.253 C 655.13021 275.21817 647.74782 264.05399 639.85305 252.97956 C 629.99343 239.16663 620.97064 224.95353 613.56594 209.6573 C 612.21992 206.83296 610.88481 204.00736 609.43313 201.23542 C 602.43892 187.89312 601.34393 175.86797 601.45852 160.94636 C 601.47945 158.44738 601.48543 155.94932 601.47805 153.45027 C 601.44093 146.86233 601.42848 140.27456 601.45852 133.68659 C 601.48962 126.87464 601.4854 120.06303 601.46633 113.25105 C 601.423 98.584853 601.43314 83.919132 601.48977 69.253 C 607.97068 69.253 614.07274 64.455606 618.57571 60.22175 C 628.07629 50.449722 631.98015 40.604393 631.98781 26.893625 L 631.92727 23.378 C 631.96748 16.666982 632.74222 9.8450238 628.48977 4.2529997 C 624.03598 0.41035243 620.79154 -0.21362234 614.96828 -0.27434409 z M 48.489768 71.253 L 570.48977 71.253 L 570.48977 565.253 L 565.48977 563.253 C 563.30407 562.39424 561.11647 561.5403 558.92727 560.6905 L 555.54836 559.37409 C 553.1804 558.50614 550.93263 557.83363 548.48977 557.253 L 548.48781 554.35456 C 548.45209 497.71323 548.39567 441.07204 548.31203 384.43073 C 548.30199 377.63386 548.29247 370.83699 548.28274 364.04011 L 548.27883 361.99128 C 548.24742 340.06196 548.23003 318.13155 548.21828 296.20222 C 548.20579 273.0313 548.17711 249.85943 548.1343 226.68855 C 548.10913 212.80483 548.09745 198.92189 548.09914 185.03816 C 548.09916 175.52508 548.08432 166.01213 548.05813 156.49909 C 548.04344 151.00579 548.03528 145.51195 548.04446 140.01862 C 548.05271 134.99243 548.04187 129.96663 548.01711 124.9405 C 548.0114 123.11942 548.01257 121.29868 548.02102 119.47761 C 548.03151 117.00652 548.01777 114.5365 547.99758 112.0655 L 548.02492 109.9112 C 547.94653 104.92656 546.68393 102.04969 543.48977 98.253 C 540.01974 95.590819 536.02795 95.971408 531.82961 95.995187 L 529.46828 95.985422 C 526.8407 95.976074 524.21307 95.980572 521.58547 95.985422 C 519.68889 95.981687 517.7926 95.977145 515.89602 95.97175 C 510.6719 95.95948 505.44826 95.959631 500.22414 95.961984 C 494.59488 95.962392 488.96474 95.951947 483.33547 95.942453 C 472.30227 95.925821 461.26908 95.920129 450.23586 95.919015 C 441.27055 95.918065 432.30469 95.913644 423.33938 95.907297 C 402.07354 95.892547 380.80835 95.88086 359.5425 95.881906 L 357.48 95.881906 C 354.03187 95.882072 350.58441 95.881701 347.13625 95.881906 L 345.06203 95.881906 C 343.67712 95.881987 342.29068 95.88182 340.90578 95.881906 C 319.35561 95.883132 297.80554 95.868245 276.25539 95.84089 C 252.05243 95.81018 227.849 95.794133 203.64602 95.795968 C 190.82777 95.796633 178.01112 95.790111 165.19289 95.768625 C 154.28043 95.750451 143.36708 95.747203 132.45461 95.760812 C 126.88431 95.767361 121.31397 95.766378 115.74367 95.749093 C 110.64735 95.733441 105.55093 95.735484 100.45461 95.753 C 98.608074 95.756087 96.762057 95.752374 94.915549 95.741281 C 92.410221 95.727223 89.905207 95.738255 87.399924 95.754953 L 85.21633 95.725656 C 80.198462 95.796624 77.356232 97.107529 73.489768 100.253 C 69.888797 105.36653 69.953051 110.58808 69.802268 116.628 L 69.698752 119.43659 C 69.616773 121.7086 69.547463 123.98026 69.489768 126.253 C 67.67612 125.8203 65.863905 125.38154 64.052268 124.9405 L 60.993674 124.20222 C 56.774839 123.05932 52.636369 121.6352 48.489768 120.253 L 48.489768 71.253 z M 97.489768 122.253 L 521.48977 122.253 L 521.48977 155.253 C 488.57992 155.4112 455.66944 155.53651 422.7593 155.61042 C 418.87524 155.61918 414.99101 155.62852 411.10696 155.63777 L 408.76516 155.64362 C 396.23955 155.6741 383.71251 155.7297 371.18703 155.79402 C 358.33768 155.85944 345.48968 155.89699 332.64016 155.9112 C 324.7092 155.92081 316.77796 155.95205 308.84719 156.00886 C 302.76896 156.05019 296.6912 156.05346 290.61281 156.04402 C 288.11703 156.04595 285.62212 156.06022 283.12649 156.08698 C 279.72482 156.12169 276.3251 156.11396 272.92336 156.0948 L 269.9136 156.1573 C 263.35303 156.05705 263.35355 156.0565 260.84133 153.7198 C 259.52136 151.8451 259.52112 151.84399 258.50344 149.97956 C 255.77939 145.33784 250.39496 143.64517 245.48977 142.253 C 237.1959 141.41681 229.59817 141.56964 222.48977 146.253 C 219.90986 148.49639 217.96781 150.49205 216.15774 153.37995 C 214.49039 155.25376 214.48888 155.253 212.2925 155.74519 L 209.68703 155.73347 L 206.69094 155.75105 L 203.40969 155.70612 L 199.94875 155.70808 C 196.16629 155.70529 192.38538 155.67493 188.60305 155.64362 C 185.98418 155.63617 183.36451 155.63004 180.74563 155.62605 C 174.55135 155.61361 168.35775 155.58024 162.1636 155.54011 C 155.11172 155.49541 148.05933 155.47425 141.00735 155.45417 C 126.50108 155.41235 111.99584 155.33911 97.489768 155.253 L 97.489768 122.253 z M 97.489768 182.253 L 243.48977 182.253 C 242.48977 187.25298 242.48975 187.253 240.56399 188.92097 L 238.17727 190.4405 C 232.97986 194.27451 230.93158 198.00223 229.48977 204.253 C 228.94152 208.25615 228.6629 212.2191 228.48977 216.253 C 218.37171 220.34794 208.23825 224.38638 198.01711 228.21784 L 195.38039 229.20808 C 191.84496 230.53587 188.30947 231.8623 184.76906 233.17683 C 175.06235 236.78594 165.48148 240.55565 156.09524 244.9405 L 153.76125 246.01862 C 139.99656 252.6055 133.06743 263.01196 126.48977 276.253 C 125.86582 277.47619 125.24084 278.69887 124.61477 279.92097 C 123.32495 282.45879 122.05714 285.00635 120.80227 287.56159 C 118.96915 291.29366 117.10806 295.01107 115.23977 298.72566 L 113.49367 302.20222 C 112.34965 304.47851 111.20255 306.75525 110.05617 309.03034 C 103.25924 320.57592 103.26019 320.5755 101.48977 333.253 C 104.10714 337.0101 106.7564 339.35121 110.63821 341.74128 L 113.66555 343.62214 L 116.86477 345.5655 L 120.1343 347.56941 C 122.27689 348.87844 124.42332 350.1841 126.5718 351.48347 C 129.0289 352.97384 131.46859 354.48516 133.90383 356.01081 C 135.09811 356.73907 136.29332 357.46581 137.48977 358.1905 L 140.48977 360.03034 C 144.57388 361.69484 147.08676 361.75455 151.48977 361.253 C 155.71414 358.40679 157.85434 353.4009 160.23977 349.003 L 161.48586 346.74519 C 162.49326 344.91781 163.49236 343.08585 164.48977 341.253 L 165.48977 341.253 C 165.62337 355.63012 165.21718 369.95193 164.61477 384.3155 C 164.52508 386.52505 164.43491 388.73485 164.34524 390.94441 C 163.76241 405.04311 163.05801 419.12966 162.09914 433.20808 C 161.85803 436.88903 161.6572 440.56794 161.48977 444.253 L 161.38821 446.44831 C 161.29517 448.736 161.23599 451.02263 161.18508 453.31159 L 161.09328 455.44245 C 161.03031 460.5366 162.21053 463.38918 165.48977 467.253 C 168.60025 469.43575 171.83967 469.75364 175.56399 470.253 L 179.23781 470.74909 L 183.17727 471.253 L 185.1968 471.51667 C 198.26294 473.21389 211.34058 474.40578 224.48977 475.253 L 227.00539 475.42878 C 250.35473 477.03596 273.60934 476.61152 296.92727 474.878 L 299.56203 474.68659 C 302.05834 474.50189 304.55333 474.30582 307.04836 474.10456 L 309.27688 473.93659 C 317.26563 473.25437 323.68363 472.05912 329.48977 466.253 C 333.26334 454.93224 329.91746 439.24589 329.17727 427.503 C 329.04236 425.31398 328.90711 423.12566 328.77297 420.93659 C 328.42126 415.21084 328.06594 409.48426 327.70852 403.75886 C 327.13545 394.56852 326.56921 385.37739 326.00344 376.18659 C 325.80558 372.98417 325.6042 369.78342 325.40383 366.58112 C 325.28244 364.62184 325.16183 362.66153 325.04055 360.70222 L 324.87063 358.01277 C 324.62919 354.08599 324.4188 350.18965 324.48977 346.253 C 327.2813 349.6649 329.85796 353.16182 332.34133 356.79987 C 333.84786 358.70609 334.98728 359.19445 337.38625 359.47566 C 343.2306 359.63582 347.06746 358.56093 352.12258 355.71003 L 354.18508 354.60261 C 356.33789 353.44084 358.47622 352.25328 360.61477 351.0655 C 362.05531 350.2872 363.49671 349.51049 364.93899 348.73542 C 366.33431 347.97841 367.72887 347.21999 369.12258 346.46003 L 371.04836 345.4112 C 372.88339 344.3903 374.69111 343.33663 376.48977 342.253 L 378.43313 341.08894 C 381.58506 339.04859 383.25928 337.68793 385.04836 334.31355 C 385.584 330.6014 385.00583 328.72595 383.55617 325.28034 L 382.11086 321.83503 C 379.35772 315.75427 376.44875 309.76579 373.42727 303.8155 L 372.44094 301.86042 C 368.05526 293.16966 363.59814 284.51556 358.98977 275.9405 L 357.61086 273.34284 C 343.43572 247.3822 318.13741 240.34303 292.01516 230.753 C 286.16679 228.60498 280.3214 226.44528 274.48 224.27839 C 272.45598 223.52986 270.43054 222.78719 268.40383 222.04597 L 264.67922 220.66902 L 261.4136 219.47175 C 258.546 218.2769 256.02566 217.0495 253.48977 215.253 C 252.86477 212.44051 252.86477 212.44049 253.48977 209.253 C 255.83754 205.89904 257.83554 203.73588 261.11477 201.3155 C 267.06174 196.15101 266.72544 189.8963 267.48977 182.253 L 521.48977 182.253 L 521.48977 551.253 C 516.73086 548.87354 514.36906 547.48616 510.73977 544.003 C 494.53728 529.08412 477.43495 523.41678 455.59133 523.96784 C 439.79094 524.66638 426.74022 530.47344 413.76711 539.09675 C 406.59195 543.81747 400.89562 547.47356 392.15774 547.24519 C 368.05229 546.7982 348.21811 550.23724 329.48977 566.253 L 327.54836 567.88972 C 323.5471 571.57533 320.58222 575.87575 317.48977 580.3155 C 308.77097 592.77907 299.41218 596.6944 284.61477 599.6905 C 260.90821 604.85105 246.76293 615.62739 232.48977 635.253 L 97.489768 635.253 L 97.489768 182.253 z M 239.86281 239.46784 C 246.62886 239.61983 254.00544 243.58734 259.98977 245.878 L 263.34914 247.15144 C 266.0642 248.1813 268.77769 249.21524 271.48977 250.253 C 269.62592 257.72636 266.60403 262.28532 260.34524 266.79987 C 252.07133 271.72653 243.0445 273.3307 233.48977 272.253 C 224.08384 269.82324 215.92044 265.52988 210.48977 257.253 C 209.77008 255.27147 209.09294 253.27305 208.48977 251.253 C 213.43329 249.2567 218.3809 247.27151 223.33742 245.30769 C 226.23777 244.15843 229.11609 242.98568 231.98586 241.76081 L 234.73977 240.628 L 237.00539 239.65144 C 237.94118 239.50136 238.89623 239.44613 239.86281 239.46784 z M 601.48977 264.253 C 604.82472 267.58796 607.20968 270.01494 609.72414 273.77253 L 611.45071 276.3448 L 613.23977 279.0655 L 615.10891 281.90339 C 627.70559 301.1925 635.09872 320.03678 641.49172 342.15925 C 643.85618 350.29744 646.48446 358.29677 649.40774 366.25105 C 651.48976 371.96499 651.48977 371.96478 651.48977 375.253 L 648.0093 377.08894 C 640.41876 381.1605 633.0959 385.22315 626.36477 390.628 C 618.90765 396.60493 611.36781 401.253 601.48977 401.253 L 601.48977 264.253 z M -5.5160917 332.92487 C -4.5720926 332.96213 -3.5803013 333.07778 -2.5102323 333.253 C 0.29978886 335.04664 1.9991812 336.27181 3.4897677 339.253 C 3.5957476 341.0134 3.6375739 342.77852 3.6499239 344.54206 L 3.6792208 347.88972 L 3.6928927 351.52253 L 3.7104708 355.24519 C 3.7199308 357.84861 3.726162 360.45229 3.730002 363.05573 C 3.736562 367.03921 3.7707177 371.02163 3.8022677 375.00495 C 3.8087977 377.53164 3.8140527 380.05834 3.8178927 382.58503 L 3.855002 386.20027 L 3.8452364 389.57722 L 3.8569552 392.54011 C 3.3358157 396.38851 1.8204487 399.16874 -1.1977323 401.628 C -4.7397288 402.5853 -8.1374357 402.65991 -11.510232 401.253 C -14.635149 398.50982 -16.247047 396.76076 -16.969217 392.62019 C -17.138677 389.34076 -17.150532 386.09512 -17.103982 382.81159 L -17.103982 379.17487 C -17.098632 376.64235 -17.082161 374.10959 -17.053201 371.57722 C -17.011321 367.7013 -17.011165 363.82635 -17.018045 359.95027 C -17.007555 357.48737 -16.994612 355.02446 -16.978982 352.56159 L -16.978982 349.05183 L -16.930154 345.77448 L -16.904764 342.90144 C -16.430244 339.71449 -15.39999 337.84653 -13.510232 335.253 C -10.746515 333.41051 -8.3480689 332.81303 -5.5160917 332.92487 z M 69.489768 625.253 L 69.53469 627.52839 C 69.609535 630.95784 69.705345 634.38661 69.802268 637.8155 L 69.870627 641.39558 C 70.101983 650.25624 70.101993 650.2563 73.489768 658.253 C 77.20845 660.99918 79.86141 661.63103 84.444846 661.65144 L 88.06008 661.6905 L 92.001486 661.68464 C 93.391374 661.69366 94.779586 661.70436 96.169455 661.71589 C 99.935578 661.74345 103.70207 661.75286 107.46828 661.75886 C 111.40679 661.76825 115.34625 661.79499 119.28469 661.81941 C 126.73954 661.86307 134.19303 661.892 141.64797 661.91511 C 150.13648 661.94216 158.62634 661.98502 167.11477 662.03034 C 184.57317 662.12318 202.03122 662.19525 219.48977 662.253 C 216.39958 667.80615 213.85339 671.25346 208.62063 675.00691 C 206.56358 676.48277 204.5439 678.01009 202.56789 679.59284 C 189.73511 688.93378 174.50624 687.42261 159.39602 687.16511 C 155.48714 687.10823 151.57673 687.10348 147.6675 687.09284 C 140.29033 687.06505 132.91524 686.99218 125.5386 686.90144 C 117.12988 686.80028 108.72121 686.75116 100.31203 686.70612 C 83.03726 686.61245 65.763745 686.44742 48.489768 686.253 L 48.489768 630.253 C 65.489717 625.25301 65.48978 625.253 69.489768 625.253 z "
     transform="translate(155.5102323293686,89.74700033664703)" />
</svg>
