<?xml version="1.0" encoding="UTF-8" standalone="no"?>
<svg version="1.1" width="1024" height="1024" id="svg7" xmlns="http://www.w3.org/2000/svg">
  <defs
     id="defs7" />
  <path
     id="path2"
     d="M -9.9492188 -1.826416 C -11.100874 -1.9069637 -12.232883 -1.8995302 -13.310547 -1.7561035 C -14.747431 -1.5648679 -16.087643 -1.1322916 -17.248047 -0.34594727 L -18.587891 1.5290527 L -20.646484 4.2790527 C -29.508919 16.434323 -40.077881 26.093818 -52.587891 34.529053 C -77.744161 50.554082 -106.88864 57.100255 -136.55273 51.27124 L -139.58789 50.529053 C -165.4347 44.334146 -191.09568 31.423155 -206.52539 9.0915527 C -208.98734 5.4075298 -211.02185 2.2035781 -214.58789 -0.47094727 C -250.80362 -2.6996078 -250.80384 -2.6995174 -329.44727 44.447021 C -332.02267 45.994905 -334.60074 47.536114 -337.19141 49.05835 C -345.95025 54.183028 -354.58654 59.362523 -362.83789 65.279053 C -366.71391 68.086371 -370.59394 70.869237 -374.58008 73.519287 L -377.80664 75.630615 C -379.98241 77.057101 -382.15949 78.481597 -384.33789 79.904053 C -390.56157 83.902922 -396.35555 87.358384 -400.58789 93.529053 C -401.83489 97.270042 -401.93482 98.787553 -400.25781 102.37671 C -399.23271 104.31242 -398.22565 106.25643 -397.24805 108.21655 C -390.2218 122.31568 -383.1835 136.40992 -376.12305 150.49194 L -375.14062 152.45093 L -373.21094 156.29663 C -371.47553 159.75707 -369.74241 163.21957 -368.01367 166.68335 C -365.82076 171.0826 -363.62539 175.48084 -361.41016 179.8689 C -360.65575 181.35947 -359.90261 182.84986 -359.15039 184.34155 C -358.11967 186.42039 -357.08977 188.4993 -356.03906 190.56812 L -355.0918 192.42358 L -353.46094 195.66968 C -350.92179 199.54639 -347.859 202.96221 -343.20898 204.1228 L -341.02539 204.02905 C -338.20761 203.98887 -336.75766 203.62746 -334.30273 202.19312 C -328.545 198.82444 -328.54449 198.82491 -322.65234 195.69312 L -319.27539 193.90405 L -315.93359 192.09155 L -312.66211 190.36499 C -309.96421 188.92328 -307.56426 187.69128 -304.5332 187.18726 L -302.39258 186.95093 L -298.58789 186.52905 C -298.47994 201.14834 -298.75643 215.73236 -299.23828 230.34351 C -299.31989 232.81331 -299.39927 235.28377 -299.47852 237.75366 C -299.66983 243.75663 -299.8623 249.75868 -300.05859 255.76147 C -300.31147 263.48593 -300.56077 271.21069 -300.80859 278.9353 C -301.61824 304.17623 -302.44332 329.41665 -303.30078 354.65601 C -303.41046 357.87956 -303.51961 361.1043 -303.62891 364.32788 C -303.92729 373.13469 -304.22374 381.94137 -304.5332 390.7478 C -305.03011 404.88374 -305.61601 419.02417 -305.7207 433.16968 L -305.72852 435.80249 C -305.74432 439.1962 -306.13399 442.43687 -304.58789 445.52905 C -301.46914 449.19271 -298.86617 451.13639 -294.22266 452.49194 C -292.83927 452.86216 -291.46046 453.2483 -290.08594 453.65015 L -287.9082 454.29077 C -266.25396 460.48391 -246.48781 469.48296 -230.76367 486.09546 L -228.58789 488.52905 C -212.87296 506.03497 -202.4274 525.02877 -195.58789 547.52905 C -193.29392 555.17248 -191.40043 562.82882 -186.11133 569.01733 C -179.22043 575.85523 -171.05916 576.74245 -161.73633 576.80054 L -158.82617 576.78882 C -155.54101 576.79992 -152.25589 576.80759 -148.9707 576.80249 C -146.62248 576.79782 -144.27402 576.7953 -141.92578 576.79663 C -137.00832 576.80181 -132.09128 576.80387 -127.17383 576.79663 C -120.80433 576.78467 -114.4359 576.77741 -108.06641 576.78882 C -103.08543 576.79819 -98.104031 576.80348 -93.123047 576.80054 C -90.738947 576.79803 -88.354804 576.79603 -85.970703 576.79468 C -82.56742 576.80146 -79.165 576.80731 -75.761719 576.79858 L -72.607422 576.78882 C -64.010234 576.82522 -55.173624 576.69214 -47.275391 572.96655 C -40.919437 567.20186 -37.888107 560.3862 -35.521484 552.25366 C -34.88525 549.97 -34.231178 547.69209 -33.5625 545.41772 L -32.529297 541.95093 C -29.336807 531.22716 -25.428573 521.12394 -19.544922 511.54858 L -17.587891 508.52905 C -0.56679564 482.04571 25.500638 461.17113 56.537109 454.27905 C 63.003522 452.96937 69.016996 451.92803 73.830078 447.10718 C 75.755745 442.75184 75.849073 439.39435 75.8125 434.67358 L 75.724609 431.27905 C 75.535674 410.89915 74.453426 390.52311 73.359375 370.17554 C 72.173572 348.22 71.099081 326.264 70.255859 304.29272 L 70.140625 301.25952 L 70.017578 298.06421 C 69.412859 282.27988 69.411908 282.27949 67.566406 237.67749 C 67.333303 232.04422 67.101767 226.41039 66.869141 220.7771 C 66.430033 210.14284 65.990584 199.50898 65.550781 188.87476 L 65.412109 185.52905 L 67.46875 185.90796 L 70.181641 186.42554 C 73.398953 187.03 76.188136 187.7031 79.107422 189.19312 C 80.876319 190.20448 82.645877 191.21452 84.427734 192.20288 L 86.392578 193.28687 C 89.834681 195.21146 93.284386 197.11789 96.777344 198.94897 L 98.849609 200.02905 C 104.26128 203.00089 108.17719 204.37785 114.41211 203.52905 C 119.21872 200.58647 121.46687 197.22292 124.00586 192.26343 C 124.75207 190.74076 125.5067 189.22216 126.27148 187.70874 L 127.45898 185.36499 C 129.08586 182.12186 130.73986 178.89572 132.4375 175.68921 C 138.958 163.38823 145.32729 151.01284 151.59961 138.58374 C 153.24588 135.31651 154.88916 132.04828 156.55078 128.78882 C 158.22193 125.51874 159.89029 122.247 161.54102 118.96655 C 162.16608 117.72112 162.79252 116.47644 163.41992 115.23218 L 165.24805 111.67749 L 166.9082 108.34741 C 169.18071 103.8611 169.84838 100.57145 169.41211 95.529053 C 165.19845 88.96071 165.19839 88.960655 134.27734 68.331787 C 131.57371 66.531549 128.87082 64.730844 126.17188 62.923584 C 114.63742 55.197706 102.99763 47.683338 91.160156 40.429443 C 88.916449 39.059047 86.673328 37.689137 84.433594 36.312256 C 57.447779 19.697251 31.159575 6.3199029 0 -0.00024414062 C -2.8633843 -0.54908983 -6.494253 -1.5847729 -9.9492188 -1.826416 z M -69.787109 152.43335 C -64.382765 152.71392 -59.016227 154.13049 -53.587891 156.52905 C -41.414919 163.09829 -32.931026 173.5129 -28.650391 186.71655 C -24.903434 203.1183 -28.20582 219.39826 -36.8125 233.73608 C -43.451258 244.18146 -51.437171 252.80243 -60.216797 261.43921 C -62.157417 263.34845 -64.087705 265.2691 -66.015625 267.19116 C -71.495586 272.6365 -76.977675 278.03026 -82.863281 283.04077 C -85.327281 285.16717 -87.663246 287.41946 -90.015625 289.66772 C -109.56745 308.30785 -109.56775 308.30715 -117.58789 308.52905 C -126.37926 304.45846 -133.7819 295.84404 -140.69336 289.21265 C -143.97546 286.07177 -147.36861 283.08217 -150.80078 280.10718 C -152.99429 278.17068 -155.05084 276.12878 -157.08789 274.02905 C -159.83644 271.24285 -162.61649 268.57596 -165.58789 266.02905 C -183.75084 250.34777 -200.72813 229.6441 -202.9082 204.89233 C -203.39231 189.19115 -198.12738 175.8446 -187.48242 164.34155 C -172.37443 149.88772 -151.26968 149.07176 -133.77539 159.77905 C -126.70831 164.64679 -119.76682 169.89796 -115.58789 177.52905 L -115.58789 179.52905 L -113.58789 179.52905 L -112.83398 177.33374 C -107.9896 166.43008 -96.824793 159.56911 -86.212891 155.15405 C -80.633671 153.0082 -75.191454 152.15278 -69.787109 152.43335 z M 100.20703 290.81812 C 97.414932 290.84545 94.706283 291.32752 92.501953 292.83765 C 90.854432 295.39455 90.85443 295.39457 91.412109 301.52905 C 93.551737 303.66868 95.61941 304.77854 98.408203 305.91968 C 102.66925 307.21543 106.70597 307.27276 110.84961 305.46655 C 113.25022 302.4898 113.4774 300.31596 113.41211 296.52905 C 111.78797 293.47568 111.45926 292.8251 108.41211 291.52905 C 105.87471 291.21817 102.99913 290.79078 100.20703 290.81812 z M 133.22461 301.40405 C 129.41211 301.52905 129.41211 301.52905 126.34961 303.59155 C 124.41211 306.52905 124.41211 306.52907 124.03711 309.46655 C 126.17742 314.23362 129.79553 316.29335 134.41211 318.52905 C 138.14059 319.70235 141.16124 320.0743 144.84961 318.46655 C 146.41211 316.52905 146.41211 316.52905 147.28711 313.52905 C 147.41211 310.52907 147.41211 310.52905 145.41211 307.52905 C 141.76425 304.56625 137.86101 302.31902 133.22461 301.40405 z M 162.32227 318.60522 C 161.23627 318.6228 160.70898 318.90405 158.59961 320.02905 C 156.41211 322.52905 156.41211 322.52907 155.97461 326.15405 C 156.45306 329.84495 156.45307 329.84496 159.9707 332.8689 C 164.24786 336.50581 168.24325 340.32787 172.16211 344.34155 C 174.60473 346.87141 176.68155 349.11351 179.74023 350.85327 L 181.41211 351.52905 C 176.7584 356.95838 172.17796 361.66698 171.52734 369.10913 L 171.40039 371.1814 C 171.21678 373.47281 171.03934 375.76281 170.88477 378.0564 C 170.77778 379.66999 170.66504 381.28342 170.54688 382.89624 C 170.24572 386.93794 169.9583 390.98065 169.69727 395.02515 L 169.41211 399.52905 C 169.18075 403.02866 168.95263 406.52745 168.75391 410.02905 L 168.59961 412.96655 C 168.45227 415.50434 168.33163 418.02418 168.31836 420.56616 C 168.57985 426.02625 171.37912 428.80332 175.10938 432.43921 C 180.12515 437.21727 184.9841 442.05717 189.53711 447.27905 C 191.5182 449.60703 192.99228 451.29208 195.6543 452.79468 L 197.41211 453.52905 L 197.41211 455.52905 C 199.28711 457.65405 199.28711 457.65405 201.41211 459.52905 L 203.41211 459.52905 L 203.41211 461.52905 C 204.86067 463.1541 206.43456 464.54836 208.07617 465.97632 C 213.04627 470.1953 217.67894 474.69138 222.2793 479.30835 C 223.75584 480.79771 225.23312 482.28703 226.71289 483.77319 C 229.90555 486.97597 233.09544 490.18079 236.2832 493.38843 C 240.04109 497.17023 243.7973 500.95375 247.56055 504.73022 C 249.07724 506.25172 250.59483 507.77302 252.10742 509.29858 C 257.91183 515.15336 264.937 525.10162 273.47461 526.65405 C 280.48137 526.43162 284.70698 523.68222 289.55469 518.92944 L 291.38477 517.07397 C 293.47065 515.01032 295.55333 512.94295 297.62305 510.86304 C 299.10189 509.37486 300.58351 507.89014 302.06836 506.40796 C 305.17654 503.31013 308.28314 500.20959 311.37891 497.09937 C 315.39074 493.06358 319.40618 489.03366 323.44141 485.02124 C 326.59528 481.88609 329.74513 478.74489 332.88672 475.59741 C 334.38823 474.09088 335.8899 472.5852 337.39258 471.07983 C 339.55047 468.93551 341.70724 466.79046 343.84961 464.63062 L 345.82617 462.63257 C 351.38943 457.14309 355.90198 451.82874 356.84961 443.84155 C 356.26884 439.4443 354.51062 436.783 351.60742 433.47046 L 349.56055 431.41772 L 347.20312 429.03882 L 344.62891 426.47241 C 341.77408 423.60134 338.91876 420.73073 336.05469 417.8689 C 334.00409 415.82041 331.95543 413.77035 329.9082 411.71851 C 325.09051 406.88959 320.26951 402.06435 315.44336 397.2439 C 310.43381 392.24058 305.42943 387.2316 300.43359 382.2146 C 296.1082 377.87076 291.77843 373.53121 287.44336 369.19702 C 284.86044 366.61605 282.27744 364.03464 279.70117 361.44702 C 277.24509 358.97759 274.78777 356.51057 272.32031 354.05249 L 269.58203 351.32788 C 263.95232 345.64714 259.26801 340.1378 250.95898 339.09741 L 247.16211 339.01733 C 245.00182 338.96064 242.84243 338.90822 240.68164 338.87476 C 239.16193 338.8524 237.64259 338.8246 236.12305 338.79272 C 231.58034 338.69193 227.03759 338.61289 222.49414 338.55444 L 220.41211 338.52905 C 217.04554 338.48323 213.67928 338.44065 210.3125 338.41577 L 207.47461 338.40405 C 204.44411 338.38789 201.44257 338.42612 198.41211 338.52905 L 195.41211 339.52905 C 192.65911 339.24918 191.3481 338.48142 189.10742 336.81421 C 184.49125 332.82241 179.80468 328.98089 174.88477 325.37085 L 173.03711 324.02905 C 170.03547 321.79755 167.2782 319.80581 163.67383 318.65405 C 163.1084 318.6228 162.68426 318.59937 162.32227 318.60522 z M 219.28711 367.3689 C 223.14995 367.37995 225.91515 368.47329 229.61133 371.06421 C 233.31906 374.08026 235.15142 376.55484 235.78711 381.3689 C 236.03325 387.59167 235.73448 391.72643 231.41211 396.52905 L 229.53711 398.77905 C 225.59254 402.02752 221.9118 402.74857 216.91211 402.40405 C 211.30359 401.59341 207.87566 399.15082 204.09961 394.96655 C 201.2259 390.81565 201.15599 387.48066 201.41211 382.52905 C 202.41211 379.59156 202.41211 379.59155 203.41211 377.52905 C 205.96697 380.01294 208.27488 382.32779 210.28711 385.27905 C 213.1313 388.29055 215.37397 388.29608 219.41211 388.52905 C 221.60858 386.24473 222.39993 385.05274 222.47461 381.84155 C 220.97046 377.15215 218.28968 373.48901 215.41211 369.52905 L 216.41211 367.52905 C 217.44531 367.42143 218.39569 367.36635 219.28711 367.3689 z "
     transform="translate(560.587890625,223.470947265625)" />
</svg>
