<?xml version="1.0" encoding="UTF-8" standalone="no"?>
<svg version="1.1" width="1024" height="1024" id="svg3" xmlns="http://www.w3.org/2000/svg">
  <defs
     id="defs3" />
  <path
     id="path2"
     d="M 149.96289 -216.94141 C 108.86371 -215.66021 68.451608 -199.86601 36.519531 -172.21484 L 34 -170 C -1.6274574 -140.75155 -32.896095 -92.189197 -42 -47 C -40.148953 -46.336458 -38.297662 -45.673571 -36.445312 -45.013672 L -34.125 -44.1875 C -27.805155 -41.918407 -21.446849 -39.879417 -15 -38 C -2.1916103 -73.475654 15.614095 -110.01131 43.257812 -136.45312 C 44.660581 -137.75598 46.063635 -139.05974 47.449219 -140.38086 C 66.576177 -158.66305 89.161187 -173.0124 114.69336 -180.35156 L 117 -181 C 128.68794 -184.41288 140.05739 -185.33256 152.17578 -185.37305 L 154.4375 -185.375 C 157.29091 -185.38286 160.14293 -185.37638 162.99609 -185.33594 C 201.98994 -184.47722 240.91727 -164.20968 267.70312 -136.46094 L 270 -134 C 308.73192 -92.501511 331.50434 -40.924889 341.43359 14.757812 L 342 18 C 345.83061 38.902778 346.37133 59.661508 346.375 80.857422 L 346.375 82.9375 C 346.39643 97.794006 346.5518 112.63466 344.53906 127.38281 L 344 131 C 343.60233 133.7536 343.18749 136.49796 342.70703 139.23828 L 342.25 141.6875 C 340.61273 150.62045 338.47996 159.38438 336.10547 168.14844 C 334.92741 172.47357 333.79218 176.79115 332.82031 181.16797 L 332 185 L 330 185 L 330 183 C 317.93167 157.01759 297.51691 140.68052 271.94336 129.24023 L 269.77734 128.28125 C 261.52298 124.62034 253.20343 121.12936 244.84766 117.70703 C 242.27313 116.65573 239.69931 115.60349 237.12695 114.54688 C 235.40268 113.83817 233.6782 113.13057 231.95312 112.42383 L 229.48438 111.41406 C 226.66413 110.25537 223.84692 109.09176 221 108 C 218.98893 107.36752 216.98433 106.71194 215 106 C 211.28471 100.16168 211.15884 89.743544 212 83 C 223.38599 71.614006 233.02663 59.39824 240.07031 44.923828 L 241 43 C 252.57711 19.613631 256.34238 -4.0211348 256.16797 -29.902344 C 255.70266 -55.236867 244.7592 -80.222674 226.60547 -97.851562 C 206.6048 -116.53799 180.13281 -128.17698 152.5 -127.25391 C 127.0248 -125.40582 100.38602 -116.10075 82.628906 -96.875 L 81 -95 C 78.692657 -92.456337 76.479095 -89.880306 74.332031 -87.199219 C 57.987227 -64.776447 50.752956 -36.749189 54.667969 -9.1875 L 55 -7 C 58.026547 20.042392 69.256939 56.077372 90.855469 74.425781 C 92.65806 75.897855 94.415178 77.428059 96.113281 79.019531 C 100.04379 85.22859 99.376344 93.945567 98 101 C 92.722811 106.96057 92.721822 106.96106 84.882812 109.91992 C 83.486608 110.52299 82.095269 111.13467 80.707031 111.75586 L 78.625 112.6875 C 76.488278 113.55421 74.512335 114.45375 72.525391 115.625 C 70.14877 117.767 70.148767 117.76603 69.337891 123.30664 C 69.095929 125.23203 68.786546 127.15079 68.431641 129.05859 L 67.773438 132.37891 C 60.517844 170.04501 46.339004 203.85774 22.5 234.125 C 19.653004 237.66573 17.456131 240.67909 16 245 C 26.155944 249.6819 36.362651 254.18505 46.714844 258.41797 C 58.424652 263.19726 70.002537 268.1446 81.363281 273.71484 C 83.602794 274.82195 85.842805 275.92465 88.099609 276.99609 C 126.73864 295.19189 161.10954 322.7443 177.78516 362.99219 L 179 366 C 207.98875 366 240.68859 349.16806 263.25781 332.12109 C 264.72011 330.99 266.18506 329.86045 267.66016 328.74609 C 274.64547 323.4734 281.29282 318.09719 287.37891 311.78125 C 288.78303 310.29133 290.18977 308.80331 291.60938 307.32812 C 299.52098 299.11523 306.9576 290.6922 313.81641 281.57812 L 315 280 C 349.20384 235.01872 368.20814 181.13087 374.96875 125.29297 C 384.87794 35.868063 366.0092 -63.224293 309.43359 -134.94141 L 307 -138 C 299.04317 -148.14052 290.31771 -157.14355 280.65625 -165.67188 L 278 -168 C 262.27249 -182.22545 244.84543 -193.55809 225.37109 -201.98633 L 223 -203 C 199.52994 -213.25396 174.6224 -217.71012 149.96289 -216.94141 z M -88.171875 -29.466797 C -119.70362 -28.175967 -150.83446 -15.968522 -173.9375 6.5625 C -199.0825 32.858899 -211.19613 65.053136 -211.25195 101.21094 L -211.25 103.3125 C -211.24484 109.25227 -211.4124 115.20729 -210.54492 121.09375 L -210 124 C -206.24619 145.86466 -201.07892 167.52863 -190.13281 187.02148 L -189 189 C -182.80469 199.84479 -176.3134 210.62531 -168 220 C -164.43301 222.78642 -160.65561 225.35396 -157.92773 229.01562 C -154.38882 236.59103 -155.21053 249.82397 -157.9082 257.62305 C -160.81268 263.94084 -164.02365 266.83748 -170.43359 269.41992 L -172.57031 270.25 C -174.10778 270.8652 -175.64603 271.48076 -177.18359 272.0957 C -181.09423 273.64035 -184.99434 275.20664 -188.89062 276.78711 L -191.20703 277.72656 C -224.18978 291.08189 -259.23595 304.11091 -287 327 C -313.52386 350.45403 -328.6158 379.35224 -331.8125 414.73242 L -332.04297 417.5 C -333.02686 429.16482 -333.59535 440.83343 -334.00586 452.53125 L -334.125 456 C -334.74406 473.70333 -335.17949 491.40476 -335.2832 509.11914 C -335.29301 511.55859 -335.30244 513.99805 -335.3125 516.4375 C -335.34031 519.91096 -335.3656 523.38384 -335.36719 526.85742 L -335.36328 530.05859 C -335.475 542.05025 -332.86737 550.75507 -325 560 C -316.9677 567.94137 -307.45677 571.45858 -296.24219 571.45312 L -293.20703 571.39062 C -290.12472 571.37758 -287.04297 571.358 -283.96094 571.3125 C -277.17015 571.2193 -277.17 571.219 -270.37891 571.15039 C -268.18146 571.12807 -265.98455 571.10502 -263.78711 571.08203 L -260.73828 571.04883 L -256 571 C -255.94442 559.69 -255.8771 548.38012 -255.79102 537.07031 C -255.74588 531.30577 -255.6997 525.54199 -255.66992 519.77734 C -255.64381 514.12854 -255.61395 508.47874 -255.56641 502.83008 C -255.547 500.68346 -255.52856 498.53726 -255.51172 496.39062 C -255.50266 493.29549 -255.49307 490.20048 -255.46289 487.10547 L -255.43164 484.26562 C -255.43862 479.97022 -255.70333 476.32133 -253.65625 472.47461 C -251.97257 470.76486 -251.97289 470.76578 -249.0625 470.125 C -245.856 469.99412 -244.54269 470.09298 -242 472 C -240.78855 474.02642 -240.0493 475.62847 -239.73828 477.97656 L -239.7207 480.08789 L -239.6875 482.52734 L -239.68164 485.17578 C -239.64971 488.12305 -239.62036 491.06822 -239.60352 494.01562 C -239.59189 496.1224 -239.57715 498.22921 -239.55859 500.33594 C -239.50559 505.85367 -239.45871 511.37276 -239.42188 516.89062 C -239.38384 522.60993 -239.33709 528.32962 -239.28711 534.04883 C -239.18925 545.17291 -239.10282 556.29568 -239.02539 567.41992 L -239 571 C -192.26368 571.06706 -145.52738 571.11931 -98.791016 571.15039 C -93.154733 571.15412 -87.519095 571.15819 -81.882812 571.16211 L -78.476562 571.16406 C -60.259444 571.17681 -42.043274 571.19901 -23.826172 571.22656 C -5.0695092 571.25496 13.686675 571.27469 32.443359 571.28125 C 44.003362 571.28502 55.563067 571.29199 67.123047 571.31641 C 75.1185 571.3333 83.113903 571.34337 91.109375 571.3418 C 95.728201 571.33952 100.34798 571.33466 104.9668 571.34766 C 109.24265 571.36274 113.51904 571.37582 117.79492 571.36914 C 119.3586 571.36531 120.92069 571.36264 122.48438 571.36133 C 126.52797 571.38663 130.56068 571.37799 134.60352 571.27539 C 144.23499 570.4963 153.66677 566.56129 160.375 559.5 L 162 557 C 170.47554 545.87585 170.57731 534.57308 170.41602 521.17188 C 170.388 519.03351 170.36641 516.89436 170.35156 514.75586 C 170.24249 497.45116 169.80561 480.15305 169.25 462.85742 L 169.125 459.0625 C 168.70354 445.98321 168.18464 432.9206 167.27148 419.86523 L 167.01172 416.29297 C 166.71524 412.1908 166.40334 408.09317 166 404 C 161.84977 371.37577 145.57781 344.44754 119.99219 324.26172 L 117 322 C 92.110898 303.07685 62.636805 291.74461 33.601562 280.82422 L 30.699219 279.73438 C 25.956886 277.94922 21.216444 276.15859 16.458984 274.41406 C 14.67013 273.75922 12.882918 273.10012 11.097656 272.43555 L 8.578125 271.49609 C 2.7677252 269.41193 -1.5124166 267.30497 -6 263 C -10.024646 257.93198 -10.557735 252.36316 -10.644531 246.05859 L -10.625 242.875 C -10.720043 239.75378 -10.736104 236.70843 -10.537109 233.5918 C -9.8051997 230.06227 -8.4092488 228.54659 -5.6679688 226.3125 C -4.0009782 225.00049 -3.999022 224.99951 -2.5585938 223.49609 L -1.1757812 221.91406 C 31.517474 184.72407 47.358358 137.4096 45 88 C 42.614842 54.487725 27.762297 24.216438 2.4492188 2.0820312 L 0 0 C -24.707301 -21.131848 -56.640128 -30.757627 -88.171875 -29.466797 z "
     transform="translate(483,335)" />
</svg>
