<svg height="448pt" viewBox="-48 0 448 448" width="448pt" xmlns="http://www.w3.org/2000/svg"><path d="m220.894531 116.320312 34.289063-68.578124-16.457032-38.40625-51.871093 84.289062zm0 0"/><path d="m258.175781 225.703125-50.175781 12.542969v33.753906h61.753906zm0 0"/><path d="m187.3125 288 92.230469 92.230469 29.425781-34.320313-61.320312-57.910156zm0 0"/><path d="m144 238.246094-50.175781-12.542969-11.578125 46.296875h61.753906zm0 0"/><path d="m72.457031 380.230469 92.230469-92.230469h-60.335938l-61.320312 57.910156zm0 0"/><path d="m0 424c0 13.253906 10.746094 24 24 24h144v-140.6875l-90.34375 90.34375c-1.5 1.5-3.535156 2.34375-5.65625 2.34375h-.3125c-2.222656-.089844-4.3125-1.101562-5.757812-2.792969l-40-46.664062c-2.777344-3.238281-2.523438-8.082031.574218-11.015625l29.144532-27.527344h-55.648438zm0 0"/><path d="m160 240h32v32h-32zm0 0"/><path d="m0 296h72c.175781 0 .3125.089844.488281.097656l8.566407-8.097656h-9.054688c-2.460938 0-4.789062-1.136719-6.304688-3.074219-1.515624-1.941406-2.050781-4.472656-1.457031-6.863281l3.515625-14.0625h-67.753906zm0 0"/><path d="m352 312h-55.648438l29.144532 27.519531c3.097656 2.933594 3.351562 7.777344.574218 11.015625l-40 46.664063c-1.445312 1.691406-3.535156 2.703125-5.757812 2.792969h-.3125c-2.121094 0-4.15625-.84375-5.65625-2.34375l-90.34375-90.335938v140.6875h144c13.253906 0 24-10.746094 24-24zm-144 104c-4.417969 0-8-3.582031-8-8s3.582031-8 8-8 8 3.582031 8 8-3.582031 8-8 8zm0-48c-4.417969 0-8-3.582031-8-8s3.582031-8 8-8 8 3.582031 8 8-3.582031 8-8 8zm0 0"/><path d="m56 56c-30.914062.035156-55.9648438 25.085938-56 56v136h71.753906l8.484375-33.9375c1.070313-4.289062 5.417969-6.894531 9.707031-5.824219l63.03125 15.761719h15.023438v-113.054688l-35.558594 23.710938c-1.316406.875-2.863281 1.339844-4.441406 1.34375-.695312 0-1.382812-.089844-2.054688-.265625-2.222656-.589844-4.078124-2.101563-5.105468-4.160156l-37.785156-75.574219zm0 0"/><path d="m352 264h-67.753906l3.515625 14.0625c.59375 2.390625.058593 4.921875-1.457031 6.863281-1.515626 1.9375-3.84375 3.074219-6.304688 3.074219h-9.054688l8.566407 8.097656c.175781 0 .3125-.097656.488281-.097656h72zm0 0"/><path d="m96.816406 47.742188 34.289063 68.578124 34.039062-22.695312-51.871093-84.289062zm0 0"/><path d="m352 112c-.035156-30.914062-25.085938-55.964844-56-56h-27.054688l-37.746093 75.574219c-1.023438 2.058593-2.882813 3.570312-5.101563 4.160156-.6875.179687-1.390625.269531-2.097656.265625-1.578125-.003906-3.125-.46875-4.441406-1.34375l-35.558594-23.710938v113.054688h15.023438l63.03125-15.761719c4.289062-1.070312 8.636718 1.535157 9.707031 5.824219l8.484375 33.9375h71.753906zm-144 96c-4.417969 0-8-3.582031-8-8s3.582031-8 8-8 8 3.582031 8 8-3.582031 8-8 8zm0-48c-4.417969 0-8-3.582031-8-8s3.582031-8 8-8 8 3.582031 8 8-3.582031 8-8 8zm0 0"/><path d="m191.222656 56h-30.445312l15.222656 24.734375zm0 0"/><path d="m150.9375 40h50.125l24.617188-40h-99.359376zm0 0"/></svg>