<svg id="Layer_1" height="512" viewBox="0 0 512 512" width="512" xmlns="http://www.w3.org/2000/svg" data-name="Layer 1"><path d="m411 174.13a.28.28 0 0 1 0-.09 86 86 0 0 0 -5.56-21.1c0-.06-.05-.13-.08-.2a86.38 86.38 0 0 0 -98.31-51.87c-2.23.48-4.44 1-6.61 1.71a86.5 86.5 0 0 0 -36.69 22.27 28 28 0 0 1 24.38 27.3v2a28.06 28.06 0 0 1 -27.53 28.51l-21.55.37v2.24a86.34 86.34 0 0 0 172.68 0 88.32 88.32 0 0 0 -.73-11.14zm-80.59 60.27v12.09a5 5 0 1 1 -10 0v-12.08a27.28 27.28 0 0 1 -20.17-16.22 5 5 0 0 1 9.22-3.9 17.31 17.31 0 1 0 16-24 27.31 27.31 0 0 1 -5-54.15v-12.14a5 5 0 0 1 10 0v12.08a27.18 27.18 0 0 1 19.35 14.47 5 5 0 0 1 -8.91 4.54 17.31 17.31 0 1 0 -15.44 25.15 27.31 27.31 0 0 1 5 54.16z"/><path d="m278.16 152.33v2a18.06 18.06 0 0 1 -17.72 18.34l-48.43.85c-6.67.11-46 3.89-58.92 10.23a98.87 98.87 0 0 1 -43.37 10.2h-11.29v-89.34c8.94-.59 27.32-2.06 33.71-4.59 12.86-5.1 38.58-14.33 65.86-18.78 32.15-5.24 57.08-2.52 74.12 8.07.3.18 1 .63 14.64 7.69a96.83 96.83 0 0 0 -36.31 27.78l-53.24.93a5 5 0 0 0 .08 10h.09l55.37-1a2.67 2.67 0 0 0 .4 0l6.65-.12h.32a18.05 18.05 0 0 1 18.04 17.74z"/><path d="m36 73.46v151.89h52.43v-151.89zm31.22 131.14a5 5 0 0 1 -10 0v-36.52a5 5 0 0 1 10 0z"/><path d="m413.57 318.08v89.32c-8.95.58-27.32 2.05-33.71 4.58-12.89 5.1-38.58 14.33-65.88 18.78-32.15 5.24-57.08 2.53-74.1-8.06-3.52-2.19-107.4-55.39-119.24-61.46a19 19 0 0 1 17.27-33.88l89.44 45.58a28.06 28.06 0 0 0 24.51 14.45h.49l62.42-1.09a5 5 0 1 0 -.17-10l-62.42 1.09h-.32a18.05 18.05 0 0 1 -18-17.72v-2a18.06 18.06 0 0 1 17.72-18.34l48.43-.85c6.67-.11 46-3.89 58.92-10.23a98.87 98.87 0 0 1 43.37-10.2z"/><path d="m423.57 286.65v151.89h52.43v-151.89zm31.21 57.27a5 5 0 1 1 -10 0v-36.52a5 5 0 0 1 10 0z"/></svg>