<?xml version="1.0" encoding="UTF-8"?>
<svg xmlns="http://www.w3.org/2000/svg" viewBox="0 0 512 512" width="512" height="512"><g id="GLYPH"><path d="M164,263.78345V232a4.0002,4.0002,0,0,0-4-4H48a4.0002,4.0002,0,0,0-4,4v31.78345L20.02246,487.57373A4.00025,4.00025,0,0,0,24,492H64a4.00048,4.00048,0,0,0,3.90039-3.11328L104,330.04883l36.09961,158.83789A4.00048,4.00048,0,0,0,144,492h40a4.00025,4.00025,0,0,0,3.97754-4.42627ZM84,260V236h40v24Zm72,0H132V236h24ZM52,236H76v24H52Zm52,72a4.00048,4.00048,0,0,0-3.90039,3.11328L66.26123,460H31.02271L45.81055,321.98389l15.55957-6.22364A35.82919,35.82919,0,0,0,84,282.335V268h40v14.335a35.82919,35.82919,0,0,0,22.62988,33.42529l15.55957,6.22364L176.97729,460H141.73877L107.90039,311.11328A4.00048,4.00048,0,0,0,104,308Z"/><path d="M127.03027,187.88037l32,8a3.99611,3.99611,0,0,0,4.64649-2.30469l43.3125-101.063a173.94538,173.94538,0,0,1-7.18457,96.61572l-3.54981,9.46728a3.99974,3.99974,0,0,0,1.41992,4.65918,100.354,100.354,0,0,0,116.6504,0,3.99974,3.99974,0,0,0,1.41992-4.65918l-3.54981-9.46777a173.94333,173.94333,0,0,1-7.18457-96.61523l43.3125,101.063a3.99924,3.99924,0,0,0,4.64649,2.30469l32-8a3.99947,3.99947,0,0,0,2.74414-5.36572L335.7832,52.688A51.75009,51.75009,0,0,0,287.502,20h-63.0039A51.75009,51.75009,0,0,0,176.2168,52.688L124.28613,182.51465a3.99947,3.99947,0,0,0,2.74414,5.36572ZM281.94043,31.74658a26.73894,26.73894,0,0,1-51.88086.00049L229.12305,28H282.877Z"/><path d="M490.002,469.791l-12.44531-112A19.97847,19.97847,0,0,0,457.67969,340H451.7251l-5.45459-76.3667A38.50425,38.50425,0,0,0,408,228a37.98063,37.98063,0,0,0-12,1.94849A37.98063,37.98063,0,0,0,384,228a38.50425,38.50425,0,0,0-38.27051,35.6333L340.2749,340h-5.95459a19.97847,19.97847,0,0,0-19.877,17.791l-12.44531,112v.00048A20.00008,20.00008,0,0,0,321.876,492H470.124A20.00016,20.00016,0,0,0,490.002,469.791ZM408,236a30.47463,30.47463,0,0,1,30.29,28.20361L443.70361,340H427.7251l-5.45459-76.3667a38.36105,38.36105,0,0,0-14.88037-27.61841C407.59375,236.01074,407.7959,236,408,236Zm-12,2.5a30.48029,30.48029,0,0,1,18.29,25.70361L419.70361,340H372.29639L377.71,264.20361A30.48029,30.48029,0,0,1,396,238.5Zm-42.29,25.70361A30.47463,30.47463,0,0,1,384,236c.2041,0,.40625.01074.60986.01489a38.36105,38.36105,0,0,0-14.88037,27.61841L364.2749,340H348.29639ZM312.93457,480.00342a12.018,12.018,0,0,1-2.98535-9.3291L322.39453,358.6748A11.98668,11.98668,0,0,1,334.32031,348H444.44922a19.93345,19.93345,0,0,0-3.88086,9.791L428.124,469.7915A20.02626,20.02626,0,0,0,432.01025,484H321.876A12.01318,12.01318,0,0,1,312.93457,480.00342Z"/><rect x="344" y="452" width="56" height="8"/><path d="M316.42188,329.78906l7.15624-3.57812-16-32A4.00028,4.00028,0,0,0,300,296a44.04978,44.04978,0,0,1-44,44,43.52858,43.52858,0,0,1-27.36816-9.54541A67.68993,67.68993,0,0,0,186.58984,316H184v8h2.58984a59.65985,59.65985,0,0,1,37.06153,12.71533A51.45222,51.45222,0,0,0,256,348a52.09131,52.09131,0,0,0,50.24219-38.57129Z"/><path d="M256,244a52.09131,52.09131,0,0,0-50.24219,38.57129l-10.17969-20.36035-7.15624,3.57812,16,32A4.00028,4.00028,0,0,0,212,296a44.04978,44.04978,0,0,1,44-44,43.52858,43.52858,0,0,1,27.36816,9.54541A67.68993,67.68993,0,0,0,325.41016,276H328v-8h-2.58984a59.65985,59.65985,0,0,1-37.06153-12.71533A51.45222,51.45222,0,0,0,256,244Z"/></g></svg>
