<svg height="512" viewBox="0 0 96 96" width="512" xmlns="http://www.w3.org/2000/svg"><g><path d="m60.6084 19.001a7.5276 7.5276 0 0 0 7.3886-8.8033c-2.1138-9.7214-16.111-7.2536-14.7714 2.6046a7.5112 7.5112 0 0 0 7.3828 6.1987z"/><path d="m84.4463 86.6187-4.4541-34.7457a1.001 1.001 0 0 0 -.9922-.873h-12.0464l11.8628-2.1841a.9985.9985 0 0 0 .7959-1.1968l-4.7773-21.8984a6.0342 6.0342 0 0 0 -5.8614-4.7207h-37.34a3.6334 3.6334 0 0 0 -.3877 7.2461l19.8144 2.123 3.9277 21.6575-4.4343 34.5916c-.6532 5.67 7.3617 7.53 9.2588 2.1322l7.3711-21.87 7.9736 21.9746c1.9835 5.2541 9.9428 3.4224 9.2891-2.2363z"/><path d="m47 50a1 1 0 0 0 -1-1h-34a1 1 0 0 0 -1 1v4a.3417.3417 0 0 1 .0088.1338l5 37a1 1 0 0 0 .9912.8662h24a1 1 0 0 0 .9912-.8662c-.0035-.161 5.0288-36.9958 5.0088-37.1338zm-2.9553 11h-5.6087l.4866-6h5.9329zm-8.8321 15h-5.2126v-5h5.6179zm2.4126-5h5.0682l-.6756 5h-4.7978zm-22.3186 0h5.0682l.4054 5h-4.798zm7.0755 0h5.6179v5h-5.2126zm5.6179-16v6h-6.4287l-.4866-6zm0 8v6h-5.78l-.4864-6zm2 6v-6h6.2666l-.4866 6zm0-8v-6h6.9153l-.4866 6zm-10.9226-6 .4866 6h-5.6087l-.8108-6zm.6487 8 .4865 6h-5.1762l-.8108-6zm-3.4737 15h4.69l.4053 5h-4.42zm6.6976 0h5.05v5h-4.645zm5.05 7v5h-4.0774l-.4055-5zm2 0h4.4829l-.4055 5h-4.0774zm0-2v-5h5.05l-.4054 5zm7.0576-5h4.69l-.6757 5h-4.42zm5.906-9h-5.1762l.4865-6h5.5005zm-25.7652 16h4.3116l.4054 5h-4.0414zm18.8863 5 .4054-5h4.3115l-.6756 5z"/><path d="m30.7793 34.22c-.5955-.5906-1.5415-1.1668-2.2578-1.73-2.1307-1.801-4.13-1.6729-4.4658 1.276a3.5753 3.5753 0 0 1 -.6094 1.6811c-1.0357 1.2229-3.8318 1.4853-3.8975 3.5529 0 1.2838 1.1973 1.8907 2.07 2.3341 1.1092.5964 2.1581 1.16 2.4512 2.3017.4213 2.0979 2.5092 2.2116 4.126.8437.1973-.149.409-.289.6152-.4276a8.0662 8.0662 0 0 0 1.2647-.9751 2.3317 2.3317 0 0 0 .4482-2.4234 6.1852 6.1852 0 0 1 -.1257-1.6534c-.1475-1.639 1.7991-3.1759.3809-4.78z"/></g></svg>