<svg height="512" viewBox="0 0 378.038 378.538" width="512" xmlns="http://www.w3.org/2000/svg"><g><path d="m378.038 318.538c0 33.137-26.863 60-60 60h-258.038c-33.137 0-60-26.863-60-60v-258.038c0-33.137 26.863-60 60-60h258.038c33.137 0 60 26.863 60 60z" fill="#feed50"/><g><path d="m59.999.499h258.038v.002h-258.038z" fill="none" stroke="#1d1d1b" stroke-miterlimit="10"/><path d="m0 60.5v3.006h378.038v-3.006c0-33.136-26.862-59.999-59.998-60h-258.042c-33.136.001-59.998 26.864-59.998 60z" fill="#fa1016"/><path d="m0 63.506h378.038v63.006h-378.038z" fill="#fb8b31"/><path d="m0 189.519h378.038v63.006h-378.038z" fill="#1b802a"/><path d="m0 252.525h378.038v63.006h-378.038z" fill="#0852f5"/><path d="m378.038 318.538v-3.006h-378.038v3.006c0 33.137 26.863 60 60 60h258.038c33.137 0 60-26.863 60-60z" fill="#8c0784"/></g></g></svg>