<?xml version="1.0" encoding="UTF-8" standalone="no"?>
<svg
    version="1.0"
    width="424.000000pt"
    height="649.000000pt"
    viewBox="0 0 424.000000 649.000000"
    preserveAspectRatio="xMidYMid meet"
    xmlns="http://www.w3.org/2000/svg">
  <g
      transform="translate(0.000000,649.000000) scale(0.100000,-0.100000)"
      fill="#000000"
      stroke="none">
    <path
        d="M -5.4870377,2655.2655 V 308.26277 l 1450.8646377,1.51906 1450.1019,2.2787 13.9614,921.83587 -783.2318,8.6101 h -582.4807 l -0.7626,1788.7353 -1.5243,1788.7352 -12.4321,173.6813 -1534.4964377,8.6102 z M 1351.6008,3031.2418 V 1242.5065 H 768.35816 185.11528 v 1788.7353 l 0.76239,1788.7352 h 583.24288 582.48025 z m 0,-2255.85706 V 482.95875 l -580.95537,1.51916 -581.71812,2.2786 -2.28726,290.90682 -1.52477,290.14727 h 583.24288 583.24264 z m 1357.0889,0 V 482.95875 h -583.2434 -583.2432 v 287.10916 c 0,157.9859 2.2871,290.14719 5.3368,292.42569 2.288,3.0385 265.3188,5.317 583.2432,5.317 h 577.9066 z"
        style="stroke-width:0.760977" />
    <path
        d="m 820.91045,2897.0742 v -413.9535 h 87.67727 87.67723 v 413.9535 413.9536 h -87.67723 -87.67727 z"
        style="stroke-width:0.760977" />
    <path
        d="m 518.20005,780.06568 v -82.03127 h 282.09134 282.85421 l -2.2872,82.03127 -2.2869,81.27153 H 798.76661 518.20005 Z"
        style="stroke-width:0.760977" />
    <path
        d="m 1839.543,771.58698 v -83.55033 h 285.9033 285.9036 v 78.99305 78.2334 l -62.5176,4.55729 c -35.0707,3.03822 -163.9181,5.31681 -285.9034,5.31681 H 1839.543 Z"
        style="stroke-width:0.760977" />
    <path
        d="M 1356.2446,3427.2657 V 1080.263 l 1450.8648,1.5191 1450.1018,2.2786 2.287,1844.1822 10.2535,2850.8093 h -95.3011 -95.3011 l -8.7281,-2385.966 V 2014.5068 h -582.4807 -582.4805 l -0.7627,1788.7352 -1.5243,1788.7352 h 202.8003 1170.8835 v 91.1457 91.1458 H 2332.1289 1356.2446 Z M 2713.3325,3803.242 V 2014.5068 H 2130.0901 1546.847 V 3803.242 l 0.7626,1788.7352 h 583.2432 582.4797 z m 0,-2255.8569 V 1254.959 l -580.9553,1.5191 -581.7179,2.2787 -2.287,290.9067 -1.5253,290.1473 h 583.2431 583.2424 z m 1357.0889,0 V 1254.959 H 3487.178 2903.9349 v 287.1091 c 0,157.9859 2.2869,290.1473 5.3368,292.426 2.2879,3.0382 265.3188,5.3167 583.2431,5.3167 h 577.9066 z"
        style="stroke-width:0.760977" />
  </g>
</svg>
