<svg fill="none" height="24" viewBox="0 0 24 24" width="24" xmlns="http://www.w3.org/2000/svg"><path clip-rule="evenodd" d="m5 3c-1.10457 0-2 .89543-2 2v4c0 1.1046.89543 2 2 2h4c1.1046 0 2-.8954 2-2v-4c0-1.10457-.8954-2-2-2zm0 2h4v4h-4zm14 14c-.5523 0-1 .4477-1 1s.4477 1 1 1h1c.5523 0 1-.4477 1-1s-.4477-1-1-1zm-6-2v3c0 .5523.4477 1 1 1h2c.5523 0 1-.4477 1-1s-.4477-1-1-1h-1v-2c0-.5523-.4477-1-1-1s-1 .4477-1 1zm4-1c-.5523 0-1 .4477-1 1s.4477 1 1 1h3c.5523 0 1-.4477 1-1v-3c0-.5523-.4477-1-1-1h-1c-.5523 0-1 .4477-1 1s.4477 1 1 1v1zm-3-3c-.5523 0-1 .4477-1 1s.4477 1 1 1h2c.5523 0 1-.4477 1-1s-.4477-1-1-1zm-11 2c0-1.1046.89543-2 2-2h4c1.1046 0 2 .8954 2 2v4c0 1.1046-.8954 2-2 2h-4c-1.10457 0-2-.8954-2-2zm6 0h-4v4h4zm6-12c-1.1046 0-2 .89543-2 2v4c0 1.1046.8954 2 2 2h4c1.1046 0 2-.8954 2-2v-4c0-1.10457-.8954-2-2-2zm0 2h4v4h-4z" fill="rgb(0,0,0)" fill-rule="evenodd"/></svg>