<svg xmlns="http://www.w3.org/2000/svg" width="227" height="252" viewBox="0 0 227 252" version="1.1"><path d="M 40.500 102 C 39.617 106.021, 38.348 128.014, 38.963 128.630 C 39.231 128.898, 39.984 131.734, 40.637 134.933 C 41.289 138.131, 43.526 144.292, 45.608 148.624 C 47.689 152.956, 49.357 157.045, 49.314 157.711 C 49.271 158.377, 49.539 158.827, 49.910 158.711 C 51.033 158.360, 61.927 171.734, 61.187 172.556 C 60.809 172.977, 61.038 173.012, 61.696 172.635 C 62.364 172.252, 65.233 173.744, 68.196 176.016 C 75.619 181.708, 86.075 186.569, 96.024 188.954 C 107.571 191.722, 108.376 191.673, 107.566 188.250 C 105.571 179.816, 103.713 174.889, 100.548 169.642 C 98.605 166.420, 97.194 163.495, 97.412 163.142 C 97.631 162.789, 96.545 162.500, 95 162.500 C 93.455 162.500, 92.385 162.813, 92.621 163.196 C 93.182 164.104, 86.350 165.989, 82.500 165.989 C 75.528 165.989, 66.246 161.422, 68.513 159.108 C 69.071 158.539, 73.745 157.595, 78.900 157.011 C 84.055 156.427, 88.703 155.683, 89.230 155.358 C 89.756 155.033, 88.327 152.871, 86.053 150.554 C 82.064 146.490, 81.737 146.357, 76.702 146.775 C 67.237 147.560, 56.705 142.818, 58.355 138.516 C 58.967 136.923, 59.873 136.794, 66.273 137.388 C 74.584 138.159, 75.013 139.150, 62.250 128.082 C 54.721 121.552, 53.928 120.134, 56.577 117.936 C 57.890 116.847, 58.705 116.925, 61.454 118.405 C 67.030 121.408, 77.088 130.049, 76.366 131.217 C 75.967 131.863, 76.153 132.024, 76.821 131.611 C 77.452 131.220, 79.895 132.706, 82.363 134.980 L 86.776 139.048 87.179 135.594 C 87.401 133.694, 87.226 132.360, 86.791 132.629 C 86.356 132.898, 86 131.966, 86 130.559 C 86 128.738, 86.532 128, 87.845 128 C 90.019 128, 93.340 131.327, 92.252 132.414 C 91.838 132.828, 92.151 133.017, 92.946 132.833 C 94.839 132.397, 96.782 138.123, 97.176 145.295 C 97.342 148.335, 97.771 150.642, 98.127 150.421 C 98.484 150.201, 101.118 153.053, 103.981 156.760 L 109.185 163.500 108.843 152.854 C 108.654 146.999, 108.162 142.413, 107.750 142.663 C 107.337 142.913, 106.996 142.529, 106.990 141.809 C 106.974 139.673, 102.031 129.675, 99.829 127.324 C 98.598 126.010, 98.093 124.624, 98.556 123.824 C 98.976 123.096, 98.977 122.809, 98.557 123.187 C 98.137 123.564, 94.882 121.472, 91.324 118.537 C 80.841 109.891, 67.734 104.055, 50.685 100.444 C 41.540 98.507, 41.258 98.550, 40.500 102 M 172.914 101.505 C 167.641 102.812, 160.691 105.047, 157.468 106.472 C 154.245 107.897, 150.998 108.829, 150.252 108.543 C 149.408 108.219, 149.167 108.461, 149.612 109.181 C 150.095 109.962, 149.769 110.125, 148.612 109.681 C 147.668 109.319, 147.145 109.425, 147.448 109.916 C 147.752 110.408, 146.088 111.932, 143.750 113.304 C 137.529 116.955, 130.310 123.619, 126.587 129.147 C 124.793 131.811, 123.123 133.790, 122.877 133.543 C 122.630 133.297, 122.379 133.861, 122.318 134.798 C 122.110 137.991, 119.412 149.079, 118.955 148.617 C 118.705 148.364, 118.648 151.775, 118.830 156.197 L 119.160 164.236 122.741 158.868 C 124.711 155.916, 127.375 152.228, 128.661 150.673 C 130.343 148.641, 131 146.590, 131 143.374 C 131 136.576, 136.118 128, 140.174 128 C 142.213 128, 142.404 129.554, 141.072 135.293 C 140.341 138.443, 140.422 138.895, 141.552 137.957 C 142.300 137.336, 143.393 137.125, 143.981 137.488 C 144.569 137.851, 144.926 137.589, 144.775 136.905 C 144.408 135.247, 162.138 120.893, 163.802 121.501 C 164.518 121.763, 164.859 121.581, 164.561 121.098 C 163.692 119.692, 168.877 116.826, 171.046 117.514 C 174.741 118.687, 173.068 121.757, 164.750 129.070 C 160.213 133.060, 156.350 136.701, 156.167 137.162 C 155.983 137.623, 158.769 138, 162.358 138 C 165.946 138, 169.159 138.448, 169.497 138.996 C 170.426 140.498, 165.209 144.847, 161.114 145.985 C 159.126 146.537, 154.776 146.991, 151.446 146.994 C 145.914 147, 145.117 147.284, 142.196 150.298 C 140.438 152.111, 139 154.075, 139 154.662 C 139 155.923, 145.949 157, 154.081 157 C 160.322 157, 161.675 157.871, 160.075 160.859 C 157.533 165.610, 145.348 167.389, 136.667 164.278 C 132.074 162.631, 131.785 162.632, 130.856 164.294 C 130.317 165.255, 129.385 165.738, 128.784 165.367 C 128.157 164.979, 127.975 165.150, 128.357 165.769 C 128.723 166.361, 128.151 168.344, 127.086 170.173 C 124.696 174.276, 121 185.170, 121 188.111 C 121 190.161, 121.327 190.250, 126.750 189.676 C 137.308 188.559, 153.619 181.805, 161.335 175.356 C 162.894 174.053, 164.651 173.284, 165.239 173.648 C 165.828 174.011, 166.032 173.861, 165.693 173.313 C 164.891 172.015, 171.371 165.728, 172.476 166.732 C 172.941 167.155, 173.030 166.991, 172.675 166.369 C 171.926 165.057, 177.753 157.366, 179.186 157.775 C 179.716 157.926, 179.889 157.629, 179.571 157.114 C 178.779 155.834, 185.552 141.904, 186.534 142.791 C 186.967 143.181, 186.994 142.933, 186.595 142.239 C 186.195 141.546, 186.632 137.545, 187.566 133.349 C 188.853 127.564, 189.137 122.914, 188.743 114.110 C 188.458 107.725, 187.900 101.713, 187.505 100.750 C 186.583 98.506, 184.604 98.609, 172.914 101.505 M 221.195 117.500 C 221.215 119.150, 221.439 119.704, 221.693 118.731 C 221.947 117.758, 221.930 116.408, 221.656 115.731 C 221.382 115.054, 221.175 115.850, 221.195 117.500 M 6.195 118.500 C 6.215 120.150, 6.439 120.704, 6.693 119.731 C 6.947 118.758, 6.930 117.408, 6.656 116.731 C 6.382 116.054, 6.175 116.850, 6.195 118.500" stroke="none" fill="#0c8400" fill-rule="evenodd"/><path d="M 93 8.877 C 65.878 14.793, 39.308 33.630, 23.236 58.340 C 10.227 78.339, 3.531 105.561, 6.031 128.280 C 10.088 165.155, 32.678 197.735, 65.717 214.360 C 73.601 218.328, 86.783 223.042, 89.676 222.929 C 90.679 222.890, 88.800 222.067, 85.500 221.102 C 64.870 215.065, 46.683 203.656, 33.765 188.647 C 9.165 160.065, 1.305 126.797, 10.520 90.267 C 19.950 52.888, 51.778 20.981, 89.737 10.854 C 101.689 7.665, 121.799 7.217, 133.796 9.873 C 153.403 14.214, 170.388 23.340, 186.812 38.358 L 196.500 47.217 187.452 38.332 C 173.309 24.444, 156.862 14.738, 139.277 9.904 C 128.058 6.819, 104.801 6.304, 93 8.877 M 108.316 28.943 C 103.752 31.016, 100.596 35.684, 101.303 39.318 C 101.661 41.159, 101.749 41.082, 101.864 38.827 C 102.048 35.210, 106.300 30.386, 110.536 28.988 C 115.387 27.387, 119.404 28.557, 122.958 32.605 C 124.631 34.511, 126 35.670, 126 35.181 C 126 33.627, 121.175 29.017, 118.473 27.990 C 114.832 26.606, 113.109 26.767, 108.316 28.943 M 117 39.834 C 117 44.122, 109.483 49.635, 86.241 62.395 C 73.449 69.418, 62.505 76.057, 61.920 77.149 C 61.114 78.656, 61.241 79.720, 62.452 81.567 C 63.329 82.905, 64.271 84, 64.546 84 C 64.821 84, 64.351 82.938, 63.500 81.641 C 60.638 77.272, 59.464 78.136, 94.232 59.046 C 106.275 52.434, 111.950 48.708, 114.482 45.750 C 117.493 42.232, 119.141 38, 117.500 38 C 117.225 38, 117 38.825, 117 39.834 M 182.500 47 C 186.320 50.850, 189.671 54, 189.946 54 C 190.221 54, 187.320 50.850, 183.500 47 C 179.680 43.150, 176.329 40, 176.054 40 C 175.779 40, 178.680 43.150, 182.500 47 M 45.462 46.250 L 40.500 51.500 45.750 46.538 C 48.638 43.808, 51 41.446, 51 41.288 C 51 40.541, 50.074 41.372, 45.462 46.250 M 199.617 52.500 C 204.371 58.784, 205.523 60.038, 204.210 57.500 C 203.640 56.400, 201.523 53.700, 199.504 51.500 L 195.834 47.500 199.617 52.500 M 121 50.604 C 121 51.107, 121.787 52.010, 122.750 52.609 C 127.118 55.331, 146 65.123, 146 64.666 C 146 64.385, 141.162 61.582, 135.250 58.438 C 129.338 55.293, 123.713 52.038, 122.750 51.205 C 121.787 50.372, 121 50.102, 121 50.604 M 191 56.378 C 191 56.585, 191.787 57.373, 192.750 58.128 C 194.336 59.371, 194.371 59.336, 193.128 57.750 C 191.821 56.084, 191 55.555, 191 56.378 M 108.831 67.649 L 109.162 75.113 96.079 74.807 C 88.884 74.638, 82.997 74.838, 82.998 75.250 C 82.999 75.662, 89.075 76, 96.500 76 L 110 76 110 68.559 C 110 64.466, 109.662 60.908, 109.250 60.651 C 108.838 60.394, 108.649 63.543, 108.831 67.649 M 206 62 C 206.589 63.100, 207.295 64, 207.570 64 C 207.845 64, 207.589 63.100, 207 62 C 206.411 60.900, 205.705 60, 205.430 60 C 205.155 60, 205.411 60.900, 206 62 M 147 65.459 C 147 65.734, 148.800 66.878, 151 68 C 153.200 69.122, 155 69.816, 155 69.541 C 155 69.266, 153.200 68.122, 151 67 C 148.800 65.878, 147 65.184, 147 65.459 M 209.564 68.293 C 209.940 69.279, 210.499 69.834, 210.807 69.526 C 211.115 69.219, 210.808 68.412, 210.124 67.733 C 209.136 66.753, 209.022 66.868, 209.564 68.293 M 201.080 72 C 202.538 75.061, 203 75.628, 203 74.358 C 203 73.821, 202.300 72.509, 201.445 71.441 C 199.978 69.611, 199.958 69.643, 201.080 72 M 158 71.430 C 158 71.705, 158.900 72.411, 160 73 C 161.100 73.589, 162 73.845, 162 73.570 C 162 73.295, 161.100 72.589, 160 72 C 158.900 71.411, 158 71.155, 158 71.430 M 131.500 75 L 117.500 75.586 131.750 75.793 C 140.721 75.923, 146 75.630, 146 75 C 146 74.450, 145.887 74.093, 145.750 74.207 C 145.613 74.321, 139.200 74.678, 131.500 75 M 163 74.378 C 163 74.585, 163.787 75.373, 164.750 76.128 C 166.336 77.371, 166.371 77.336, 165.128 75.750 C 163.821 74.084, 163 73.555, 163 74.378 M 213.031 75.500 C 213.031 76.050, 213.467 77.175, 214 78 C 214.533 78.825, 214.969 79.050, 214.969 78.500 C 214.969 77.950, 214.533 76.825, 214 76 C 213.467 75.175, 213.031 74.950, 213.031 75.500 M 107.750 84.662 C 108.686 85.040, 109 89.730, 109 103.304 L 109 121.442 102.250 114.971 L 95.500 108.500 101.923 115.202 C 105.456 118.888, 108.719 121.674, 109.173 121.393 C 109.628 121.112, 110 112.584, 110 102.441 C 110 85.515, 109.856 84.006, 108.250 84.079 C 107.205 84.126, 107.003 84.361, 107.750 84.662 M 32.131 88.755 C 30.423 91.947, 28.971 102.338, 28.604 114 C 28.404 120.325, 28.406 123.475, 28.607 121 C 29.767 106.703, 31.148 95.027, 32.073 91.686 L 33.129 87.872 38.815 88.394 C 43.814 88.853, 44.018 88.807, 40.500 88.015 C 34.593 86.686, 33.171 86.812, 32.131 88.755 M 189.500 87.510 C 188.950 87.704, 185.208 88.389, 181.185 89.033 C 177.161 89.676, 174.072 90.405, 174.319 90.652 C 174.813 91.146, 193.217 88.116, 193.906 87.428 C 194.405 86.929, 190.968 86.993, 189.500 87.510 M 45.750 89.662 C 46.438 89.940, 47.563 89.940, 48.250 89.662 C 48.938 89.385, 48.375 89.158, 47 89.158 C 45.625 89.158, 45.063 89.385, 45.750 89.662 M 50.750 90.662 C 51.438 90.940, 52.563 90.940, 53.250 90.662 C 53.938 90.385, 53.375 90.158, 52 90.158 C 50.625 90.158, 50.063 90.385, 50.750 90.662 M 55.813 91.683 C 56.534 91.972, 57.397 91.936, 57.729 91.604 C 58.061 91.272, 57.471 91.036, 56.417 91.079 C 55.252 91.127, 55.015 91.364, 55.813 91.683 M 170.813 91.683 C 171.534 91.972, 172.397 91.936, 172.729 91.604 C 173.061 91.272, 172.471 91.036, 171.417 91.079 C 170.252 91.127, 170.015 91.364, 170.813 91.683 M 164.500 93 C 163.239 93.542, 163.055 93.859, 164 93.859 C 164.825 93.859, 166.400 93.473, 167.500 93 C 168.761 92.458, 168.945 92.141, 168 92.141 C 167.175 92.141, 165.600 92.527, 164.500 93 M 209.079 93.583 C 209.127 94.748, 209.364 94.985, 209.683 94.188 C 209.972 93.466, 209.936 92.603, 209.604 92.271 C 209.272 91.939, 209.036 92.529, 209.079 93.583 M 62.813 93.683 C 63.534 93.972, 64.397 93.936, 64.729 93.604 C 65.061 93.272, 64.471 93.036, 63.417 93.079 C 62.252 93.127, 62.015 93.364, 62.813 93.683 M 157.500 95.535 C 154.999 96.740, 154.916 96.878, 157 96.369 C 159.834 95.677, 163.018 94.053, 161.500 94.076 C 160.950 94.084, 159.150 94.740, 157.500 95.535 M 219.079 95.583 C 219.127 96.748, 219.364 96.985, 219.683 96.188 C 219.972 95.466, 219.936 94.603, 219.604 94.271 C 219.272 93.939, 219.036 94.529, 219.079 95.583 M 197.079 97.583 C 197.127 98.748, 197.364 98.985, 197.683 98.188 C 197.972 97.466, 197.936 96.603, 197.604 96.271 C 197.272 95.939, 197.036 96.529, 197.079 97.583 M 210.079 97.583 C 210.127 98.748, 210.364 98.985, 210.683 98.188 C 210.972 97.466, 210.936 96.603, 210.604 96.271 C 210.272 95.939, 210.036 96.529, 210.079 97.583 M 151 98 C 150.175 98.533, 149.950 98.969, 150.500 98.969 C 151.050 98.969, 152.175 98.533, 153 98 C 153.825 97.467, 154.050 97.031, 153.500 97.031 C 152.950 97.031, 151.825 97.467, 151 98 M 39.570 100.250 C 39.206 101.487, 38.734 108.125, 38.523 115 L 38.138 127.500 38.966 116.358 C 39.975 102.777, 40.747 99, 42.514 99 C 45.433 99, 57.898 102.021, 65.500 104.570 C 75.833 108.035, 81.118 110.734, 88.632 116.383 C 102.571 126.861, 108.975 139.912, 108.994 157.882 L 109 163.264 103 155.500 C 98.198 149.287, 97 147.012, 97 144.111 C 97 136.284, 92.239 128, 87.741 128 C 86.033 128, 85.923 128.532, 86.563 133.654 L 87.269 139.308 78.384 131.518 C 66.071 120.720, 59.319 116.310, 57.170 117.663 C 53.944 119.694, 54.934 121.735, 62.204 128.041 C 75.020 139.157, 74.586 138.160, 66.273 137.388 C 59.873 136.794, 58.967 136.923, 58.355 138.516 C 56.705 142.818, 67.237 147.560, 76.702 146.775 C 81.737 146.357, 82.064 146.490, 86.053 150.554 C 88.327 152.871, 89.756 155.033, 89.230 155.358 C 88.703 155.683, 84.055 156.427, 78.900 157.011 C 68.213 158.222, 66.389 159.234, 69.830 162.046 C 74.785 166.095, 82.781 166.966, 90.908 164.341 C 96.856 162.420, 96.650 162.276, 101.876 172 C 104.930 177.683, 108.560 189.773, 107.524 190.809 C 106.332 192.001, 87.618 186.954, 80.671 183.567 C 71.047 178.875, 60.987 171.096, 54.894 163.634 C 48.759 156.122, 42.376 143.320, 40.533 134.832 C 39.738 131.167, 39.126 129.689, 39.079 131.324 C 38.948 135.983, 43.838 149.027, 48.573 156.647 C 59.907 174.888, 79.567 187.938, 100.649 191.216 C 104.680 191.842, 108.280 192.053, 108.650 191.684 C 109.705 190.629, 107.041 180.103, 104.047 173.500 C 100.252 165.129, 96.396 160.718, 93.995 162.003 C 87.455 165.503, 76.969 165.215, 71.230 161.379 L 68.500 159.554 75 158.789 C 94.124 156.540, 94.016 156.615, 87.537 150.037 L 82.575 145 74.435 145 C 67.650 145, 65.740 144.626, 62.957 142.750 C 61.121 141.512, 59.817 140.050, 60.059 139.500 C 60.316 138.917, 63.525 138.647, 67.750 138.853 C 71.944 139.058, 75 138.803, 75 138.250 C 75 137.723, 70.715 133.599, 65.479 129.085 C 56.468 121.317, 54.926 118.988, 58.809 119.010 C 60.851 119.021, 71.414 126.839, 80.445 135.024 C 87.516 141.432, 89.540 142.348, 88.677 138.750 C 87.370 133.306, 86.830 129, 87.454 129 C 91.467 129, 96.233 137.431, 95.853 143.859 C 95.654 147.241, 96.452 148.849, 102.025 156.299 C 105.545 161.005, 108.779 164.636, 109.213 164.369 C 110.315 163.688, 110.181 153.747, 108.965 146 C 105.521 124.054, 85.986 107.481, 54.732 99.988 C 43.619 97.323, 40.416 97.379, 39.570 100.250 M 175 99.612 C 164.829 101.821, 159.268 103.862, 148.569 109.312 C 131.604 117.955, 121.461 130.266, 119.046 145.145 C 117.898 152.221, 117.652 164.319, 118.637 165.304 C 118.987 165.654, 121.072 163.366, 123.270 160.220 C 125.469 157.074, 128.332 153.228, 129.634 151.673 C 131.345 149.629, 132 147.614, 132 144.391 C 132 139.260, 133.909 134.091, 136.912 131.088 C 139.456 128.544, 141.306 128.377, 140.655 130.750 C 139.273 135.787, 138.983 140, 140.019 140 C 140.629 140, 147.026 135.275, 154.234 129.500 C 162.447 122.920, 168.210 119, 169.670 119 C 170.951 119, 172 119.395, 172 119.877 C 172 120.360, 168.512 123.819, 164.250 127.563 C 156.026 134.788, 154 136.888, 154 138.191 C 154 138.636, 157.150 139, 161 139 C 164.850 139, 168 139.413, 168 139.918 C 168 140.424, 166.326 141.872, 164.279 143.137 C 161.241 145.014, 159.118 145.442, 152.707 145.468 L 144.856 145.500 140.857 149.787 C 138.658 152.145, 137.036 154.608, 137.253 155.260 C 137.821 156.962, 141.499 157.776, 149.500 157.971 C 153.350 158.064, 157.383 158.486, 158.463 158.908 C 160.319 159.634, 160.285 159.767, 157.835 161.372 C 151.743 165.364, 145.466 165.884, 137.439 163.063 L 131.928 161.126 128.515 165.813 C 124.225 171.705, 121.006 179.922, 120.267 186.865 L 119.697 192.229 125.098 191.508 C 133.417 190.396, 147.804 185.458, 154.913 181.274 C 163.135 176.435, 175.434 164.137, 180.276 155.913 C 182.352 152.386, 185.258 145.900, 186.733 141.500 C 189.155 134.274, 189.418 132.049, 189.457 118.500 C 189.481 110.250, 189.154 102.263, 188.731 100.750 C 187.827 97.519, 185.519 97.328, 175 99.612 M 220.195 100.500 C 220.215 102.150, 220.439 102.704, 220.693 101.731 C 220.947 100.758, 220.930 99.408, 220.656 98.731 C 220.382 98.054, 220.175 98.850, 220.195 100.500 M 173 101.493 C 150.011 107.212, 132.903 118.071, 124.623 132.200 C 121.338 137.805, 119.041 148.169, 119.017 157.487 L 119 164.473 122.661 158.987 C 124.675 155.969, 127.375 152.228, 128.661 150.673 C 130.343 148.641, 131 146.590, 131 143.374 C 131 136.576, 136.118 128, 140.174 128 C 142.213 128, 142.404 129.554, 141.072 135.293 C 140.067 139.622, 139.364 139.941, 149.490 131.476 C 160.846 121.984, 168.807 116.804, 170.980 117.494 C 174.743 118.688, 173.111 121.720, 164.750 129.070 C 160.213 133.060, 156.350 136.701, 156.167 137.162 C 155.983 137.623, 158.769 138, 162.358 138 C 165.946 138, 169.159 138.448, 169.497 138.996 C 170.426 140.498, 165.209 144.847, 161.114 145.985 C 159.126 146.537, 154.776 146.991, 151.446 146.994 C 145.914 147, 145.117 147.284, 142.196 150.298 C 140.438 152.111, 139 154.075, 139 154.662 C 139 155.923, 145.949 157, 154.081 157 C 160.322 157, 161.675 157.871, 160.075 160.859 C 157.640 165.409, 144.543 167.507, 137.346 164.500 C 135.371 163.675, 133.231 163, 132.589 163 C 129.819 163, 121 182.108, 121 188.111 C 121 190.161, 121.327 190.250, 126.750 189.676 C 134.213 188.886, 145.533 184.989, 153.871 180.340 C 163.522 174.959, 175.464 162.524, 180.762 152.340 C 187.067 140.221, 189.343 129.412, 188.729 114.500 C 188.457 107.900, 187.908 101.713, 187.510 100.750 C 186.582 98.508, 184.594 98.609, 173 101.493 M 81.083 100.365 C 81.313 100.565, 82.625 101.265, 84 101.920 C 86.357 103.042, 86.389 103.022, 84.559 101.555 C 82.966 100.279, 79.711 99.164, 81.083 100.365 M 137.479 105.116 C 134.777 106.829, 129.514 111.178, 125.783 114.780 C 120.927 119.468, 119 120.808, 119 119.497 C 119 118.490, 118.719 117.947, 118.376 118.290 C 118.034 118.633, 118.039 119.660, 118.389 120.572 C 118.898 121.898, 120.504 120.825, 126.405 115.220 C 130.463 111.365, 135.858 106.996, 138.392 105.510 C 142.381 103.172, 143.819 102, 142.696 102 C 142.528 102, 140.181 103.402, 137.479 105.116 M 198.158 104 C 198.158 105.375, 198.385 105.938, 198.662 105.250 C 198.940 104.563, 198.940 103.438, 198.662 102.750 C 198.385 102.063, 198.158 102.625, 198.158 104 M 211.328 108.500 C 211.333 112.350, 211.513 113.802, 211.730 111.728 C 211.946 109.653, 211.943 106.503, 211.722 104.728 C 211.501 102.952, 211.324 104.650, 211.328 108.500 M 92 106.378 C 92 106.585, 92.787 107.373, 93.750 108.128 C 95.336 109.371, 95.371 109.336, 94.128 107.750 C 92.821 106.084, 92 105.555, 92 106.378 M 221.286 110.500 C 221.294 113.250, 221.488 114.256, 221.718 112.736 C 221.947 111.216, 221.941 108.966, 221.704 107.736 C 221.467 106.506, 221.279 107.750, 221.286 110.500 M 199.286 118.500 C 199.294 121.250, 199.488 122.256, 199.718 120.736 C 199.947 119.216, 199.941 116.966, 199.704 115.736 C 199.467 114.506, 199.279 115.750, 199.286 118.500 M 211.343 124.500 C 211.346 128.900, 211.522 130.576, 211.733 128.224 C 211.945 125.872, 211.942 122.272, 211.727 120.224 C 211.512 118.176, 211.339 120.100, 211.343 124.500 M 221.272 124 C 221.272 126.475, 221.467 127.487, 221.706 126.250 C 221.944 125.013, 221.944 122.987, 221.706 121.750 C 221.467 120.513, 221.272 121.525, 221.272 124 M 29.100 130.083 C 29.155 131.963, 29.575 134.625, 30.034 136 C 30.572 137.614, 30.666 136.551, 30.298 133 C 29.647 126.708, 28.952 125.016, 29.100 130.083 M 16.158 130 C 16.158 131.375, 16.385 131.938, 16.662 131.250 C 16.940 130.563, 16.940 129.438, 16.662 128.750 C 16.385 128.063, 16.158 128.625, 16.158 130 M 198.195 130.500 C 198.215 132.150, 198.439 132.704, 198.693 131.731 C 198.947 130.758, 198.930 129.408, 198.656 128.731 C 198.382 128.054, 198.175 128.850, 198.195 130.500 M 220.195 134.500 C 220.215 136.150, 220.439 136.704, 220.693 135.731 C 220.947 134.758, 220.930 133.408, 220.656 132.731 C 220.382 132.054, 220.175 132.850, 220.195 134.500 M 210.195 136.500 C 210.215 138.150, 210.439 138.704, 210.693 137.731 C 210.947 136.758, 210.930 135.408, 210.656 134.731 C 210.382 134.054, 210.175 134.850, 210.195 136.500 M 17.079 136.583 C 17.127 137.748, 17.364 137.985, 17.683 137.188 C 17.972 136.466, 17.936 135.603, 17.604 135.271 C 17.272 134.939, 17.036 135.529, 17.079 136.583 M 219.079 139.583 C 219.127 140.748, 219.364 140.985, 219.683 140.188 C 219.972 139.466, 219.936 138.603, 219.604 138.271 C 219.272 137.939, 219.036 138.529, 219.079 139.583 M 31.052 139.712 C 30.985 141.266, 35.079 152.254, 35.550 151.784 C 35.744 151.589, 34.824 148.520, 33.504 144.965 C 32.184 141.409, 31.081 139.046, 31.052 139.712 M 209.079 141.583 C 209.127 142.748, 209.364 142.985, 209.683 142.188 C 209.972 141.466, 209.936 140.603, 209.604 140.271 C 209.272 139.939, 209.036 140.529, 209.079 141.583 M 218.079 144.583 C 218.127 145.748, 218.364 145.985, 218.683 145.188 C 218.972 144.466, 218.936 143.603, 218.604 143.271 C 218.272 142.939, 218.036 143.529, 218.079 144.583 M 206.714 149.214 C 205.804 152.062, 205.225 154.558, 205.427 154.761 C 205.630 154.964, 206.563 152.821, 207.500 150 C 208.437 147.179, 209.016 144.683, 208.787 144.454 C 208.558 144.224, 207.625 146.367, 206.714 149.214 M 217.079 148.583 C 217.127 149.748, 217.364 149.985, 217.683 149.188 C 217.972 148.466, 217.936 147.603, 217.604 147.271 C 217.272 146.939, 217.036 147.529, 217.079 148.583 M 190.695 154.513 C 189.781 156.431, 189.239 158, 189.490 158 C 190.175 158, 193.210 151.877, 192.753 151.420 C 192.536 151.203, 191.610 152.594, 190.695 154.513 M 36 153.941 C 36 154.459, 36.445 155.157, 36.989 155.493 C 37.555 155.843, 37.723 155.442, 37.382 154.552 C 36.717 152.820, 36 152.503, 36 153.941 M 200.251 164.337 C 197.914 168.826, 196.713 171.600, 197.582 170.500 C 199.503 168.068, 205.256 156.921, 204.815 156.485 C 204.642 156.314, 202.588 159.847, 200.251 164.337 M 39 159 C 39.589 160.100, 40.295 161, 40.570 161 C 40.845 161, 40.589 160.100, 40 159 C 39.411 157.900, 38.705 157, 38.430 157 C 38.155 157, 38.411 157.900, 39 159 M 209.705 166.528 C 208.229 169.538, 207.234 172, 207.494 172 C 208.167 172, 213.211 161.878, 212.762 161.429 C 212.557 161.224, 211.182 163.518, 209.705 166.528 M 44.101 166.750 C 53.145 178.510, 59.916 184.340, 72.257 190.997 C 79.857 195.097, 90.076 199.035, 92.907 198.955 C 93.783 198.931, 91.279 197.867, 87.342 196.592 C 72.321 191.726, 56.060 180.947, 48.021 170.528 C 45.676 167.487, 43.531 165, 43.256 165 C 42.980 165, 43.361 165.787, 44.101 166.750 M 181.872 168.750 C 180.629 170.336, 180.664 170.371, 182.250 169.128 C 183.916 167.821, 184.445 167, 183.622 167 C 183.415 167, 182.627 167.787, 181.872 168.750 M 175.462 176.250 L 170.500 181.500 175.750 176.538 C 180.628 171.926, 181.459 171, 180.712 171 C 180.554 171, 178.192 173.363, 175.462 176.250 M 191.957 177.250 C 190.100 179.588, 189.370 180.865, 190.337 180.089 C 192.157 178.627, 196.442 173, 195.735 173 C 195.515 173, 193.815 174.912, 191.957 177.250 M 204.511 175.623 C 203.566 177.066, 203.287 177.941, 203.891 177.567 C 205.045 176.854, 207.374 173, 206.650 173 C 206.419 173, 205.457 174.180, 204.511 175.623 M 35 177.378 C 35 177.585, 35.788 178.373, 36.750 179.128 C 38.336 180.371, 38.371 180.336, 37.128 178.750 C 35.821 177.084, 35 176.555, 35 177.378 M 167.405 183.250 L 165.500 185.500 167.750 183.595 C 169.864 181.805, 170.455 181, 169.655 181 C 169.465 181, 168.453 182.012, 167.405 183.250 M 182.966 187.750 L 177.500 193.500 183.250 188.034 C 186.412 185.028, 189 182.440, 189 182.284 C 189 181.542, 188.044 182.408, 182.966 187.750 M 198.405 184.250 L 196.500 186.500 198.750 184.595 C 199.988 183.547, 201 182.535, 201 182.345 C 201 181.545, 200.195 182.136, 198.405 184.250 M 43.958 187.250 C 46.410 189.863, 48.548 192, 48.708 192 C 49.459 192, 48.665 191.102, 44.250 186.958 L 39.500 182.500 43.958 187.250 M 189.473 194.250 L 182.500 201.500 189.750 194.527 C 196.484 188.050, 197.457 187, 196.723 187 C 196.571 187, 193.308 190.262, 189.473 194.250 M 51 193.378 C 51 193.585, 51.788 194.373, 52.750 195.128 C 54.336 196.371, 54.371 196.336, 53.128 194.750 C 51.821 193.084, 51 192.555, 51 193.378 M 174.405 195.250 L 172.500 197.500 174.750 195.595 C 176.864 193.805, 177.455 193, 176.655 193 C 176.465 193, 175.453 194.012, 174.405 195.250 M 168.203 199.429 C 163.558 202.713, 162.905 203.652, 166.827 201.406 C 168.657 200.357, 170.624 198.938, 171.199 198.250 C 172.677 196.483, 171.984 196.756, 168.203 199.429 M 95.750 199.662 C 96.438 199.940, 97.563 199.940, 98.250 199.662 C 98.938 199.385, 98.375 199.158, 97 199.158 C 95.625 199.158, 95.063 199.385, 95.750 199.662 M 101.269 200.693 C 102.242 200.947, 103.592 200.930, 104.269 200.656 C 104.946 200.382, 104.150 200.175, 102.500 200.195 C 100.850 200.215, 100.296 200.439, 101.269 200.693 M 122.269 200.693 C 123.242 200.947, 124.592 200.930, 125.269 200.656 C 125.946 200.382, 125.150 200.175, 123.500 200.195 C 121.850 200.215, 121.296 200.439, 122.269 200.693 M 62 201.430 C 62 201.705, 62.900 202.411, 64 203 C 65.100 203.589, 66 203.845, 66 203.570 C 66 203.295, 65.100 202.589, 64 202 C 62.900 201.411, 62 201.155, 62 201.430 M 108.500 208.500 C 108.500 212.625, 108.838 216, 109.250 216 C 109.662 216, 110 212.625, 110 208.500 C 110 204.375, 109.662 201, 109.250 201 C 108.838 201, 108.500 204.375, 108.500 208.500 M 178 204.122 C 174.515 207.177, 174.514 207.181, 177.720 205.049 C 179.491 203.871, 181.205 202.478, 181.529 201.953 C 182.493 200.393, 181.693 200.884, 178 204.122 M 158 205.500 C 156.625 206.286, 155.976 206.945, 156.559 206.965 C 157.141 206.984, 158.491 206.339, 159.559 205.532 C 162.028 203.664, 161.239 203.648, 158 205.500 M 168.441 210.555 C 166.577 212.049, 166.589 212.067, 168.750 211.020 C 169.988 210.420, 171 209.720, 171 209.465 C 171 208.700, 170.481 208.921, 168.441 210.555 M 90.813 213.683 C 91.534 213.972, 92.397 213.936, 92.729 213.604 C 93.061 213.272, 92.471 213.036, 91.417 213.079 C 90.252 213.127, 90.015 213.364, 90.813 213.683 M 118.079 214.583 C 118.127 215.748, 118.364 215.985, 118.683 215.188 C 118.972 214.466, 118.936 213.603, 118.604 213.271 C 118.272 212.939, 118.036 213.529, 118.079 214.583 M 95.813 214.683 C 96.534 214.972, 97.397 214.936, 97.729 214.604 C 98.061 214.272, 97.471 214.036, 96.417 214.079 C 95.252 214.127, 95.015 214.364, 95.813 214.683 M 130.750 214.662 C 131.438 214.940, 132.563 214.940, 133.250 214.662 C 133.938 214.385, 133.375 214.158, 132 214.158 C 130.625 214.158, 130.063 214.385, 130.750 214.662 M 101.813 215.683 C 102.534 215.972, 103.397 215.936, 103.729 215.604 C 104.061 215.272, 103.471 215.036, 102.417 215.079 C 101.252 215.127, 101.015 215.364, 101.813 215.683 M 123.269 215.693 C 124.242 215.947, 125.592 215.930, 126.269 215.656 C 126.946 215.382, 126.150 215.175, 124.500 215.195 C 122.850 215.215, 122.296 215.439, 123.269 215.693 M 156 216.500 C 154.625 217.286, 153.950 217.929, 154.500 217.929 C 155.050 217.929, 156.625 217.286, 158 216.500 C 159.375 215.714, 160.050 215.071, 159.500 215.071 C 158.950 215.071, 157.375 215.714, 156 216.500 M 139 222 C 136.990 222.644, 136.892 222.806, 138.500 222.830 C 139.600 222.846, 141.400 222.473, 142.500 222 C 145.048 220.905, 142.419 220.905, 139 222 M 94 223.966 C 96.478 224.793, 103.718 225.336, 102.917 224.635 C 102.688 224.435, 100.025 224.015, 97 223.702 C 93.449 223.334, 92.386 223.428, 94 223.966 M 132.813 223.683 C 133.534 223.972, 134.397 223.936, 134.729 223.604 C 135.061 223.272, 134.471 223.036, 133.417 223.079 C 132.252 223.127, 132.015 223.364, 132.813 223.683 M 125.250 224.689 C 126.213 224.941, 127.787 224.941, 128.750 224.689 C 129.713 224.438, 128.925 224.232, 127 224.232 C 125.075 224.232, 124.287 224.438, 125.250 224.689 M 106.750 225.706 C 108.845 226.109, 109 226.657, 109 233.635 C 109 242.591, 110.043 245.044, 113.785 244.884 C 115.877 244.795, 116.041 244.655, 114.500 244.276 C 110.534 243.301, 110 242.009, 110 233.378 L 110 225 107.250 225.136 C 104.892 225.253, 104.821 225.334, 106.750 225.706 M 118.459 226.067 C 118.096 226.653, 118.014 227.348, 118.276 227.610 C 118.538 227.872, 119.019 227.392, 119.345 226.543 C 120.021 224.781, 119.445 224.471, 118.459 226.067" stroke="none" fill="#c9c5b1" fill-rule="evenodd"/><path d="M 95.633 9.553 C 85.911 11.484, 79.791 13.617, 69.656 18.606 C 40.333 33.038, 18.524 59.534, 10.344 90.663 C 6.660 104.682, 5.995 125.550, 8.799 139.119 C 18.236 184.781, 56.909 219.571, 103.750 224.534 L 110 225.196 110 233.398 C 110 242.096, 110.825 244, 114.593 244 C 117.461 244, 118 242.335, 118 233.477 C 118 229.430, 118.422 225.857, 118.937 225.539 C 119.453 225.220, 123.499 224.505, 127.930 223.950 C 170.737 218.582, 207.622 186.259, 218.071 144.956 C 221.306 132.170, 221.846 108.698, 219.199 95.881 C 215.472 77.829, 207.392 61.474, 195.281 47.465 C 178.302 27.827, 156.672 14.667, 133.522 9.888 C 122.828 7.681, 105.809 7.530, 95.633 9.553 M 92.577 19.034 C 83.381 21.359, 68.810 28.016, 60.377 33.746 C 38.215 48.804, 21.691 74.239, 17.051 100.434 C 15.481 109.296, 15.759 128.919, 17.580 137.731 C 21.089 154.721, 28.432 169.479, 40.150 183.094 C 46.601 190.589, 59.397 200.664, 67.879 204.926 C 79.774 210.903, 97.351 216, 106.065 216 L 110 216 110 208.637 L 110 201.274 102.250 200.026 C 62.763 193.664, 34.411 165.638, 29.841 128.449 C 28.585 118.235, 29.792 99.366, 32.192 91.666 L 33.387 87.831 37.944 88.458 C 65.906 92.306, 86.222 100.656, 100.499 114.171 C 105.048 118.477, 109.047 122, 109.385 122 C 109.723 122, 110 113.450, 110 103 L 110 84 87.523 84 L 65.046 84 63.500 81.641 C 62.650 80.343, 62.204 78.632, 62.509 77.838 C 63.173 76.107, 63.145 76.123, 89 62.018 C 109.230 50.982, 116.540 45.682, 117.654 41.243 C 118.381 38.348, 116.443 36, 113.327 36 C 111.505 36, 110.539 36.858, 109.464 39.432 C 107.690 43.679, 106.603 44.393, 104.021 43.011 C 99.256 40.461, 103.507 31.308, 110.533 28.989 C 115.082 27.488, 120.051 29.083, 123.467 33.143 C 126.865 37.182, 126.848 42.472, 123.418 47.525 C 120.983 51.114, 120.939 51.391, 122.646 52.415 C 123.641 53.012, 131.440 57.280, 139.977 61.899 C 166.075 76.020, 167.559 77.218, 164.965 82.066 C 163.987 83.892, 162.646 84, 140.965 84 L 118 84 118 102.333 C 118 112.417, 118.287 120.953, 118.637 121.304 C 118.988 121.654, 122.648 118.791, 126.772 114.940 C 137.666 104.766, 147.614 99.312, 165.500 93.710 C 173.610 91.170, 193.839 87.506, 194.746 88.413 C 196.236 89.902, 198.168 102.066, 198.652 113 C 199.577 133.853, 194.808 150.706, 183.499 166.553 C 171.550 183.298, 149.100 196.714, 128.500 199.419 C 117.194 200.904, 118 200.189, 118 208.726 L 118 216.293 125.280 215.678 C 129.284 215.340, 136.580 213.898, 141.494 212.474 C 174.546 202.896, 199.550 177.759, 209.213 144.395 C 211.250 137.363, 211.499 134.369, 211.488 117 L 211.476 97.500 207.601 86.203 C 202.744 72.044, 195.598 59.912, 186.235 49.933 C 172.965 35.789, 159.143 26.711, 142 20.881 C 133.107 17.858, 131.478 17.631, 116.500 17.341 C 103.084 17.081, 99.220 17.354, 92.577 19.034 M 95.750 67.299 C 88.737 71.174, 83 74.718, 83 75.173 C 83 75.628, 89.075 76, 96.500 76 L 110 76 110 68.559 C 110 64.466, 109.662 60.923, 109.250 60.685 C 108.838 60.447, 102.763 63.423, 95.750 67.299 M 118.622 60.712 C 118.280 61.054, 118 64.633, 118 68.667 L 118 76 132 76 C 139.700 76, 146 75.631, 146 75.179 C 146 73.589, 119.662 59.671, 118.622 60.712 M 39.321 101.615 C 38.869 103.752, 38.532 111.800, 38.571 119.500 C 38.634 132.026, 38.927 134.330, 41.361 141.390 C 49.741 165.705, 69.248 183.542, 94.532 190.008 C 104.487 192.554, 109.004 192.630, 108.988 190.250 C 108.947 184.238, 102.276 167.814, 98.022 163.252 C 96.093 161.183, 95.670 161.111, 92.713 162.345 C 84.977 165.574, 76.967 165.214, 71.230 161.379 L 68.500 159.554 75 158.789 C 94.124 156.540, 94.016 156.615, 87.537 150.037 L 82.575 145 74.435 145 C 67.650 145, 65.740 144.626, 62.957 142.750 C 61.121 141.512, 59.817 140.050, 60.059 139.500 C 60.316 138.917, 63.525 138.647, 67.750 138.853 C 72.045 139.062, 75 138.808, 75 138.229 C 75 137.692, 70.950 133.788, 66 129.555 C 57.331 122.141, 55.147 119, 58.661 119 C 60.591 119, 71.727 127.234, 80.788 135.361 C 84.246 138.462, 87.544 141, 88.117 141 C 88.737 141, 88.924 139.784, 88.579 138 C 88.261 136.350, 87.739 133.650, 87.421 132 C 86.733 128.440, 88.100 128.100, 91.088 131.088 C 94.101 134.101, 96.109 139.528, 95.848 143.955 C 95.723 146.068, 96.269 148.695, 97.060 149.792 C 103.109 158.176, 108.647 165, 109.403 165 C 111.107 165, 109.204 143.620, 106.968 137.643 C 102.424 125.498, 91.005 114.196, 76.400 107.388 C 67.740 103.351, 53.488 99.126, 45.821 98.324 L 40.141 97.730 39.321 101.615 M 173.354 100.009 C 143.319 106.796, 122.341 124.071, 118.943 144.816 C 117.880 151.306, 117.685 164.352, 118.637 165.304 C 118.987 165.654, 121.072 163.366, 123.270 160.220 C 125.469 157.074, 128.332 153.228, 129.634 151.673 C 131.371 149.598, 132 147.621, 132 144.239 C 132 138.952, 135.219 131.488, 138.183 129.902 C 139.277 129.317, 140.321 128.987, 140.503 129.170 C 140.686 129.352, 140.419 131.726, 139.911 134.445 C 139.404 137.164, 139.331 139.731, 139.751 140.151 C 140.170 140.570, 143.435 138.426, 147.007 135.386 C 162.657 122.063, 172 116.273, 172 119.897 C 172 120.390, 168.738 123.617, 164.750 127.066 C 156.656 134.069, 154 136.797, 154 138.111 C 154 138.600, 157.188 139, 161.083 139 C 169.152 139, 169.750 140.124, 163.439 143.432 C 160.504 144.970, 157.635 145.497, 152.179 145.498 L 144.858 145.500 140.858 149.787 C 138.658 152.145, 137.036 154.608, 137.253 155.260 C 137.821 156.962, 141.499 157.776, 149.500 157.971 C 153.350 158.064, 157.383 158.486, 158.463 158.908 C 160.319 159.634, 160.285 159.767, 157.835 161.372 C 151.773 165.345, 145.463 165.883, 137.553 163.103 L 132.155 161.206 130.239 163.353 C 125.236 168.960, 120 181.861, 120 188.582 L 120 192.227 124.750 191.554 C 150.799 187.862, 172.657 172.463, 183.026 150.500 C 188.666 138.554, 190.362 129.380, 189.750 114.125 C 189.472 107.181, 188.916 100.713, 188.515 99.750 C 187.590 97.530, 184.061 97.590, 173.354 100.009" stroke="none" fill="#10591d" fill-rule="evenodd"/></svg>