<?xml version="1.0" encoding="UTF-8" standalone="no"?>
<svg
    version="1.0"
    width="424.000000pt"
    height="649.000000pt"
    viewBox="0 0 424.000000 649.000000"
    preserveAspectRatio="xMidYMid meet"
    id="svg7"
    xmlns="http://www.w3.org/2000/svg">
  <defs id="defs7" />
  <g
      transform="translate(0.000000,649.000000) scale(0.100000,-0.100000)"
      fill="#000000"
      stroke="none"
      id="g7">
    <path
        d="M230 3220 l0 -3090 1903 2 1902 3 3 2428 2 2427 -125 0 -125 0 0 -1815 0 -1815 -764 0 -764 0 -1 2355 -2 2355 266 0 265 0 0 120 0 120 -1280 0 -1280 0 0 -3090z m1780 495 l0 -2355 -765 0 -765 0 0 2355 1 2355 765 0 764 0 0 -2355z m0 -2970 l0 -385 -762 2 -763 3 -3 383 -2 382 765 0 765 0 0 -385z m1780 0 l0 -385 -765 0 -765 0 0 378 c0 208 3 382 7 385 3 4 348 7 765 7 l758 0 0 -385z"
        id="path1" />
    <path
        d="M1520 3425 l0 -545 115 0 115 0 0 545 0 545 -115 0 -115 0 0 -545z"
        id="path2" />
    <path
        d="M880 738 l0 -108 370 0 371 0 -3 108 -3 107 -367 0 -368 0 0 -107z"
        id="path3" />
    <path
        d="M2650 740 l0 -110 375 0 375 0 0 104 0 103 -82 6 c-46 4 -215 7 -375 7 l-293 0 0 -110z"
        id="path4" />
    <path
        d="M 3151.3223,6436.1452 V 5992.0685 H 2734.5761 2317.8298 V 5730.177 5468.2856 h 416.7463 416.7462 v -478.2364 -478.2367 h 289.4069 289.4073 l 4.6304,473.682 6.9458,471.4045 458.4208,6.832 456.1057,4.5546 v 261.8914 261.8915 h -463.0514 -463.0513 v 444.0767 444.0768 h -289.4073 -289.4069 z"
        id="path5"
        style="stroke-width:2.29621" />
    <path
        d="M2530 3425 l0 -546 113 3 c99 3 112 5 111 21 0 9 -1 253 -2 542 l-2 525 -110 0 -110 0 0 -545z"
        id="path7" />
  </g>
</svg>
