<?xml version="1.0" encoding="UTF-8" standalone="no"?>
<svg version="1.1" width="1024" height="1024" id="svg17" xmlns="http://www.w3.org/2000/svg">
  <defs
     id="defs17" />
  <path
     id="path2"
     d="M -8.9262695 -1.8959961 C -11.765324 -1.7222881 -14.574829 -0.78825594 -17.668457 0.77392578 C -19.369172 1.6519123 -21.095114 2.4802984 -22.840332 3.2661133 C -32.859449 7.6385129 -42.844114 12.096034 -52.80127 16.60791 L -54.70752 17.473145 C -55.987073 18.053512 -57.265887 18.634895 -58.54541 19.215332 L -60.475098 20.090332 L -62.414551 20.969238 C -71.455179 25.070433 -80.519042 29.10575 -89.637207 33.031738 C -99.483772 37.267148 -109.32484 41.516583 -119.1001 45.914551 L -122.53955 47.469238 C -132.47189 51.867427 -139.35434 56.135461 -145.67822 65.043457 C -146.74774 66.588982 -147.82546 68.128039 -148.91064 69.662598 L -150.64502 72.11377 C -153.38306 76.015261 -156.14899 79.894505 -158.93994 83.758301 L -160.53955 85.969238 C -165.08432 92.268892 -169.67305 98.53448 -174.28955 104.78174 C -177.8666 109.62143 -181.43369 114.46572 -184.92236 119.36963 C -190.93789 127.84814 -197.10414 136.2113 -203.28369 144.5708 C -210.76745 154.69247 -218.24677 164.81613 -225.60205 175.03174 C -228.92225 179.64782 -232.25579 184.25218 -235.64111 188.8208 C -238.0059 192.0077 -240.3642 195.19907 -242.71143 198.39893 C -243.84121 199.94349 -244.97143 201.48777 -246.10205 203.03174 C -247.74314 205.24997 -249.38038 207.47021 -250.99268 209.70947 L -252.47705 211.78174 C -255.30041 215.56779 -256.9899 218.01184 -257.51611 222.79736 C -256.82381 228.20519 -256.82379 228.20522 -246.52783 236.98877 L -244.10205 239.03174 C -237.9785 244.2522 -231.84116 249.44936 -225.60205 254.53174 C -222.1271 257.36018 -218.68264 260.21929 -215.26611 263.11768 C -210.74226 266.96189 -206.20658 270.78386 -201.60205 274.53174 C -197.56223 277.81996 -193.57104 281.15886 -189.60205 284.53174 C -186.53932 287.13555 -183.47205 289.7292 -180.35986 292.27393 C -176.38388 295.49483 -172.42981 298.72917 -168.57471 302.09424 C -166.04034 304.31408 -163.49888 306.52486 -160.9458 308.72314 C -159.66315 309.82437 -158.38188 310.92723 -157.10205 312.03174 C -152.02756 316.51288 -146.84653 322.08201 -140.14502 323.78174 C -133.42849 323.93908 -129.28538 321.2986 -124.12939 317.30127 L -122.35205 315.90674 C -121.16963 314.98764 -119.98732 314.06837 -118.80518 313.14893 L -116.10205 311.03174 C -116.16908 350.38705 -116.22134 389.74279 -116.25244 429.09814 C -116.25617 433.84174 -116.26025 438.58503 -116.26416 443.32861 L -116.26611 446.19385 C -116.27887 461.53498 -116.30108 476.87617 -116.32861 492.21729 C -116.35699 508.00958 -116.37673 523.80191 -116.3833 539.59424 C -116.38707 549.32807 -116.39408 559.0616 -116.41846 568.79541 C -116.43533 575.52773 -116.44542 582.26032 -116.44385 588.99268 C -116.44157 592.87879 -116.43676 596.76477 -116.44971 600.65088 C -116.46475 604.25394 -116.4779 607.85638 -116.47119 611.45947 L -116.46338 615.39502 L -116.48877 619.09033 L -116.47119 622.46533 C -116.47644 626.89393 -115.88442 629.51664 -113.10205 633.03174 C -109.28625 635.55026 -106.13366 636.37696 -101.56885 636.42822 L -99.471191 636.40674 C -97.064095 636.41974 -94.657616 636.42852 -92.250488 636.41846 C -90.476643 636.41049 -88.704037 636.40798 -86.930176 636.41064 C -82.033749 636.42473 -77.13716 636.42731 -72.240723 636.4165 C -66.889174 636.40456 -61.537591 636.40474 -56.186035 636.41064 C -45.701765 636.42278 -35.21718 636.42253 -24.73291 636.41064 C -12.417693 636.39654 -0.1028208 636.3931 12.212402 636.39502 C 34.137028 636.39878 56.061223 636.39094 77.98584 636.37158 C 99.35337 636.35257 120.72182 636.34102 142.08936 636.34619 C 165.43151 636.35228 188.77258 636.35512 212.11475 636.34424 C 214.60193 636.34302 217.09045 636.34154 219.57764 636.34033 L 223.28857 636.33838 C 231.90208 636.33412 240.51493 636.33269 249.12842 636.33447 C 259.7285 636.33681 270.32913 636.33552 280.9292 636.32275 C 286.3376 636.31525 291.74539 636.30467 297.15381 636.30713 C 302.1727 636.3114 307.19156 636.31354 312.21045 636.30322 C 314.03278 636.29854 315.85491 636.29452 317.67725 636.2915 C 320.20146 636.29736 322.72529 636.30375 325.24951 636.29541 L 327.51904 636.28564 C 331.68961 636.31196 335.33163 636.47711 338.89795 634.03174 C 341.58686 630.81099 342.80692 628.69186 343.38623 624.51416 L 343.36865 620.59033 C 343.37559 618.31138 343.37548 616.03325 343.35107 613.75439 C 343.33251 612.12943 343.32078 610.50446 343.31592 608.87939 C 343.31233 605.48547 343.30498 602.0916 343.27881 598.69775 C 343.23908 594.28834 343.20393 589.87883 343.19287 585.46924 C 343.1835 581.1959 343.16882 576.92221 343.14795 572.64893 L 343.13623 570.20361 C 343.12626 567.84082 343.11496 565.47846 343.09521 563.11572 L 343.07568 560.95752 C 343.03587 555.73186 343.07026 553.52376 339.83545 549.40674 C 336.03026 546.3302 336.03024 546.3302 328.89795 547.03174 C 326.89795 548.03174 326.89795 548.03174 322.89795 554.03174 L 322.89795 615.03174 L -96.102051 615.03174 L -96.039551 422.15674 C -96.026663 393.65541 -96.013557 365.15416 -96.008301 336.65283 C -96.00751 325.86358 -96.00572 315.07489 -95.998535 304.28564 C -95.99213 294.95319 -95.988237 285.62005 -95.98877 276.2876 C -95.989494 271.48528 -95.991167 266.68365 -95.986816 261.88135 C -95.981825 257.48668 -95.976751 253.09047 -95.979004 248.6958 C -95.980284 247.10577 -95.98052 245.51631 -95.980957 243.92627 C -95.976522 241.71373 -95.972432 239.50209 -95.975098 237.28955 L -95.979004 235.30518 C -95.978326 233.21331 -96.006753 231.12143 -96.102051 229.03174 C -97.667185 225.90147 -100.17593 223.85379 -103.10205 222.03174 C -107.27454 221.45904 -108.56076 221.67088 -112.10205 224.03174 C -116.48408 228.76715 -116.59632 232.9304 -116.70752 239.25049 L -116.71143 242.86768 C -116.76297 246.71529 -116.80913 250.56273 -116.83057 254.41064 C -116.84462 257.08612 -116.86461 259.76078 -116.89502 262.43604 C -116.98028 269.60617 -117.04849 276.77528 -117.09033 283.9458 L -117.10205 286.03174 C -119.10205 287.03174 -119.10254 287.03174 -120.64307 288.23096 L -122.43799 289.71924 C -123.78562 290.82184 -125.13192 291.92608 -126.47705 293.03174 L -128.51611 294.72705 L -130.50049 296.34424 C -132.37142 297.88924 -133.87377 298.94472 -136.13916 299.8208 C -139.82165 299.33774 -139.82165 299.33724 -142.77002 296.76807 L -144.53955 295.28174 C -146.44308 293.73363 -148.34145 292.18213 -150.2251 290.60986 L -152.10205 289.03174 C -154.88071 286.70582 -157.65522 284.37505 -160.4126 282.02393 C -164.70199 278.36076 -169.0487 274.77374 -173.42236 271.21143 C -175.23156 269.73981 -177.03881 268.26579 -178.84424 266.78955 C -181.59638 264.53638 -184.34852 262.2832 -187.10205 260.03174 C -192.41717 255.70836 -197.7185 251.37153 -202.94385 246.93994 C -209.27236 241.56513 -215.63573 236.24098 -222.10205 231.03174 L -224.97314 228.80127 L -227.72705 226.65674 C -230.7039 224.3748 -231.90142 223.63362 -233.10205 220.03174 L -232.11768 218.30127 L -230.57471 216.39893 L -228.87939 214.2583 C -227.73085 212.82047 -226.60346 211.3642 -225.50049 209.89111 L -223.91064 207.72705 L -222.2583 205.48877 L -220.53955 203.15674 C -215.85889 196.80654 -211.21147 190.43382 -206.60205 184.03174 C -202.72167 178.64091 -198.8162 173.2703 -194.87158 167.92627 C -190.28887 161.72494 -185.71612 155.51773 -181.20752 149.26221 C -176.80564 143.14696 -172.39053 137.0441 -167.92236 130.97705 L -166.16455 128.59424 C -163.21838 124.60025 -160.26934 120.60753 -157.31494 116.61963 C -156.12499 115.01364 -154.93553 113.408 -153.74658 111.80127 L -151.97705 109.40674 C -147.49253 103.34145 -143.10086 97.221284 -138.78955 91.031738 C -137.44566 89.073833 -136.0935 87.128345 -134.69971 85.205566 L -133.10205 83.031738 C -128.11141 76.003777 -123.81949 71.104623 -115.79736 67.715332 C -113.56225 66.844373 -111.33897 65.940678 -109.12549 65.016113 C -107.2274 64.219104 -105.32883 63.426538 -103.42432 62.64502 C -96.339798 59.742555 -89.334335 56.664913 -82.32666 53.58252 C -79.713741 52.431437 -77.099954 51.281397 -74.484863 50.135254 C -57.459344 42.680134 -40.541385 35.000511 -23.664551 27.215332 L -21.102051 26.031738 C -20.722994 33.187127 -20.137082 40.082917 -18.338379 47.031738 L -17.602051 49.656738 C -14.832448 59.621644 -11.052005 68.826936 -6.2192383 77.963379 L -5.1020508 80.031738 C -4.4512277 81.239104 -3.795323 82.443758 -3.1333008 83.64502 C 13.782302 112.58873 43.460475 134.46602 75.608887 143.41455 L 77.897949 144.03174 C 80.228136 144.67373 82.557618 145.29068 84.905762 145.86377 C 118.65654 153.41257 156.79429 146.4072 186.03662 128.20947 L 187.89795 127.03174 C 195.96346 121.96354 203.02137 116.26067 209.77295 109.53174 C 229.87615 89.028054 248.16488 59.593719 247.92725 29.797363 L 247.89795 26.031738 C 259.93108 31.458365 271.97521 36.861596 284.03662 42.225098 C 285.90733 43.05651 287.77728 43.887732 289.64795 44.719238 C 299.86571 49.266392 310.07817 53.824001 320.34131 58.268066 L 322.65186 59.266113 C 326.16241 60.787233 329.67216 62.312848 333.19092 63.814941 C 342.10803 67.619789 351.07386 70.756394 356.85107 78.887207 C 357.71133 80.162539 358.58459 81.430151 359.47021 82.687988 L 360.92139 84.746582 C 363.43699 88.378104 366.00276 91.968949 368.59326 95.547363 L 370.21045 97.781738 C 377.03787 107.24916 383.96023 116.64496 390.89795 126.03174 C 397.77376 135.33475 404.63813 144.64395 411.39795 154.03174 C 415.85827 160.22817 420.36025 166.39173 424.89795 172.53174 C 429.46476 178.70789 433.98332 184.91529 438.46045 191.15674 C 442.87739 197.32038 447.42959 203.35915 452.08545 209.34424 C 455.30013 213.40976 458.31531 217.01195 459.89795 222.03174 C 452.87683 227.25379 446.12599 232.80377 439.46045 238.46924 C 433.6654 243.39719 427.80257 248.2353 421.89795 253.03174 C 416.35076 257.51279 410.86342 262.04048 405.49561 266.73486 C 400.06972 271.48355 394.60631 276.12499 388.89795 280.53174 C 385.84472 282.87702 382.81984 285.23221 379.90967 287.75439 L 377.86279 289.5708 C 376.51799 290.76346 375.17549 291.95873 373.83545 293.15674 L 371.9585 294.88135 C 368.83806 297.67367 366.31951 300.24955 361.89795 300.03174 C 360.23502 298.69374 358.56762 297.3613 356.89795 296.03174 C 353.22459 294.29052 349.78643 292.59164 346.70068 289.93408 C 341.29953 276.36546 341.29903 276.36491 342.54443 261.03369 C 342.63707 257.67978 342.67819 254.32823 342.69678 250.97314 C 342.71106 247.76333 342.73128 244.55399 342.75732 241.34424 L 342.82959 237.69189 L 342.89795 234.33252 C 342.94069 232.56611 342.95141 230.79785 342.89795 229.03174 C 341.33119 225.89822 338.82078 223.86275 335.89795 222.03174 C 332.47745 221.48446 330.75067 221.56883 327.71045 223.21924 C 324.93737 225.99232 323.10138 228.6459 322.52686 232.57471 L 322.53076 235.3208 L 322.51318 238.48877 L 322.54248 241.93408 C 322.53598 245.76699 322.53075 249.59927 322.55029 253.43213 C 322.56816 256.86791 322.57464 260.30491 322.57568 263.74072 C 322.57702 269.49457 322.58727 275.24865 322.60889 281.00244 C 322.63785 288.44395 322.65519 295.88509 322.65967 303.32666 C 322.66353 309.775 322.67334 316.22208 322.68701 322.67041 C 322.69148 324.731 322.6958 326.79146 322.69873 328.85205 C 322.70317 332.14965 322.71006 335.44901 322.72217 338.74658 L 322.73779 342.38721 L 322.73975 345.84424 L 322.75732 348.99658 C 322.76284 350.67544 322.80183 352.35563 322.89795 354.03174 C 324.19362 357.91875 325.67841 359.4972 328.89795 362.03174 C 333.16525 362.86357 336.225 362.48037 339.89795 360.03174 C 342.7696 355.67069 343.2707 352.01865 343.39014 346.94775 L 343.40967 344.2583 C 343.46553 341.38375 343.51858 338.51016 343.55225 335.63525 C 343.57499 333.63911 343.60304 331.64298 343.63623 329.64697 C 343.71914 325.02892 343.79491 320.40995 343.85303 315.7915 L 343.89795 312.03174 C 345.23581 313.02567 346.5685 314.02658 347.89795 315.03174 C 352.16641 318.59788 356.18255 322.50713 361.76904 323.58643 C 370.38408 323.61143 370.38415 323.61139 396.39795 301.53174 C 399.48639 298.90763 402.57995 296.2932 405.71045 293.71924 C 410.64633 289.70166 415.54836 285.65274 420.39795 281.53174 C 423.48622 278.90743 426.57996 276.2932 429.71045 273.71924 C 434.64632 269.70166 439.54847 265.65286 444.39795 261.53174 C 447.46068 258.92792 450.52795 256.33427 453.64014 253.78955 C 462.94254 246.25378 482.41209 234.79832 484.52295 222.34424 C 483.63352 217.63027 483.63327 217.63 477.23193 208.97119 C 473.49361 203.94689 469.78609 198.90196 466.16357 193.79346 C 462.70045 188.9042 459.19101 184.05888 455.5874 179.27197 C 450.83071 172.96837 446.13353 166.63069 441.52295 160.21924 C 437.60021 154.76305 433.65494 149.32664 429.66357 143.92041 C 425.08156 137.7217 420.51065 131.51559 416.00342 125.26221 C 411.5878 119.12761 407.15653 113.00743 402.66748 106.92627 C 398.05656 100.68632 393.45114 94.442378 388.8999 88.158691 L 387.27295 85.906738 C 384.58291 82.194522 381.89703 78.481789 379.29443 74.70752 L 377.69873 72.371582 C 376.65996 70.86317 375.62216 69.354073 374.58545 67.844238 C 369.31407 59.938115 363.50058 53.767826 354.66553 49.930176 C 353.02156 49.251809 351.38242 48.558578 349.74951 47.854004 L 346.96826 46.648926 C 341.44389 44.282905 335.97263 41.81128 330.50342 39.320801 C 321.15522 35.062259 311.7872 30.850199 302.37842 26.727051 L 299.77295 25.586426 C 296.25266 24.046121 292.7319 22.50688 289.21045 20.969238 C 280.23648 17.058192 271.25009 13.178495 262.3999 8.9926758 L 260.37842 8.0317383 C 257.88255 6.8491595 255.38735 5.6653783 252.89795 4.4692383 C 248.14575 2.1308475 243.50353 -0.33373727 238.33545 -1.5932617 C 232.9608 -2.3634354 229.47947 -1.6027045 224.81982 1.3481445 C 190.99181 25.4452 145.1377 33.1997 104.47998 32.109863 L 101.89795 32.031738 C 69.164846 31.19153 34.373822 20.945467 6.4604492 3.9692383 C 4.3301895 2.5924481 2.2063239 1.2511355 -0.00048828125 0.00048828125 C -3.2180858 -1.4816246 -6.0872146 -2.0697041 -8.9262695 -1.8959961 z M -0.10205078 26.031738 L 3.394043 27.684082 C 25.244252 37.857616 47.243381 45.347666 70.897949 50.031738 L 73.403809 50.570801 C 99.408026 56.082207 129.91924 55.104291 155.89795 50.031738 L 159.79639 49.375488 C 182.00099 45.398543 203.4903 37.857971 223.34326 27.184082 L 225.89795 26.031738 L 227.89795 27.031738 C 223.17056 54.172483 213.36904 79.511856 191.89795 98.031738 L 189.24951 100.31689 C 163.61268 121.5761 132.51363 127.88807 99.897949 126.03174 C 69.84558 122.95753 42.85998 107.40318 23.120605 84.809082 C 10.376081 68.884026 -0.59983474 46.867553 -0.10205078 26.031738 z M 269.27686 312.81104 C 267.85188 312.90887 266.4673 313.24706 264.89795 314.03174 C 260.86383 317.73373 260.86357 317.734 258.71826 328.00635 C 256.75942 337.75931 254.75347 347.12338 250.44873 356.1333 L 248.89795 359.03174 C 247.85186 360.9896 246.76872 362.92816 245.64795 364.84424 C 235.29672 380.2465 219.03215 386.34561 201.68701 390.5708 L 199.46045 391.09033 C 198.02378 391.4285 196.58629 391.76325 195.14795 392.09424 C 192.63021 392.61517 190.35948 393.22567 187.89795 394.03174 C 185.45589 395.91843 184.1617 397.0388 183.3667 400.03174 L 183.39795 402.03174 C 183.3667 404.03173 183.3667 404.03174 183.89795 406.03174 C 186.10047 408.99563 187.66367 409.9542 191.19092 411.12158 C 193.19817 411.55847 195.20569 411.99611 197.20654 412.46143 L 199.40186 412.98096 C 210.80806 415.62613 221.62361 418.50998 231.67529 424.68408 C 248.53369 436.96517 254.09319 454.817 258.41553 474.37549 L 258.91748 476.66064 C 259.24537 478.09659 259.57224 479.53279 259.89795 480.96924 L 260.71045 484.80908 C 262.10569 488.59552 263.50125 489.92434 266.89795 492.03174 C 270.46993 492.62707 272.30991 492.30525 275.58545 490.78174 C 278.44906 487.37637 278.44907 487.37634 280.09326 479.84814 C 282.39545 468.9295 284.47077 457.49119 289.53467 447.47314 L 290.89795 445.03174 C 291.93012 443.13988 292.99399 441.26503 294.08545 439.40674 C 305.19099 422.67694 322.32509 417.29293 340.89795 413.03174 L 344.63623 412.19971 L 347.83545 411.46924 C 350.55029 410.90283 350.5503 410.90283 352.89795 410.03174 C 355.22936 408.15465 356.65326 406.9529 357.4292 404.03174 L 357.39795 402.03174 C 357.4292 400.03174 357.4292 400.03173 356.89795 398.03174 C 354.93676 395.55562 353.49273 394.24918 350.51514 393.16064 C 331.30967 389.1937 307.90716 384.62786 296.22217 367.18408 L 294.89795 365.03174 C 288.24432 354.93718 285.11025 343.30765 282.32764 331.64307 L 281.80811 329.35986 C 281.48 327.93888 281.15557 326.51704 280.83545 325.09424 C 279.68354 319.55248 278.38114 316.60889 273.89795 313.03174 C 272.16723 312.85573 270.70183 312.7132 269.27686 312.81104 z M 269.89795 359.03174 C 272.08252 361.21631 272.48485 362.46457 273.46045 365.34424 C 279.728 381.34846 291.84457 392.3332 306.89795 400.03174 L 309.89795 401.03174 L 309.89795 403.03174 L 307.62451 404.06299 C 290.84504 412.00894 278.59283 424.21994 271.96045 441.78174 L 270.89795 445.03174 C 268.2114 441.7695 266.62873 438.37406 264.89795 434.53174 C 257.94436 420.04319 245.4245 409.6098 230.89795 403.03174 L 230.89795 401.03174 L 233.10107 400.10596 C 241.93741 396.08429 248.12349 390.87698 254.89795 384.03174 L 256.70264 382.29346 C 262.55191 376.17544 267.24207 366.99938 269.89795 359.03174 z M 400.24756 425.81689 C 398.8382 425.88644 397.52279 426.21932 395.89795 427.03174 C 393.54092 429.57461 392.05105 431.55199 390.9917 434.87158 C 388.51175 447.80974 385.37183 460.45345 378.89795 472.03174 C 368.95485 486.37275 354.69556 491.25295 338.46045 495.03174 C 333.22967 496.14723 327.73932 496.71813 323.71045 500.49658 C 321.26237 503.92072 321.2242 505.9144 321.89795 510.03174 C 324.56093 513.6271 327.1567 514.64029 331.48193 515.55127 C 332.96223 515.83735 334.43817 516.13997 335.91162 516.45947 L 338.23389 516.97705 C 347.4927 519.0273 356.69154 521.38728 364.89795 526.28174 C 378.88893 536.09007 385.52763 550.99696 389.10498 567.25049 C 389.61645 569.68941 390.13421 572.12704 390.65967 574.56299 L 391.39795 577.78174 C 392.30405 582.04993 393.46262 584.26703 396.89795 587.03174 C 400.33544 587.59424 400.33546 587.59424 403.89795 587.03174 C 408.10635 583.76627 409.52746 581.04397 410.50342 576.00439 C 410.77284 574.43949 411.06697 572.87983 411.37842 571.32275 L 411.88232 568.87549 C 413.90231 558.9878 416.60524 549.72102 421.71045 540.96924 C 430.79451 527.24146 444.31704 521.2487 459.97217 517.53955 L 462.14014 517.03955 C 463.57967 516.7012 465.01978 516.36522 466.46045 516.03174 C 471.2742 515.02523 474.81992 514.13833 477.89795 510.03174 C 478.47842 506.04099 478.29946 503.81731 476.46045 500.21924 C 473.62002 497.79448 471.3929 497.19541 467.76123 496.53564 C 455.91202 494.45031 445.03019 491.26561 434.61084 485.12549 C 420.82837 476.31838 415.97769 459.97316 412.37451 444.83643 L 411.87451 442.62939 C 411.54535 441.20185 411.21971 439.77347 410.89795 438.34424 C 409.71979 432.70832 408.44663 429.68311 403.89795 426.03174 C 403.09707 425.93752 402.37713 425.86341 401.70264 425.82666 C 401.19677 425.7991 400.71734 425.79371 400.24756 425.81689 z M 399.89795 470.03174 C 402.2207 472.35449 403.00767 474.40447 404.33545 477.40674 C 409.36668 487.60386 417.056 495.39744 426.60889 501.53174 C 429.17577 503.21379 431.52586 505.08713 433.89795 507.03174 L 431.33545 508.53564 C 416.52422 517.34717 407.57702 526.84191 400.89795 543.03174 C 398.9351 540.08746 397.42746 537.12692 395.83545 533.96924 C 389.14609 521.58153 379.31872 511.92983 365.89795 507.03174 C 369.03475 504.60445 372.30632 502.47821 375.64795 500.34424 C 387.63749 492.29786 393.65067 482.77872 399.89795 470.03174 z "
     transform="translate(379.10205078125,120.96826171875)" />
</svg>
