<?xml version="1.0" encoding="UTF-8" standalone="no"?>
<svg version="1.1" width="1024" height="1024" id="svg24" xmlns="http://www.w3.org/2000/svg">
  <defs
     id="defs24" />
  <path
     id="path2"
     d="M -15.134766 -3.8300781 C -16.87205 -3.7135973 -18.650979 -3.3593909 -20.496094 -2.7109375 L -22.457031 -1.46875 L -24.716797 -0.087890625 C -26.311968 0.93571395 -27.921575 1.9371148 -29.541016 2.921875 L -32.074219 4.4492188 C -62.245086 22.798512 -96.448912 29.587988 -131.44531 29.712891 L -134.04688 29.71875 C -144.11692 29.763125 -153.90301 29.569472 -163.87109 27.947266 L -166.98438 27.40625 C -192.4483 23.416012 -216.64124 16.851797 -238.54688 2.90625 C -241.61328 0.82414362 -244.58257 -1.1044186 -247.98438 -2.59375 C -255.26102 -4.423286 -255.2618 -4.4232768 -269.16797 1.9746094 C -271.33171 2.9888923 -273.49434 4.0011651 -275.66797 4.9941406 C -277.99494 6.0488403 -280.32197 7.1043502 -282.64844 8.1601562 C -289.78814 11.424651 -296.9614 14.587351 -304.18555 17.660156 C -306.24751 18.535502 -308.30993 19.411147 -310.36914 20.292969 C -316.96042 23.122501 -323.55146 25.954748 -330.1582 28.748047 C -336.07235 31.243852 -341.98246 33.744548 -347.88672 36.263672 C -350.29332 37.292012 -352.70136 38.318722 -355.10938 39.34375 C -358.57772 40.798126 -362.04599 42.25339 -365.50391 43.732422 L -368.74219 45.121094 C -377.92402 48.917453 -384.60797 53.517961 -391.25195 60.941406 L -392.87109 63.113281 L -394.75195 65.609375 L -396.67188 68.21875 C -398.77704 71.029599 -400.87931 73.841998 -402.9668 76.666016 L -404.98438 79.40625 C -407.32001 82.571212 -409.65411 85.737322 -411.98438 88.90625 C -416.25015 94.727768 -420.56373 100.5072 -424.94531 106.24219 C -430.69161 113.74979 -436.39776 121.27887 -441.98438 128.90625 C -446.24893 134.72864 -450.56375 140.50723 -454.94531 146.24219 C -460.6916 153.74978 -466.39807 161.27864 -471.98438 168.90625 C -475.64444 173.90724 -479.33247 178.88213 -483.09766 183.80469 C -485.84535 187.38714 -488.58704 190.97387 -491.31641 194.57031 C -492.53786 196.1832 -493.76043 197.79525 -494.98438 199.40625 C -499.28743 204.96897 -504.44652 210.23035 -504.60938 217.59375 C -503.46014 224.60409 -503.4601 224.60414 -485.10938 238.84375 C -480.39225 242.4933 -475.76908 246.21942 -471.23438 250.09375 C -468.31503 252.58839 -465.39404 255.07541 -462.40625 257.48828 C -458.2753 260.75973 -454.184 264.06138 -450.16797 267.47266 C -445.81778 271.17687 -441.46368 274.8577 -436.98438 278.40625 C -433.66136 281.03877 -430.39861 283.72851 -427.16797 286.47266 C -422.81778 290.17687 -418.46368 293.8577 -413.98438 297.40625 C -411.20451 299.6066 -408.45933 301.83739 -405.75781 304.13281 C -404.06421 305.57816 -402.36925 307.02305 -400.66602 308.45703 C -399.10242 309.77034 -397.54363 311.0878 -395.98438 312.40625 C -392.68614 315.38438 -389.97193 317.90611 -385.59375 319.00781 C -380.56215 319.42454 -377.482 318.47322 -373.48438 315.40625 C -371.14116 313.31095 -368.79474 311.25172 -366.35742 309.26562 L -363.70312 307.15625 C -362.13116 305.90507 -360.55853 304.65467 -358.98438 303.40625 C -359.02904 342.28069 -359.0652 381.15484 -359.08594 420.0293 C -359.08842 424.71421 -359.08919 429.39907 -359.0918 434.08398 L -359.09375 436.91406 C -359.10225 452.06802 -359.11641 467.22302 -359.13477 482.37695 C -359.15368 497.9757 -359.1675 513.57312 -359.17188 529.17188 C -359.17438 538.78661 -359.17907 548.40285 -359.19531 558.01758 C -359.20656 564.66751 -359.21394 571.31684 -359.21289 577.9668 C -359.21137 581.80452 -359.20817 585.64274 -359.2168 589.48047 C -359.22682 593.04015 -359.23495 596.59852 -359.23047 600.1582 L -359.22461 604.04297 L -359.24219 607.69727 L -359.23047 611.02539 C -359.23342 614.71789 -359.13631 617.33504 -356.98438 620.40625 C -353.60552 623.11627 -350.84815 623.75512 -346.54297 623.80664 L -344.41992 623.78711 C -341.99358 623.80205 -339.56897 623.81084 -337.14258 623.80273 C -335.35265 623.79619 -333.56142 623.79672 -331.77148 623.80078 C -326.83388 623.81869 -321.89663 623.82539 -316.95898 623.81836 C -311.56096 623.81051 -306.16365 623.81433 -300.76562 623.82422 C -290.191 623.84408 -279.61567 623.85062 -269.04102 623.8457 C -260.36 623.84145 -251.67905 623.839 -242.99805 623.84375 L -239.26953 623.8457 C -236.76914 623.84722 -234.26992 623.85004 -231.76953 623.85156 C -208.30815 623.86601 -184.84614 623.86298 -161.38477 623.85156 C -140.49887 623.84133 -119.61245 623.84798 -98.726562 623.87109 C -75.852738 623.89655 -52.97931 623.91231 -30.105469 623.90625 C -17.659303 623.9025 -5.2137356 623.89917 7.2324219 623.91602 C 17.925492 623.93106 28.619424 623.93778 39.3125 623.92383 C 44.770621 623.91481 50.227423 623.90297 55.685547 623.91406 C 60.747526 623.92836 65.809104 623.93861 70.871094 623.92383 C 72.71236 623.91659 74.555208 623.9121 76.396484 623.9082 C 78.940725 623.92297 81.483085 623.93744 84.027344 623.92383 L 86.326172 623.90625 C 91.977988 623.98435 95.558839 623.12852 100.01562 619.40625 C 101.49896 615.80452 101.98888 612.78206 102.25781 608.90625 L 102.24609 605.26562 L 102.24023 601.27344 C 102.22124 599.20399 102.20335 597.13594 102.20117 595.06641 C 102.2018 589.77059 102.70158 584.4641 101.01562 579.40625 C 97.572686 575.88133 96.230039 574.52769 91.265625 574.03125 C 86.693601 574.55879 86.693581 574.55881 82.015625 580.40625 L 82.015625 602.40625 L -338.98438 602.40625 L -338.92188 415.53125 C -338.90899 387.91664 -338.89588 360.30211 -338.89062 332.6875 C -338.88984 322.23385 -338.88804 311.77982 -338.88086 301.32617 C -338.87445 292.28406 -338.87056 283.24133 -338.87109 274.19922 C -338.87182 269.54624 -338.87349 264.89321 -338.86914 260.24023 C -338.86415 255.98234 -338.85908 251.72469 -338.86133 247.4668 C -338.86261 245.92614 -338.86284 244.38636 -338.86328 242.8457 C -338.86025 241.38209 -338.85832 239.91869 -338.85547 238.45508 L -338.86133 234.49414 C -338.86029 231.39721 -338.60146 229.17208 -339.98438 226.40625 C -342.16512 224.15941 -343.85303 222.5688 -347.02344 222.11328 C -351.44547 222.07308 -353.79865 222.34159 -357.08203 225.29102 C -359.43492 229.14484 -359.43433 229.14559 -359.46094 236.18945 C -359.4312 238.27051 -359.42236 240.35039 -359.43164 242.43164 C -359.44706 245.77744 -359.43846 249.12296 -359.42188 252.46875 C -359.4 255.81823 -359.38392 259.16611 -359.40039 262.51562 L -359.41797 265.69141 C -359.3335 270.88649 -358.62984 274.95729 -362.30859 278.89453 C -364.98413 280.40674 -364.98438 280.40601 -366.75781 281.91406 L -368.35938 283.31641 C -369.56838 284.36641 -370.77671 285.4172 -371.98438 286.46875 C -375.82003 289.83315 -379.48216 292.94197 -383.98438 295.40625 C -389.98833 290.25003 -396.00588 285.12552 -402.24609 280.25586 C -407.475 276.19334 -412.63216 272.07723 -417.67188 267.78125 C -420.66858 265.22173 -423.66472 262.66783 -426.71484 260.17188 C -431.34234 256.42613 -435.90227 252.62664 -440.38281 248.70703 C -445.295 244.40669 -450.22003 240.15554 -455.36523 236.13477 C -460.11595 232.44922 -464.85474 228.75459 -469.48828 224.92188 L -471.23438 223.46875 C -474.52119 220.78357 -477.43179 218.48653 -478.98438 214.40625 C -469.78065 200.94668 -459.94237 187.92355 -450.04688 174.96875 C -443.48426 166.38462 -436.97749 157.7608 -430.50391 149.10938 C -428.80188 146.83384 -427.09957 144.55892 -425.39258 142.28711 C -420.80167 136.18556 -416.21071 130.08459 -411.69141 123.92969 C -405.51947 115.51862 -399.31566 107.13593 -392.98438 98.84375 C -389.68199 94.598776 -386.30831 90.416912 -383.34961 85.921875 C -375.01343 72.816497 -366.55912 67.230978 -352.14844 61.578125 C -344.32914 58.578744 -336.64873 55.297513 -328.96289 51.972656 C -324.49643 50.038172 -320.02334 48.120178 -315.54688 46.208984 C -304.79696 41.620464 -294.06273 36.995793 -283.33594 32.353516 L -280.85938 31.28125 C -276.47741 29.38464 -272.09607 27.488168 -267.71484 25.589844 L -264.98438 24.40625 C -264.99594 26.406212 -264.99467 28.406281 -264.98438 30.40625 C -262.04024 61.868949 -247.32951 90.566124 -223.58203 111.23047 L -220.98438 113.40625 C -206.47578 125.58657 -189.69662 133.50369 -171.55469 138.69141 L -168.98438 139.40625 C -144.17851 146.46396 -116.66407 145.65126 -92.210938 137.55078 L -88.984375 136.40625 C -75.169512 131.57257 -62.276526 124.96926 -50.921875 115.65625 C -46.75352 112.02194 -42.432221 108.68789 -37.984375 105.40625 C -36.928399 107.79437 -35.878128 110.18481 -34.833984 112.57812 L -33.546875 115.53125 L -32.271484 118.41406 L -31.050781 121.22656 C -29.048756 125.79457 -27.091184 130.08571 -28.964844 134.95703 L -30.527344 137.50391 L -32.265625 140.40039 C -33.558493 142.48084 -34.835738 144.57174 -36.099609 146.66992 L -38.0625 149.93359 C -42.624915 157.43969 -47.02081 165.03305 -51.335938 172.68359 C -52.217797 174.25834 -53.100558 175.8326 -53.984375 177.40625 C -55.120584 179.38017 -56.254049 181.35282 -57.349609 183.34961 L -58.296875 185.09375 L -59.972656 188.10547 C -62.137385 195.168 -60.15409 201.92544 -57.123047 208.44922 C -56.309909 210.11969 -55.510644 211.79603 -54.722656 213.47852 L -53.472656 216.15234 C -51.548687 220.20309 -49.677488 224.2712 -47.847656 228.36523 C -47.168745 229.88681 -46.487501 231.40791 -45.804688 232.92773 L -44.757812 235.25195 C -37.581937 251.20788 -30.388639 267.15628 -23.171875 283.09375 C -18.542536 293.31444 -13.916723 303.53519 -9.34375 313.78125 C -7.4976832 317.91802 -5.6439426 322.05253 -3.7851562 326.18359 C -2.8504939 328.25733 -1.9168506 330.33153 -0.984375 332.40625 C 0.27386485 335.24277 1.5327801 338.07828 2.8144531 340.9043 L 3.953125 343.40625 C 6.4487743 349.11695 8.5714612 353.11532 14.015625 356.40625 C 19.39221 357.24166 23.918373 356.45713 28.753906 354.07031 C 30.128024 353.34773 31.510464 352.64286 32.900391 351.95117 L 35.191406 350.81641 C 39.397231 348.6989 43.646393 346.69524 47.921875 344.72266 C 49.735478 343.88816 51.547706 343.04962 53.359375 342.21094 C 55.177737 341.36821 56.995677 340.52738 58.814453 339.68555 C 60.686935 338.81888 62.559335 337.95103 64.431641 337.08398 C 69.959081 334.52394 75.48757 331.96497 81.015625 329.40625 C 81.051081 348.10897 81.105098 366.81109 81.1875 385.51367 C 81.227809 394.6067 81.265381 403.69986 81.28125 412.79297 C 81.294323 420.77917 81.314907 428.76584 81.355469 436.75195 C 81.378701 440.97068 81.405074 445.18941 81.408203 449.4082 C 81.407218 453.44306 81.409642 457.47695 81.4375 461.51172 C 81.449602 463.00011 81.460012 464.48815 81.46875 465.97656 C 81.463313 467.38463 81.459791 468.79311 81.455078 470.20117 L 81.496094 474.07227 C 81.507267 477.43261 81.507818 477.43279 82.015625 480.40625 C 83.917576 483.26916 84.989385 485.05231 88.269531 486.18359 L 90.578125 486.34375 C 94.20561 486.6802 94.81315 486.54124 98.015625 484.40625 C 100.49401 481.29814 101.9005 479.13733 102.52344 475.18555 L 102.53516 471.64844 C 102.55908 469.56131 102.57696 467.47596 102.57031 465.38867 C 102.56471 463.8625 102.56571 462.33671 102.57422 460.81055 C 102.60634 456.64912 102.62379 452.48773 102.62305 448.32617 C 102.62202 443.90599 102.63752 439.48652 102.66016 435.06641 C 102.70382 426.71842 102.73113 418.36957 102.74414 410.02148 C 102.75904 400.44375 102.79222 390.86672 102.83203 381.28906 C 102.91544 361.48387 102.97467 341.67838 103.01172 321.87305 L 103.01562 319.40625 C 105.13451 318.48564 107.25546 317.57021 109.37891 316.66016 L 112.01562 315.53125 C 116.75184 313.47234 121.38404 311.46144 126.41211 310.23242 C 131.49194 309.0677 135.63874 307.42985 139.83203 304.3125 C 141.25633 303.06446 142.6824 301.818 144.11719 300.58203 L 145.72266 299.20703 C 148.43959 296.87463 151.21658 294.63856 154.03906 292.43555 C 161.85011 286.36568 169.53814 280.14827 177.19922 273.89062 L 179.01562 272.40625 C 182.68479 269.4093 186.35146 266.4093 190.01562 263.40625 C 195.66324 258.77762 201.31612 254.15696 206.98047 249.54883 L 209.07812 247.84375 C 212.6889 244.90694 216.30143 241.9738 219.94531 239.07812 C 223.16722 236.52871 226.36092 233.95253 229.51562 231.32031 L 231.95312 229.21875 C 235.04202 226.55591 237.15643 224.05579 239.01562 220.40625 C 239.49073 214.99001 238.74032 211.96152 235.75781 207.54102 L 234.32031 205.59766 L 232.67578 203.36719 L 230.89062 200.96875 C 225.65875 193.90189 220.35606 186.89133 215.01562 179.90625 C 209.93282 173.26302 204.90166 166.58766 199.95312 159.84375 C 195.8018 154.18285 191.62898 148.54005 187.41211 142.92773 C 180.13588 133.25356 172.92534 123.53229 165.75781 113.77734 C 163.39472 110.5608 161.03125 107.34583 158.66602 104.13086 L 156.89062 101.71875 C 152.61022 95.902515 148.30098 90.109725 143.95312 84.34375 C 141.38421 80.948584 138.82711 77.549288 136.36133 74.078125 L 134.66016 71.65625 C 133.52736 70.052997 132.39582 68.448841 131.26562 66.84375 C 126.43309 59.804325 121.3898 53.789275 113.78906 49.648438 C 111.98188 48.92141 110.17478 48.19243 108.375 47.447266 L 106.14453 46.519531 C 101.08452 44.449758 96.073182 42.275408 91.060547 40.09375 C 87.859038 38.699123 84.655659 37.309644 81.451172 35.921875 L 79.421875 35.042969 C 75.191473 33.211197 70.960152 31.381037 66.726562 29.556641 C 63.77893 28.286891 60.831798 27.017235 57.884766 25.746094 C 56.366072 25.090991 54.847022 24.435879 53.328125 23.78125 C 43.978543 19.762808 34.649177 15.711067 25.380859 11.507812 C 22.436055 10.172102 19.487206 8.8419959 16.539062 7.5136719 C 14.61348 6.6462836 12.689468 5.7774898 10.765625 4.90625 C 8.0298301 3.6455504 5.2947892 2.3849072 2.5488281 1.1464844 L 0 0 C -5.0899455 -2.3908385 -9.9229124 -4.1795206 -15.134766 -3.8300781 z M -4.984375 22.40625 C -1.5916623 22.998908 1.3797706 23.848965 4.5410156 25.208984 L 7.1855469 26.337891 L 10.027344 27.570312 L 13.023438 28.855469 C 16.252099 30.242378 19.477739 31.636738 22.703125 33.03125 C 24.933321 33.991529 27.164129 34.952309 29.394531 35.912109 C 43.538413 42.006106 57.659726 48.15092 71.730469 54.412109 C 77.8088 57.116112 83.893943 59.793236 90.027344 62.371094 L 93.28125 63.748047 C 95.227751 64.568159 97.177296 65.377407 99.132812 66.175781 C 112.6749 71.899955 120.56845 86.712556 128.91406 98.324219 C 137.62396 110.44196 146.51023 122.4295 155.48047 134.35547 C 162.32565 143.46619 169.05736 152.66193 175.80664 161.84375 C 181.84439 170.05576 187.89031 178.25927 194.01562 186.40625 C 194.97923 187.69265 195.94279 188.97912 196.90625 190.26562 C 198.56258 192.47622 200.225 194.6817 201.89648 196.88086 C 203.86132 199.46638 205.81406 202.06072 207.76562 204.65625 L 209.64844 207.11328 L 211.375 209.42188 L 212.92188 211.46094 C 214.01659 213.40527 214.01563 213.40625 214.01562 217.40625 C 212.18365 219.28389 210.43254 220.85004 208.39062 222.46875 L 206.61914 223.91992 C 201.91113 227.75542 197.11634 231.48446 192.32031 235.20898 C 188.11349 238.49213 184.04495 241.90831 180.01562 245.40625 C 174.86442 249.87812 169.59258 254.14568 164.20312 258.32617 C 160.14067 261.48935 156.18217 264.75192 152.26562 268.09375 C 144.21631 274.94448 144.21628 274.94451 140.39062 278.09375 L 138.03906 280.04297 C 136.01562 281.40625 136.01562 281.40625 133.01562 281.40625 C 124.42649 262.84465 115.84024 244.28187 107.39062 225.65625 L 106.48047 223.65234 C 105.87152 222.31005 105.26324 220.96732 104.6543 219.625 L 103.73828 217.60547 L 102.82422 215.58984 C 96.5877 201.84692 90.304174 188.12545 84.015625 174.40625 L 83.111328 172.43164 C 81.187156 168.23399 79.258491 164.03855 77.328125 159.84375 L 75.908203 156.74805 C 73.760807 152.09085 71.580035 147.45142 69.328125 142.84375 L 68.148438 140.42969 C 65.067375 134.92626 59.737218 133.21149 54.015625 131.40625 C 49.367804 130.24909 44.685903 129.2756 39.996094 128.30469 C 38.646957 128.0205 37.298104 127.73654 35.949219 127.45117 C 32.421959 126.7064 28.892435 125.96816 25.363281 125.23242 C 19.697743 124.04993 14.034401 122.85524 8.3710938 121.66211 C 6.3978136 121.24739 4.425145 120.83523 2.4511719 120.42383 L -1.171875 119.66602 L -4.3613281 119 C -6.9840467 118.4064 -6.984384 118.40625 -9.984375 117.40625 C -11.265458 115.19261 -12.356775 113.05804 -13.410156 110.73828 L -14.353516 108.70117 C -15.00861 107.27543 -15.658568 105.84672 -16.302734 104.41602 C -17.290448 102.2348 -18.308573 100.06985 -19.330078 97.904297 C -19.962901 96.516523 -20.593829 95.12787 -21.222656 93.738281 L -22.154297 91.787109 C -23.601103 88.49035 -24.052759 86.707326 -23.25 83.15625 L -21.984375 80.40625 L -20.503906 77.085938 L -19.675781 75.257812 C -14.007147 62.501807 -11.115418 48.958638 -7.984375 35.40625 L -7.1152344 31.654297 C -6.4026835 28.572139 -5.6923527 25.489461 -4.984375 22.40625 z M -243.98438 25.40625 L -242.25391 26.197266 C -222.99043 34.940864 -203.70738 42.105479 -183.04688 46.78125 L -179.85938 47.503906 C -164.57865 50.775979 -149.50466 51.792037 -133.92188 51.71875 L -131.3418 51.710938 C -96.897025 51.555937 -62.660048 44.894166 -32.066406 28.4375 C -29.984381 27.406253 -29.984369 27.40625 -27.984375 27.40625 C -31.630595 49.973232 -36.768374 70.659948 -51.984375 88.40625 L -54.296875 91.316406 C -62.92703 101.64313 -74.909362 107.9925 -86.984375 113.40625 L -89.585938 114.64453 C -117.22516 126.94447 -150.76793 124.58163 -178.55078 114.37695 C -191.22681 109.32333 -202.68014 102.32082 -212.98438 93.40625 L -215.23828 91.457031 C -230.33671 77.363197 -238.01202 58.024153 -242.53906 38.333984 C -242.84412 37.013621 -243.17806 35.701246 -243.53711 34.394531 C -244.21009 31.402341 -244.04307 28.459346 -243.98438 25.40625 z M 1.015625 140.40625 L 3.1914062 140.75977 C 8.270643 141.56544 13.324386 142.3559 18.441406 142.87109 C 47.005268 145.80103 47.006353 145.80106 54.777344 152.94531 C 58.834144 158.80859 61.01592 165.38445 63.041016 172.16602 C 65.323013 179.78701 68.643388 186.88666 71.962891 194.10156 C 73.368606 197.17734 74.732727 200.27121 76.097656 203.36523 C 79.802217 211.76076 83.622759 220.09625 87.515625 228.40625 C 93.361364 240.88558 98.974948 253.46188 104.54883 266.06445 L 105.5293 268.28125 C 106.15797 269.70343 106.78511 271.12591 107.41211 272.54883 C 109.59818 277.50084 111.86019 282.4143 114.18555 287.30273 C 115.01563 289.40649 115.01562 289.40625 115.01562 292.40625 L 111.89648 293.75977 C 82.133933 306.68381 52.483961 319.82167 23.015625 333.40625 C 20.248261 330.07244 18.557281 326.45713 16.855469 322.51172 L 15.939453 320.42773 C 15.283874 318.93494 14.632012 317.44183 13.980469 315.94727 C 12.210751 311.89028 10.422036 307.84136 8.6328125 303.79297 L 7.5 301.22852 C 3.2963654 291.74005 -1.0564897 282.32113 -5.421875 272.90625 C -6.9494373 269.60948 -8.4767598 266.31258 -10.003906 263.01562 L -11.085938 260.68164 C -13.95538 254.48312 -16.78002 248.2652 -19.558594 242.02539 C -22.009362 236.53474 -24.517979 231.07191 -27.039062 225.61328 C -28.149564 223.20353 -29.259048 220.79275 -30.369141 218.38281 C -31.106507 216.78516 -31.846635 215.1896 -32.587891 213.59375 C -33.631163 211.34736 -34.667632 209.09762 -35.703125 206.84766 L -36.662109 204.79883 C -39.842856 197.85416 -39.842103 197.85383 -39.984375 194.40625 C -38.756107 191.47461 -38.756098 191.47461 -36.863281 188.25 L -35.839844 186.48242 C -34.755444 184.61577 -33.651752 182.76084 -32.546875 180.90625 C -31.8379 179.69086 -31.1302 178.47472 -30.423828 177.25781 C -25.742624 169.22666 -20.887198 161.30363 -15.984375 153.40625 C -9.2175722 163.55645 -5.2407386 173.52305 -5.9160156 185.75 C -6.1008739 189.70937 -6.1073432 192.4408 -3.859375 195.78125 C 1.4479512 200.62708 5.5386886 201.94234 12.621094 201.6875 C 17.604547 201.10217 20.637274 199.05131 23.828125 195.34375 C 27.862337 189.92639 27.647957 185.03275 27.015625 178.40625 C 25.030602 174.3653 22.86931 171.71847 19.015625 169.40625 L 15.75 168.61328 C 10.789934 166.51332 9.4897524 162.00558 7.4902344 157.30469 L 6.078125 153.78125 L 4.5839844 150.23438 C 1.0156356 141.70201 1.015625 141.70199 1.015625 140.40625 z M -43.603516 334.24609 C -45.047546 334.33325 -46.452229 334.64018 -47.984375 335.40625 C -52.430774 339.9916 -52.430788 339.99163 -54.878906 353.07031 C -57.114405 365.22568 -59.676461 376.79108 -65.734375 387.71875 C -75.230926 402.45894 -89.577809 409.80593 -106.07031 414.23438 L -109.48438 415.12891 C -111.83754 415.746 -114.19173 416.35926 -116.54688 416.96875 L -120.00977 417.82031 L -123.30078 418.66016 C -126.25219 419.38891 -126.2522 419.38892 -128.98438 420.40625 C -131.68778 422.31294 -133.60075 423.47266 -134.86719 426.55469 L -135.10938 428.78125 C -135.60692 432.21551 -134.96123 433.44612 -133.18359 436.50781 C -130.11294 439.90777 -130.1139 439.90827 -121.82422 441.76172 C -119.68553 442.19946 -117.55001 442.66198 -115.42188 443.14844 L -112.16797 443.91406 C -100.76883 446.5862 -90.26159 450.34056 -80.660156 457.22656 C -64.933187 470.03773 -57.394105 488.36563 -54.296875 507.96875 C -53.721814 511.98426 -53.13272 515.86084 -52.066406 519.78125 C -50.497291 523.58792 -48.68655 524.69228 -44.984375 526.40625 C -42.096083 526.68397 -39.651395 526.5778 -36.984375 525.40625 C -33.379179 521.97336 -32.376049 518.85022 -31.515625 514.125 C -28.746396 497.75534 -23.700363 482.58074 -14.984375 468.40625 C -4.1605878 452.54428 14.535689 446.91279 32.320312 442.88281 L 34.585938 442.38281 C 36.020377 442.0553 37.455261 441.72969 38.890625 441.40625 L 42.757812 440.59375 C 46.592706 439.1959 47.922008 437.87155 50.015625 434.40625 C 51.048435 430.39652 50.443628 427.20876 48.515625 423.59375 C 44.574545 420.14531 44.574501 420.14529 26.203125 415.03125 C 16.109409 412.2662 6.7228372 408.93202 -2.109375 403.21875 C -19.582343 390.34247 -27.339132 369.80797 -30.734375 349.03125 C -31.108316 346.47424 -31.515656 343.94991 -31.984375 341.40625 C -33.523009 337.53732 -35.132434 336.11822 -38.984375 334.40625 C -40.67609 334.29156 -42.159485 334.15894 -43.603516 334.24609 z M -42.984375 382.40625 L -40.984375 382.40625 L -40.207031 384.57422 C -31.790599 406.47961 -15.896784 419.81738 5.015625 429.40625 L 5.015625 431.40625 L 2.7773438 432.21875 C -17.799897 440.16726 -29.470471 455.19248 -39.285156 474.18359 C -40.984372 477.40625 -40.984379 477.40625 -42.984375 480.40625 L -43.867188 477.94922 C -51.900803 456.24835 -62.994602 443.3884 -83.890625 433.44922 C -85.984371 432.40625 -85.984381 432.40625 -88.984375 430.40625 L -87.490234 429.61523 C -66.591636 418.47582 -50.461999 405.77382 -42.984375 382.40625 z M 137.95312 444.74219 L 136.01562 444.78125 C 130.76569 444.6754 127.61933 448.60973 126.04688 453.28906 L 125.51562 456.53125 L 124.81641 460.25391 C 122.48771 472.72494 119.4179 485.35639 113.01562 496.40625 C 103.16217 511.17403 84.752347 516.31083 68.453125 520.46875 C 64.910034 521.30222 61.430453 522.13659 58.015625 523.40625 C 54.804411 525.25786 52.394889 527.04722 51.359375 530.75781 L 51.515625 533.03125 C 51.609375 535.32031 51.609375 535.32032 52.015625 537.40625 C 55.519954 542.66274 59.914809 543.79771 65.804688 545.14258 C 76.616574 547.55328 86.925411 550.5144 96.691406 555.875 C 114.47154 567.11085 120.6545 585.91542 125.07812 605.46875 L 125.78516 608.82422 L 126.48828 612.00391 C 127.39814 616.32728 128.50491 618.63522 132.01562 621.40625 C 135.26594 621.87058 136.98915 622.31363 140.01562 621.40625 C 144.1185 618.253 145.61232 615.55254 146.57227 610.48047 C 148.70357 597.84535 152.12027 585.21371 158.26562 573.90625 C 169.13591 556.83449 185.36068 550.63342 204.01562 545.40625 L 207.76953 544.39062 L 211.26562 543.40625 C 214.96612 542.42947 216.66057 541.77322 219.34375 539 C 221.58323 535.52567 221.59609 533.46948 221.01562 529.40625 C 218.93376 526.04285 217.60324 524.62816 213.87109 523.21875 C 211.98057 522.79998 210.09029 522.38 208.20703 521.92969 L 206.15234 521.42578 C 194.27114 518.5675 182.74538 514.2577 172.01562 508.40625 C 156.29702 497.90235 151.81537 479.56448 147.95312 462.21875 C 147.13921 458.21679 146.3513 454.27042 145.01562 450.40625 C 143.1939 447.5309 141.26103 445.80723 137.95312 444.74219 z M 136.01562 492.40625 C 138.81364 493.80526 139.31433 495.93491 140.57812 498.67578 C 148.61555 516.09021 160.60313 524.95545 178.01562 532.40625 C 175.13534 534.69177 172.23256 536.37946 168.95312 538.03125 C 153.26811 546.52207 144.29821 558.61215 137.01562 574.40625 L 135.01562 574.40625 L 134.45703 572.67578 C 128.35837 555.62663 116.53288 544.40266 100.92188 536.03516 C 98.015631 534.40625 98.015621 534.40625 96.015625 532.40625 L 98.945312 530.9375 C 106.99332 526.82647 114.32733 522.58006 121.01562 516.40625 L 122.89844 514.6875 C 129.01986 508.42883 132.35438 500.24228 136.01562 492.40625 z "
     transform="translate(620.984375,121.59375)" />
</svg>
