<?xml version="1.0" encoding="UTF-8" standalone="no"?>
<svg version="1.1" width="1024" height="1024" id="svg11" xmlns="http://www.w3.org/2000/svg">
  <defs
     id="defs11" />
  <path
     id="path2"
     d="M -39.441406 -12.826172 C -41.441434 -12.895118 -43.442537 -12.880294 -45.439453 -12.777344 C -50.764564 -12.50281 -56.05533 -11.606932 -61.183594 -10.03125 L -64 -9 C -77.433145 -4.1991509 -88.093731 2.8770494 -97.191406 13.851562 C -107.08327 26.446813 -113.72807 42.824158 -112 59 L -111 60 C -109 62.562494 -109 62.562504 -106 65 C -102.21508 65.60794 -98.469956 65.734977 -95 64 C -91.765868 60.685324 -90.53694 58.06535 -89.888672 53.480469 C -89.434555 49.951686 -88.821562 46.462119 -88 43 C -83.104177 29.563514 -73.945571 20.519874 -61.621094 13.679688 C -50.135168 8.5388814 -34.505818 9.4207826 -22.890625 13.679688 C -9.5505515 19.772855 -0.92234515 28.86518 4.96875 42.191406 C 9.7582661 55.296055 7.6060173 69.859756 1.9726562 82.261719 C -5.5433928 95.876199 -19.743973 102.10454 -33.8125 106.5625 C -38.680892 108.00457 -43.003914 109.3738 -47.324219 112.08984 C -53.61427 118.93086 -55.551573 125.57247 -55.794922 134.76562 L -55.8125 138.125 C -55.88363 141.37144 -55.955039 144.61622 -55.988281 147.86328 L -56 150 C -76.257368 158.51664 -76.256731 158.51724 -121.25391 177.82031 C -130.52591 181.79789 -139.80066 185.77214 -149.07422 189.74609 C -154.09972 191.8996 -159.125 194.05326 -164.15039 196.20703 C -166.21117 197.09023 -168.27125 197.97423 -170.33203 198.85742 C -173.48176 200.2073 -173.48147 200.20607 -187.03711 206.01562 C -189.45817 207.05322 -191.87972 208.09131 -194.30078 209.12891 C -200.36359 211.72718 -206.42568 214.32508 -212.48828 216.92383 C -222.9331 221.40117 -233.37883 225.88078 -243.82812 230.34766 C -250.25907 233.09631 -256.68814 235.8472 -263.11328 238.60938 C -266.44862 240.0444 -269.78416 241.47948 -273.12305 242.90625 C -291.57478 250.78162 -312.0996 257.51361 -326.76562 271.6875 L -329 274 C -342.42854 287.87319 -351.18886 302.49063 -353 322 C -353.38107 336.34351 -349.64822 350.00427 -339.8125 360.625 C -329.65004 370.23991 -317.14148 374.43006 -303.32812 374.50781 C -301.30279 374.488 -299.27739 374.46998 -297.25195 374.4707 C -293.48107 374.48091 -289.71029 374.47657 -285.93945 374.45312 C -281.9406 374.42786 -277.94229 374.42031 -273.94336 374.41797 C -267.23995 374.41467 -260.53537 374.3994 -253.83203 374.36914 C -245.16975 374.32864 -236.50808 374.30272 -227.8457 374.29297 C -220.3268 374.28464 -212.80795 374.26906 -205.28906 374.25 C -203.69017 374.24581 -202.09108 374.24233 -200.49219 374.23828 C -195.85321 374.22833 -191.21512 374.21833 -186.57617 374.19727 C -185.1668 374.19026 -183.75702 374.184 -182.34766 374.17773 C -181.00441 374.17514 -179.6616 374.17081 -178.31836 374.16797 L -174.66406 374.14648 C -172.77527 374.13881 -170.88604 374.10219 -169 374 C -165.85208 372.42604 -163.78476 369.97239 -162 367 C -161.49712 362.83326 -161.40893 359.4155 -164 356 C -168.77171 351.55769 -168.77189 351.55681 -179.6582 351.48242 C -181.64647 351.49983 -183.6347 351.51681 -185.62305 351.51367 C -188.5351 351.50176 -191.4473 351.49491 -194.35938 351.50391 C -199.04024 351.52471 -203.71949 351.53093 -208.40039 351.51758 C -219.20418 351.48412 -230.00867 351.48904 -240.8125 351.5 C -250.80844 351.51015 -260.80486 351.51692 -270.80078 351.49023 C -275.51216 351.47566 -280.22223 351.46589 -284.93359 351.48633 C -287.91122 351.4996 -290.88954 351.50266 -293.86719 351.49414 C -295.25777 351.48848 -296.64847 351.48461 -298.03906 351.48242 C -303.70462 351.53227 -309.29316 351.81184 -314.76367 350.17188 C -321.3722 347.36467 -324.93226 343.3262 -328.3125 337 C -331.20611 330.15102 -331.27958 321.08556 -329 314 C -323.67011 300.01452 -313.55363 287.03353 -299.95703 280.21289 L -298.08984 279.31641 C -283.32084 272.38534 -283.32117 272.38626 -268.33398 265.93555 C -266.08608 264.96816 -263.83831 263.99795 -261.5918 263.02734 C -253.70784 259.61862 -245.81912 256.2196 -237.92773 252.82812 L -236 252 C -217.34118 243.98178 -198.67399 235.98284 -180 228 L -180 230 C -168.45251 252.78909 -150.30789 271.92102 -129.23438 286.19531 C -98.618455 306.37342 -58.460183 316.79212 -22.035156 309.68359 L -19 309 C 5.0124264 304.18784 26.923938 295.13884 46.431641 280.20508 L 48 279 C 64.487005 266.59018 77.718657 250.66315 87.601562 232.60547 L 89 230 C 91.893015 229.83122 91.893757 229.83098 94.054688 230.73633 L 96.519531 231.81641 L 99.472656 233.09766 C 102.42885 234.39503 105.39095 235.68211 108.35352 236.96484 L 110.41016 237.85547 C 118.9811 241.57324 127.57679 245.23048 136.17578 248.88281 C 146.683 253.34552 157.18484 257.82209 167.68359 262.30469 C 170.71927 263.60102 173.75593 264.89631 176.79297 266.18945 C 180.74615 267.87187 184.69872 269.55622 188.64453 271.25586 C 189.99221 271.83776 191.33921 272.4195 192.6875 273 C 202.5148 277.16969 211.72743 281.65626 220.01562 288.48438 C 230.17617 298.78701 238.05896 310.40295 238.375 325.3125 C 238.02282 333.77592 235.95574 339.91862 230 346 C 223.58245 350.58401 217.48315 351.58465 209.72461 351.66406 C 207.72515 351.64589 205.72609 351.62738 203.72656 351.63477 C 200.78152 351.65456 197.8377 351.66903 194.89258 351.66211 C 190.17847 351.64254 185.46412 351.63961 180.75 351.6582 C 173.28966 351.68921 165.82954 351.70154 158.36914 351.69531 C 144.86259 351.68375 131.35611 351.70056 117.84961 351.73828 C 113.09981 351.75243 108.34942 351.76347 103.59961 351.75586 C 100.60016 351.75048 97.601011 351.74919 94.601562 351.75391 C 93.208354 351.75684 91.815088 351.75865 90.421875 351.75977 L 86.460938 351.74414 L 82.841797 351.75586 C 79.696785 351.75294 79.697536 351.75225 77 352 C 72.765153 353.61307 71.114542 355.99747 69 360 C 68.555931 363.67943 68.447539 365.95323 70.1875 369.25 C 73.109826 372.07156 75.732072 373.83094 79.808594 374.375 L 82.931641 374.375 L 86.533203 374.39453 C 88.525266 374.38278 90.517671 374.37151 92.509766 374.375 C 96.190344 374.38805 99.870199 374.39148 103.55078 374.37891 C 107.46938 374.36501 111.38803 374.36147 115.30664 374.36328 C 121.87587 374.36654 128.44642 374.36136 135.01562 374.34375 C 142.65301 374.32249 150.28838 374.31035 157.92578 374.31641 C 165.33482 374.32247 172.74525 374.32161 180.1543 374.31055 C 183.29572 374.30577 186.43669 374.29971 189.57812 374.30078 C 193.33405 374.30332 197.08981 374.30433 200.8457 374.29102 C 202.23791 374.28507 203.63122 374.27975 205.02344 374.27539 C 219.80743 374.30384 232.44813 372.44775 244.46484 363.07812 C 253.78781 354.13095 259.61195 343.64248 260.41797 330.64453 C 261.11557 311.31751 256.231 294.34922 242.85938 279.86328 L 241 278 C 239.56961 276.55122 238.13584 275.10447 236.67773 273.68359 L 235.0625 272.125 C 224.32692 261.40779 224.32635 261.40749 194.56836 248.94727 C 189.82136 246.97513 185.07909 244.99534 180.3418 243 C 177.8947 241.96883 175.4471 240.93742 173 239.90625 C 162.29648 235.40793 151.63812 230.82245 141.02148 226.12305 C 110.80587 212.74622 110.80583 212.74571 30.283203 178.48828 C 20.069369 174.14369 9.853086 169.80235 -0.34375 165.41797 L -2.9492188 164.29688 C -6.8618949 162.61445 -10.774208 160.93225 -14.683594 159.24219 C -16.047726 158.65233 -17.412346 158.06441 -18.777344 157.47656 L -20.65625 156.66797 C -22.762013 155.75797 -24.875973 154.86652 -27 154 L -33 152 L -33 129 C -19.102087 129 -2.6536502 119.8365 7.4570312 110.68164 C 21.774652 97.190474 29.707608 79.535864 30.46875 59.875 C 30.699983 41.837033 24.834722 24.166165 12.105469 11.042969 L 10 9 C 6.8302264 5.740144 3.6137516 2.7654761 0 0 C -11.528071 -7.7239783 -25.441214 -12.34355 -39.441406 -12.826172 z M -46.498047 170.32422 C -43.578658 170.48898 -40.944453 171.79704 -38 173 L -35.294922 174.09766 C -32.241911 175.36549 -29.206252 176.66867 -26.171875 177.98047 L -22.744141 179.45117 C -19.704953 180.75678 -16.667973 182.06653 -13.630859 183.37695 C -10.475338 184.73757 -7.3172316 186.09417 -4.1601562 187.45117 C 3.2292115 190.62848 10.614837 193.81293 18 197 L 21.111328 198.3418 C 30.548831 202.41465 39.983106 206.496 49.414062 210.58398 C 55.934629 213.40835 62.466222 216.20636 69 219 C 58.274279 246.56237 31.580084 266.57113 5.7382812 278.80664 C -26.256451 292.75336 -61.247313 292.0209 -93.511719 279.97852 C -111.64889 272.84823 -126.32469 261.80292 -140 248 L -142.32422 245.66797 C -147.44978 240.28823 -151.71469 234.76826 -155.6875 228.5 L -157.03906 226.39453 C -158.11283 224.64668 -159.06756 222.82716 -160 221 C -159 218 -158.99951 217.99902 -156.6875 216.70312 L -153.57031 215.39062 L -150.02734 213.87891 C -148.7263 213.33607 -147.42615 212.79261 -146.125 212.25 C -144.76615 211.67384 -143.40873 211.09586 -142.05078 210.51758 C -139.17017 209.2925 -136.28719 208.07445 -133.40234 206.85938 C -129.15966 205.07052 -124.92549 203.25962 -120.69531 201.44141 L -118.60547 200.54297 C -117.19768 199.93794 -115.79057 199.3336 -114.38281 198.72852 C -110.75961 197.17256 -107.13313 195.62136 -103.50781 194.07031 C -96.54263 191.08981 -89.579487 188.10443 -82.617188 185.11719 C -79.731426 183.87931 -76.844773 182.64211 -73.958984 181.4043 C -72.080733 180.59852 -70.204259 179.79249 -68.326172 178.98633 C -65.699749 177.85901 -63.072131 176.73187 -60.445312 175.60547 L -58.076172 174.58789 C -56.654946 173.97877 -55.231429 173.3785 -53.802734 172.78711 C -51.851138 171.9744 -51.850702 171.97424 -49.535156 170.58789 C -48.476646 170.34269 -47.471177 170.2693 -46.498047 170.32422 z M -94.015625 378.17383 C -100.26844 378.09962 -106.52682 378.99421 -112.5625 381.03125 L -115 382 C -128.26036 386.97263 -138.81172 395.8623 -146.75391 407.58984 C -155.29955 422.17527 -158.12313 440.72146 -154.10547 457.28516 L -153 461 C -144.55662 489.78889 -122.83552 511.52752 -100.30859 530.26172 C -98.631992 531.64609 -96.959378 533.03353 -95.300781 534.43945 C -89.92315 539.03102 -84.539975 543.60376 -79 548 C -76.251714 550.17368 -73.540328 552.37757 -70.878906 554.65625 C -68.133636 557.01335 -65.374393 559.35228 -62.595703 561.66992 L -61 563 C -56.865858 566.46787 -52.886315 570.03299 -47.703125 571.76953 C -41.732571 572.39411 -41.732556 572.3941 -32.820312 565.34375 L -30 563 C -27.237448 560.77744 -24.483161 558.54854 -21.753906 556.28516 C -19.916886 554.76082 -18.070447 553.24775 -16.214844 551.74609 C -11.707129 548.10061 -7.2882953 544.40215 -3 540.5 C -0.54370645 538.25488 1.9221625 536.06235 4.5078125 533.9668 C 10.38819 529.29157 15.892904 524.38135 21.232422 519.09766 L 24 516.3125 C 30.541265 509.74631 37.034507 503.17992 42.632812 495.77344 C 56.887809 476.20187 66.110916 454.26998 62.496094 429.55469 C 58.732553 411.36066 48.893406 396.97389 33.375 386.75 C 18.317396 378.39245 1.2487991 376.4675 -15.5625 380.125 C -25.49305 383.16208 -38.909494 388.7977 -44.273438 398.24219 L -45 400 C -48.247825 396.68722 -51.566848 393.68634 -55.253906 390.87109 C -66.529642 383.1882 -80.259437 378.33709 -94.015625 378.17383 z M -90.955078 400.74609 C -89.031623 400.7669 -87.048386 400.85661 -85 401 C -74.399599 403.35388 -66.111569 408.78627 -59.8125 417.5625 C -57.758887 420.50481 -55.796969 423.47089 -53.375 426.125 C -50.436963 428.4445 -48.741834 429 -45 429 C -41.200516 427.70818 -39.417155 426.57863 -37.0625 423.3125 C -34.443008 419.10544 -31.459733 415.54194 -28 412 C -17.927419 402.61289 -8.0992562 400.41742 5.2773438 400.76172 C 14.47438 401.35041 23.25426 405.23083 29.445312 412.13281 L 31 414 C 39.373657 423.34452 41.483858 433.3606 41.238281 445.65234 C 39.353924 472.12602 17.644534 493.25909 -1.1914062 509.70312 C -3.4215571 511.62976 -5.6227626 513.56804 -7.8007812 515.55469 C -12.17126 519.59211 -16.582271 523.54396 -21.1875 527.3125 C -23.794348 529.41079 -26.40343 531.50536 -28.978516 533.64258 C -30.409167 534.8349 -31.842633 536.02351 -33.277344 537.21094 L -35.4375 539 L -37.517578 540.74805 L -39.496094 542.375 C -41.331164 543.90206 -42.799157 544.92172 -45.025391 545.79102 C -48.804718 545.25401 -48.804481 545.25352 -51.820312 542.58398 L -53.625 541.0625 C -54.888174 540.03144 -56.151197 539.00019 -57.414062 537.96875 C -59.476544 536.2574 -61.545653 534.56863 -63.648438 532.90625 C -70.344519 527.65617 -76.792513 522.11529 -83.220703 516.54297 L -85 515 C -104.51916 498.24273 -128.13959 477.35645 -133.60156 450.96875 C -135.41201 437.47918 -133.26087 425.96791 -125 415 C -114.98875 403.79312 -104.41927 400.60048 -90.955078 400.74609 z "
     transform="translate(560,204)" />
</svg>
