<?xml version="1.0" encoding="UTF-8" standalone="no"?>
<svg version="1.1" width="1024" height="1024" id="svg22" xmlns="http://www.w3.org/2000/svg">
  <defs
     id="defs22" />
  <path
     id="path2"
     d="M 238.11914 -1.5292969 C 236.09187 -1.4972417 234.07872 -0.97421706 231.69727 0.1015625 L 228.79688 1.6015625 L 225.57617 3.2460938 C 211.68751 10.36561 197.63641 17.795278 182.62891 22.267578 C 126.29243 38.284924 64.673786 35.820165 12.648438 6.8320312 C 8.4685342 4.4726436 4.3067324 2.1215715 0 0 C -6.1684786 -2.4230139 -10.712634 -1.6679425 -16.658203 0.99023438 L -18.714844 1.9335938 C -21.241069 3.0821205 -23.764369 4.2360642 -26.285156 5.3964844 C -46.562808 14.74266 -66.871867 24.02095 -87.375 32.863281 C -95.977949 36.572174 -104.58391 40.278067 -113.13672 44.101562 L -115.96484 45.371094 C -124.9157 49.337191 -134.18972 53.18746 -140.35547 61.072266 L -141.71484 62.933594 C -143.23117 64.953169 -144.73042 66.981559 -146.20312 69.033203 C -147.29084 70.562149 -148.38122 72.088386 -149.47461 73.613281 L -151.22266 76.050781 C -153.99257 79.924975 -156.76931 83.793156 -159.55469 87.65625 L -161.15234 89.871094 C -165.65187 96.111048 -170.20092 102.31237 -174.77734 108.49609 C -178.63179 113.70279 -182.4412 118.93288 -186.15039 124.24414 C -190.52045 130.51131 -194.99473 136.66784 -199.64062 142.73438 C -205.16618 149.92565 -210.64773 157.12162 -215.83984 164.55859 C -219.45485 169.74294 -223.11944 174.88161 -226.87305 179.9668 C -231.61444 186.37191 -236.35034 192.77952 -241.0293 199.23047 L -242.71484 201.55859 C -245.30714 205.12639 -247.86145 208.7189 -250.39844 212.32617 L -252.04688 214.72656 C -254.06217 217.64696 -254.73092 219.01981 -255.40234 222.62109 C -253.82545 230.21893 -253.82539 230.21897 -232.77734 246.93359 C -229.44479 249.54517 -226.17451 252.20972 -222.94727 254.94922 C -219.28157 258.07087 -215.61712 261.19149 -211.89844 264.25 C -206.96331 268.26563 -202.06299 272.31371 -197.21484 276.43359 C -194.13936 279.04765 -191.0588 281.65156 -187.9375 284.21094 C -182.80024 288.3826 -177.72779 292.61404 -172.71484 296.93359 C -169.42412 299.77174 -166.12853 302.59498 -162.76562 305.34766 C -159.07306 308.3291 -155.41093 311.29753 -151.90625 314.5 C -146.58896 319.44856 -141.37348 324.83183 -134.71484 327.93359 C -130.15877 329.20373 -126.97835 328.64463 -122.85742 326.32227 L -119.92578 324.38281 L -116.95898 322.43555 L -114.71484 320.93359 C -114.67971 359.04484 -114.62581 397.15642 -114.54297 435.26758 C -114.53296 439.86132 -114.52344 444.45508 -114.51367 449.04883 L -114.50781 451.82422 C -114.47635 466.6803 -114.45519 481.53646 -114.44336 496.39258 C -114.43122 511.68577 -114.40828 526.97834 -114.36719 542.27148 C -114.34149 551.69762 -114.3206 561.12265 -114.32227 570.54883 C -114.32343 577.06839 -114.31629 583.5879 -114.29297 590.10742 C -114.27768 593.87084 -114.25873 597.63498 -114.26367 601.39844 C -114.27228 604.88757 -114.27613 608.37614 -114.25586 611.86523 L -114.23438 615.67773 C -114.27045 621.16428 -114.6807 626.06745 -112.11914 631.01172 C -107.49207 634.70846 -103.00288 636.26376 -97.105469 636.32812 L -95.039062 636.30469 C -92.658577 636.31671 -90.278943 636.32551 -87.898438 636.31445 C -86.14611 636.30577 -84.394925 636.30272 -82.642578 636.30469 C -77.802223 636.31686 -72.96145 636.31738 -68.121094 636.30469 C -62.832208 636.29069 -57.542806 636.28905 -52.253906 636.29297 C -41.891165 636.30124 -31.528747 636.29663 -21.166016 636.28125 C -8.9944089 636.26312 3.1760378 636.25678 15.347656 636.25586 C 37.018036 636.25469 58.689009 636.24245 80.359375 636.21875 C 101.47726 636.19547 122.59499 636.17778 143.71289 636.17383 L 147.66211 636.17383 C 150.28853 636.17338 152.9146 636.17231 155.54102 636.17188 L 159.46875 636.17188 L 163.38672 636.17188 C 183.58286 636.16849 203.77847 636.15672 223.97461 636.14453 C 231.27206 636.14003 238.56972 636.13557 245.86719 636.13281 C 257.55918 636.12841 269.25137 636.12296 280.94336 636.10938 C 286.28838 636.10264 291.63348 636.0956 296.97852 636.09375 C 301.93845 636.09301 306.8975 636.09206 311.85742 636.08398 C 313.65842 636.08058 315.46072 636.0768 317.26172 636.07422 C 319.75615 636.07564 322.24971 636.07599 324.74414 636.07031 L 326.98828 636.06445 C 333.3839 636.08089 337.94959 635.72465 343.28516 631.93359 C 344.7254 629.68154 345.27068 628.0783 345.55078 625.4082 L 345.57227 622.5293 L 345.61328 619.25 L 345.62891 615.71484 C 345.67467 611.93166 345.72025 608.14856 345.75391 604.36523 C 345.79552 599.21049 345.83469 594.05495 345.89648 588.90039 L 345.94141 585.21484 C 346.02278 567.47528 349.07412 551.12612 358.13867 535.72852 C 367.07011 521.33471 381.38913 515.36043 397.33984 511.42773 C 403.04017 510.09641 409.58891 509.54167 413.72266 505.05859 C 415.44345 501.617 415.87454 499.72248 415.28516 495.93359 C 412.21057 491.32173 408.54899 489.03875 403.16016 487.93359 C 390.88478 485.5399 374.92175 480.53894 365.75781 471.5625 L 364.28516 469.93359 C 354.79535 459.93653 351.20713 447.20162 348.57812 434.01172 L 348.14453 431.83203 C 346.67188 425.15155 345.14679 421.80449 339.28516 417.93359 C 335.01111 417.17037 332.93749 417.61998 329.03516 419.49609 C 325.86794 422.4706 325.86793 422.47063 323.98047 433.82812 C 322.24849 444.38221 319.34957 454.3276 314.3125 463.77344 C 305.84934 476.96553 291.25193 482.55863 276.67773 486.25 C 274.53858 486.7872 272.40824 487.33583 270.28516 487.93359 C 265.05404 489.64064 261.05255 490.86004 258.28516 495.93359 C 257.8395 499.56251 257.76499 501.89327 259.41016 505.18359 C 263.36068 508.87076 267.98468 510.24592 273.19727 511.31445 C 286.61954 514.01262 299.67016 519.40014 310.08984 528.51172 C 327.85481 570.66758 327.85483 570.66775 325.28516 615.93359 L -93.714844 615.93359 L -93.652344 431.62109 C -93.639455 404.38665 -93.626348 377.15241 -93.621094 349.91797 C -93.620303 339.60708 -93.618516 329.29525 -93.611328 318.98438 C -93.60492 310.06674 -93.601031 301.15005 -93.601562 292.23242 C -93.602287 287.64241 -93.603963 283.05095 -93.599609 278.46094 C -93.594614 274.26228 -93.589547 270.0639 -93.591797 265.86523 C -93.593077 264.3443 -93.593313 262.82368 -93.59375 261.30273 C -93.590721 259.86172 -93.588789 258.42149 -93.585938 256.98047 L -93.591797 253.06641 C -93.590625 249.61106 -93.620929 247.21534 -94.714844 243.93359 C -96.887597 241.62917 -98.5494 240.09881 -101.75391 239.64453 C -106.17304 239.59632 -108.52925 239.86786 -111.80859 242.81641 C -114.16917 246.67663 -114.19717 249.29152 -114.24414 253.74219 L -114.21875 256.81641 C -114.24814 260.0957 -114.27573 263.37485 -114.2793 266.6543 C -114.27759 270.05358 -114.28094 273.45229 -114.29102 276.85156 C -114.30878 279.00651 -114.32637 281.16146 -114.34375 283.31641 L -114.32422 286.4043 L -114.3457 289.26562 L -114.34375 291.78516 C -116.25289 296.14048 -116.25219 296.13956 -120.41406 298.97656 L -123.40234 301.12109 C -125.17133 302.39449 -126.94161 303.66614 -128.71484 304.93359 C -131.07362 303.88222 -132.99078 302.72399 -135.05469 301.15625 L -137.65234 298.99609 C -141.86329 295.50287 -146.042 291.97219 -150.21484 288.43359 C -153.27788 285.83014 -156.34484 283.23613 -159.45703 280.69141 C -164.07932 276.94694 -168.63633 273.15076 -173.11328 269.23438 C -178.56148 264.46468 -184.05038 259.80374 -189.77734 255.37109 C -194.5998 251.64101 -199.29044 247.79643 -203.90234 243.80859 C -207.14581 240.9955 -210.38871 238.1983 -213.72266 235.49219 C -219.77944 230.64169 -225.34735 225.53965 -230.71484 219.93359 C -223.17971 209.92814 -215.70638 199.87929 -208.28516 189.78906 C -205.34616 185.79149 -202.40459 181.79688 -199.46094 177.80273 C -198.29581 176.22192 -197.12979 174.63955 -195.96484 173.05859 L -194.21484 170.68359 L -174.96484 144.55859 L -173.21484 142.18359 C -172.04815 140.60029 -170.88148 139.01695 -169.71484 137.43359 C -166.79436 133.46876 -163.87489 129.50398 -160.94922 125.54297 C -155.19372 117.75407 -149.44114 109.96164 -143.76953 102.11133 L -142.15234 99.871094 C -139.40849 96.085783 -136.66607 92.302213 -133.99805 88.462891 L -132.25781 85.945312 C -131.11817 84.316634 -129.97884 82.687727 -128.83984 81.058594 L -127.29102 78.769531 L -125.78516 76.628906 C -118.74468 69.927333 -118.74537 69.926899 -109.5625 66.109375 L -107.33594 65.140625 C -104.91964 64.077867 -102.50193 63.017436 -100.08203 61.962891 L -97.714844 60.933594 C -93.531671 59.115722 -89.344183 57.306249 -85.154297 55.503906 C -63.729107 46.291192 -42.394506 36.87634 -21.074219 27.423828 L -17.714844 25.933594 C -17.85556 49.393824 -8.5595916 72.570807 4.5546875 91.792969 C 25.920591 121.64359 58.220173 140.22968 94.035156 146.80859 C 128.52903 152.3035 166.00738 144.38366 194.58984 124.15234 L 196.28516 122.93359 C 222.78196 103.99578 240.50827 77.419481 248.12109 45.773438 L 248.66016 43.433594 C 249.72779 38.873606 250.38122 34.597349 250.38672 29.902344 L 250.28516 25.933594 C 259.65646 30.174241 269.03518 34.396454 278.45117 38.537109 L 281.34766 39.808594 C 286.80579 42.20862 292.26377 44.610011 297.72461 47.003906 C 302.35001 49.031076 306.97487 51.05867 311.59766 53.091797 C 313.51423 53.935108 315.43074 54.77854 317.34766 55.621094 C 326.66169 59.697269 335.98752 63.761671 345.16992 68.128906 L 347.25781 69.132812 C 353.47264 72.00201 357.00324 75.431694 361.02734 80.925781 C 362.83328 83.754556 364.68816 86.531323 366.65625 89.25 C 367.88582 90.945671 369.1133 92.641941 370.32617 94.349609 C 373.77967 99.234816 377.27729 104.08732 380.78516 108.93359 C 383.39307 112.53569 386.00756 116.13226 388.58008 119.75977 C 393.93353 127.35716 399.44384 134.80571 405.09766 142.18359 C 410.10992 148.72225 415.05086 155.2976 419.84766 161.99609 C 423.86856 167.61909 427.95618 173.18137 432.12305 178.69727 C 436.68676 184.73274 441.25819 190.73013 445.41016 197.05859 C 449.61284 203.54008 449.61287 203.54109 461.21875 219.47266 L 462.28516 220.93359 C 459.90422 223.37384 457.52327 225.73243 454.91797 227.93359 C 450.14273 231.74188 445.46157 235.62308 440.86719 239.64648 C 435.40621 244.43363 429.89941 249.10747 424.16016 253.55859 C 419.6808 257.02984 415.28308 260.56682 410.97266 264.24609 C 401.46288 272.36514 391.83055 280.34849 382.03516 288.12109 C 379.89086 289.81958 377.76271 291.53019 375.67578 293.29883 L 373.93359 294.78906 C 372.75823 295.79454 371.58375 296.80105 370.41016 297.80859 C 367.75123 300.12323 365.06683 302.3643 362.21484 304.44141 C 360.14938 305.20126 360.14912 305.20062 357.96094 303.66797 L 355.28516 301.93359 C 352.68214 300.29221 350.45903 298.59327 348.18359 296.51758 C 344.92283 289.38349 344.92404 289.38368 345.17969 281.29688 C 345.20907 279.90261 345.22182 278.50785 345.21875 277.11328 C 345.18992 273.44023 345.18989 269.76862 345.23438 266.0957 C 345.29059 261.55302 345.29526 257.01174 345.28906 252.46875 C 345.28391 248.8968 345.27377 245.32578 345.30078 241.75391 L 345.32031 239.71289 L 345.34766 235.9082 C 345.3685 233.91652 345.35945 231.92401 345.28516 229.93359 C 343.7184 226.80008 341.20798 224.7646 338.28516 222.93359 C 334.86466 222.38631 333.13787 222.4707 330.09766 224.12109 C 327.29135 226.9274 325.47916 229.5764 324.91016 233.55273 L 324.91016 236.40625 L 324.89062 239.69727 L 324.91211 243.2793 C 324.9005 247.26295 324.89133 251.24682 324.90625 255.23047 C 324.92015 258.80261 324.92368 262.3751 324.92188 265.94727 C 324.91862 271.93041 324.92379 277.91336 324.94141 283.89648 C 324.9627 290.86178 324.97479 297.82569 324.96875 304.79102 C 324.9627 311.54555 324.96352 318.30015 324.97461 325.05469 C 324.9794 327.91751 324.98544 330.7817 324.98438 333.64453 C 324.98184 337.07229 324.98262 340.49999 324.99414 343.92773 L 325.00977 347.7168 L 325.00391 351.30469 L 325.02539 354.58984 C 325.03348 358.29664 325.27668 360.77618 327.28516 363.93359 C 330.60859 366.7933 332.43068 367.90361 336.84766 368.05859 C 340.28514 366.93359 340.28443 366.93408 342.95508 364.43359 C 345.54138 361.14713 345.90045 358.41874 346.00391 354.30859 L 345.99219 351.81641 C 346.03923 349.15 346.08052 346.4852 346.08984 343.81836 C 346.09525 341.96773 346.10967 340.11612 346.13281 338.26562 C 346.19677 333.98291 346.2516 329.70112 346.27344 325.41797 L 346.28516 321.93359 C 349.64333 325.29178 355.04731 327.67329 359.70312 328.21484 C 364.37315 327.89333 367.66504 326.53607 371.36719 323.5625 L 373.28516 321.93359 C 378.7251 317.57986 384.06882 313.13364 389.33984 308.57812 C 394.58245 304.04619 399.87363 299.62173 405.34766 295.37109 C 409.97595 291.77948 414.51432 288.10948 418.97266 284.30859 C 423.80726 280.18302 428.68638 276.12103 433.61328 272.10547 C 440.38393 266.60183 447.13468 261.082 453.78516 255.43359 C 456.89907 252.78887 460.01889 250.15368 463.16797 247.55078 L 465.91016 245.30859 C 467.69787 243.84544 469.4896 242.38714 471.28516 240.93359 C 476.90999 236.51461 483.24543 232.59205 486.28516 225.93359 C 486.78597 219.92381 485.7251 217.47866 482.30273 212.69531 L 481.03516 210.93359 C 475.92122 203.80117 470.7828 196.6863 465.64062 189.57422 C 462.89359 185.7754 460.14885 181.97639 457.4043 178.17578 C 456.32345 176.679 455.24109 175.1803 454.16016 173.68359 L 452.53516 171.43359 L 447.66016 164.68359 L 446.03516 162.43359 C 444.95185 160.93358 443.86852 159.43357 442.78516 157.93359 C 440.08055 154.19017 437.37479 150.4467 434.67578 146.69922 C 424.80414 132.98577 414.86255 119.32594 404.69727 105.82812 C 396.41977 94.840377 388.2464 83.764605 380.48242 72.40625 C 373.12379 61.638902 366.19076 53.888082 354.13672 48.412109 L 351.34766 47.183594 C 347.3476 45.384365 343.34269 43.598666 339.32812 41.832031 L 337.28516 40.933594 C 329.95945 37.713354 322.63099 34.498446 315.29883 31.292969 C 300.40925 24.784236 285.58462 18.139168 270.79688 11.402344 C 262.10947 7.442961 253.42222 3.5040101 244.62695 -0.2109375 C 242.1893 -1.1017057 240.14641 -1.5613519 238.11914 -1.5292969 z M 230.28516 25.933594 C 227.10495 51.347282 218.77422 72.010573 201.28516 90.933594 L 199.14844 93.351562 C 181.51304 112.33061 156.3527 122.01594 131.28516 125.93359 L 128.80469 126.33594 C 100.6841 130.18734 69.759335 122.0738 47.03125 105.16602 C 44.40053 103.14455 41.842263 101.04766 39.285156 98.933594 L 37.015625 97.128906 C 20.390644 83.422314 9.9391594 63.621573 4.9101562 42.996094 L 4.4003906 40.917969 C 3.3346723 36.172038 3.1439142 31.79558 3.2851562 26.933594 C 7.7995857 28.320379 12.051829 30.09903 16.363281 32.003906 C 34.876873 40.169976 53.493067 45.718161 73.285156 49.933594 L 75.791016 50.486328 C 126.01814 61.115567 181.37802 49.480383 226.44727 26.740234 C 228.28466 25.933351 228.28516 25.933594 230.28516 25.933594 z M 336.28516 460.93359 C 340.01995 462.80099 341.36806 468.05807 343.09961 471.76758 C 348.67245 483.35182 358.61982 491.64561 370.28516 496.93359 C 371.60912 497.30238 372.94094 497.64727 374.28516 497.93359 L 374.28516 499.93359 L 371.64453 501.29688 C 355.10881 510.1125 344.19083 521.81072 336.28516 538.93359 C 334.60323 536.4107 333.16001 533.86343 331.72266 531.19922 C 323.7181 516.56588 313.66728 507.32396 298.28516 500.93359 L 298.28516 498.93359 L 299.9375 498.26953 C 317.62866 490.83017 328.1053 477.91261 336.28516 460.93359 z "
     transform="translate(376.71484375,121.06640625)" />
</svg>
