<?xml version="1.0" encoding="UTF-8" standalone="no"?>
<svg version="1.1" width="1024" height="1024" id="svg47" xmlns="http://www.w3.org/2000/svg">
  <defs
     id="defs47" />
  <path
     id="path4"
     d="M 86.725588 -0.027253125 C 73.023589 -0.035925758 59.322115 -0.037171218 45.620119 -0.02139375 C 37.949483 -0.012237568 30.279038 -0.006111183 22.608401 -0.0174875 C 17.450168 -0.025158635 12.292024 -0.0234796 7.1337913 -0.01358125 C 4.7561093 -0.0076247622 2.3786655 -0.0033683881 0.00097875 9.0625e-05 C -17.326967 -0.054731515 -34.693288 -0.89532473 -48.518552 11.420013 C -57.442034 20.878235 -61.417058 31.724792 -61.495115 44.611419 L -61.481443 47.273528 C -61.490735 50.342852 -61.497284 53.413176 -61.491209 56.482513 C -61.486366 58.742167 -61.485066 61.002152 -61.487302 63.261809 C -61.497952 69.503446 -61.501068 75.744775 -61.495115 81.986419 C -61.488251 88.80666 -61.489759 95.627112 -61.495115 102.44736 C -61.505968 115.8113 -61.508644 129.17521 -61.502927 142.53915 C -61.497875 154.29145 -61.494794 166.04272 -61.497068 177.79501 L -61.497068 180.15439 C -61.497687 183.31537 -61.49838 186.47582 -61.499021 189.63681 C -61.505201 219.28685 -61.501919 248.93795 -61.491209 278.58798 C -61.481644 304.97906 -61.479766 331.36877 -61.489256 357.75986 C -61.50002 387.4658 -61.50514 417.17305 -61.499021 446.879 C -61.498361 450.04543 -61.497691 453.21061 -61.497068 456.37704 L -61.497068 458.74228 C -61.494678 470.50276 -61.495943 482.26305 -61.500974 494.02353 C -61.50675 507.46158 -61.507599 520.89993 -61.497068 534.33798 C -61.491496 541.19658 -61.486782 548.05556 -61.493162 554.91415 C -61.49892 560.63882 -61.500645 566.36332 -61.493162 572.08798 C -61.489188 574.41486 -61.485701 576.74157 -61.483396 579.06845 C -61.490277 582.28193 -61.496556 585.49559 -61.489256 588.70907 L -61.481443 591.61337 C -61.54744 604.03461 -58.898477 615.24613 -50.202146 624.53329 C -41.987673 632.22725 -31.786837 636.78265 -20.491209 636.91025 L -17.733396 636.88095 C -14.538334 636.89855 -11.344517 636.90972 -8.1494119 636.89657 C -5.8002665 636.88617 -3.4517022 636.88499 -1.1025369 636.88876 C 4.7069486 636.9061 10.517655 636.91415 16.327151 636.90243 C 24.105614 636.88507 31.88266 636.88311 39.661135 636.89267 C 53.563373 636.9105 67.465926 636.90953 81.368166 636.89462 C 93.592149 636.88149 105.81605 636.87474 118.04004 636.87704 L 120.49512 636.87704 C 123.7842 636.87769 127.07324 636.87828 130.36231 636.879 C 161.20815 636.88611 192.0536 636.87382 222.89942 636.84775 C 250.35138 636.82451 277.80292 636.81616 305.25489 636.82626 C 312.29277 636.82889 319.33028 636.83163 326.36817 636.83407 L 328.99512 636.83407 C 351.98708 636.84197 374.97972 636.83697 397.97168 636.82626 C 400.44476 636.8251 402.91853 636.82546 405.3916 636.82431 L 410.31348 636.8204 C 422.54713 636.81461 434.78099 636.81585 447.01465 636.8204 C 460.99266 636.82561 474.97025 636.82248 488.94824 636.80282 C 496.77398 636.79148 504.60103 636.78396 512.42676 636.79306 C 517.6893 636.79919 522.95131 636.7967 528.21387 636.78525 C 530.63505 636.77858 533.05635 636.77184 535.47754 636.76767 C 538.81908 636.77698 542.15944 636.78742 545.50098 636.77548 L 548.52637 636.76181 C 560.24733 636.84812 569.53626 633.81738 578.77051 626.38095 C 590.8505 613.73533 591.35661 599.17237 591.28614 582.65829 C 591.27571 580.38853 591.27455 578.1195 591.27832 575.8497 C 591.29767 569.56774 591.30191 563.28598 591.28809 557.004 C 591.27228 550.14474 591.27351 543.28514 591.28223 536.42587 C 591.30004 522.9808 591.2991 509.53501 591.28418 496.08993 C 591.27104 484.27075 591.2643 472.4521 591.2666 460.6329 L 591.2666 458.2579 C 591.26725 455.07608 591.26785 451.89481 591.26856 448.71298 C 591.27567 418.8816 591.2634 389.05021 591.23731 359.21884 C 591.21407 332.67315 591.20572 306.12783 591.21582 279.58212 C 591.21844 272.77516 591.22119 265.96721 591.22364 259.16025 L 591.22364 256.62118 C 591.23153 234.38299 591.22653 212.14453 591.21582 189.90634 C 591.21466 187.51436 591.21501 185.12254 591.21387 182.73056 L 591.20996 177.96884 C 591.20416 166.13822 591.2054 154.30728 591.20996 142.47665 C 591.21517 128.96064 591.21205 115.44383 591.19239 101.92783 C 591.18205 95.029747 591.17119 88.132547 591.17871 81.234466 C 591.18563 75.477632 591.18777 69.719806 591.17481 63.962981 C 591.16815 61.621601 591.1614 59.28093 591.15723 56.939544 C 591.16654 53.709144 591.17698 50.478534 591.16504 47.248138 L 591.15137 44.322356 C 591.242 32.432713 587.90156 21.977501 579.66114 13.111419 C 566.11837 0.52598416 550.60648 -0.063244602 532.93457 -0.011628125 C 530.63326 -0.0043472598 528.33159 -0.0024208366 526.03028 -0.00576875 C 520.33508 -0.020036171 514.63955 -0.02697493 508.94434 -0.019440625 C 501.32162 -0.0081043979 493.69987 -0.0086881879 486.07715 -0.0174875 C 472.45024 -0.033753478 458.82321 -0.035835328 445.19629 -0.027253125 C 433.21403 -0.019668991 421.23128 -0.016030902 409.24903 -0.019440625 L 406.84278 -0.02139375 C 403.61749 -0.022322288 400.39229 -0.022384757 397.16699 -0.023346875 C 366.92176 -0.032613907 336.6759 -0.025745378 306.43067 -0.009675 C 279.52198 0.0046704314 252.61279 0.0045613616 225.7041 -0.009675 C 195.40412 -0.025828378 165.10369 -0.032520007 134.80371 -0.023346875 C 131.57247 -0.022356837 128.3416 -0.022327788 125.11035 -0.02139375 L 122.69824 -0.02139375 C 110.70727 -0.017811648 98.716565 -0.019700901 86.725588 -0.027253125 z M -19.057615 21.855559 L -16.288084 21.886809 C -13.116913 21.871063 -9.9456075 21.860078 -6.7744119 21.875091 C -4.4359297 21.886888 -2.0972975 21.891155 0.24121313 21.888763 C 6.011378 21.874796 11.781591 21.869801 17.55176 21.884856 C 25.286589 21.906684 33.020027 21.913518 40.754885 21.908294 C 53.768092 21.898776 66.782707 21.903685 79.795901 21.923919 C 92.747838 21.944381 105.69941 21.960647 118.65137 21.962981 L 121.08692 21.962981 C 124.35242 21.963507 127.61828 21.962564 130.88379 21.962981 C 160.6434 21.966276 190.40349 21.987294 220.16309 22.021575 C 248.32211 22.054071 276.48061 22.078133 304.63965 22.086028 L 307.27246 22.086028 C 311.64744 22.087253 316.02053 22.088733 320.39551 22.089934 L 323.0127 22.089934 C 324.75389 22.090411 326.49612 22.091414 328.23731 22.091888 C 355.96643 22.09932 383.6957 22.113059 411.42481 22.13095 C 419.52808 22.136208 427.63014 22.14237 435.7334 22.146575 C 452.86838 22.155389 470.00468 22.166735 487.13965 22.187591 C 494.22851 22.19635 501.31641 22.204162 508.40528 22.207122 C 514.32577 22.209391 520.24651 22.21376 526.16699 22.222747 C 528.56522 22.226865 530.96408 22.231168 533.36231 22.234466 C 536.69162 22.234056 540.02127 22.233617 543.35059 22.240325 L 546.33106 22.246184 L 549.13184 22.242278 L 551.67481 22.252044 C 555.04463 22.255482 557.57026 22.576139 560.4541 24.509856 L 562.20801 25.94345 L 563.9541 27.322356 C 568.47349 32.444323 570.22013 37.723915 570.2959 44.490325 L 570.26465 47.166106 C 570.28038 50.239873 570.29141 53.311064 570.27637 56.384856 C 570.26456 58.649332 570.26031 60.915273 570.2627 63.179778 C 570.2783 69.431507 570.27828 75.681959 570.26074 81.933684 C 570.24088 88.765942 570.23841 95.597497 570.24317 102.42978 C 570.25269 115.03749 570.24778 127.6463 570.22754 140.254 C 570.20707 152.80032 570.19081 165.34632 570.18848 177.89267 L 570.18848 180.254 C 570.18795 183.41813 570.18889 186.58205 570.18848 189.74618 C 570.18518 218.57775 570.16417 247.40877 570.12989 276.24032 C 570.09739 303.51932 570.07332 330.79919 570.06543 358.07822 L 570.06543 360.62704 C 570.0642 364.86579 570.06273 369.1051 570.06153 373.34384 L 570.06153 375.879 C 570.06106 377.56598 570.06005 379.25257 570.05957 380.93954 C 570.05214 407.80527 570.0384 434.6715 570.02051 461.5372 C 570.01525 469.38766 570.00909 477.23752 570.00489 485.08798 C 569.99608 501.68718 569.98472 518.28763 569.96387 534.88681 C 569.95511 541.75385 569.9473 548.61938 569.94434 555.48642 C 569.94207 561.22153 569.9377 566.95834 569.92871 572.69345 C 569.92459 575.01672 569.92029 577.33893 569.91699 579.6622 C 569.9174 582.88713 569.91784 586.11306 569.91114 589.33798 L 569.90528 592.22665 C 569.91762 599.66745 569.47972 604.34351 564.77051 610.38095 C 559.96907 614.42657 555.70695 615.95306 549.47168 616.03915 L 546.70996 616.00204 C 543.53994 616.02243 540.37223 616.03574 537.20215 616.01767 C 534.86641 616.00344 532.53012 615.99658 530.19434 616.00009 C 524.42756 616.01882 518.66229 616.02743 512.89551 616.00986 C 505.16752 615.98425 497.438 615.98021 489.70996 615.98837 C 476.70594 616.003 463.70226 615.99753 450.69824 615.9747 C 437.75591 615.95155 424.81443 615.9348 411.87207 615.93368 L 409.43653 615.93368 C 406.17244 615.93346 402.90765 615.93377 399.64356 615.93368 C 369.02374 615.93337 338.40397 615.90799 307.78418 615.86728 C 280.52088 615.83103 253.25844 615.80964 225.99512 615.80673 L 223.36621 615.80673 C 220.74081 615.80646 218.11467 615.80505 215.48926 615.80478 C 212.00117 615.80442 208.5125 615.80516 205.02442 615.80478 L 202.41699 615.80478 C 175.51255 615.80196 148.60855 615.78536 121.7041 615.76572 C 112.79442 615.75909 103.88332 615.75317 94.973635 615.75009 L 92.536135 615.74814 L 90.104494 615.74814 C 74.606241 615.74313 59.106637 615.73382 43.608401 615.70907 C 35.835752 615.69641 28.064655 615.6868 20.291994 615.68759 C 15.065088 615.68813 9.8372499 615.68126 4.6103538 615.67001 C 2.2111129 615.66391 -0.18766738 615.65884 -2.5869119 615.65439 C -5.9110733 615.65823 -9.2354187 615.66278 -12.559568 615.65243 L -15.547849 615.64072 C -23.682129 615.6746 -29.003163 615.12833 -35.22949 609.38095 C -38.848854 605.0448 -39.695198 601.94673 -39.764646 596.49032 L -39.739256 593.77939 C -39.759819 590.68444 -39.772856 587.58925 -39.762693 584.49423 C -39.754449 582.21041 -39.754863 579.9265 -39.76074 577.64267 C -39.785892 571.34378 -39.794257 565.04512 -39.786131 558.74618 C -39.776514 551.85943 -39.785105 544.97276 -39.799802 538.08603 C -39.830992 523.80865 -39.839841 509.5314 -39.834959 495.254 C -39.831151 484.1731 -39.832371 473.09271 -39.840818 462.01181 C -39.842051 460.42323 -39.843521 458.83475 -39.844724 457.24618 C -39.846529 454.85153 -39.84877 452.45725 -39.850584 450.06259 C -39.867592 427.80306 -39.878092 405.54283 -39.870115 383.28329 L -39.868162 380.73837 C -39.866579 376.47989 -39.865963 372.21951 -39.864256 367.96103 L -39.862302 365.39853 L -39.860349 360.26376 C -39.849443 333.61757 -39.860713 306.97245 -39.897459 280.32626 C -39.939004 250.34189 -39.965936 220.35755 -39.958006 190.37314 C -39.957147 187.17685 -39.954803 183.97959 -39.954099 180.78329 L -39.954099 178.39853 C -39.951356 166.52555 -39.960375 154.65235 -39.981443 142.77939 C -40.005686 129.2106 -40.017012 115.64114 -39.993162 102.07236 C -39.980418 95.146574 -39.967963 88.220781 -39.991209 81.295013 C -40.01192 75.514006 -40.0219 69.734239 -40.002927 63.953216 C -39.992425 61.60359 -39.983018 59.25403 -39.977537 56.904388 C -40.000199 53.658676 -40.022827 50.41381 -40.002927 47.168059 L -39.97949 44.234466 C -40.070639 38.684373 -39.851433 34.677538 -36.620115 30.015716 C -31.512148 24.041886 -26.88849 21.940814 -19.057615 21.855559 z M 114.04395 58.789153 L 111.50489 58.857513 C 108.78176 58.872156 106.05957 58.894398 103.33692 58.949309 C 101.4517 58.987537 99.566203 59.014801 97.680666 59.031341 C 88.173848 59.092472 79.304662 57.164219 73.77051 66.38095 C 73.26837 70.541543 73.198621 73.951764 75.77051 77.38095 C 79.594299 80.394265 82.645601 80.734501 87.33301 80.771575 L 89.868166 80.744231 C 91.656572 80.745254 93.444995 80.744551 95.233401 80.742278 C 98.04038 80.716928 100.84622 80.694198 103.65332 80.697356 C 105.49156 80.701698 107.33071 80.701139 109.16895 80.695403 L 111.80567 80.681731 L 114.34668 80.683684 L 116.72364 80.656341 C 119.93345 80.634802 122.00771 80.047074 124.77051 78.38095 C 127.20532 75.337438 127.7542 73.621523 128.02051 69.69345 C 127.70379 65.49696 127.21726 64.848787 124.28614 61.789153 C 120.9442 59.085782 118.26179 58.804294 114.04395 58.789153 z M 198.8916 58.789153 L 196.28614 58.857513 C 193.49354 58.872158 190.70328 58.894412 187.91114 58.949309 C 185.97741 58.987533 184.04244 59.014799 182.1084 59.031341 C 173.18484 59.087292 164.05428 56.92691 158.77051 65.38095 C 158.28084 69.161183 158.04181 72.923564 159.77051 76.38095 C 164.02006 79.964746 167.1059 80.843099 172.47168 80.884856 L 175.00098 80.841888 C 176.79068 80.840007 178.58041 80.836039 180.37012 80.830169 C 183.17506 80.792207 185.97896 80.756406 188.78418 80.752044 C 190.62422 80.752365 192.4637 80.746544 194.30371 80.736419 L 196.93848 80.716888 C 201.48683 80.704845 204.85319 80.992487 208.77051 78.38095 C 210.95043 75.837718 212.60038 73.783141 213.0127 70.384856 C 212.78046 66.289741 212.24585 64.881647 209.30371 61.7872 C 205.91775 59.052656 203.1588 58.804095 198.8916 58.789153 z M 367.19629 58.789153 L 364.72364 58.857513 C 362.06999 58.872154 359.41782 58.894383 356.76465 58.949309 C 354.92793 58.98754 353.09192 59.014802 351.25489 59.031341 C 341.84366 59.093444 333.24664 57.260844 327.77051 66.38095 C 327.26837 70.541543 327.19862 73.951764 329.77051 77.38095 C 333.57596 80.370195 336.57162 80.728116 341.23145 80.746184 L 343.71973 80.709075 C 345.47167 80.705231 347.22364 80.699982 348.97559 80.69345 C 351.72774 80.661887 354.47911 80.630875 357.23145 80.621184 C 359.03457 80.617334 360.8385 80.611108 362.6416 80.601653 L 365.21973 80.584075 C 368.83395 80.565503 372.48319 81.024606 375.77051 79.38095 C 379.23221 75.919242 380.65124 74.573665 381.14551 69.63095 C 380.67181 65.525522 380.16896 64.794072 377.27442 61.789153 C 373.97544 59.120148 371.36366 58.8045 367.19629 58.789153 z M 255.7041 58.953216 C 252.77411 58.957973 250.10673 59.190569 247.32324 60.769622 C 244.78757 63.401375 242.9349 65.538988 242.59864 69.306731 C 242.81643 73.437069 243.2674 74.852538 246.24903 77.976653 C 249.59342 80.674494 252.28057 80.95761 256.49707 80.972747 L 259.03614 80.904388 C 261.75927 80.889744 264.48146 80.867501 267.2041 80.812591 C 269.08933 80.774363 270.97482 80.747099 272.86035 80.730559 C 278.50138 80.694286 284.13606 80.666651 289.77051 80.38095 C 292.89872 78.816842 294.58892 77.136636 296.77051 74.38095 C 297.60453 69.674098 297.43887 66.383484 294.77051 62.38095 C 290.99937 59.331991 287.87416 59.020964 283.20801 58.964934 L 280.67285 58.982513 C 278.88446 58.976622 277.09603 58.972777 275.30762 58.970794 C 272.50045 58.989992 269.69489 59.006362 266.8877 58.990325 C 265.04948 58.977782 263.21033 58.972661 261.37207 58.9747 L 258.73535 58.982513 C 257.686 58.974915 256.68077 58.95163 255.7041 58.953216 z M 451.15723 59.015716 L 448.60254 59.052825 C 446.80501 59.056669 445.00748 59.061918 443.20996 59.06845 C 440.38538 59.100012 437.56206 59.131024 434.73731 59.140716 C 432.88711 59.144566 431.03671 59.150791 429.18653 59.160247 L 426.54004 59.177825 C 422.86579 59.196219 419.11101 58.710698 415.77051 60.38095 C 412.44093 63.91231 410.97408 66.495346 410.77051 71.38095 C 411.53145 74.576872 412.52339 76.120557 414.78809 78.500091 C 418.27303 80.697121 420.30561 80.853389 424.33301 80.884856 L 426.86817 80.841888 C 428.65657 80.840006 430.445 80.836037 432.2334 80.830169 C 435.04046 80.792265 437.846 80.756418 440.65332 80.752044 C 442.49158 80.752365 444.33072 80.74653 446.16895 80.736419 L 448.80567 80.716888 L 451.34668 80.711028 L 453.72364 80.671966 C 455.80434 80.648864 455.80458 80.648375 457.77051 80.38095 C 461.60641 78.803598 463.06562 77.216951 464.77051 73.38095 C 465.13486 69.227366 465.33683 65.802707 462.77051 62.38095 C 458.93138 59.344739 455.86657 59.033516 451.15723 59.015716 z M 32.680666 59.025481 L 29.262698 59.052825 L 25.524416 59.06845 L 21.64551 59.13095 C 15.990209 59.153594 10.174867 58.579498 4.77051 60.38095 C 0.79515397 63.66494 -1.9948295 67.712094 -2.7158181 72.828216 L -2.6904275 76.572356 C -2.6885465 77.9428 -2.6845777 79.313254 -2.6787087 80.683684 C -2.6408349 82.819134 -2.6049587 84.952167 -2.6005837 87.087981 C -2.6020247 93.363725 -3.213828 99.667406 -0.22949 105.38095 C 2.8167739 107.94258 4.877054 109.25331 8.83301 109.81845 C 12.246572 109.31005 14.056273 108.50833 16.77051 106.38095 C 20.126785 102.39838 20.126794 102.39835 20.034182 93.476653 L 19.95801 90.56845 C 19.919576 87.788416 19.879975 85.008206 19.817385 82.228606 L 19.77051 80.38095 C 21.686493 80.476963 23.603013 80.56663 25.52051 80.625091 L 27.89551 80.69345 C 30.929863 80.860597 33.775643 80.951233 36.77051 80.38095 C 39.915643 78.695659 42.211811 76.647017 43.680666 73.31845 C 43.948587 69.911056 43.937249 67.797797 42.64551 64.56845 C 39.746438 61.186199 37.148173 59.540773 32.680666 59.025481 z M 513.0791 59.156341 L 510.64551 59.19345 C 503.58379 59.199063 498.81169 58.692094 494.77051 65.38095 C 494.28698 69.164213 494.04044 72.920808 495.77051 76.38095 C 498.02933 78.780947 499.6703 80.292367 503.03223 80.564544 L 505.45801 80.498138 L 507.90723 80.447356 L 509.77051 80.38095 C 509.74996 82.836672 509.73349 85.292356 509.72168 87.748138 L 509.70801 90.75595 L 509.68262 93.740325 L 509.67285 96.591888 C 509.66324 98.18854 509.6865 99.786482 509.77051 101.38095 C 511.33462 104.50917 513.01482 106.19936 515.77051 108.38095 C 519.55857 108.98285 523.29788 109.11726 526.77051 107.38095 C 530.14468 104.02444 531.22753 101.64038 531.24903 96.859466 L 531.19629 94.779388 C 531.18605 92.542109 531.17066 90.305372 531.12793 88.06845 C 531.09841 86.522702 531.07696 84.977719 531.06543 83.431731 C 531.05756 81.91704 531.048 80.40146 531.03418 78.886809 L 531.00879 76.716888 C 530.9537 71.566242 531.08617 67.879349 527.52051 63.81845 C 522.89799 59.721227 519.07074 59.141534 513.0791 59.156341 z M 357.70606 138.14853 C 348.29459 138.12629 338.97741 139.38814 330.35254 142.06064 L 326.77051 143.38095 C 303.23976 151.70029 284.692 166.25384 270.20801 186.63095 C 269.10969 188.2476 267.97774 189.84392 266.77051 191.38095 L 264.77051 191.38095 L 262.77051 188.56845 C 257.45451 180.86568 250.79016 174.12568 243.95801 167.75595 C 223.68519 149.36891 195.71057 137.12138 167.93848 138.22079 C 165.63281 138.39112 163.32593 138.51897 161.02051 138.69345 C 136.53258 141.49098 111.67203 152.72061 95.661135 171.99423 L 93.77051 174.38095 C 80.02245 191.02975 70.754205 211.7245 68.77051 233.38095 C 66.574402 278.84588 86.782275 314.69669 116.52051 347.75595 C 118.46797 349.86443 120.41441 351.96786 122.29004 354.14072 C 126.08521 358.54688 130.01965 362.75732 134.12598 366.87509 L 136.39551 369.13095 C 142.726 375.44012 149.13526 381.63734 155.75098 387.64657 C 157.80307 389.50281 159.8476 391.36665 161.88379 393.24032 C 168.78273 399.58923 175.6856 405.93919 182.74707 412.10751 C 185.71541 414.68496 188.65821 417.27733 191.54785 419.94345 C 196.39599 424.43738 201.25294 428.84533 206.39551 433.00595 C 209.04692 435.13918 211.65662 437.27865 214.18848 439.55282 C 218.78552 443.7824 223.4678 447.79699 228.39551 451.63095 C 232.26849 454.6324 236.12035 457.64993 239.90723 460.75986 C 246.4751 466.16567 254.36599 475.13043 262.91114 476.79892 C 269.59783 477.05896 274.06466 474.36346 279.18653 470.49814 L 281.20801 468.94345 C 283.36772 467.30057 285.5248 465.6537 287.67481 463.99814 L 289.77051 462.38095 C 297.35534 456.54617 304.80451 450.58517 312.08106 444.36923 C 314.59382 442.22208 317.11716 440.09766 319.67676 438.00595 C 324.2198 434.33068 328.68385 430.61149 333.02051 426.69345 C 336.86787 423.17112 340.79837 419.76096 344.77051 416.38095 C 346.53158 418.18368 348.29705 419.98185 350.06739 421.77548 L 352.27051 424.00595 C 357.34442 429.20202 362.45703 434.67462 368.77051 438.38095 C 372.95339 438.93867 376.32109 438.96802 379.77051 436.38095 C 382.52426 433.0371 383.50575 429.84123 383.29395 425.4747 C 382.20674 421.12587 382.20671 421.12584 369.45801 409.63095 C 366.197 406.78777 363.58807 404.3725 361.77051 400.38095 C 364.02414 398.10659 366.27992 395.83441 368.53809 393.56454 L 371.33301 390.75595 C 376.97226 385.06392 382.58918 379.48542 388.77051 374.38095 C 389.74918 375.50638 390.72843 376.63131 391.70801 377.75595 C 393.06272 379.29714 394.41683 380.83885 395.77051 382.38095 C 400.28393 387.61277 404.43691 393.35183 410.77051 396.38095 C 414.93079 396.81133 418.34286 396.95169 421.77051 394.38095 C 424.07518 391.50011 424.73991 389.62137 425.20801 385.94345 C 424.30486 378.58926 424.30483 378.58922 409.95801 364.63095 C 407.56896 362.37858 406.1105 360.38777 404.77051 357.38095 C 406.74228 354.8637 408.73959 352.41495 410.8916 350.04892 C 429.98025 329.60829 447.80674 306.95078 457.12207 280.27939 L 457.77051 278.38095 C 461.30855 268.1624 462.10439 258.28138 462.14356 247.52353 L 462.14551 245.44345 C 462.1687 237.65004 462.0658 230.0751 460.30176 222.45322 L 459.77051 220.38095 C 458.99139 217.1989 458.0804 214.11476 457.08301 210.99423 C 447.48613 184.57427 430.86869 162.76756 405.52442 149.71689 L 402.77051 148.38095 C 389.33862 141.79027 373.39185 138.18559 357.70606 138.14853 z M 8.3037131 139.12704 C 6.1119205 139.09989 3.9504296 139.78234 1.77051 141.38095 C -1.5959292 145.50302 -2.6918759 148.40907 -2.7587869 153.57431 L -2.7255837 155.88486 C -2.7285707 157.52872 -2.7291489 159.17262 -2.7275369 160.8165 C -2.6957999 163.38666 -2.6662955 165.95509 -2.6748025 168.52548 C -2.6833395 170.2123 -2.6851137 171.8992 -2.6787087 173.58603 L -2.6630837 176.00986 C -2.6740757 178.87315 -2.5287954 181.51502 -2.22949 184.38095 C -0.26674891 188.50033 1.5447674 190.55619 5.77051 192.38095 C 9.3958978 192.76257 11.768804 192.90963 15.02051 191.19345 C 18.91191 187.16306 20.112763 183.92493 20.161135 178.27548 L 20.133791 175.93954 C 20.134814 174.28787 20.134111 172.63614 20.131838 170.98447 C 20.10649 168.39474 20.083757 165.80674 20.086916 163.21689 C 20.09126 161.51988 20.090696 159.8221 20.084963 158.12509 L 20.071291 155.68954 C 20.074597 152.88612 19.974699 150.18461 19.77051 147.38095 C 18.613224 144.13061 17.781328 143.3898 15.02051 141.13095 C 12.717639 139.89094 10.495506 139.15419 8.3037131 139.12704 z M 520.30371 139.12704 C 518.11193 139.09989 515.95043 139.78234 513.77051 141.38095 C 510.37034 145.52841 509.31282 148.42493 509.29199 153.62509 L 509.34473 155.95517 C 509.35148 157.60817 509.35999 159.26118 509.37012 160.91415 C 509.41424 163.50167 509.45839 166.08802 509.47559 168.67587 C 509.48346 170.37468 509.49301 172.07281 509.50684 173.77158 L 509.53223 176.20517 C 509.56944 180.10968 509.52201 183.63545 510.77051 187.38095 C 514.09829 190.78797 515.57854 192.21366 520.33301 192.88095 C 524.04382 192.34119 525.89773 191.77493 528.77051 189.38095 C 531.29132 185.33441 532.11918 182.08048 532.16114 177.31454 L 532.13379 175.06064 C 532.13481 173.45777 532.13411 171.85491 532.13184 170.25204 C 532.10647 167.74575 532.08376 165.24091 532.08692 162.73447 C 532.09126 161.08873 532.0907 159.44269 532.08496 157.79697 L 532.07129 155.43564 C 532.07461 152.71585 531.97444 150.10106 531.77051 147.38095 C 530.60946 144.1418 529.7742 143.38397 527.02051 141.13095 C 524.71764 139.89094 522.49551 139.15419 520.30371 139.12704 z M 359.27832 159.46493 C 362.29204 159.57463 365.30063 159.90041 368.29981 160.33212 C 368.79558 160.36115 369.2721 160.34612 369.77051 160.38095 C 373.61495 161.06604 377.44696 162.00547 381.23926 163.10361 C 381.71271 163.23865 382.18836 163.36065 382.65918 163.50204 C 383.94416 163.89398 385.20882 164.33608 386.47754 164.77939 C 389.91406 165.95225 393.29394 167.22622 396.5166 168.68173 C 398.35283 169.64062 400.08755 170.69757 401.78809 171.79697 C 407.26641 175.00811 412.30434 178.88909 416.71582 183.50595 C 426.58554 192.98964 433.64977 205.89954 437.7666 219.19345 C 438.90277 222.34656 439.90283 225.50524 440.48535 228.86142 C 440.55155 229.44809 440.54287 230.00129 440.60059 230.58408 C 440.64897 230.84851 440.72452 231.11701 440.77051 231.38095 C 440.88072 233.18659 440.92924 234.99367 441.01465 236.80087 C 441.08466 238.26213 441.19902 239.74392 441.21387 241.18173 C 441.53176 252.47618 440.87787 263.7018 436.77051 274.38095 L 435.67285 277.44736 C 432.56637 285.5242 428.44133 293.02012 423.74512 300.16025 C 423.50311 300.53685 423.23221 300.90939 422.98535 301.28525 C 421.46992 303.54646 419.90332 305.7738 418.28223 307.96689 C 417.86559 308.52955 417.51641 309.10074 417.08887 309.6622 L 415.77051 311.38095 C 409.35388 319.82581 402.8609 328.17249 395.27832 335.52157 C 392.659 338.40124 391.32762 339.67621 388.77051 341.38095 C 381.03809 332.95389 373.52404 324.35295 366.93262 314.99814 C 366.6028 314.58403 366.06272 313.91136 365.67871 313.48056 C 363.99898 311.75609 362.23732 310.83529 359.96192 310.33603 C 358.74491 310.17748 356.72376 310.24983 354.03614 310.37314 C 353.27551 310.51571 352.49721 310.76065 351.7002 311.08798 C 350.2745 311.90249 349.50006 312.83123 348.00098 315.95712 C 347.89722 316.34489 347.78966 316.7292 347.71192 317.14462 C 347.55987 318.57111 347.54732 319.85179 347.66114 321.04306 C 348.5391 325.31982 350.72489 327.81196 353.77051 331.38095 L 355.75098 333.84189 C 361.91686 341.50151 368.34787 348.93678 374.77051 356.38095 C 374.59212 356.77534 374.37418 357.06182 374.19043 357.42782 C 374.36513 357.7645 374.60727 358.03098 374.77051 358.38095 C 373.69813 359.46652 372.57805 360.5009 371.49707 361.57626 C 370.95298 362.24342 370.47059 362.91663 369.79395 363.58798 L 368.02246 365.35556 L 366.14551 367.19345 L 364.22949 369.08798 C 359.88502 373.35726 355.46269 377.494 350.77051 381.38095 C 349.73189 382.24585 348.69349 383.11127 347.65528 383.97665 L 344.77051 386.38095 C 342.41468 384.00436 340.05667 381.62997 337.69629 379.2579 C 336.72079 378.27832 335.74553 377.2985 334.77051 376.31845 C 334.40537 375.94999 333.95009 375.42056 333.57715 375.02548 C 333.55415 375.00226 333.53179 374.97839 333.50879 374.95517 C 332.23066 373.66197 330.95524 372.36707 329.68262 371.06845 C 327.85029 369.19963 326.00908 367.33977 324.16504 365.48251 L 322.4541 363.7247 C 321.1462 362.41625 319.92994 361.28338 318.63965 360.29501 C 317.99816 359.85446 317.36012 359.39711 316.70215 359.02939 C 315.86898 358.56376 315.01527 358.20087 314.15528 357.87509 C 313.94111 357.799 313.73662 357.71566 313.5127 357.64657 C 313.00351 357.56558 312.5241 357.53196 312.03418 357.48056 C 308.79435 357.80143 305.91565 358.33257 302.77051 359.38095 C 302.3238 360.27436 302.12379 360.80979 301.97559 361.62509 C 301.92692 361.91048 301.88138 362.3177 301.84278 362.76962 C 301.74996 363.78311 301.69702 364.92087 301.64551 367.50595 C 301.71474 369.65223 302.0306 371.04368 302.5752 372.26572 C 303.09138 373.13349 303.73045 373.98987 304.64942 374.99032 L 306.57324 377.08798 C 308.39047 378.98397 310.26497 380.82271 312.1084 382.6915 C 312.97511 383.54619 313.8403 384.40242 314.70801 385.25595 C 316.39546 386.91045 318.08278 388.56645 319.7627 390.22861 L 321.36035 391.81064 C 322.90299 393.31268 324.37963 394.74289 325.67481 396.30868 C 326.70662 397.33286 327.73776 398.35771 328.77051 399.38095 C 328.61189 399.72915 328.41232 400.01221 328.24121 400.33993 C 328.41202 400.69287 328.6201 401.00555 328.77051 401.38095 C 327.81207 402.21356 326.86952 403.06385 325.91309 403.89853 C 324.43701 405.72622 322.74401 407.35102 320.83301 409.06845 L 319.06739 410.67587 C 315.90086 413.53583 312.64943 416.28273 309.36231 418.99228 C 297.42658 430.28434 284.20412 442.77345 270.45606 450.4415 C 269.23876 451.43363 267.97199 452.36185 266.77051 453.38095 C 266.37051 453.2523 266.03291 453.0694 265.65332 452.92392 C 265.35798 453.06086 265.06613 453.24933 264.77051 453.38095 C 263.77644 452.63064 262.83893 451.81321 261.85059 451.05673 C 259.65562 449.71265 257.66799 448.0993 255.58301 446.25595 C 254.68096 445.47492 253.77722 444.69582 252.87403 443.91611 C 248.17755 440.18394 243.41094 436.54042 238.78614 432.70517 C 236.90308 431.14286 235.01889 429.58233 233.12012 428.03915 C 228.1119 424.00076 223.20366 419.91461 218.45801 415.56845 C 216.46859 413.73864 214.42357 411.97722 212.40332 410.18759 C 210.74121 408.71521 209.10957 407.2083 207.4209 405.76181 L 205.58301 404.19345 C 203.31328 402.25466 201.04248 400.31712 198.77051 398.38095 C 193.46453 393.85924 188.35633 389.14732 183.27051 384.38095 C 180.14225 381.43272 177.02494 378.47789 173.78809 375.64853 C 169.75578 372.16568 165.86519 368.60163 162.09082 364.83993 L 160.14551 362.88095 C 159.03367 361.76365 157.97978 360.59825 156.87598 359.4747 C 154.89804 357.55465 152.91402 355.64248 150.95801 353.69345 L 148.82129 351.5704 C 144.26702 347.0027 139.97744 342.26804 135.77051 337.38095 C 134.73715 336.2127 133.70204 335.04598 132.66504 333.88095 C 125.99627 326.33606 119.78943 318.74799 114.25684 310.95126 C 101.91189 294.46612 91.654749 276.16674 89.77051 255.38095 C 89.600462 251.89497 89.587789 248.42162 89.672854 244.96298 C 89.547533 242.07989 89.494086 239.15957 89.594729 236.1622 C 90.290561 225.09108 93.722681 213.83042 99.032229 203.76572 C 99.540622 202.73352 100.10926 201.72534 100.66504 200.71103 C 100.72176 200.61339 100.77984 200.51738 100.83692 200.42001 C 103.34668 195.88578 106.23769 191.49805 109.77051 187.38095 C 111.06767 186.04278 112.43154 184.8904 113.76465 183.65243 C 128.89737 168.21059 148.34775 160.69435 168.24903 160.31845 C 172.65552 160.08063 177.13408 160.02923 181.77051 160.38095 C 190.23981 161.91189 197.78766 164.40645 204.7627 167.61337 C 211.77649 170.64647 218.52172 174.55491 224.77051 179.38095 C 235.9394 188.14577 244.49668 199.59581 252.15918 211.45908 C 252.77763 212.3118 253.38449 213.17282 254.00879 214.02158 L 255.77051 216.38095 C 256.37324 217.21858 257.01025 218.03115 257.65137 218.83993 C 258.07054 219.20948 258.64973 219.69828 259.23145 220.16025 C 260.39309 220.84849 261.48449 221.32378 262.58496 221.53915 C 262.73946 221.55562 263.04039 221.58057 263.19824 221.59189 C 264.53639 221.7827 265.91344 221.80342 267.68457 221.75204 C 267.92435 221.70939 268.09515 221.62479 268.31739 221.57236 C 270.1376 220.96297 271.76287 219.85591 273.21973 218.41806 C 273.6715 217.90727 274.1393 217.53845 274.61035 216.90439 C 281.5334 206.51338 288.61712 195.99967 297.2002 186.89267 L 298.8291 185.03329 C 308.44579 174.74608 320.67043 168.17816 333.77051 163.38095 L 336.47364 162.3497 C 343.82131 160.02938 351.54008 159.18327 359.27832 159.46493 z M 8.3037131 223.12704 C 6.1119205 223.09989 3.9504296 223.78234 1.77051 225.38095 C -1.6127822 229.51574 -2.6895544 232.41694 -2.7333962 237.5997 L -2.6904275 239.92001 C -2.6885465 241.56845 -2.6845777 243.21689 -2.6787087 244.86533 C -2.6407849 247.44412 -2.6049517 250.02058 -2.6005837 252.5997 C -2.6009047 254.29253 -2.5950677 255.98698 -2.5849587 257.67978 L -2.5654275 260.10751 C -2.5573545 262.89983 -2.4454606 265.5893 -2.22949 268.38095 C -0.78214288 272.25355 1.2179182 274.2185 4.77051 276.38095 C 8.4649316 277.04933 11.681993 276.93992 15.08301 275.19345 C 18.884304 271.11058 20.112839 267.91607 20.161135 262.27548 L 20.133791 259.93954 C 20.134814 258.28787 20.134111 256.63614 20.131838 254.98447 C 20.10649 252.39474 20.083757 249.80674 20.086916 247.21689 C 20.09126 245.51988 20.090696 243.8221 20.084963 242.12509 L 20.071291 239.68954 C 20.074597 236.88612 19.974699 234.18461 19.77051 231.38095 C 18.613224 228.1306 17.781328 227.38981 15.02051 225.13095 C 12.717639 223.89094 10.495506 223.15419 8.3037131 223.12704 z M 519.53223 223.30283 C 517.49464 223.35331 515.53701 223.92989 513.77051 225.38095 C 510.38011 229.53837 509.31283 232.42124 509.29199 237.62509 L 509.34473 239.95517 C 509.35148 241.60817 509.35999 243.26118 509.37012 244.91415 C 509.41424 247.50167 509.45839 250.08802 509.47559 252.67587 C 509.48346 254.37468 509.49301 256.07281 509.50684 257.77157 L 509.53223 260.20517 C 509.5583 262.94005 509.63765 265.64735 509.77051 268.38095 C 511.07094 272.28223 513.24866 274.40417 516.77051 276.38095 C 520.478 277.15661 523.65921 276.95162 527.08301 275.19345 C 530.90634 271.08691 532.11254 267.89939 532.13574 262.2247 L 532.09864 259.86923 C 532.0948 258.20842 532.08954 256.54761 532.08301 254.88681 C 532.05145 252.27949 532.02043 249.67205 532.01074 247.06454 C 532.00689 245.35559 532.00067 243.64654 531.99121 241.93759 L 531.97364 239.49423 C 531.95892 236.78019 531.89385 234.09391 531.77051 231.38095 C 530.23721 228.31435 528.41285 226.57353 525.77051 224.38095 C 523.68737 223.7279 521.5698 223.25233 519.53223 223.30283 z M 8.0654319 308.30282 C 5.9050311 308.36339 3.81275 308.95057 1.77051 310.38095 C -1.4717645 314.35726 -2.6883264 317.26429 -2.7333962 322.42197 L -2.6904275 324.66611 C -2.6885455 326.26441 -2.6845767 327.86273 -2.6787087 329.46103 C -2.6408259 331.95856 -2.6049587 334.45537 -2.6005837 336.95322 C -2.6009057 338.59297 -2.5950517 340.23145 -2.5849587 341.87118 L -2.5654275 344.22861 C -2.5512795 348.9505 -2.4986364 353.12034 -0.22949 357.38095 C 2.3964458 359.81475 4.3732182 361.23335 7.98926 361.61532 C 12.383776 361.41025 14.086847 361.03758 17.377932 357.87314 C 19.996621 354.6174 20.34678 352.06608 20.362307 347.95907 L 20.293948 345.55282 C 20.279309 342.96864 20.257093 340.38648 20.202151 337.80282 C 20.163917 336.01462 20.136656 334.22613 20.120119 332.43759 C 20.10259 329.85084 20.076635 327.26441 20.043948 324.67782 C 19.957707 318.10519 19.680224 314.16793 14.77051 309.38095 C 12.454392 308.70825 10.225833 308.24225 8.0654319 308.30282 z M 519.53223 308.30282 C 517.49464 308.35331 515.53701 308.92989 513.77051 310.38095 C 510.38011 314.53837 509.31283 317.42124 509.29199 322.62509 L 509.34473 324.95517 C 509.35148 326.60817 509.35999 328.26118 509.37012 329.91415 C 509.41424 332.50167 509.45839 335.08802 509.47559 337.67587 C 509.48346 339.37468 509.49301 341.07281 509.50684 342.77157 L 509.53223 345.20517 C 509.56944 349.10968 509.52201 352.63545 510.77051 356.38095 C 514.09829 359.78797 515.57854 361.21366 520.33301 361.88095 C 524.04382 361.34119 525.89773 360.77493 528.77051 358.38095 C 531.31177 354.31402 532.11559 351.05658 532.13574 346.26376 L 532.09864 343.99032 C 532.0948 342.37834 532.08954 340.76636 532.08301 339.15439 C 532.05142 336.63048 532.02042 334.10816 532.01074 331.58407 C 532.00689 329.92638 532.00067 328.26712 531.99121 326.60947 L 531.97364 324.24032 C 531.95891 321.61062 531.89376 319.00956 531.77051 316.38095 C 530.23721 313.31435 528.41285 311.57353 525.77051 309.38095 C 523.68737 308.7279 521.5698 308.25233 519.53223 308.30282 z M 8.8701194 392.18368 C 6.3102974 392.11053 4.5648444 392.51806 1.77051 394.38095 C -1.5161004 398.34704 -2.6884034 401.27485 -2.7333962 406.44736 L -2.6904275 408.70126 C -2.6885465 410.30413 -2.6845787 411.907 -2.6787087 413.50986 C -2.6407849 416.01624 -2.6049517 418.52073 -2.6005837 421.02743 C -2.6009047 422.67317 -2.5950667 424.31923 -2.5849587 425.96493 L -2.5654275 428.32626 C -2.5524585 432.68482 -2.7679719 436.6429 -0.22949 440.38095 C 1.9309537 442.66848 3.567465 444.18483 6.7353538 444.70126 C 10.49004 444.79915 13.760239 444.72228 16.77051 442.38095 C 19.554285 438.75868 20.127266 435.83951 20.186526 431.30087 L 20.168948 428.9747 C 20.17484 427.32757 20.178684 425.68043 20.180666 424.03329 C 20.161489 421.45226 20.145073 418.87219 20.161135 416.29111 C 20.173699 414.60011 20.178795 412.90989 20.17676 411.21884 L 20.168948 408.7872 C 20.191679 405.91292 20.058112 403.25915 19.77051 400.38095 C 17.811574 396.25993 15.995491 394.20538 11.77051 392.38095 C 10.667292 392.28584 9.7233936 392.20807 8.8701194 392.18368 z M 520.21192 392.20322 C 517.10359 392.23605 515.11767 393.04381 512.17871 395.90829 C 509.58587 399.11224 509.19453 401.56991 509.17871 405.62509 L 509.24707 407.95517 C 509.26171 410.46329 509.28393 412.96908 509.33887 415.47665 C 509.37707 417.20952 509.40435 418.94266 509.4209 420.67587 C 509.45756 425.91538 509.49338 431.14811 509.77051 436.38095 C 511.07094 440.28223 513.24866 442.40417 516.77051 444.38095 C 520.478 445.15661 523.65921 444.95162 527.08301 443.19345 C 530.77252 439.23063 532.11127 436.08442 532.16114 430.60556 L 532.13379 428.4122 C 532.13481 426.85621 532.13411 425.30022 532.13184 423.74423 C 532.10652 421.30822 532.08375 418.87375 532.08692 416.43759 C 532.09127 414.84071 532.09069 413.24344 532.08496 411.64657 L 532.07129 409.3497 C 532.07601 405.60027 532.0002 402.15376 530.91895 398.52743 C 529.16337 395.24828 527.05079 394.05204 523.77051 392.38095 C 522.40796 392.2674 521.24803 392.19227 520.21192 392.20322 z M 8.7822288 475.94931 C 6.643512 475.97511 4.5962678 476.47042 2.45801 477.56845 C -1.2835205 481.58714 -2.570991 484.7547 -2.620115 490.30868 L -2.5927712 492.56845 C -2.5937952 494.17001 -2.5930911 495.77158 -2.5908181 497.37314 C -2.5654982 499.88156 -2.5427333 502.38801 -2.5458962 504.89657 C -2.5502462 506.54052 -2.5496681 508.18622 -2.5439431 509.83017 L -2.5302712 512.19345 C -2.5360592 516.93017 -2.5124724 521.10701 -0.22949 525.38095 C 2.3964458 527.81475 4.3732182 529.23335 7.98926 529.61532 C 12.375739 529.41062 14.085346 529.03544 17.377932 525.88681 C 20.031301 522.58747 20.346993 519.96503 20.362307 515.80673 L 20.293948 513.33407 C 20.279307 510.68042 20.257077 508.02826 20.202151 505.37509 C 20.163921 503.53837 20.136657 501.70235 20.120119 499.86532 C 20.083834 494.3666 20.055874 488.87295 19.77051 483.38095 C 18.185627 480.21118 15.789544 478.13394 12.77051 476.38095 C 11.381208 476.08762 10.065458 475.93383 8.7822288 475.94931 z M 521.1084 476.02157 C 517.72943 476.0014 515.08945 477.07197 512.18067 479.89657 C 509.56109 483.13417 509.18663 485.65655 509.15332 489.75204 L 509.21192 492.13876 C 509.2167 493.83278 509.22394 495.52682 509.2334 497.22079 C 509.28389 499.87212 509.33284 502.5221 509.34473 505.17392 C 509.34843 506.91384 509.35759 508.65281 509.37207 510.39267 L 509.39942 512.88876 C 509.41882 515.75365 509.54247 518.51766 509.77051 521.38095 C 511.28702 525.63865 513.81116 527.24899 517.77051 529.38095 C 521.674 529.84937 524.56266 529.73337 527.77051 527.38095 C 531.17067 523.2335 532.2282 520.33697 532.24903 515.13681 L 532.19629 512.80673 C 532.18954 511.15373 532.18103 509.50073 532.1709 507.84775 C 532.12678 505.26023 532.08263 502.67389 532.06543 500.08603 C 532.05756 498.38722 532.04801 496.68908 532.03418 494.99032 L 532.00879 492.55673 C 531.98272 489.82185 531.90337 487.11455 531.77051 484.38095 C 530.47336 480.4895 528.29837 478.33752 524.77051 476.38095 C 523.44249 476.15674 522.23472 476.0283 521.1084 476.02157 z M 198.14551 555.68564 L 195.64551 555.71689 C 193.86949 555.70707 192.09342 555.70066 190.31739 555.69736 C 187.53814 555.72932 184.76278 555.75539 181.9834 555.72861 C 180.1614 555.70765 178.33872 555.69983 176.5166 555.70322 L 173.89551 555.71689 C 166.97277 555.63198 160.69293 556.29169 157.89551 563.69736 L 157.77051 565.94345 C 157.48618 569.3613 157.81043 571.52833 159.77051 574.38095 C 163.62996 577.47352 166.78396 577.72866 171.53614 577.74618 L 174.15723 577.70907 C 176.00032 577.70524 177.84344 577.69998 179.68653 577.69345 C 182.58353 577.66189 185.48075 577.63088 188.37793 577.62118 C 190.27522 577.61733 192.17207 577.61111 194.06934 577.60165 L 196.78223 577.58407 C 199.78703 577.56942 202.76671 577.50469 205.77051 577.38095 C 208.75169 575.89036 209.97687 574.19098 211.77051 571.38095 C 212.26968 567.90672 212.37137 564.58268 210.77051 561.38095 C 206.66583 557.12589 204.03749 555.80454 198.14551 555.68564 z M 87.799807 555.77743 C 84.50693 555.79604 81.284912 556.12375 78.77051 557.38095 C 75.972779 559.51256 73.981076 561.05574 73.411135 564.64267 C 73.381183 569.29276 73.457956 571.98546 76.747073 575.47861 C 80.314368 577.72172 82.414509 577.84465 86.536135 577.85947 L 89.157229 577.80673 C 91.000329 577.79998 92.84344 577.79147 94.686526 577.78134 C 97.583588 577.7372 100.48056 577.69308 103.37793 577.67587 C 105.27522 577.66801 107.17208 577.65847 109.06934 577.64462 L 111.78223 577.61923 C 115.5169 577.58755 119.37723 578.07759 122.77051 576.38095 C 125.01735 574.20019 126.60796 572.51228 127.06348 569.34189 C 127.10869 564.3687 126.70869 562.35439 123.27442 558.78915 C 119.97544 556.12016 117.36366 555.8045 113.19629 555.78915 L 110.72364 555.85751 C 108.06998 555.87215 105.41781 555.89438 102.76465 555.94931 C 100.92793 555.98754 99.091922 556.0148 97.254885 556.03134 C 94.456963 556.0498 91.092683 555.75883 87.799807 555.77743 z M 28.473635 555.83017 C 27.395912 555.83008 26.172633 555.83631 24.774416 555.84384 C 22.702393 555.89432 20.632224 555.94328 18.559573 555.95517 C 13.521774 555.96886 8.2157565 555.43932 3.45801 557.27157 C 0.88738715 558.9614 -0.0032474399 560.56059 -1.22949 563.38095 C -1.6029782 566.85573 -1.8263758 570.18717 -0.22949 573.38095 C 2.6101044 576.21989 4.2204903 577.30736 8.2431663 577.85165 L 12.188479 577.80673 C 13.621425 577.79999 15.054379 577.79147 16.487307 577.78134 C 18.732569 577.73719 20.976028 577.69306 23.221682 577.67587 C 28.204236 577.64928 34.28982 578.6213 38.77051 576.38095 C 41.017347 574.20019 42.607961 572.51228 43.063479 569.34189 C 43.106572 564.60161 42.619089 562.42211 39.653323 558.78329 C 36.421839 556.15857 36.017695 555.83081 28.473635 555.83017 z M 366.53809 555.96493 L 364.14551 555.98251 C 362.45281 555.97662 360.76008 555.97278 359.06739 555.97079 C 356.41393 555.98997 353.76192 556.00638 351.1084 555.99032 C 349.37032 555.97776 347.63168 555.97266 345.89356 555.9747 L 343.39551 555.98251 C 339.23135 555.95049 335.7033 555.94949 331.84864 557.73447 C 328.99051 559.99961 327.96174 561.93962 326.77051 565.38095 C 326.691 569.91286 327.15264 571.71157 330.24317 575.06259 C 333.61832 577.71447 336.43991 577.95801 340.64942 577.97275 L 343.25489 577.90439 C 346.04749 577.88974 348.83775 577.86749 351.62989 577.81259 C 353.56361 577.77437 355.49858 577.7471 357.43262 577.73056 C 363.21593 577.6943 368.9936 577.66697 374.77051 577.38095 C 377.69357 575.91941 377.69359 575.9194 380.77051 570.38095 C 381.21458 566.70152 381.32297 564.42772 379.58301 561.13095 C 375.51351 557.20178 372.23874 556.03737 366.53809 555.96493 z M 282.48731 556.01572 L 280.0752 556.05282 C 278.37337 556.05666 276.67154 556.06192 274.96973 556.06845 C 272.29886 556.09998 269.62906 556.13101 266.95801 556.14072 C 265.20793 556.14457 263.45807 556.1508 261.70801 556.16025 L 259.2002 556.17782 C 255.21463 556.19899 251.59378 556.10652 247.77051 557.38095 C 245.04674 559.97804 243.05004 561.72526 242.41504 565.48642 C 242.37481 569.90426 242.72434 572.26357 245.73535 575.47665 C 249.3346 577.73392 251.50339 577.85405 255.66309 577.88486 L 258.34082 577.84189 C 260.22494 577.84001 262.10907 577.83604 263.99317 577.83017 C 266.95393 577.79223 269.913 577.75641 272.87403 577.75204 C 274.8124 577.75236 276.75207 577.74654 278.69043 577.73642 L 281.46582 577.71689 L 284.15528 577.71103 L 286.65332 577.67197 C 290.08559 577.63584 290.72293 577.41267 293.77051 575.38095 C 295.83133 572.63319 296.71748 570.80517 297.14551 567.38095 C 296.70994 563.89637 295.93284 562.13978 293.77051 559.38095 C 290.01702 556.43589 287.08648 556.0341 282.48731 556.01572 z M 450.30957 556.01572 L 447.82129 556.05282 C 446.06934 556.05666 444.31738 556.06192 442.56543 556.06845 C 439.81327 556.10001 437.06191 556.13103 434.30957 556.14072 C 432.50644 556.14457 430.70252 556.15079 428.89942 556.16025 L 426.32129 556.17782 C 418.92584 556.21582 414.82622 556.571 410.77051 563.38095 C 410.25476 568.53844 410.64499 570.89253 413.7334 574.97275 C 417.37242 577.85693 419.18771 577.95737 423.68848 577.97275 L 426.37598 577.90439 C 429.24547 577.88973 432.1124 577.86738 434.98145 577.81259 C 436.97051 577.77441 438.96082 577.74712 440.9502 577.73056 C 444.72325 577.70752 448.4957 577.66762 452.26856 577.62314 L 454.7666 577.57431 C 456.10233 577.55067 457.43942 577.49467 458.77051 577.38095 C 461.75169 575.89036 462.97687 574.19098 464.77051 571.38095 C 465.45132 567.69138 465.32698 564.46459 463.58301 561.06845 C 459.31949 557.09896 456.00695 556.03781 450.30957 556.01572 z M 515.65723 556.06845 L 512.64551 556.13095 C 504.48458 556.17296 498.34381 555.5008 493.77051 563.38095 C 493.26837 567.54155 493.19862 570.95176 495.77051 574.38095 C 498.44817 576.30246 500.30953 577.32202 503.60059 577.73642 L 506.65723 577.70907 L 509.99903 577.69345 L 513.45801 577.63095 C 517.56449 577.61259 521.67193 577.65132 525.77051 577.38095 C 528.75169 575.89036 529.97687 574.19098 531.77051 571.38095 C 532.45132 567.69138 532.32698 564.46459 530.58301 561.06845 C 525.77079 556.58812 522.07429 556.03409 515.65723 556.06845 z "
     transform="translate(247.22949,185.61905)" />
</svg>
