<svg id="Solid" height="512" viewBox="0 0 512 512" width="512" xmlns="http://www.w3.org/2000/svg"><path d="m419.214 458.81a55.705 55.705 0 0 0 10.669-47.535l-36.231-155.275h-18.295a100.858 100.858 0 0 1 -14.608 40.3c-25.091 39.424-70.812 47.7-104.749 47.7s-79.658-8.276-104.749-47.7a100.858 100.858 0 0 1 -14.608-40.3h-18.3l-36.226 155.275a56 56 0 0 0 54.535 68.725h238.7a55.7 55.7 0 0 0 43.862-21.19z"/><path d="m86.348 256-31.648 135.64a71.615 71.615 0 0 0 13.716 61.115 73.055 73.055 0 0 0 4.957 5.62 71.555 71.555 0 0 1 -6.836-50.735l35.382-151.64z"/><path d="m105.444 240h15.779l11.333-32h-15.779z"/><path d="m406.556 240-11.333-32h-15.779l11.333 32z"/><path d="m443.585 452.755a71.615 71.615 0 0 0 13.715-61.115l-31.648-135.64h-15.571l35.383 151.64a71.555 71.555 0 0 1 -6.836 50.735 73.055 73.055 0 0 0 4.957-5.62z"/><path d="m256 32c-36.33 0-71.66 31.01-105.02 92.17a564.16 564.16 0 0 0 -30.93 67.83h15.95a8.079 8.079 0 0 1 1.2.09 543.257 543.257 0 0 1 27.93-60.45c20.84-38.16 53.52-83.64 90.87-83.64s70.03 45.48 90.87 83.64a543.257 543.257 0 0 1 27.93 60.45 8.079 8.079 0 0 1 1.2-.09h15.95a564.16 564.16 0 0 0 -30.93-67.83c-33.36-61.16-68.69-92.17-105.02-92.17z"/></svg>