<?xml version="1.0" encoding="iso-8859-1"?>
<!-- Generator: Adobe Illustrator 19.0.0, SVG Export Plug-In . SVG Version: 6.00 Build 0)  -->
<svg version="1.1" id="Capa_1" xmlns="http://www.w3.org/2000/svg" x="0px" y="0px"
	viewBox="0 0 512 512" style="enable-background:new 0 0 512 512;">
	<g>
		<g>
			<g>
				<polygon points="307.362,36.571 343.385,36.571 307.033,0 306.997,0 289.077,0 289.058,0 307.344,36.571"/>
				<polygon points="255.979,124.187 265.837,102.502 287.522,54.857 287.495,54.857 224.464,54.857 224.437,54.857 246.122,102.502"/>
				<path d="M369.709,451.931c-3.502,0.139-7.061,0.256-10.819,0.256c-11.201,0.093-22.365-0.616-33.416-2.075
				c-22.032-2.918-43.611-8.864-64.1-17.747c-28.901-12.993-61.106-14.997-90.827-6.402c-11.242,3.242-22.133,7.99-32.356,14.243
				l7.765,22.435l6.434,18.639c1.738,4.98,4.283,9.509,7.448,13.475c0.12,0.151,0.237,0.306,0.359,0.456
				c0.059,0.071,0.12,0.14,0.179,0.211c8.517,10.284,21.32,16.572,35.218,16.578h0.041h120.686h0.041
				c13.865-0.006,26.64-6.265,35.157-16.506c0.08-0.096,0.164-0.189,0.243-0.286c0.1-0.123,0.196-0.25,0.295-0.374
				c3.195-3.984,5.761-8.541,7.51-13.554l10.149-29.349C369.714,451.932,369.712,451.932,369.709,451.931L369.709,451.931z"/>
				<polygon points="166.197,57.509 193.826,100.101 217.835,137.143 217.854,137.143 241.781,137.143 241.808,137.143
				204.414,54.857 204.377,54.857 164.277,54.857 164.231,54.857 165.557,56.625"/>
				<polygon points="307.545,54.857 270.151,137.143 270.178,137.143 294.105,137.143 294.123,137.143 345.406,57.993
				346.629,56.353 347.774,54.857 347.746,54.857 307.582,54.857"/>
				<polygon points="286.882,36.571 286.901,36.571 268.615,0 268.597,0 255.979,0 243.362,0 243.344,0 225.058,36.571
				225.077,36.571"/>
				<rect x="210.265" y="155.429" width="91.429" height="45.714"/>
				<polygon points="204.597,36.571 204.615,36.571 222.901,0 222.882,0 204.962,0 204.926,0 168.565,36.571 168.574,36.571"/>
				<path d="M379.225,243.657c-17.551-15.62-40.231-24.243-63.726-24.229h-119.04c-31.022-0.006-60.129,14.999-78.121,40.27
				s-22.643,57.687-12.485,86.998l26.24,75.886c41.825-24.187,92.742-26.739,136.777-6.857
				c33.839,14.423,70.666,20.446,107.337,17.554l29.897-86.583C418.863,310.077,408.246,269.378,379.225,243.657z M336.528,259.84
				c-3.317-1.263-6.745-2.212-10.24-2.834c-3.56-0.652-7.17-0.988-10.789-1.006c-5.049,0-9.143-4.093-9.143-9.143
				c0-5.049,4.093-9.143,9.143-9.143c4.722,0.018,9.433,0.446,14.08,1.28c4.614,0.841,9.142,2.096,13.531,3.749
				c4.349,1.702,8.54,3.783,12.526,6.217c4.07,2.397,7.897,5.184,11.429,8.32c2.858,2.526,3.848,6.561,2.484,10.124
				c-1.364,3.562-4.795,5.904-8.61,5.876c-2.224,0.005-4.372-0.809-6.034-2.286c-2.677-2.415-5.586-4.559-8.686-6.4
				C343.139,262.719,339.896,261.128,336.528,259.84z M388.825,340.754l-23.223,67.2c-1.271,3.714-4.76,6.212-8.686,6.217
				c-1.03-0.004-2.051-0.19-3.017-0.549c-2.279-0.8-4.148-2.473-5.194-4.651c-1.046-2.178-1.184-4.682-0.384-6.961l23.223-67.291
				c1.911-5.575,3.019-11.393,3.291-17.28c0.186-5.762-0.46-11.52-1.92-17.097c-1.235-4.878,1.692-9.84,6.558-11.119
				c4.867-1.279,9.855,1.602,11.179,6.456C394.554,310.551,393.917,326.248,388.825,340.754z"/>
			</g>
		</g>
	</g>
	<g>
	</g>
	<g>
	</g>
	<g>
	</g>
	<g>
	</g>
	<g>
	</g>
	<g>
	</g>
	<g>
	</g>
	<g>
	</g>
	<g>
	</g>
	<g>
	</g>
	<g>
	</g>
	<g>
	</g>
	<g>
	</g>
	<g>
	</g>
	<g>
	</g>
</svg>
