<?xml version="1.0" encoding="UTF-8"?>
<svg xmlns="http://www.w3.org/2000/svg" version="1.1" id="Layer_1" x="0px" y="0px" viewBox="0 0 520 520" style="enable-background:new 0 0 520 520;" width="512" height="512">
    <path d="M512.9,415.6l-24.6-28.9c-6.6,1.9-11.7,4-16.5,6.7l28.3,33.2c3,3.6,8.4,4,12,0.9C515.5,424.5,516,419.2,512.9,415.6  L512.9,415.6L512.9,415.6z"/>
    <path d="M455.6,404.7c-3.1,2.5-9.8,9-12.4,11.8l25,31.9c2.9,3.7,8.3,4.3,12,1.4c3.7-2.9,4.3-8.3,1.4-12L455.6,404.7z"/>
    <path d="M429.4,432c-4,4-8.5,7.5-13.3,10.5l22.3,34.9c2.6,4,7.9,5,11.7,2.5c3.9-2.5,5.1-7.8,2.5-11.7L429.4,432z"/>
    <path d="M400.5,450.2c-7,2.7-14.5,4.5-16.5,4.8l19.3,38.9c2.2,4.3,7.3,5.8,11.4,3.8c4.2-2.1,5.9-7.2,3.9-11.4c0,0,0,0,0-0.1  L400.5,450.2z"/>
    <path d="M64,500.9c-3.7,2.9-4.2,8.3-1.3,11.9c2.9,3.6,8.2,4.3,11.8,1.3l29.7-23.6c-1-6.2-2.4-12.2-4.3-18.2L64,500.9z"/>
    <path d="M95.9,462.5c-2.5-5.1-5.6-9.9-9.2-14.3l-33.3,26.4c-3.7,2.9-4.2,8.3-1.3,11.9c2.9,3.6,8.3,4.3,11.8,1.3L95.9,462.5z"/>
    <path d="M64.8,430.6l-30,23.8c-3.7,2.9-4.2,8.3-1.3,11.9c2.9,3.6,8.3,4.3,11.8,1.3l33.9-27C74.9,436.8,70,433.3,64.8,430.6z"/>
    <path d="M34.9,419.5L8.4,439.9c-3.7,2.8-4.4,8.2-1.6,11.9c2.8,3.6,8,4.5,12,1.6l36.1-27.6C45.1,421.6,35,419.6,34.9,419.5z"/>
    <path d="M224.8,63.1c36.7-14.2,68.5-16.2,98.4-14.1c14.5-12.9,19-25,8.8-41.9c-45.5-9-96.5,3.1-121.4,20.5  C210.2,27.6,198.4,49.7,224.8,63.1z"/>
    <path d="M249.2,72.9c11.8,4.1,17.2,6.3,18.2,6.6c19.6-7.9,31.6-14.2,31.7-14.3C293.2,65.7,276.9,65,249.2,72.9z"/>
    <path d="M205.2,115.9c12.6-9.7,28.8-19.8,40.9-26.1c-7.9-3.5-50.9-11.8-55.4-45C172.8,66.8,174.2,91.9,205.2,115.9z"/>
    <path d="M359.6,100.1c9.9-6.5,18.4-12.1,25.1-17.2c25.9-19.7,0.2-58.2-31.8-70.6c5.1,15.4-0.1,35.9-21.4,51.8  c-17.2,14.4-36,21.8-49.3,27.5c-19,7.9-36.7,17.1-54.1,28.8c-62.8,42.4-95.2,105.1-120,177.9C95,336.7,78,378.9,46,404.8  c21.4,6.4,32.7,13.3,43.6,22.6c80-36.1,47.8-150.1,104.9-194.6c3.7-2.9,9-2.2,11.9,1.4c2.9,3.7,2.2,9-1.4,12  c-48,37.6-21.6,153.1-103,194.1c12,15.8,16.5,32.8,18.8,46.2c63.3-63.8,79-114.1,93.9-182.8c9.1-41.8,18.7-86,54-127.9  c11.8-14.3,25.7-27.7,42.9-41.5C327.5,121.6,340.2,113,359.6,100.1z"/>
    <path d="M422.4,414.7c7.5-9.4,13.8-15.4,21.7-22.5c-28.6-23.5-69.4-64.9-82.2-99.5c-1.5-4.5,0.9-9.3,5.4-10.7  c4.5-1.5,9.3,0.9,10.7,5.4c6.9,27.7,57.9,76.8,80.3,94.5c8.1-5.3,16.9-9,25.8-11.5c-57.4-40.9-94.6-93.7-111.6-150.6  c-9.8-33.1-23.4-59.1-41.4-79.2c-2.2,2.2-7.6,3.3-44.7,40.5c31.6,36.7,44.4,79.6,38.9,130.9c-5.1,48.1,8.6,96,31.6,128.6  C381.4,441.1,407,433.7,422.4,414.7z"/>
</svg>
