<svg id="Capa_1" enable-background="new 0 0 511.994 511.994" height="512" viewBox="0 0 511.994 511.994" width="512" xmlns="http://www.w3.org/2000/svg"><g><g id="Page-1_22_"><g id="_x30_23---Warm-and-Cold-Settings"><path id="Shape_180_" d="m172.311 292.602 120.293-120.293c-16.068-18.251-39.235-28.673-63.551-28.591-47.106.054-85.279 38.228-85.333 85.333-.083 24.316 10.34 47.483 28.591 63.551z"/><path id="Shape_179_" d="m15.333 500.393 485.053-485.052c3.51-3.507 3.512-9.196.004-12.706s-9.196-3.512-12.706-.004l-485.052 485.052c-3.507 3.508-3.507 9.194 0 12.701 3.554 3.391 9.143 3.395 12.701.009z"/><path id="Shape_178_" d="m233.67 82.682h.341c4.556-.148 8.279-3.685 8.659-8.228l5.389-64.674c.209-2.509-.644-4.99-2.352-6.839s-4.113-2.897-6.63-2.889h-11.093c-2.517-.009-4.923 1.039-6.63 2.889-1.708 1.849-2.561 4.331-2.352 6.839l5.389 64.719c.422 4.763 4.501 8.36 9.279 8.183z"/><path id="Shape_177_" d="m9.728 248.058 64.422-5.389c4.668-.389 8.253-4.299 8.237-8.982v-.898c.014-4.703-3.602-8.62-8.291-8.982l-64.431-4.922c-2.498-.19-4.962.671-6.798 2.377-1.835 1.706-2.875 4.1-2.867 6.606v11.192c-.014 2.52 1.032 4.931 2.882 6.642 1.85 1.71 4.334 2.565 6.846 2.356z"/><path id="Shape_176_" d="m146.1 100.324c2.728 3.928 8.055 5.03 12.117 2.506l.287-.18c3.875-2.406 5.332-7.335 3.386-11.462l-27.684-58.736c-1.073-2.26-3.04-3.97-5.427-4.718s-4.978-.468-7.149.775l-9.629 5.56c-2.176 1.255-3.726 3.364-4.276 5.815s-.048 5.02 1.383 7.084z"/><path id="Shape_175_" d="m102.283 308.501c-2.353-4.068-7.444-5.634-11.677-3.593l-58.269 27.935c-2.25 1.083-3.948 3.054-4.686 5.44s-.449 4.971.797 7.136l5.596 9.692c1.255 2.176 3.364 3.726 5.815 4.276s5.02.048 7.084-1.383l53.113-36.828c3.833-2.666 4.984-7.823 2.65-11.866z"/><path id="Shape_174_" d="m345.501 28.509c-2.175-1.258-4.777-1.547-7.176-.798-2.398.749-4.373 2.469-5.445 4.741l-27.684 58.745c-2.04 4.325-.334 9.49 3.88 11.749l.305.162c4.019 2.151 9.013.95 11.614-2.794l37.026-53.347c1.431-2.064 1.933-4.633 1.383-7.084s-2.1-4.56-4.276-5.815z"/><path id="Shape_173_" d="m100.289 145.443-53.329-36.478c-2.065-1.413-4.627-1.9-7.067-1.344s-4.537 2.104-5.787 4.273l-5.596 9.692c-1.242 2.171-1.523 4.762-.775 7.149s2.458 4.354 4.718 5.427l58.485 27.558c4.215 1.997 9.256.436 11.605-3.593l.449-.781c2.347-4.066 1.169-9.252-2.703-11.903z"/><path id="Shape_172_" d="m489.095 197.523-49.942 13.384 26.858-40.152c3.768-5.39 4.333-12.394 1.478-18.318s-8.686-9.846-15.249-10.257c-6.564-.411-12.838 2.753-16.409 8.275l-50.122 74.734-95.304 25.51-39.613 39.613-25.6 95.394-74.734 50.122c-5.968 3.961-9.048 11.061-7.864 18.125s6.411 12.772 13.344 14.571c5.073 1.312 10.465.397 14.821-2.515l40.152-26.858-13.384 49.942c-1.685 6.274.105 12.97 4.696 17.566s11.285 6.394 17.561 4.716 11.18-6.576 12.864-12.85l13.384-49.942 21.288 43.295c2.297 4.741 6.571 8.225 11.677 9.521 4.243 1.27 8.813.852 12.755-1.168 8.983-4.459 12.675-15.337 8.264-24.342l-39.702-80.752 23.085-86.052 62.967 62.967 6.018 89.825c.811 9.925 9.452 17.353 19.387 16.664 9.934-.689 17.468-9.237 16.902-19.179l-3.234-48.146 36.559 36.559c7.119 7.119 18.661 7.119 25.78 0s7.119-18.661 0-25.78l-36.559-36.559 48.146 3.234c9.942.566 18.491-6.968 19.179-16.902.689-9.934-6.739-18.576-16.664-19.387l-89.825-6.018-62.967-62.967 86.052-23.085 80.752 39.702c1.054.55 2.169.973 3.324 1.258 9.052 2.395 18.445-2.465 21.717-11.238s-.642-18.598-9.052-22.715l-43.295-21.288 49.942-13.384c6.274-1.685 11.172-6.589 12.85-12.864s-.12-12.97-4.716-17.561c-4.597-4.593-11.293-6.383-17.567-4.698z"/></g></g></g></svg>