<svg id="Capa_1" enable-background="new 0 0 449.216 449.216" height="512" viewBox="0 0 449.216 449.216" width="512" xmlns="http://www.w3.org/2000/svg"><g><path d="m44.724 224.076-25.516 15.311c23.176 8.725 65.034 26.146 83.06 44.172 3.093 3.093 3.128 8.097.079 11.233-1.163 1.2-24.369 24.652-61.175 32.155 22.93 12.3 62.589 28.236 101.5 18.508 4.287-1.069 8.629 1.539 9.698 5.826.158.633.238 1.283.238 1.935v15.933c4.402-.783 8.676-2.168 12.7-4.116 10.725-5 27.509-16.433 48.163-42.48l-20.037-16.03-39.513 6.584c-4.353.755-8.494-2.162-9.249-6.515s2.162-8.494 6.515-9.249c.035-.006.069-.012.104-.017l25.362-4.226-64.851-51.883h-31.194c-4.418 0-8-3.582-8-8s3.582-8 8-8h11.194l-32.194-25.753c-3.45-2.761-4.008-7.797-1.247-11.247s7.797-4.008 11.247-1.247l79.053 63.247-3.944-23.684c-.685-4.365 2.298-8.459 6.663-9.144 4.307-.676 8.363 2.222 9.119 6.516l6.876 41.282 49.233 39.385v-164.043l-29.657-29.656c-3.124-3.124-3.124-8.19 0-11.314s8.19-3.124 11.314 0l18.343 18.344v-36.687c0-4.418 3.582-8 8-8s8 3.582 8 8v84.687l18.343-18.344c3.124-3.124 8.19-3.124 11.314 0s3.124 8.19 0 11.314l-29.657 29.656v116.042l49.233-39.387 6.876-41.282c.766-4.351 4.914-7.258 9.266-6.492 4.295.756 7.193 4.812 6.516 9.12l-3.944 23.686 79.053-63.247c3.45-2.761 8.486-2.203 11.247 1.247s2.203 8.486-1.247 11.247l-32.194 25.753h11.194c4.418 0 8 3.582 8 8s-3.582 8-8 8h-31.194l-64.853 51.883 25.362 4.226c4.363.698 7.334 4.8 6.637 9.163-.698 4.363-4.8 7.334-9.163 6.637-.035-.006-.069-.011-.104-.017l-39.513-6.584-20.038 16.031c21.546 27.18 38.941 38.562 50.017 43.309 3.47 1.531 7.113 2.637 10.849 3.294v-15.941c0-4.418 3.582-8 8-8 .654 0 1.305.08 1.94.239 39.016 9.754 78.646-6.19 101.542-18.5-36.835-7.492-60.055-30.967-61.218-32.164-3.049-3.136-3.014-8.14.079-11.233 18.026-18.026 59.884-35.447 83.06-44.172l-25.519-15.31c-3.679-2.208-4.962-6.924-2.907-10.691l38.263-70.15-76.71 25.57c-4.191 1.398-8.722-.867-10.12-5.059-.105-.315-.19-.636-.255-.961l-4.617-23.089c-48.364 59.558-70.5 68.272-73.008 69.109-4.192 1.397-8.722-.869-10.119-5.06-.547-1.642-.547-3.417 0-5.059 5.98-17.94 25.708-81.684 35.01-111.822l-24.45 9.78c-4.102 1.641-8.758-.355-10.399-4.457-.378-.945-.572-1.953-.572-2.971v-49.053l-11.562 7.708c-3.676 2.451-8.643 1.458-11.094-2.218-.34-.509-.62-1.056-.835-1.629l-16.509-44.025-16.509 44.025c-1.551 4.137-6.163 6.233-10.3 4.682-.573-.215-1.12-.495-1.629-.835l-11.562-7.708v49.052c0 4.418-3.582 8-8 8-1.018 0-2.026-.194-2.971-.572l-24.45-9.78c9.3 30.138 29.03 93.882 35.01 111.822 1.397 4.192-.869 8.722-5.06 10.119-1.642.547-3.417.547-5.059 0-2.512-.837-24.644-9.551-73.008-69.109l-4.617 23.089c-.867 4.332-5.081 7.142-9.414 6.275-.325-.065-.646-.15-.961-.255l-76.71-25.57 38.263 70.15c2.055 3.767.772 8.483-2.907 10.691z"/><path d="m224.608 334.256c2.71 3.37 5.377 6.53 8 9.48v97.48c0 4.418-3.582 8-8 8s-8-3.582-8-8v-97.48c2.62-2.947 5.287-6.107 8-9.48z"/></g></svg>