<?xml version="1.0"?>
<svg xmlns="http://www.w3.org/2000/svg" id="Solid" viewBox="0 0 64 64" width="512" height="512"><path d="M15.8756,31.9282c3.2615,1.883,7.1554,1.9409,10.3065,1.5122a5.8506,5.8506,0,0,1,.2-3.5288l-6.1412-3.5454a1,1,0,0,1,1-1.7324l3.4309,1.9806A16.6723,16.6723,0,0,1,22,18c0-.2594.0308-.511.0456-.7668C15.5868,14.8587,7.7513,18,7.7513,18S9.18,28.0622,15.8756,31.9282Z"/><path d="M30.3417,37.7618a6.0129,6.0129,0,0,1-2.9625-1.9391l-6.138,3.5435a1,1,0,0,1-1-1.7324l3.43-1.98a16.6709,16.6709,0,0,1-8.7955-1.9932q-.3361-.1941-.6559-.4055C8.9489,37.6651,7.7513,46,7.7513,46s9.4282,3.7942,16.1243-.0718C27.1342,44.0469,29.1359,40.7039,30.3417,37.7618Z"/><path d="M31,26.09V19a1,1,0,0,1,2,0v3.9643A16.6871,16.6871,0,0,1,39.1245,16.34c.2244-.13.4575-.2287.6862-.3437C38.6379,9.2159,32.0018,4.0014,32,4c-.0017.0014-8,6.2687-8,14,0,3.7664,1.8972,7.1672,3.8441,9.6818A5.9817,5.9817,0,0,1,31,26.09Z"/><path d="M33,37.91V45a1,1,0,0,1-2,0V41.0363a16.6867,16.6867,0,0,1-6.1241,6.6242c-.2245.13-.4576.2287-.6863.3437C25.3625,54.7841,31.9985,59.9986,32,60c.0017-.0014,8-6.2687,8-14,0-3.7665-1.8973-7.1674-3.8443-9.682A5.9819,5.9819,0,0,1,33,37.91Z"/><circle cx="32" cy="32" r="4"/><path d="M48.1244,32.0718c-3.2616-1.883-7.1553-1.9409-10.3065-1.5122a5.8506,5.8506,0,0,1-.2,3.5288l6.1412,3.5454a1,1,0,0,1-1,1.7324l-3.43-1.98A16.6723,16.6723,0,0,1,42,46c0,.2594-.0308.511-.0456.7667,6.458,2.3743,14.2923-.7657,14.2941-.7665h0S54.8205,35.9378,48.1244,32.0718Z"/><path d="M33.6584,26.2383a6.0124,6.0124,0,0,1,2.9624,1.939l6.138-3.5435a1,1,0,1,1,1,1.7324l-3.43,1.98A16.6707,16.6707,0,0,1,49.1245,30.34q.3377.195.6588.4073C55.0537,26.3367,56.2487,18,56.2487,18h0c-.0019-.0008-9.4287-3.7937-16.1241.0719C36.8661,19.9531,34.8642,23.2962,33.6584,26.2383Z"/></svg>
