<svg id="Capa_1" enable-background="new 0 0 512 512" height="512" viewBox="0 0 512 512" width="512" xmlns="http://www.w3.org/2000/svg"><g><g><path d="m474.394 293.919c-2.725-9.048-12.268-14.176-21.314-11.451l-75.552 22.745-38.23-21.665v-55.096l38.231-21.665 75.551 22.745c1.644.495 3.305.73 4.939.73 7.353 0 14.146-4.777 16.375-12.181 2.725-9.048-2.402-18.59-11.45-21.315l-44.235-13.317 46.601-26.409c8.22-4.659 11.107-15.1 6.449-23.32-4.658-8.221-15.099-11.107-23.32-6.45l-46.599 26.408 11.302-44.788c2.311-9.162-3.241-18.463-12.404-20.775-9.157-2.308-18.462 3.24-20.774 12.403l-19.303 76.495-37.796 21.419-49.762-28.73.001-43.699 57.04-54.515c6.832-6.528 7.076-17.357.548-24.188-6.529-6.832-17.361-7.076-24.189-.547l-33.397 31.919.002-53.564c0-9.448-7.659-17.108-17.108-17.108-9.448 0-17.108 7.66-17.108 17.108l-.002 53.562-33.393-31.915c-6.83-6.529-17.66-6.285-24.189.547-6.528 6.831-6.284 17.661.548 24.188l57.033 54.509-.001 43.706-49.766 28.732-37.781-21.413-19.305-76.504c-2.311-9.16-11.604-14.71-20.774-12.403-9.162 2.312-14.714 11.613-12.403 20.775l11.303 44.792-46.599-26.412c-8.218-4.661-18.661-1.773-23.319 6.448-4.659 8.22-1.773 18.661 6.448 23.32l46.597 26.41-44.231 13.316c-9.048 2.724-14.174 12.267-11.451 21.315 2.23 7.404 9.023 12.181 16.376 12.181 1.633 0 3.295-.235 4.939-.73l75.544-22.743 38.229 21.667v55.088l-38.228 21.667-75.547-22.743c-9.051-2.722-18.59 2.403-21.315 11.451-2.723 9.048 2.403 18.59 11.451 21.315l44.232 13.316-46.598 26.41c-8.221 4.659-11.107 15.099-6.448 23.32 3.148 5.556 8.938 8.676 14.9 8.676 2.858 0 5.756-.717 8.42-2.228l46.599-26.411-11.303 44.792c-2.312 9.162 3.241 18.463 12.403 20.775 1.406.354 2.813.524 4.199.524 7.65 0 14.619-5.17 16.576-12.927l19.305-76.504 37.753-21.397 49.794 28.749.001 43.672-57.033 54.508c-6.832 6.528-7.076 17.358-.548 24.189 6.529 6.832 17.361 7.075 24.189.548l33.393-31.915.002 53.561c0 9.448 7.66 17.108 17.108 17.108 9.45 0 17.109-7.66 17.109-17.109l-.002-53.563 33.397 31.918c3.315 3.167 7.57 4.74 11.819 4.74 4.508 0 9.009-1.771 12.37-5.288 6.528-6.831 6.284-17.661-.548-24.189l-57.04-54.514-.001-43.666 49.79-28.746 37.768 21.403 19.303 76.495c1.958 7.757 8.925 12.927 16.576 12.927 1.387 0 2.795-.17 4.199-.524 9.162-2.312 14.714-11.613 12.404-20.775l-11.302-44.787 46.599 26.407c2.665 1.51 5.562 2.227 8.421 2.227 5.96 0 11.75-3.12 14.9-8.677 4.658-8.22 1.771-18.661-6.449-23.32l-46.601-26.409 44.235-13.317c9.044-2.724 14.172-12.266 11.447-21.314zm-169.313-9.563-49.087 28.34-49.085-28.34v-56.679l49.085-28.339 49.087 28.339z" fill="#cbe2ff"/><g fill="#b9cbea"><path d="m187.496 46.755 42.939 41.038c3.181 3.04 8.454.785 8.455-3.615v-5.508l-33.394-31.915c-5.754-5.5-14.337-6.174-20.805-2.172.988.614 1.93 1.335 2.805 2.172z"/><path d="m206.91 284.356v-56.679l49.09-28.34-6.5-3.753c-1.547-.893-3.453-.893-5 0l-53.09 30.649c-1.547.893-2.5 2.544-2.5 4.33v50.906c0 1.786.953 3.437 2.5 4.33l53.085 30.65c1.547.893 3.453.893 5 0l6.5-3.753z"/><path d="m255.108 25.109.753 57.491c.055 4.233 5.018 6.486 8.241 3.741l9.005-7.668.001-53.564c0-9.449-7.659-17.109-17.108-17.109-3.306 0-6.383.954-9 2.578 4.861 3.018 8.108 8.389 8.108 14.531z"/><path d="m114.035 100.52 18.782 74.432c.334 1.324 1.195 2.453 2.383 3.127l42.515 24.098c1.542.874 3.431.866 4.965-.02l6.44-3.718-37.78-21.414-19.305-76.504c-2.311-9.16-11.604-14.71-20.774-12.403-1.751.442-3.367 1.142-4.824 2.045 3.65 2.254 6.465 5.867 7.598 10.357z"/><path d="m312.692 47.302c6.528 6.831 6.284 17.661-.548 24.188l-55.494 53.038c-.987.943-1.545 2.249-1.545 3.615l-.001 28.464c0 1.802.97 3.465 2.538 4.352l15.461 8.746.001-43.699 57.04-54.515c6.832-6.528 7.076-17.357.548-24.188-5.693-5.957-14.655-6.901-21.384-2.719 1.211.747 2.355 1.641 3.384 2.718z"/><path d="m377.528 305.213-38.23-21.665v-55.096l38.23-21.665-9.708-2.923c-1.307-.394-2.719-.235-3.906.438l-40.08 22.714c-1.567.888-2.535 2.549-2.535 4.35v49.269c0 1.801.968 3.462 2.535 4.35l40.08 22.713c1.188.673 2.599.831 3.906.438z"/><path d="m395.142 108.892-11.445 45.351c-1.077 4.267 3.485 7.743 7.313 5.574l10.829-6.137 11.304-44.788c2.311-9.162-3.241-18.463-12.404-20.775-4.671-1.177-9.374-.302-13.174 2.046 6.169 3.82 9.446 11.318 7.577 18.729z"/><path d="m273.105 385.995-.001-43.666-15.737 10.295c-1.412.924-2.263 2.497-2.263 4.184l.001 27.049c0 1.365.558 2.671 1.545 3.615l55.494 53.037c6.832 6.528 7.076 17.358.548 24.189-1.028 1.076-2.172 1.968-3.381 2.716 2.757 1.712 5.884 2.572 9.011 2.572 4.508 0 9.009-1.771 12.37-5.288 6.528-6.831 6.284-17.661-.548-24.189z"/><path d="m401.84 358.322-10.829-6.137c-3.828-2.169-8.39 1.307-7.313 5.574l11.444 45.35c1.869 7.411-1.409 14.909-7.579 18.73 2.657 1.642 5.753 2.569 8.977 2.569 1.387 0 2.795-.17 4.199-.524 9.162-2.312 14.714-11.613 12.404-20.775z"/><path d="m263.561 424.221c-3.181-3.04-8.455-.785-8.455 3.615l.001 59.055c0 6.143-3.247 11.513-8.108 14.531 2.617 1.625 5.693 2.578 9 2.578 9.45 0 17.109-7.66 17.109-17.109l-.001-53.547z"/><path d="m418.349 328.64c-4.376 1.099-5.173 6.975-1.247 9.199l30.208 17.119c8.22 4.659 11.107 15.099 6.449 23.32-1.473 2.599-3.528 4.657-5.903 6.12l.583.33c2.665 1.51 5.562 2.227 8.421 2.227 5.96 0 11.75-3.12 14.9-8.677 4.658-8.22 1.771-18.661-6.449-23.32l-46.601-26.409z"/><path d="m132.014 346.323c-1.155.678-1.989 1.79-2.317 3.088l-15.662 62.069c-1.132 4.489-3.949 8.102-7.599 10.358 1.458.903 3.074 1.603 4.825 2.045 1.406.354 2.813.524 4.199.524 7.65 0 14.619-5.17 16.576-12.927l19.305-76.504z"/><path d="m238.89 427.822c0-4.4-5.274-6.655-8.455-3.615l-42.939 41.039c-.875.836-1.816 1.557-2.805 2.171 6.469 4.001 15.053 3.327 20.805-2.171l33.394-31.916z"/></g></g><path d="m255.999 512c-13.596 0-24.657-11.061-24.657-24.656l-.001-36.09-20.753 19.834c-9.828 9.393-25.467 9.04-34.861-.789-9.394-9.831-9.04-25.47.79-34.862l14.263-13.632c3.001-2.867 7.758-2.76 10.625.241 2.867 3 2.76 7.756-.24 10.624l-14.263 13.632c-3.838 3.667-3.977 9.774-.308 13.613 3.668 3.838 9.774 3.978 13.611.308l33.459-31.978c4.261-4.332 12.713-1.247 12.707 5.432l.002 53.666c0 5.308 4.318 9.626 9.627 9.626s9.628-4.319 9.628-9.628l-.002-53.668c-.188-6.072 7.882-10.053 12.707-5.432l33.462 31.981c3.28 3.268 9.897 3.735 13.612-.309 3.668-3.838 3.529-9.944-.308-13.612l-57.152-54.62c-1.483-1.418-2.322-3.381-2.322-5.432l-.001-43.752c0-2.685 1.432-5.165 3.757-6.508l49.887-28.802c2.308-1.332 5.147-1.34 7.462-.03l37.842 21.445c1.785 1.012 3.079 2.71 3.581 4.7l19.34 76.645c3.939 12.665 21.264 7.145 18.67-4.712l-11.324-44.874c-1.668-5.841 5.182-11.674 10.991-8.377l46.69 26.459c3.874 2.424 10.6 1.097 13.123-3.63 2.617-4.618.989-10.505-3.629-13.121l-46.692-26.461c-5.376-2.83-4.859-11.815 1.539-13.734l44.322-13.342c5.083-1.53 7.974-6.911 6.443-11.994-1.321-4.682-6.712-7.973-11.993-6.444l-75.701 22.79c-1.966.591-4.086.352-5.871-.658l-38.305-21.707c-2.354-1.335-3.81-3.832-3.81-6.538v-55.204c0-2.706 1.456-5.203 3.81-6.538l38.306-21.708c1.786-1.01 3.908-1.247 5.871-.658l27.468 8.269c3.974 1.197 6.226 5.387 5.029 9.362-1.197 3.974-5.389 6.224-9.362 5.029l-24.391-7.343-31.701 17.965v46.447l31.7 17.964 72.623-21.864c12.224-4.005 27.171 3.597 30.718 16.502 3.92 13.018-3.482 26.798-16.501 30.719l-27.491 8.276 31.399 17.794c11.828 6.702 15.998 21.779 9.295 33.608-6.264 11.418-21.942 16.132-33.609 9.296l-31.398-17.794 7.023 27.833c3.325 13.184-4.694 26.615-17.876 29.94-12.773 3.454-26.852-4.887-29.939-17.874l-18.554-73.53-31.308-17.742-42.408 24.483.002 36.201 54.828 52.401c9.829 9.392 10.183 25.031.79 34.861-8.715 9.483-25.355 10.277-34.861.791l-20.756-19.837.001 36.091c.002 13.594-11.059 24.656-24.655 24.656zm-140.815-79.749c-2.027 0-4.061-.254-6.044-.754-12.624-2.891-21.405-16.982-17.876-29.94l7.024-27.837-31.398 17.797c-11.002 6.612-27.338 2.456-33.609-9.293-6.609-11.039-2.508-27.295 9.294-33.609l31.397-17.796-27.488-8.275c-13.018-3.92-20.421-17.7-16.502-30.717 3.919-13.016 17.699-20.419 30.716-16.505l72.618 21.862 31.699-17.966v-46.438l-31.699-17.966-72.616 21.862c-12.377 4.052-27.114-3.773-30.718-16.503-3.918-13.019 3.485-26.798 16.502-30.718l27.489-8.275-31.398-17.796c-28.668-18.479-3.216-57.706 24.316-42.9l31.397 17.796-7.024-27.837c-3.445-12.395 4.821-26.982 17.875-29.94 13.19-3.317 26.616 4.701 29.94 17.876l3.402 13.483c1.016 4.024-1.424 8.109-5.448 9.125-4.029 1.014-8.11-1.425-9.125-5.448l-3.403-13.484c-1.297-5.144-6.543-8.278-11.694-6.978-4.734 1.105-8.26 6.348-6.975 11.689l11.325 44.881c1.669 5.841-5.184 11.676-10.992 8.376l-46.69-26.464c-11.398-5.893-20.145 10.226-9.494 16.751l46.689 26.464c5.376 2.83 4.858 11.814-1.539 13.733l-44.318 13.342c-5.083 1.53-7.974 6.911-6.444 11.995 1.632 4.714 6.481 8.045 11.998 6.442l75.688-22.787c1.964-.592 4.086-.353 5.872.658l38.303 21.709c2.354 1.334 3.809 3.831 3.809 6.537v55.196c0 2.706-1.455 5.204-3.809 6.537l-38.303 21.709c-1.785 1.013-3.907 1.25-5.872.659l-75.692-22.788c-5.081-1.527-10.464 1.361-11.994 6.444s1.361 10.464 6.444 11.994l44.318 13.341c5.868 1.569 7.353 10.445 1.539 13.733l-46.688 26.463c-10.863 6.686-1.625 22.583 9.492 16.751l46.692-26.464c2.618-1.481 5.868-1.262 8.26.562 2.393 1.823 3.468 4.898 2.731 7.815l-11.325 44.88c-2.574 12.817 15.218 16.546 18.669 4.711l19.342-76.654c.502-1.989 1.796-3.687 3.581-4.699l37.827-21.439c2.318-1.313 5.156-1.302 7.463.029l49.892 28.806c2.325 1.342 3.757 3.823 3.757 6.508l.001 43.757c0 2.052-.839 4.015-2.323 5.432l-21.148 20.214c-3 2.868-7.757 2.76-10.624-.241-2.867-3-2.76-7.757.241-10.624l18.826-17.992-.001-36.206-42.412-24.487-31.292 17.736-18.557 73.538c-2.767 10.967-12.592 18.627-23.894 18.627zm140.81-111.929c-1.298 0-2.595-.336-3.757-1.007l-49.181-28.395c-2.325-1.342-3.757-3.823-3.757-6.508v-56.791c0-2.685 1.433-5.165 3.757-6.508l49.181-28.395c2.325-1.342 5.19-1.342 7.515 0l49.183 28.395c2.325 1.342 3.757 3.823 3.757 6.508v56.791c0 2.685-1.432 5.165-3.757 6.508l-49.183 28.395c-1.163.671-2.46 1.007-3.758 1.007zm-41.666-40.249 41.666 24.057 41.668-24.057v-48.113l-41.668-24.057-41.666 24.057zm90.849 4.339h.01zm153.237-46.686c-2.403 0-4.796-.353-7.112-1.049l-19.452-5.856c-3.974-1.197-6.226-5.388-5.029-9.362 1.196-3.975 5.388-6.224 9.362-5.029l19.449 5.855c4.172 1.551 10.777-1.435 11.994-6.444 1.531-5.083-1.36-10.464-6.443-11.994l-44.322-13.342c-2.881-.867-4.967-3.369-5.301-6.359-.335-2.989 1.145-5.891 3.763-7.375l46.692-26.461c4.618-2.616 6.246-8.503 3.629-13.122-2.616-4.617-8.504-6.245-13.124-3.629l-46.688 26.46c-5.189 3.157-12.632-1.902-10.991-8.377l11.324-44.876c1.298-5.147-1.833-10.391-6.98-11.69-5.145-1.298-10.392 1.833-11.691 6.979l-19.34 76.645c-.502 1.989-1.796 3.688-3.581 4.7l-37.87 21.462c-2.316 1.312-5.155 1.301-7.462-.03l-49.86-28.786c-2.325-1.342-3.757-3.823-3.757-6.508l.001-43.786c0-2.052.839-4.015 2.322-5.433l57.151-54.621c8.939-9.211-3.992-22.239-13.302-13.92l-33.464 31.981c-4.259 4.332-12.713 1.247-12.707-5.433l.002-53.668c0-5.309-4.319-9.628-9.628-9.628s-9.627 4.318-9.627 9.626l-.002 53.667c.188 6.072-7.881 10.053-12.707 5.433l-33.459-31.978c-3.259-3.258-9.915-3.739-13.612.308-3.254 3.254-3.739 9.915.308 13.61l57.145 54.616c1.483 1.418 2.322 3.381 2.322 5.432l-.001 43.792c0 2.685-1.432 5.165-3.757 6.508l-49.864 28.789c-2.307 1.333-5.145 1.343-7.463.029l-37.854-21.456c-1.785-1.012-3.079-2.709-3.581-4.699l-8.585-34.021c-1.016-4.024 1.423-8.11 5.448-9.125 4.024-1.017 8.109 1.424 9.125 5.448l7.799 30.907 31.32 17.751 42.383-24.47.001-36.241-54.822-52.395c-9.536-8.7-10.257-25.371-.79-34.86 8.706-9.531 25.373-10.275 34.862-.788l20.752 19.833.001-36.091c.002-13.594 11.062-24.655 24.658-24.655s24.657 11.062 24.657 24.657l-.001 36.091 20.755-19.836c9.116-9.126 25.812-9.102 34.861.788 9.131 9.127 9.101 25.811-.79 34.862l-54.828 52.401-.002 36.234 42.38 24.467 31.336-17.758 18.554-73.529c3.327-13.179 16.757-21.194 29.938-17.875 13.183 3.326 21.202 16.756 17.878 29.939l-7.024 27.834 31.398-17.794c11.829-6.702 26.906-2.531 33.609 9.296 6.703 11.829 2.533 26.905-9.295 33.608l-31.399 17.794 27.49 8.276c13.019 3.921 20.421 17.702 16.501 30.719-3.112 10.334-12.818 17.552-23.603 17.552z"/></g></svg>