<svg id="Layer_1" height="512" viewBox="0 0 331.2358 255.1734" width="512" xmlns="http://www.w3.org/2000/svg"><g><path d="m218.8866 124.5165-.5488 4.8766-4.8025 42.675-14.1348 1.5145c-4.5352.4858-8.4238 3.4502-10.0938 7.6938l-22.2939 56.6421c-2.4785 6.2954.6162 13.4072 6.9121 15.8853 1.4727.5796 2.9902.8545 4.4834.8545 4.8857-.0005 9.5039-2.9448 11.4014-7.7671l.0085-.0215c-1.0149-3.29-.8951-6.7996.3854-10.0502l22.293-56.6416c2.0869-5.3013 6.9014-8.9712 12.5664-9.5781l12.6199-1.3522.4971 2.9639-12.7979 1.3713c-4.5352.4858-8.4238 3.4502-10.0938 7.6938l-22.2939 56.6421c-2.4785 6.2954.6162 13.4072 6.9121 15.8853 1.4727.5796 2.9902.8545 4.4834.8545 4.8857-.0005 9.5039-2.9448 11.4014-7.7671l19.5771-49.7388 20.3662-2.1821c3.5926-.3849 6.644-2.2943 8.6085-5.0069 1.14-1.1829 1.9191-2.7311 2.117-4.4894l1.3786-12.2502c-.1093.0032-.2166.0146-.3266.0146-.5693 0-1.1445-.0449-1.71-.1333-2.9043-.4541-5.4561-2.0117-7.1875-4.3857s-2.4346-5.2803-1.9795-8.1831c1.7803-11.3798 8.5535-20.0982 15.5916-26.3051l.3669-3.2598c-2.1305-.9763-3.8101-1.7034-5.0738-2.2153l1.7914-2.5088c2.9161 1.2121 6.9564 3.0884 11.3414 5.2304-8.8525 6.0581-18.9033 15.7793-21.0537 29.5229-.6836 4.3647 2.3008 8.4575 6.666 9.1406.4189.0654.8359.0972 1.2471.0972 3.873 0 7.2764-2.8179 7.8936-6.7642 2.0576-13.1411 18.9424-22.3228 25.2568-24.7451 2.9404-1.1113 4.957-3.8428 5.1553-6.98.1973-3.1377-1.4609-6.1001-4.2393-7.5723-3.9833-2.1104-14.2995-7.4957-22.7637-11.2388-4.0735-1.8015-7.7202-3.2244-10.0215-3.7153-.2014-.0429-.4021-.0699-.6028-.097-.2932-.0684-.5913-.1251-.8978-.1595l-38.3925-4.3206c-.4472-.0504-.8879-.0532-1.3224-.0278-.2715-.0094-.5461-.0053-.8229.0134-8.9902.605-25.416 11.436-33.9541 17.4888l-39.9082-.3877c-.0273 0-.0527 0-.0801 0-4.2929 0-7.8023 3.3933-7.9824 7.6608h65.8723c2.9126-1.8445 5.7022-3.505 8.1843-4.8768z"/><path d="m281.2314 156.9384c-1.437 2.1738-2.4734 4.517-2.8621 6.9996-.6589 4.2133-3.5986 7.5136-7.4519 8.7573l-1.1362 10.0973h3.1052c2.3037 0 4.1729 1.8672 4.1729 4.1719v20.8652c0 2.3047-1.8691 4.1739-4.1729 4.1739h-40.1392l-1.6054 4.0789h50.0897v-59.1441z"/><path d="m140.4448 158.28c.7126 5.7136-1.8682 11.2429-6.334 14.4874.6588.6495 1.3038 1.311 1.9171 1.9979 2.1694 2.4117 4.1039 5.1004 5.8188 8.0273h17.5731c2.3036 0 4.1728 1.8672 4.1728 4.1719v20.8652c0 2.3047-1.8691 4.1739-4.1728 4.1739h-8.782c.1391 1.3374.2593 2.6935.351 4.0789h21.395l1.6053-4.0789h-2.2999c-2.3047 0-4.1738-1.8692-4.1738-4.1739v-20.8652c0-2.3047 1.8691-4.1719 4.1738-4.1719h13.7968l1.0291-2.6148c2.0869-5.3013 6.9014-8.9712 12.5664-9.5781l11.7415-1.2581 4.1581-36.9486h-98.1227l3.567 12.7656 2.7178-.3392c8.4803-1.0575 16.2416 4.9819 17.3016 13.4606z"/><path d="m119.8795 216.0825c-.1343-1.4734-.2996-2.83-.4874-4.0789h-61.1696c-2.3047 0-4.1738-1.8692-4.1738-4.1739v-20.8652c0-2.3022 1.8654-4.1672 4.1666-4.1712-1.6619-1.8679-2.7685-3.5507-3.4001-4.6313-1.0902-1.8229-1.9595-3.733-2.5654-5.5709-.0616-.1769-.1175-.3555-.1728-.535-.0398-.1317-.0917-.267-.1285-.3977-.0483-.1721-.0847-.3494-.1272-.5242-.0287-.1185-.0602-.2357-.0862-.3552-.0972-.446-.1771-.8965-.2353-1.3505-.0021-.0164-.0064-.0322-.0085-.0486-.0073-.0582-.007-.1159-.0136-.1741-.0412-.3624-.0694-.7238-.0848-1.0846-.0047-.1125-.0071-.2245-.0093-.3368-.0028-.1403-.0129-.282-.0117-.4214.0009-.1694.0107-.3531.0254-.5427.0656-1.4988.3442-2.9624.8224-4.3501-.7702-.1893-1.5145-.4559-2.2201-.8016v54.4136h69.8799z"/><path d="m35.6229 242.9002v5.0963h12.5957v-5.0488h-11.6527c-.3155 0-.6293-.0249-.943-.0475z"/><path d="m283.015 242.9477v5.0488h12.5957v-5.0964c-.3146.0227-.6292.0476-.9456.0476z"/><path d="m164.222 236.8194 6.9809-17.7369h-20.0554c.2615 6.4265.0345 13.3643-.6718 20.8652h12.8897c.1751-1.0583.4542-2.1065.8566-3.1283z"/><path d="m119.3137 239.9477c.9487-8.4794 1.0876-15.3608.7852-20.8652h-73.0989v-59.572c-1.4158-1.4312-2.4631-3.2582-2.9233-5.366-1.554-7.1187-2.3809-13.3141-2.6766-18.7111-4.3104-5.0652-10.7278-8.2822-17.9001-8.2822-12.979 0-23.5 10.5214-23.5 23.5s10.521 23.5 23.5 23.5c.8911 0 1.769-.0542 2.6348-.1508l-.002 55.5137c0 2.75 1.1133 5.4355 3.0566 7.3789 1.9434 1.9414 4.6309 3.0547 7.377 3.0547z"/><path d="m308.0377 127.1588c.5981 1.49.8784 3.1171.774 4.7782-.2725 4.3066-3.0547 8.0737-7.0889 9.5981-3.6002 1.3815-11.793 5.5968-17.4909 11.6484v65.8989h-54.2709l-8.2123 20.8652h72.9169c2.7461 0 5.4355-1.1133 7.375-3.0547 1.9434-1.9434 3.0547-4.6328 3.0547-7.3789v-55.5144c.8672.0969 1.7476.1515 2.6406.1515 12.9785 0 23.5-10.5214 23.5-23.5-.0001-12.8773-10.3594-23.3299-23.1982-23.4923z"/><path d="m145.0583 198.2457c-2.4892-8.9554-6.4485-16.1251-11.2674-21.483-.7771-.8697-1.5767-1.6693-2.3854-2.4347-.6931.3127-1.4083.5892-2.1575.7986-.7336.205-1.494.3576-2.2619.4545l-58.1951 7.2599c-2.457.3069-4.8938.0184-7.158-.7974 2.6002 2.5903 6.0959 5.0983 10.5867 6.7561 3.0535 1.1443 6.4268 1.8586 10.0986 2.1102.0617.0031.1245.0098.1875.0105 5.4792.3509 11.6241-.3339 18.4082-2.2296.049-.0136.0959-.0268.1448-.0405.6471-.1808 1.3061-.3771 1.972-.5814 1.3169-.0009 4.1757.1859 6.8741 1.4639 1.8632.8584 3.7448 2.1091 5.6592 4.3626 1.8972 2.2644 3.8878 5.6363 5.4164 11.078 2.1364 7.5878 3.2072 19.2616 1.213 36.2491-.8019 6.8554 4.1077 13.064 10.965 13.8654 1.6644.194 3.2916.0516 4.8105-.3728 4.7422-1.3251 8.4482-5.4005 9.0555-10.5934 2.2384-19.2599 1.3125-34.0951-1.9662-45.876z"/><path d="m54.4676 169.0093c.8532 6.8492 7.1009 11.7105 13.9515 10.8549l58.192-7.2601c.6269-.0788 1.2384-.202 1.83-.3673 5.8615-1.6378 9.8027-7.3608 9.0269-13.5847-.8566-6.8503-7.1029-11.71-13.954-10.8562l-58.1915 7.2618c-6.8512.8539-11.7106 7.101-10.8549 13.9516z"/><path d="m84.0488 104.3245c-7.3629 2.0573-14.8924.5491-20.7454-3.48l-6.0425 1.6884c-.2838.0793-.5577.1767-.8246.2846-.77.2094-1.5218.537-2.2285.9916-2.6428 1.6987-15.4119 12.0785-7.2001 49.6953.7185 3.2908 3.3687 5.6566 6.4998 6.1804 1.9764-3.3907 5.2003-6.0383 9.175-7.1489.7393-.2066 1.5027-.3591 2.27-.4548l52.463-6.5469-9.8768-35.3475.6899.0677 33.6481 3.3021c.2607.0264.5215.0391.7812.0391 1.6123 0 3.1934-.4883 4.5322-1.4082l36.9912-25.4312c3.6406-2.5029 4.5635-7.4834 2.0605-11.1245-2.5039-3.6416-7.4844-4.5625-11.125-2.0601l-34.5838 23.7764-39.207-3.8481c-1.0693-.1028-2.1093.0128-3.079.3047-3.1706 4.9572-8.0981 8.8153-14.1982 10.5199z"/><path d="m83.4298 102.1096c11.9692-3.3445 18.9591-15.7567 15.6149-27.725-3.3442-11.9684-15.7557-18.9594-27.725-15.6149-11.9674 3.3439-18.9591 15.7567-15.6149 27.725s15.7577 18.9589 27.725 15.6149zm-13.3259-13.2144c-.9942-3.9268 5.498-1.3897 12.2793-3.1045 6.7832-1.7149 11.2871-7.0323 12.2812-3.1065.9922 3.9268-3.7012 8.5-10.4824 10.2158-6.7831 1.7149-13.0859-.0781-14.0781-4.0048z"/><path d="m251.1507 57.9893c-12.4257 0-22.5 10.0732-22.5 22.5 0 12.4267 10.0743 22.5 22.5 22.5 12.4278 0 22.5-10.0733 22.5-22.5s-10.0722-22.5-22.5-22.5zm9.2509 32.1192c-1.1821 3.8738-7.5644 5.3599-14.2554 3.3206-6.6923-2.0411-11.1588-6.8358-9.9767-10.7097 1.1804-3.8749 5.4242 1.6547 12.1147 3.6949 6.6922 2.0412 13.2973-.1798 12.1174 3.6942z"/><path d="m99.7777 6.8257v33.0613c0 3.7697 3.056 6.8257 6.8257 6.8257h18.3774l-16.7811 21.3578 28.6805-21.3578h39.3011c3.7698 0 6.8257-3.056 6.8257-6.8257v-33.0613c0-3.7697-3.0559-6.8257-6.8257-6.8257h-69.5779c-3.7697 0-6.8257 3.056-6.8257 6.8257zm60.7706 11.9068c2.5536 0 4.6238 2.0702 4.6238 4.6239 0 2.5536-2.0702 4.6238-4.6238 4.6238-2.5537 0-4.6238-2.0702-4.6238-4.6238 0-2.5537 2.0701-4.6239 4.6238-4.6239zm-19.1559 0c2.5536 0 4.6238 2.0702 4.6238 4.6239 0 2.5536-2.0702 4.6238-4.6238 4.6238-2.5537 0-4.6239-2.0702-4.6239-4.6238 0-2.5537 2.0702-4.6239 4.6239-4.6239zm-19.156 0c2.5537 0 4.6238 2.0702 4.6238 4.6239 0 2.5536-2.0701 4.6238-4.6238 4.6238-2.5536 0-4.6238-2.0702-4.6238-4.6238-.0001-2.5537 2.0701-4.6239 4.6238-4.6239z"/></g></svg>