<svg id="Layer_1" height="512" viewBox="0 0 64 64" width="512" xmlns="http://www.w3.org/2000/svg" data-name="Layer 1"><path d="m23.947 17h4.053v-4.053a9.014 9.014 0 0 0 -4.053 4.053z"/><path d="m36 23h4.769a8.774 8.774 0 0 0 0-4h-4.769z"/><path d="m36 12.947v4.053h4.053a9.014 9.014 0 0 0 -4.053-4.053z"/><path d="m30 19h4v4h-4z"/><path d="m40.053 25h-4.053v4.053a9.014 9.014 0 0 0 4.053-4.053z"/><path d="m30 29.769a8.774 8.774 0 0 0 4 0v-4.769h-4z"/><path d="m23 21a8.971 8.971 0 0 0 .231 2h4.769v-4h-4.769a8.971 8.971 0 0 0 -.231 2z"/><path d="m28 29.053v-4.053h-4.053a9.014 9.014 0 0 0 4.053 4.053z"/><path d="m33 2h-2v10.06a9.154 9.154 0 0 0 -1 .171v4.769h4v-4.769a9.154 9.154 0 0 0 -1-.171z"/><path d="m44 13h2a5.006 5.006 0 0 1 5-5v-2a7.009 7.009 0 0 0 -7 7z"/><path d="m18 13h2a7.009 7.009 0 0 0 -7-7v2a5.006 5.006 0 0 1 5 5z"/><path d="m58 2h2v2h-2z"/><path d="m58 6h2v2h-2z"/><path d="m60 4h2v2h-2z"/><path d="m56 4h2v2h-2z"/><path d="m4 2h2v2h-2z"/><path d="m4 6h2v2h-2z"/><path d="m6 4h2v2h-2z"/><path d="m2 4h2v2h-2z"/><path d="m51.082 24.941c2.9-1.488 5.436-2.784 8.275-1.41a.1.1 0 0 0 .125-.125c-1.374-2.84-.077-5.379 1.41-8.276a.088.088 0 0 0 -.12-.119c-2.9 1.487-5.435 2.783-8.275 1.41a.094.094 0 0 0 -.125.124c1.374 2.84.078 5.379-1.41 8.276a.089.089 0 0 0 .12.12z"/><path d="m5.13 15.011a.088.088 0 0 0 -.119.119c1.487 2.9 2.783 5.436 1.41 8.276a.094.094 0 0 0 .124.125c2.84-1.374 5.379-.078 8.276 1.41a.089.089 0 0 0 .12-.12c-1.488-2.9-2.784-5.436-1.41-8.276a.094.094 0 0 0 -.125-.124c-2.84 1.373-5.379.079-8.276-1.41z"/><path d="m50 36h-5l-7-2v3l6 3v8h1l-2 14h4l2-10h2l2 10h4l-2-14h1v-8l6-3v-3l-7 2z"/><circle cx="50" cy="32" r="4"/><path d="m14 36h-5l-7-2v3l6 3v8h1l-2 14h4l2-10h2l2 10h4l-2-14h1v-8l6-3v-3l-7 2z"/><circle cx="14" cy="32" r="4"/></svg>