<svg id="Capa_1" enable-background="new 0 0 506.219 506.219" height="512" viewBox="0 0 506.219 506.219" width="512" xmlns="http://www.w3.org/2000/svg"><g><g><path d="m155.06 41.752c12.51-9.099 27.207-16.959 43.146-23.066 1.527-.585 2.191-2.359 1.436-3.811-.124-.238-.248-.47-.374-.696-7.365-13.276-24.143-18.091-37.405-10.735-6.439 3.565-11.098 9.423-13.124 16.498-2.025 7.071-1.175 14.506 2.391 20.935.005.009.01.018.015.027.776 1.396 2.625 1.786 3.915.848z"/><path d="m191.187 118.214c1.537.383 3.082.768 4.631 1.159 4.025 1.016 6.974-3.72 4.299-6.895-7.585-9.001-13.875-17.939-18.88-25.851-1.172-1.852-3.544-2.52-5.51-1.553-5.422 2.666-10.718 5.617-15.865 8.853-1.931 1.214-4.537.909-5.934-.894-1.601-2.066-1.045-5.006 1.112-6.365 29.327-18.486 63.237-28.258 98.064-28.258 34.788 0 68.653 9.739 97.947 28.166 1.983 1.248 2.772 3.861 1.625 5.905-.807 1.438-2.289 2.229-3.805 2.229-.794 0-1.597-.217-2.319-.672-5.378-3.39-10.919-6.468-16.596-9.233-1.993-.971-4.389-.273-5.542 1.62-4.871 7.995-11.056 17.035-18.624 26.146-2.642 3.18.312 7.883 4.32 6.869 1.638-.414 3.272-.821 4.897-1.226 8.755-2.18 17.808-4.434 26.316-7.532 8.285-3.01 15.271-6.535 21.36-10.777 6.116-4.25 9.725-9.411 10.441-14.927.729-5.616-1.511-11.667-6.477-17.5-4.231-4.963-9.308-9.831-15.09-14.468-14.406-11.589-33.347-21.747-53.34-28.607-15.529-5.338-31.089-8.519-45.009-9.202h-.23c-13.821.65-29.381 3.831-45.002 9.201-19.984 6.867-38.915 17.025-53.308 28.604-5.714 4.554-10.788 9.42-15.097 14.474-4.972 5.841-7.216 11.9-6.487 17.52.715 5.509 4.318 10.663 10.42 14.902 6.109 4.239 13.099 7.766 21.366 10.781 8.508 3.096 17.561 5.351 26.317 7.531z"/><path d="m355.089 40.88c3.565-6.427 4.411-13.861 2.382-20.936-2.029-7.074-6.686-12.934-13.113-16.499-13.278-7.352-30.072-2.538-37.433 10.733-.125.226-.25.457-.373.695-.755 1.451-.091 3.226 1.437 3.811 16.936 6.481 32.473 14.946 45.486 24.784.602-.882 1.148-1.748 1.614-2.588z"/><path d="m190.109 84.32c9.829 15.155 24.271 33.651 43.425 48.636.099.078.203.151.309.219 6.463 4.139 11.675 9.558 15.56 16.144 1.669 2.83 5.716 2.828 7.385-.003 3.866-6.558 9.053-11.959 15.484-16.092.104-.067.206-.139.304-.215 19.38-15.157 33.561-33.752 43.05-48.943 1.435-2.298.392-5.34-2.152-6.271-19.209-7.03-39.616-10.672-60.371-10.672-20.94 0-41.531 3.709-60.894 10.87-2.563.947-3.587 4.034-2.1 6.327z"/><path d="m152.486 275.382c.39-.668.593-1.443.584-2.216-.263-22.312.471-34.433.503-34.955.149-2.401 2.212-4.225 4.617-4.077 2.401.149 4.226 2.216 4.078 4.617-.008.13-.798 13.219-.457 36.691.263 18.508 1.294 46.085 4.424 80.894.346 3.851 5.232 5.29 7.614 2.245l20.364-26.031c1.03-1.316 2.747-1.964 4.359-1.523 3.319.907 4.303 4.59 2.451 6.957l-31.421 40.166c-.686.877-1.004 1.982-.883 3.089 3.845 35.16 9.746 76.152 18.763 121.539.397 1.997 2.155 3.442 4.191 3.442h32.389c2.079 0 3.855-1.497 4.207-3.546l20.56-119.687c.234-1.363 1.098-2.568 2.362-3.131 2.85-1.269 5.748.494 6.212 3.199l20.548 119.619c.352 2.049 2.129 3.546 4.207 3.546h32.359c2.037 0 3.794-1.445 4.191-3.442 9.014-45.399 14.915-86.395 18.76-121.557.121-1.107-.197-2.211-.882-3.088l-31.433-40.216c-1.029-1.316-1.243-3.139-.428-4.596 1.68-3.004 5.491-3.071 7.343-.703l20.269 25.932c2.382 3.047 7.269 1.609 7.615-2.243 3.132-34.827 4.163-62.411 4.427-80.921.341-23.445-.449-36.505-.457-36.634-.149-2.401 1.676-4.468 4.077-4.618 2.404-.15 4.468 1.675 4.618 4.076.032.521.766 12.626.503 34.904-.009.772.186 1.533.574 2.2 11.529 19.801 30.578 51.464 44.198 68.735 1.343 1.704 3.753 2.117 5.596.973l19.158-11.887c1.661-1.03 2.409-3.055 1.818-4.918-1.961-6.186-3.948-12.527-6.02-19.14-18.283-58.349-40.898-130.481-75.677-186.24-1.021-1.637-3.028-2.384-4.868-1.804-6.916 2.179-13.943 3.93-20.791 5.635-11.487 2.86-23.365 5.818-34.336 10.752-1.879.844-3.617 1.784-5.236 2.798-.119.074-.23.152-.342.237-1.412 1.076-2.896 2.192-4.43 3.286-.124.088-.246.184-.361.284-10.602 9.284-14.065 22.462-14.924 33.051-.01.125-.015.248-.015.373v115.228c0 1.671-.954 3.239-2.494 3.885-3.173 1.331-6.217-.963-6.217-3.969v-115.138c0-.127-.005-.253-.015-.38-.874-10.558-4.334-23.687-14.853-32.963-.124-.109-.254-.211-.389-.307-1.382-.983-2.852-2.073-4.583-3.399-.122-.094-.251-.184-.382-.265-1.585-.984-3.283-1.898-5.115-2.721-10.972-4.935-22.85-7.893-34.337-10.753-6.848-1.705-13.874-3.455-20.791-5.635-1.84-.58-3.847.167-4.868 1.804-34.749 55.714-57.339 127.788-75.603 186.09-2.088 6.666-4.091 13.058-6.067 19.292-.59 1.862.157 3.886 1.817 4.917l19.127 11.879c1.845 1.146 4.256.732 5.6-.975 10.394-13.201 25.777-37.082 44.192-68.657z"/></g></g></svg>