<svg id="Layer_1" enable-background="new 0 0 512 512" height="512" viewBox="0 0 512 512" width="512" xmlns="http://www.w3.org/2000/svg"><path clip-rule="evenodd" d="m415.995 480.001v-127.996-95.997l-32.062-63.998v287.991c0 17.655-14.312 31.968-31.936 31.968h-192.041c-17.656 0-31.968-14.312-31.968-31.968v-287.991l-32.046 63.998v95.997 127.996h-63.935v-287.991l63.935-128.028c0-17.656 32.046-31.968 32.046-31.968l63.998-31.968c0 17.656 28.64 31.968 64.014 31.968 35.312 0 63.935-14.312 63.935-31.968l63.998 31.968s32.062 14.312 32.062 31.968l63.998 128.027v287.991h-63.998z" fill-rule="evenodd"/></svg>