<?xml version="1.0" encoding="UTF-8" standalone="no"?>
<svg version="1.1" width="1024" height="1024" id="svg7" xmlns="http://www.w3.org/2000/svg">
  <defs
     id="defs7" />
  <path
     id="path2"
     d="M -0.00049972534 -0.00057220459 C -26.223798 -0.016006119 -52.483913 0.18239107 -78.660656 1.8978653 L -82.648937 2.1888809 C -140.03956 6.3328167 -223.31232 7.9703687 -268.03566 49.399818 C -276.31949 58.127715 -279.23436 65.620229 -279.02003 77.673256 C -278.26356 84.839768 -275.35716 92.15947 -269.65284 96.81974 C -267.46079 98.512775 -267.46074 98.511712 -265.39503 100.64005 C -262.37226 107.85244 -262.37251 107.85323 -262.61769 115.90372 C -262.6387 117.35798 -262.64461 118.81262 -262.63722 120.26701 C -262.59916 124.24009 -262.58969 128.21179 -262.61769 132.18497 C -262.64787 136.40198 -262.64485 140.61831 -262.62745 144.83537 C -262.59274 152.8019 -262.59079 160.76725 -262.61769 168.7338 C -262.64858 177.87208 -262.64467 187.00953 -262.6255 196.14787 C -262.58193 215.82812 -262.59262 235.50866 -262.64894 255.18888 C -264.32943 255.81988 -265.99528 256.49058 -267.64894 257.18888 C -272.31907 261.33485 -275.88534 266.17195 -277.64894 272.18888 C -279.08487 280.58465 -276.26914 287.23269 -271.64894 294.18888 C -270.27964 295.40321 -268.92274 296.63261 -267.57472 297.87052 C -262.48284 306.69485 -262.48347 306.69488 -262.69581 317.10685 C -262.7266 318.69445 -262.74245 320.28067 -262.74464 321.86857 C -262.73265 326.20705 -262.74873 330.54403 -262.80323 334.88224 C -262.86155 339.48642 -262.88657 344.09023 -262.89698 348.69474 C -262.9148 357.39356 -262.96558 366.09198 -263.04542 374.79044 C -263.13704 384.76813 -263.19366 394.74602 -263.23487 404.72404 C -263.32134 426.21269 -263.4619 447.70088 -263.64894 469.18888 C -266.70244 470.71565 -269.12939 472.77488 -271.67237 475.04044 C -276.18101 479.94113 -277.83711 485.81425 -278.08644 492.37638 C -277.62905 501.27453 -272.95622 507.24478 -266.64894 513.18888 L -262.64894 515.18888 L -262.64894 671.18888 C -268.38059 672.6218 -272.00177 675.63234 -275.02394 680.62638 C -278.02376 687.13642 -277.88885 696.41163 -275.64894 703.18888 C -267.96598 720.73099 -249.49462 730.10234 -232.71925 737.31193 L -230.64894 738.18888 C -189.82842 755.69994 -142.40059 761.0143 -98.479015 765.19083 L -95.836437 765.43888 C -89.854257 766.01154 -83.871236 766.52433 -77.877453 766.96037 L -74.648937 767.18888 C -49.084605 769.0343 -23.613453 769.4795 2.0131721 769.39396 C 6.0646069 769.38021 10.116011 769.37435 14.167469 769.37443 C 18.198938 769.37502 22.229754 769.37256 26.261219 769.36662 C 28.190912 769.36312 30.120584 769.36008 32.050282 769.35685 C 43.30602 769.35232 54.498815 769.19184 65.731922 768.43888 C 67.83004 768.29376 69.929601 768.1534 72.028797 768.02482 C 102.89226 766.20065 133.70062 763.05411 164.16747 757.71232 C 199.19884 751.40999 256.73454 743.46215 279.01903 711.47404 C 284.8431 701.48264 285.61545 693.01994 282.72606 681.75138 C 280.02607 676.71954 276.71068 672.02562 271.22411 670.07755 L 268.35106 669.18888 C 267.84989 658.9205 267.27039 648.31235 269.35106 638.18888 C 271.77129 633.62917 275.3596 631.37695 279.79247 628.95841 C 283.35106 627.18888 283.35106 627.18888 285.56591 625.5131 L 287.35106 623.87638 C 339.40738 577.15919 371.9747 511.32459 382.91161 442.68497 L 383.22606 440.68888 C 386.22938 421.62322 387.62924 402.56835 387.57567 383.27287 C 387.55678 380.06373 387.53879 376.85511 387.53661 373.64591 C 387.53849 348.75429 385.8335 324.54585 381.92333 299.96232 L 381.53856 297.56388 C 379.37575 283.95885 377.07559 270.40955 373.99755 256.97599 L 373.35106 254.18888 C 370.80602 243.11619 368.06548 232.10217 364.72997 221.23771 L 363.85106 218.43888 C 362.8953 215.22332 361.9563 212.14377 360.35106 209.18888 C 357.57465 206.78336 355.6906 205.44063 352.08544 204.7631 C 348.01579 204.99542 345.62621 205.11156 342.48778 207.7631 C 286.25082 245.66795 286.24957 245.66764 222.62841 270.29826 C 203.42742 277.80022 184.22836 285.3029 165.20263 293.24162 L 162.78856 294.25138 C 154.43984 297.74346 146.12244 301.27371 137.98388 305.23576 L 135.94091 306.23966 C 133.36421 307.50438 130.79059 308.77463 128.22606 310.06388 L 124.7827 311.84904 L 121.53075 313.49357 C 104.82586 318.83055 104.82614 318.83129 87.024891 319.6088 L 84.292469 319.79826 C 58.853928 321.58119 33.432327 321.58118 7.9428596 321.47013 C 2.7957262 321.44723 -2.3513633 321.43347 -7.4985466 321.42912 C -13.851652 321.42476 -20.206007 321.41472 -26.559093 321.39982 L -30.184093 321.39201 C -47.656957 321.36358 -65.044657 321.08582 -82.46339 319.59318 L -84.680187 319.39201 C -87.272655 319.16284 -89.86404 318.9303 -92.455578 318.69083 L -95.148937 318.43888 C -137.93788 314.44373 -181.80275 308.98608 -222.17433 293.63615 C -224.32886 292.81096 -226.48901 291.99984 -228.64894 291.18888 L -237.64894 288.18888 L -236.64894 118.18888 C -227.5469 121.40138 -219.01266 124.54322 -209.77784 126.9506 L -206.58644 127.75138 C -141.26696 144.30066 -73.946218 149.80832 -6.7270622 149.52482 C -2.4578073 149.50662 1.81224 149.50066 6.0815315 149.50529 C 40.080027 149.54512 74.22104 149.30993 108.04442 145.45451 C 109.65025 145.26995 111.25809 145.08847 112.86473 144.91154 C 138.57735 142.09336 164.29468 139.23513 189.56591 133.59513 C 190.99424 133.27221 192.42262 132.9488 193.85106 132.62638 C 199.76772 131.33001 205.48655 129.79789 211.35106 128.18888 L 244.35106 117.18888 L 244.35106 239.18888 C 248.35106 239.18888 248.35107 239.18888 251.08544 238.48966 L 254.10106 237.50138 L 257.08544 236.55216 L 260.35106 235.18888 C 262.62135 234.30219 264.56663 233.32581 266.62059 232.00724 C 269.26779 229.22494 269.26825 229.22505 269.37645 221.46622 L 269.30419 217.90372 C 269.32019 214.63745 269.34419 211.37113 269.31591 208.1049 C 269.26554 203.85744 269.24089 199.61043 269.25145 195.36271 C 269.27066 188.65266 269.25705 181.94379 269.2163 175.2338 C 269.14205 163.0803 269.12018 150.92654 269.1245 138.77287 C 269.12734 134.49916 269.12388 130.22617 269.09325 125.95255 C 269.07296 123.2504 269.06116 120.5494 269.05419 117.84708 L 269.04638 114.08732 L 269.00341 110.50529 L 269.00536 107.25529 C 268.90975 104.50989 268.91056 104.50972 269.35106 102.18888 C 277.64214 96.661491 283.24926 88.930979 285.35106 79.188881 C 286.41987 68.909506 282.77484 59.814311 276.40966 51.720131 C 236.01405 9.4646863 236.0131 9.4644408 87.851063 2.5912247 C 83.621815 2.4015924 79.395631 2.2011886 75.171375 1.9193497 C 52.508802 0.37731232 29.892868 0.0082688959 7.1850471 0.0013809204 C 4.7899507 0.0014786699 2.3945963 0.00083457836 -0.00049972534 -0.00057220459 z M 6.8022346 24.050209 C 15.981636 24.046644 25.164207 24.09824 34.351063 24.188881 L 36.907703 24.210365 C 46.404799 24.295777 55.870849 24.621999 65.351063 25.188881 L 68.196766 25.358803 C 98.714235 27.209286 129.11975 29.538462 159.35106 34.188881 L 161.35692 34.497475 C 240.50134 46.796346 240.50179 46.796415 260.35106 69.188881 C 261.8822 72.251153 261.9224 73.760869 261.35106 77.188881 C 252.71244 90.173646 233.39743 95.559398 219.35106 100.18888 L 216.72606 101.05997 C 169.0661 116.56612 117.33603 121.48987 67.501453 124.0756 C 66.039848 124.1524 64.578102 124.23156 63.116688 124.31193 C 49.751808 125.04406 36.430056 125.35157 23.046375 125.35685 C 21.065575 125.36008 19.083816 125.36313 17.103016 125.36662 C 12.980307 125.37254 8.8585409 125.37503 4.7358284 125.37443 C 0.58051875 125.37435 -3.5756815 125.38028 -7.7309685 125.39396 C -31.792209 125.47185 -55.663703 125.26839 -79.648937 123.18888 L -82.55714 122.94474 C -88.28155 122.46031 -93.997579 121.90912 -99.711437 121.31388 L -102.23683 121.05412 C -191.76226 111.8308 -191.76215 111.83115 -229.64894 94.188881 L -231.68995 93.251381 C -251.58542 84.034931 -251.58498 84.034897 -254.64894 76.188881 C -255.02787 73.217488 -255.02266 71.77036 -253.39112 69.23185 C -214.00768 30.095577 -130.65463 28.967573 -78.648937 26.188881 L -75.777843 26.034584 C -48.248162 24.571438 -20.73597 24.060904 6.8022346 24.050209 z M -133.33644 54.905678 C -145.54593 54.791475 -157.87162 56.936356 -167.65284 60.091225 C -173.79069 62.339903 -177.59463 65.197747 -180.64894 71.188881 C -180.97162 74.996567 -180.85537 77.569578 -179.64894 81.188881 C -174.32381 87.792039 -166.17766 90.059093 -158.17628 91.657631 C -138.06388 94.514053 -113.05852 93.849001 -95.648937 82.188881 C -93.275801 78.989203 -92.672362 77.534391 -92.398937 73.501381 C -92.713971 69.327189 -93.104904 68.705713 -96.148937 65.813881 C -105.81095 58.066044 -119.49901 55.035108 -133.33644 54.905678 z M 345.35106 238.18888 C 350.4288 259.19147 354.95236 280.20909 358.28856 301.56388 L 358.72216 304.27482 C 362.4753 327.95354 363.73908 351.60871 363.66356 375.56388 L 363.65966 379.05021 C 363.62544 396.28729 363.0668 413.13961 360.35106 430.18888 L 359.99559 432.59513 C 359.2673 437.49494 358.36868 442.3415 357.35106 447.18888 L 356.84325 449.64396 C 347.40692 494.76508 330.40967 537.99922 301.35106 574.18888 L 299.99559 575.89396 C 286.711 592.46921 271.38563 608.79135 253.35106 620.18888 L 251.10106 621.62638 C 244.97406 625.43405 238.70403 628.44579 232.03856 631.18888 L 228.88817 632.48966 C 213.82909 638.56711 198.37999 642.66277 182.35106 645.18888 L 179.15184 645.71232 C 175.11861 646.2181 171.15805 646.35063 167.10106 646.35685 L 164.7495 646.36662 C 163.11238 646.37165 161.47647 646.37459 159.83934 646.37443 C 157.38624 646.37659 154.93303 646.39448 152.47997 646.41349 C 122.57168 646.52346 96.736277 638.47474 70.515125 624.57951 L 68.153797 623.32951 C 66.350584 622.18791 66.351058 622.18888 65.351063 620.18888 C 66.484114 617.8007 66.484129 617.80069 68.261219 614.79044 L 70.243641 611.42521 C 70.966294 610.22111 71.689299 609.01702 72.413563 607.81388 L 73.503407 605.98771 C 92.135216 574.79645 92.134664 574.79709 97.351063 572.18888 C 99.936676 572.73882 102.47791 573.35204 105.03856 574.00138 C 141.09584 582.46743 179.17358 578.38601 215.16356 571.75138 L 217.59325 571.31193 C 229.49825 569.25647 229.49881 569.25643 240.35106 564.18888 C 242.48856 560.98264 242.64681 559.9643 242.66356 556.25138 L 242.71434 553.66154 C 242.25276 550.51976 241.74875 549.30282 239.35106 547.18888 C 233.53572 546.08833 228.70674 546.30517 222.91747 547.33341 C 221.29591 547.60028 219.67383 547.86753 218.05223 548.13419 L 215.51122 548.56388 C 181.90332 554.21799 147.1009 557.63935 113.35106 551.18888 C 114.68196 548.2607 116.15398 546.10197 118.36083 543.76896 L 120.22411 541.79044 L 122.25731 539.66544 L 124.39598 537.41349 C 132.25848 529.17226 140.29094 521.09946 148.35497 513.05607 C 150.88122 510.53525 153.40101 508.00854 155.92138 505.48185 C 157.55383 503.85002 159.18667 502.21849 160.81981 500.58732 L 163.062 498.33927 C 167.1189 494.30046 171.2613 490.44619 175.64013 486.75724 C 177.32558 485.21343 178.65504 483.60992 180.03075 481.79044 C 182.88238 478.90825 185.31122 478.73189 189.29638 478.52482 C 191.68958 478.51538 194.08308 478.52989 196.47606 478.56388 C 199.11369 478.53091 201.74923 478.48958 204.38622 478.43107 L 206.41552 478.39005 C 232.80391 477.74126 280.84203 472.06341 301.35106 453.18888 C 303.09411 449.70279 302.92259 445.99248 302.35106 442.18888 C 299.95962 438.71036 298.25668 437.50307 294.28856 436.12638 C 288.51664 436.218 283.73763 438.23069 278.35106 440.18888 C 261.7976 445.74871 245.01964 449.73046 227.78856 452.56388 L 224.52489 453.1088 L 221.47216 453.58732 L 218.76708 454.01505 C 216.35432 454.18915 214.64063 453.92157 212.35106 453.18888 L 214.25927 451.2963 C 216.63013 448.94264 218.99967 446.58556 221.36669 444.22794 C 222.38497 443.21464 223.40317 442.2042 224.42333 441.19279 C 229.77728 435.88347 235.04019 430.55056 239.94481 424.81583 C 241.65415 422.83861 243.47127 421.00385 245.35106 419.18888 C 249.23127 415.35311 252.80677 411.33418 256.35106 407.18888 C 257.2451 406.15851 258.13968 405.12859 259.03466 404.09904 C 270.19658 391.22316 280.71203 378.10743 290.18505 363.93107 C 291.22568 362.37666 292.27967 360.83071 293.33544 359.28654 C 297.08616 353.7765 298.94751 350.10768 298.35106 343.18888 C 295.98568 339.24651 293.80752 337.32891 289.35106 336.18888 C 285.98253 335.10415 285.98248 335.10415 282.35106 336.18888 C 279.68309 338.98972 277.66119 342.16683 275.55223 345.39982 C 273.29951 348.75516 270.84666 351.96322 268.41356 355.18888 L 266.84716 357.27677 C 262.50109 363.04438 257.99492 368.65786 253.35106 374.18888 C 252.47992 375.23572 251.60883 376.28259 250.73778 377.32951 C 244.97207 384.22904 239.01751 390.91224 232.89794 397.49943 C 231.74361 398.76034 230.60127 400.03357 229.4663 401.31193 C 223.81434 407.67293 217.93229 413.75382 211.90966 419.7631 C 210.93263 420.7408 209.95671 421.7187 208.97997 422.69669 C 206.95041 424.72771 204.91886 426.7567 202.88622 428.78458 C 200.30214 431.36295 197.72227 433.94647 195.14403 436.53068 C 193.13394 438.54441 191.12012 440.55525 189.10692 442.56583 C 187.69882 443.97296 186.29423 445.38128 184.88817 446.79044 C 180.3991 451.26332 175.86172 455.61451 171.04638 459.73576 C 167.46607 462.80594 164.0391 466.04907 160.57372 469.24747 C 158.35106 471.18888 158.35106 471.18888 157.35106 471.18888 C 156.9533 443.15316 158.03028 415.23798 166.74169 388.30997 C 167.6627 385.10197 167.79554 382.49074 167.35106 379.18888 C 165.09231 374.94864 165.09227 374.94859 161.35106 372.18888 C 159.34551 371.91481 159.34551 371.91481 157.10106 371.87638 L 154.83544 371.7631 C 151.13705 372.39694 149.18378 373.73437 146.35106 376.18888 C 145.17059 378.99626 144.39664 381.32864 143.72606 384.25138 L 143.12059 386.6674 C 142.50494 389.16914 141.92675 391.67764 141.35106 394.18888 C 140.98657 395.6876 140.62199 397.18634 140.25731 398.68497 C 136.10351 416.42554 133.7384 434.5217 134.86669 452.73185 C 137.20448 492.72073 137.20495 492.72136 128.00927 503.19865 C 123.81341 507.47764 119.05153 510.9574 114.06591 514.26505 C 110.13392 517.05133 107.31721 520.4316 104.35106 524.18888 C 103.47851 525.20237 102.60123 526.21186 101.71825 527.21622 C 81.699698 550.59213 64.30255 575.90779 48.351063 602.18888 C 44.250471 600.82201 42.915343 598.0416 40.663563 594.56388 L 39.325672 592.50724 C 37.982011 590.41228 36.661781 588.30459 35.351063 586.18888 L 34.233875 584.39787 C 23.277022 566.44636 18.408524 545.78004 15.351063 525.18888 L 14.769032 521.81779 C 9.6294389 477.19459 24.010929 432.98676 51.34325 397.90763 C 55.7404 392.3992 60.453056 387.25678 65.351063 382.18888 L 67.991688 379.39201 C 74.912377 372.22846 82.383838 366.13849 90.351063 360.18888 L 92.017078 358.92716 C 102.28684 351.1888 113.21287 344.59463 124.35106 338.18888 L 126.39013 337.00724 C 156.58761 319.6793 190.49802 308.29459 222.91356 295.91935 C 243.98968 287.86996 264.90836 279.75878 285.35106 270.18888 L 288.58348 268.69474 C 306.16641 260.55505 323.05141 251.61039 339.16552 240.82951 C 343.14572 238.18962 343.1465 238.18888 345.35106 238.18888 z M -237.64894 315.18888 C -233.89821 315.93903 -230.73156 316.77904 -227.16847 318.04435 C -151.17438 344.5359 -66.075778 346.84481 13.712391 346.39396 C 19.909849 346.36247 26.106671 346.35032 32.304188 346.33537 C 44.319879 346.30383 56.335504 346.2531 68.351063 346.18888 C 65.167767 349.37754 61.965066 352.54122 58.726063 355.67326 C 47.951852 366.18458 37.935931 376.77827 29.351063 389.18888 L 27.925282 391.21622 C 15.709715 408.71933 6.5663073 427.78864 0.35106277 448.18888 L -0.37549973 450.53263 C -7.9140502 475.3649 -9.2610505 500.62612 -6.0864372 526.28263 C -5.746043 529.32187 -5.6120459 532.14533 -5.6489372 535.18888 C -59.168079 535.52738 -112.90231 532.35057 -165.48292 521.82169 C -168.59126 521.20079 -171.70379 520.60169 -174.81691 520.00529 C -194.62746 516.13264 -213.90702 510.70893 -232.64894 503.18888 L -237.64894 501.18888 L -237.64894 315.18888 z M -237.64894 528.18888 C -236.20506 528.50505 -234.76234 528.82206 -233.31886 529.14005 L -230.88136 529.67521 C -228.43811 530.23668 -226.06948 530.92219 -223.688 531.70451 C -195.60208 540.7048 -166.47479 546.23654 -137.27394 550.18888 L -134.46534 550.57169 C -98.690994 555.4006 -62.700967 557.72336 -26.648937 559.18888 C -25.235694 559.24727 -23.821942 559.30619 -22.408703 559.36466 C -15.156121 559.6626 -7.9033791 559.94019 -0.64893723 560.18888 C 0.97374603 564.37522 2.4953829 568.54266 3.7807503 572.84513 L 4.5034065 575.25529 C 4.984547 576.87557 5.4585373 578.49802 5.9252815 580.12247 C 7.6365232 585.76867 9.9978249 590.34594 13.351063 595.18888 L 15.019032 597.66544 L 16.538563 599.81388 L 18.319813 602.33341 L 20.351063 605.18888 C 21.194815 606.38028 22.038572 607.57169 22.882313 608.7631 C 23.767442 610.00939 24.652865 611.25549 25.538563 612.50138 L 26.798328 614.27872 C 28.683685 616.92208 30.531774 619.37832 32.776844 621.73185 C 34.351055 624.18888 34.351062 624.18891 33.886219 626.96622 C 31.978651 630.97067 29.921153 634.8631 27.788563 638.75138 C 15.845396 661.11855 -1.5569501 694.24726 0.35106277 720.18888 C 2.5019588 723.52649 3.555206 724.92359 7.3510628 726.18888 C 11.835982 726.77679 15.225383 726.8643 19.163563 724.50138 C 23.281128 718.26622 24.658057 710.95186 26.464344 703.78263 C 30.702087 687.03364 36.309331 671.42393 44.347157 656.11662 C 46.059308 652.82971 47.701338 649.50743 49.351063 646.18888 L 52.351063 640.18888 C 58.639867 643.74343 58.639906 643.74344 61.515125 645.54435 C 102.94895 671.38851 157.1136 674.67212 203.99755 664.62247 C 208.89217 663.44044 213.62318 661.91282 218.35106 660.18888 L 220.77684 659.31388 C 224.90047 657.82107 229.00996 656.29894 233.10888 654.73966 C 236.81327 653.34862 240.53086 652.2174 244.35106 651.18888 L 244.39598 653.58732 C 244.47058 657.18388 244.56647 660.78033 244.66356 664.37638 L 244.73192 668.15177 L 244.83934 671.79435 L 244.91942 675.14201 C 245.50961 679.29998 246.95722 682.08125 250.25341 684.7006 L 252.28856 685.87638 L 254.31591 687.0756 C 256.30525 688.16384 258.3149 689.1913 260.35106 690.18888 C 259.77895 696.196 257.64093 700.25977 252.99559 704.17326 C 234.50825 715.69914 213.30485 721.86178 192.35106 727.18888 L 189.69872 727.88615 C 140.53703 740.80944 87.354398 745.32769 36.546375 745.35685 C 34.785574 745.36089 33.023972 745.36415 31.263172 745.36857 C 25.667223 745.37993 20.07202 745.37948 14.476063 745.37638 L 11.591297 745.37638 C -16.864544 745.37185 -45.253068 745.23379 -73.648937 743.18888 C -75.138023 743.08594 -76.626641 742.98308 -78.115734 742.88029 C -216.72928 733.10753 -216.73045 733.10737 -251.64894 698.18888 C -251.77394 694.56388 -251.77394 694.56388 -251.64894 691.18888 L -249.56691 690.41935 L -246.83644 689.37638 L -244.12941 688.35685 C -241.55982 687.14692 -240.34497 686.44181 -238.64894 684.18888 C -238.18732 681.28114 -238.18761 681.28103 -238.2505 677.90568 L -238.21144 673.91544 C -238.21261 672.45289 -238.21558 670.99128 -238.2173 669.52872 C -238.20828 667.99138 -238.19759 666.4528 -238.18605 664.91544 C -238.15841 660.73808 -238.14907 656.56166 -238.14308 652.38419 C -238.13371 648.01995 -238.10697 643.65465 -238.08253 639.29044 C -238.03882 631.02452 -238.00992 622.75958 -237.98683 614.49357 C -237.9598 605.08374 -237.91694 595.67285 -237.87159 586.2631 C -237.77868 566.90495 -237.70664 547.54716 -237.64894 528.18888 z "
     transform="translate(461.6489372253418,126.81111907958984)" />
</svg>
