<?xml version="1.0" encoding="UTF-8" standalone="no"?>
<svg version="1.1" width="1024" height="1024" id="svg3" xmlns="http://www.w3.org/2000/svg">
  <defs
     id="defs3" />
  <path
     d="M0 0 C4.39917585 4.35863045 6.38708853 8.65996204 8.25 14.5 C8.54028076 15.39976562 8.83056152 16.29953125 9.12963867 17.2265625 C23.64108931 63.96830733 31.22932816 113.51528141 37 162 C37.08509827 162.70288147 37.17019653 163.40576294 37.25787354 164.12994385 C48.19452925 254.50269342 45.19624372 353.77702029 5 437 C4.57992676 437.88107422 4.15985352 438.76214844 3.72705078 439.66992188 C-8.73398203 465.7101076 -23.88226059 489.10294283 -42.46777344 511.15917969 C-44.46979501 513.56441274 -46.38412177 516.03554751 -48.3125 518.5 C-57.23110728 529.40237226 -67.59521778 539.4901893 -78.6796875 548.17578125 C-80.76681558 549.81667151 -82.72622153 551.52527438 -84.6875 553.3125 C-130.17608074 593.41671812 -191.35246994 619.40926412 -251 628 C-251.6997998 628.10296387 -252.39959961 628.20592773 -253.12060547 628.31201172 C-292.46628346 633.87010459 -334.11005086 628.32896807 -372 617 C-372.72912598 616.78263184 -373.45825195 616.56526367 -374.20947266 616.34130859 C-397.83510251 609.16357262 -419.52057707 598.01041607 -441 586 C-465.85215251 633.53619439 -490.32931272 683.88176426 -500.19091797 737.02539062 C-501.33364952 742.70282346 -502.86068842 745.89943393 -507 750 C-510.94624538 752.28466838 -514.49607457 752.47409741 -519 752 C-523.02460377 749.87379423 -525.31409919 748.21595865 -527 744 C-528.22723931 735.79758219 -525.79157124 727.7927992 -523.6875 719.9375 C-523.51182495 719.27237396 -523.3361499 718.60724792 -523.15515137 717.92196655 C-516.4100164 692.46130332 -507.74035462 667.91026923 -496.86517334 643.91143799 C-495.95154419 641.89294598 -495.04301647 639.87221092 -494.13525391 637.85107422 C-487.02764895 622.04200796 -479.74883303 606.31489869 -472.25 590.6875 C-471.95949768 590.078992 -471.66899536 589.47048401 -471.36968994 588.84353638 C-465.81806847 577.23594341 -465.81806847 577.23594341 -462 572 C-463.32491189 569.04229956 -464.74051968 567.04286081 -467.08984375 564.8203125 C-468.01083862 563.93267212 -468.01083862 563.93267212 -468.95043945 563.02709961 C-469.60616943 562.39940674 -470.26189941 561.77171387 -470.9375 561.125 C-478.00103601 554.20659936 -484.14927748 546.95518586 -490 539 C-490.42619629 538.42926758 -490.85239258 537.85853516 -491.29150391 537.27050781 C-500.94727695 524.31577031 -509.0762819 510.65470336 -516.01611328 496.06689453 C-516.66923001 494.69486322 -517.32901897 493.32598714 -517.99560547 491.96044922 C-527.91145861 471.56253755 -534.47678534 449.136417 -537.625 426.6875 C-537.74617187 425.85927734 -537.86734375 425.03105469 -537.9921875 424.17773438 C-538.22947178 422.54124656 -538.46071548 420.90387011 -538.68554688 419.265625 C-538.95939835 417.29253365 -539.26234255 415.32352328 -539.5703125 413.35546875 C-546.39040537 357.06519508 -529.02519219 296.41345338 -496 251 C-495.53996582 250.36433105 -495.07993164 249.72866211 -494.60595703 249.07373047 C-491.84374342 245.29281331 -488.96163175 241.62811623 -486 238 C-485.56574707 237.4642334 -485.13149414 236.9284668 -484.68408203 236.37646484 C-473.20555339 222.29979726 -460.441208 209.04955058 -446 198 C-445.03449219 197.22914063 -444.06898438 196.45828125 -443.07421875 195.6640625 C-428.31247902 184.00908991 -412.44323342 174.09334075 -396 165 C-395.15969238 164.53126465 -394.31938477 164.0625293 -393.45361328 163.57958984 C-367.25483266 149.07380069 -339.11727608 138.16356611 -311 128 C-310.29832703 127.74619568 -309.59665405 127.49239136 -308.87371826 127.230896 C-274.75456443 114.91839367 -240.22206023 103.81003503 -205.75048828 92.53564453 C-170.56074426 81.02580122 -135.78375764 69.23494332 -102 54 C-100.53312744 53.34499512 -100.53312744 53.34499512 -99.03662109 52.67675781 C-85.42238921 46.56622341 -72.58126172 39.37070608 -59.79931641 31.68115234 C-57.22219222 30.13343936 -54.63471989 28.60507331 -52.04296875 27.08203125 C-44.6116476 22.6750576 -37.58196912 18.04314823 -30.75 12.75 C-9.16764749 -3.88212508 -9.16764749 -3.88212508 0 0 Z M-19 35.3125 C-32.52085282 46.19420474 -47.87303362 54.59446499 -63 63 C-64.04994141 63.59095459 -64.04994141 63.59095459 -65.12109375 64.19384766 C-120.88777344 95.486685 -184.80822449 112.76934591 -245.31835938 132.34472656 C-246.15418895 132.61520435 -246.99001852 132.88568214 -247.85117626 133.16435623 C-251.78583801 134.43699668 -255.72134437 135.70690983 -259.65852356 136.97174072 C-271.07833499 140.64914731 -282.37751124 144.6088539 -293.65234375 148.7109375 C-298.62618198 150.51783087 -303.62329399 152.23831526 -308.63842773 153.92651367 C-360.48201748 171.49409729 -410.04070965 197.18071549 -450 235 C-450.52352051 235.48952148 -451.04704102 235.97904297 -451.58642578 236.48339844 C-482.55846759 265.59919071 -502.34437727 306.6886795 -511 348 C-511.16226074 348.76054687 -511.32452148 349.52109375 -511.49169922 350.3046875 C-522.50181258 405.02574625 -509.11822728 465.21940024 -478.875 511.625 C-477.60434591 513.43162957 -476.3123367 515.22341771 -475 517 C-474.24460937 518.03769531 -473.48921875 519.07539062 -472.7109375 520.14453125 C-466.68601323 528.27333971 -459.9994444 535.70292527 -453 543 C-452.26523437 543.78246094 -451.53046875 544.56492187 -450.7734375 545.37109375 C-449.15583821 547.22548629 -449.15583821 547.22548629 -447 547 C-445.74134873 545.37268702 -445.74134873 545.37268702 -444.5234375 543.21484375 C-443.77719116 541.97130127 -443.77719116 541.97130127 -443.01586914 540.70263672 C-442.47438232 539.7901416 -441.93289551 538.87764648 -441.375 537.9375 C-430.02082871 519.21217697 -417.14918731 501.49734163 -404 484 C-403.54963379 483.4004248 -403.09926758 482.80084961 -402.63525391 482.18310547 C-397.71934107 475.66315198 -392.6422469 469.27967913 -387.5 462.9375 C-386.95448486 462.26114502 -386.40896973 461.58479004 -385.84692383 460.88793945 C-383.27529408 457.71763153 -380.67433142 454.60586948 -377.9140625 451.59765625 C-377.44162109 451.07115479 -376.96917969 450.54465332 -376.48242188 450.00219727 C-375.21599712 448.60070239 -373.92526171 447.22128207 -372.6328125 445.84375 C-370.3982688 441.95200882 -371.00862121 439.17016975 -372 435 C-372.20222168 434.13713379 -372.40444336 433.27426758 -372.61279297 432.38525391 C-373.33672971 429.43586309 -374.10305723 426.49967091 -374.875 423.5625 C-378.40682492 409.72419637 -380.8022237 396.0332576 -382.625 381.875 C-382.81002075 380.44510742 -382.81002075 380.44510742 -382.9987793 378.98632812 C-384.81945667 364.17899214 -385.18646705 349.46878526 -385.18530273 334.5690918 C-385.1874792 331.4671433 -385.20567595 328.36555742 -385.22460938 325.26367188 C-385.25372382 315.10454448 -385.00608914 305.03364092 -384.11328125 294.91015625 C-384.03554977 294.01389023 -383.9578183 293.11762421 -383.87773132 292.19419861 C-382.68221412 280.03877037 -382.68221412 280.03877037 -379.5625 276.2578125 C-374.51421365 272.59780489 -371.29437837 271.30062463 -365 272 C-360.43055556 274.13888889 -360.43055556 274.13888889 -359 277 C-359.03946571 279.41348023 -359.1483488 281.78168463 -359.3125 284.1875 C-359.38198853 285.33061646 -359.38198853 285.33061646 -359.45288086 286.49682617 C-359.71527884 290.57607093 -360.05328434 294.63380167 -360.515625 298.6953125 C-364.82814847 337.92002371 -364.47434698 381.49408574 -351 419 C-349.8717446 417.8717446 -348.74385044 416.74312686 -347.6171875 415.61328125 C-346.46082551 414.4597124 -345.29870256 413.31190691 -344.1328125 412.16796875 C-343.47023438 411.51441406 -342.80765625 410.86085938 -342.125 410.1875 C-341.50882813 409.58292969 -340.89265625 408.97835938 -340.2578125 408.35546875 C-338.37534671 406.39158143 -336.58950723 404.39429817 -334.81005859 402.33862305 C-323.1345151 388.96511584 -310.56061693 376.39808237 -297.99707031 363.86669922 C-295.47081971 361.34588248 -292.95005856 358.81966262 -290.4296875 356.29296875 C-288.79719606 354.66113708 -287.16439499 353.02961509 -285.53125 351.3984375 C-284.79152954 350.65669281 -284.05180908 349.91494812 -283.28967285 349.15072632 C-276.88563939 342.77518314 -270.14301354 336.88509204 -263.15234375 331.1640625 C-260.72070897 326.59753481 -262.85188904 320.75080714 -263.75390625 315.86328125 C-269.6808109 283.55534571 -271.99700139 224.28558284 -254.0625 195.9375 C-250.17752942 192.28798218 -247.40594495 191.60640898 -241.96875 191.73828125 C-239.11071927 192.11821788 -237.24182784 193.2337114 -235 195 C-230.45575133 204.08849733 -235.51415359 218.36950505 -237.51708984 227.68798828 C-240.72159111 243.03006463 -241.16671743 258.3940666 -241.13037109 274.00341797 C-241.1249827 276.75884431 -241.13036197 279.51410965 -241.13671875 282.26953125 C-241.13605831 284.04947952 -241.13477785 285.82942769 -241.1328125 287.609375 C-241.13584885 288.82376251 -241.13584885 288.82376251 -241.13894653 290.06268311 C-241.1171487 295.4441724 -240.67105167 300.65957491 -240 306 C-230.1405209 301.25442857 -222.12656665 292.42482511 -214.2109375 284.99609375 C-211.82640515 282.76085267 -209.4123794 280.5729972 -206.9375 278.4375 C-198.75931711 271.36495128 -190.81361412 263.99921788 -183.29296875 256.23046875 C-181.46526259 254.45258082 -179.62052846 252.81887929 -177.6796875 251.171875 C-171.48207004 245.78842755 -165.75615651 239.90481167 -159.96362305 234.09399414 C-157.94235732 232.0673702 -155.91580426 230.04614453 -153.88867188 228.02539062 C-145.42035928 219.57513844 -145.42035928 219.57513844 -137.4309082 210.67602539 C-134.93333304 207.75061104 -132.26379075 204.98498161 -129.625 202.1875 C-124.97360822 197.21681045 -120.5484995 192.13778808 -116.29296875 186.8203125 C-114.16452262 184.20236002 -111.97794955 181.65358745 -109.76196289 179.11035156 C-103.97521637 172.46862796 -98.55944035 165.62590202 -93.36425781 158.50927734 C-92.85217773 157.82043457 -92.34009766 157.1315918 -91.8125 156.421875 C-91.36519531 155.80924805 -90.91789062 155.19662109 -90.45703125 154.56542969 C-88.07828937 152.00971707 -85.80699168 151.10342963 -82.37890625 150.6640625 C-74.77251185 150.55856466 -74.77251185 150.55856466 -70.9375 152.75 C-68.28161756 155.83425058 -67.154781 157.67492364 -66.6796875 161.7421875 C-67.08709579 165.88582793 -68.86079463 168.15532378 -71.4375 171.25 C-71.8905249 171.8157373 -72.3435498 172.38147461 -72.81030273 172.96435547 C-76.32242947 177.30477355 -80.02905828 181.46110924 -83.8125 185.56640625 C-85.99720508 187.99689066 -88.0306428 190.50343743 -90.0625 193.0625 C-94.79784601 198.92530934 -99.9496987 204.36232295 -105.15258789 209.81079102 C-105.80606201 210.49584717 -106.45953613 211.18090332 -107.1328125 211.88671875 C-107.70918457 212.48701904 -108.28555664 213.08731934 -108.87939453 213.70581055 C-110.73027994 215.70820177 -112.52783658 217.74161013 -114.31762695 219.79833984 C-125.34935997 232.44888561 -137.19332732 244.35580897 -149.07299805 256.20336914 C-151.46326107 258.58820255 -153.84803758 260.97843105 -156.23242188 263.36914062 C-157.77832482 264.91438372 -159.32453743 266.45931709 -160.87109375 268.00390625 C-161.5702037 268.70504044 -162.26931366 269.40617462 -162.98960876 270.1285553 C-166.92527614 274.04575409 -170.95446357 277.77799113 -175.19398499 281.36534119 C-178.10476408 283.99994315 -180.51978392 286.9617353 -183 290 C-143.33406277 291.61779502 -104.53823746 280.10006418 -69.1628418 262.99633789 C-64.84512786 261.00733343 -60.71373777 260.16383989 -56 261 C-52.78045355 263.53453657 -51.29567565 265.11297305 -50 269 C-49.58429831 277.59116834 -49.58429831 277.59116834 -52 282 C-79.883236 301.67166812 -121.76721303 308.05198688 -154.96035767 312.70724487 C-156.94976718 312.99278995 -158.93532457 313.30477837 -160.9206543 313.61743164 C-168.313981 314.69821909 -175.32304273 315.10065128 -182.77734375 314.87890625 C-183.60908615 314.85626205 -184.44082855 314.83361786 -185.29777527 314.81028748 C-188.71271022 314.71054965 -192.12523211 314.60361301 -195.53735352 314.4309082 C-205.62628045 313.65561202 -205.62628045 313.65561202 -214.91064453 316.78857422 C-217.17050569 319.06875526 -219.0652983 321.44212342 -221 324 C-222.31951537 325.23455503 -223.67205381 326.43497741 -225.05859375 327.59375 C-229.1634575 331.12236771 -233.12044526 334.79118031 -237.0625 338.5 C-237.73087891 339.12519531 -238.39925781 339.75039063 -239.08789062 340.39453125 C-242.27864651 343.38993474 -245.42539524 346.41269419 -248.49609375 349.53125 C-250.77144527 351.82741247 -253.10605622 353.98159792 -255.56860352 356.07470703 C-260.74280941 360.5787105 -265.56272847 365.41927238 -270.40625 370.2734375 C-271.38116139 371.24767377 -272.35622106 372.22176169 -273.3314209 373.19570923 C-275.35668724 375.21951328 -277.38016358 377.24508505 -279.40234375 379.27197266 C-281.99937897 381.87475807 -284.60095087 384.47295579 -287.20383453 387.06989098 C-289.20954628 389.0720027 -291.21288713 391.07647303 -293.21549988 393.08168411 C-294.17488649 394.04173879 -295.1350192 395.00104846 -296.09590149 395.95960617 C-297.42897608 397.29015773 -298.75852945 398.62423443 -300.08789062 399.95849609 C-300.84541626 400.71681732 -301.60294189 401.47513855 -302.38342285 402.25643921 C-304.11331651 403.72593889 -304.11331651 403.72593889 -304 405 C-292.53401416 406.9067604 -281.08435471 408.64584144 -269.51171875 409.75732422 C-267.78708257 409.92395411 -266.06313745 410.0978478 -264.33984375 410.27783203 C-218.0083732 415.03824564 -169.30867277 412.89882528 -124.25 400.6015625 C-120.77885877 399.95906761 -118.39707983 400.08749972 -115 401 C-111.73685644 404.37566576 -110.84431589 407.76924078 -110.75 412.375 C-110.83572712 416.43714644 -111.06284533 418.97384064 -114 422 C-122.0026703 425.17702576 -130.36514697 426.54111294 -138.8125 428 C-139.55488922 428.13006439 -140.29727844 428.26012878 -141.06216431 428.39413452 C-155.64097228 430.93560938 -170.24683535 432.78606858 -185 434 C-186.1233374 434.0942627 -187.2466748 434.18852539 -188.40405273 434.28564453 C-212.7680009 436.13097304 -237.65635895 435.89521917 -262 433.875 C-262.70555023 433.81832153 -263.41110046 433.76164307 -264.13803101 433.70324707 C-272.36131921 433.01856699 -280.46599157 431.97290247 -288.59301758 430.53738403 C-292.57904382 429.8339271 -296.57236701 429.17637791 -300.56542969 428.51422119 C-303.43498724 428.01139211 -306.27983771 427.42802578 -309.1328125 426.83935547 C-317.75836446 425.00143028 -317.75836446 425.00143028 -325.98901367 427.13528442 C-330.1082997 430.52113358 -333.01689581 434.61905209 -336 439 C-337.14349009 440.3327407 -338.30310076 441.65250989 -339.5 442.9375 C-343.07522556 447.06541743 -346.62241739 451.21797443 -350.16918945 455.37036133 C-352.87598627 458.53646288 -355.59703547 461.68826497 -358.34765625 464.81640625 C-364.42337233 471.73437103 -370.25241463 478.71289429 -375.66308594 486.17285156 C-377.31294574 488.42770013 -378.98862435 490.66253249 -380.6640625 492.8984375 C-381.96374587 494.64047267 -383.26322463 496.38266051 -384.5625 498.125 C-385.19534912 498.96772461 -385.82819824 499.81044922 -386.48022461 500.67871094 C-387.06553955 501.46793945 -387.65085449 502.25716797 -388.25390625 503.0703125 C-388.78314697 503.77945801 -389.3123877 504.48860352 -389.85766602 505.21923828 C-391.17998027 506.9279568 -391.17998027 506.9279568 -391 509 C-361.48270663 513.30819545 -332.39000349 517.21979176 -302.5 517.25 C-301.17370575 517.25250763 -301.17370575 517.25250763 -299.82061768 517.25506592 C-278.82845119 517.25742073 -258.24722753 515.34327725 -237.46557617 512.4230957 C-222.16099144 510.55463178 -222.16099144 510.55463178 -217.25 513.9375 C-214.3105567 517.93840894 -213.64165259 521.08168185 -214 526 C-215.28360437 529.8508131 -217.12826647 531.24657469 -220.60449219 533.04614258 C-224.82832327 535.08927015 -228.75935425 535.90412756 -233.390625 536.44921875 C-234.17532166 536.55216751 -234.96001831 536.65511627 -235.76849365 536.76118469 C-237.42486102 536.97538992 -239.08214928 537.18258084 -240.74023438 537.38305664 C-243.20429185 537.68195544 -245.66441414 538.00396149 -248.125 538.33007812 C-298.26326877 544.79397654 -350.73883178 542.00842539 -400.29492188 532.5090332 C-403.19037547 531.96417574 -406.09246878 531.47576325 -409 531 C-411.41999778 534.68532376 -413.83539362 538.37364202 -416.25 542.0625 C-416.93191406 543.10083984 -417.61382812 544.13917969 -418.31640625 545.20898438 C-420.22642181 548.12963924 -422.11543424 551.06288422 -424 554 C-424.47759766 554.71526855 -424.95519531 555.43053711 -425.44726562 556.16748047 C-427.56282052 559.42067317 -427.56282052 559.42067317 -427.6640625 563.171875 C-425.26320669 565.8094349 -422.439174 567.49633177 -419.375 569.25 C-418.37073975 569.83479126 -418.37073975 569.83479126 -417.34619141 570.43139648 C-356.1005823 605.64797838 -280.07588991 613.02917165 -212.22558594 594.90234375 C-166.38095488 582.077506 -126.29161164 558.7872099 -91.57421875 526.390625 C-89.33742181 524.31335683 -87.06539416 522.3009623 -84.75 520.3125 C-77.94581451 514.39581697 -71.78058464 507.91205566 -66 501 C-65.59330078 500.51772949 -65.18660156 500.03545898 -64.76757812 499.53857422 C-20.66115876 446.93414735 6.17891199 381.05432831 14 313 C14.22429687 311.10169434 14.22429687 311.10169434 14.453125 309.16503906 C22.28258875 241.15407987 15.60208677 171.03311215 3 104 C2.86400391 103.27268677 2.72800781 102.54537354 2.58789062 101.79602051 C-0.48824437 85.38430377 -3.86888247 69.05346817 -7.75 52.8125 C-8.03157959 51.63115479 -8.31315918 50.44980957 -8.60327148 49.23266602 C-10.05632257 43.3073551 -11.70743049 37.65546513 -14 32 C-15.94097167 32 -17.60550537 34.13707294 -19 35.3125 Z "
     fill="#010101"
     transform="translate(781,136)"
     id="path3" />
</svg>
