<?xml version="1.0" encoding="UTF-8" standalone="no"?>
<svg version="1.1" width="1024" height="1024" id="svg5" xmlns="http://www.w3.org/2000/svg">
  <defs
     id="defs5" />
  <path
     id="path2"
     d="M -7.3574219 -0.421875 C -14.399701 -0.50147525 -20.681553 0.54912588 -27.871094 3.6796875 C -29.170235 4.2463821 -30.474468 4.8015329 -31.783203 5.3457031 C -36.272458 7.194614 -40.73706 9.093372 -45.189453 11.029297 L -47.5625 12.0625 C -69.445001 21.563072 -90.880296 31.782987 -111.94141 43 L -114.75 44.5 C -133.77793 54.634152 -152.24009 65.399579 -170.20898 77.3125 L -172.1875 78.625 C -180.63964 84.211733 -188.85895 89.978203 -196.83984 96.222656 C -198.59568 97.596736 -200.35971 98.963346 -202.13477 100.3125 C -210.82286 106.83836 -219.31294 113.50538 -227.50391 120.64844 C -228.58495 121.60008 -229.66703 122.55055 -230.75 123.5 C -235.85463 127.87052 -240.75287 132.37428 -245.50977 137.12305 L -247.8125 139.4375 C -252.16855 143.77149 -256.47201 148.11311 -260.51172 152.74609 C -262.39129 154.92979 -264.2808 157.07587 -266.23438 159.19531 C -306.73341 202.62704 -333.39563 259.56019 -344.24609 317.7207 L -344.75 320.5 C -347.39367 334.70454 -347.98512 348.74353 -348.00195 363.1582 L -348 365.9375 C -347.99823 368.61623 -347.99204 371.29398 -347.97461 373.97266 L -347.95312 376.49609 C -347.92255 381.88085 -347.65494 387.14984 -347.00781 392.49805 L -346.75 394.5 C -339.2775 452.56269 -313.94611 505.85872 -273.69141 548.375 C -271.97754 550.18465 -270.30294 552.00617 -268.65234 553.875 C -254.04099 570.91603 -236.35091 584.63593 -218.22656 597.7168 L -215.75 599.5 C -193.48762 615.6071 -169.03181 629.6926 -143.43359 639.81055 C -134.89628 643.05615 -123.59835 645.34677 -118.5625 653.5625 C -116.46826 658.10538 -114.16027 661.82635 -111.11719 665.77539 L -109.375 668 C -102.70583 676.62285 -95.965094 685.11892 -88.625 693.1875 C -86.351961 695.65667 -84.080796 698.11948 -81.878906 700.65234 C -74.507586 709.24938 -66.299138 716.94498 -57.953125 724.57812 C -56.885319 725.55197 -55.817603 726.52593 -54.75 727.5 C -45.730902 735.78923 -36.17999 745.64447 -24.75 750.5 C -19.855981 751.42879 -16.196797 751.30036 -11.8125 748.875 C -8.3577378 744.89679 -6.8195728 741.93784 -6.5625 736.625 L -6.75 733.5 C -4.6854611 733.5 -2.6169744 733.48942 -0.55859375 733.33008 L 1.84375 733.08789 L 4.5878906 732.81445 L 7.5351562 732.51172 C 9.6140043 732.29825 11.692782 732.08403 13.771484 731.86914 C 15.951737 731.64113 18.132081 731.41392 20.3125 731.1875 C 23.525421 730.86594 26.737598 730.54526 29.949219 730.21094 L 33.035156 729.88672 C 41.322737 729.07516 50.400605 728.37235 57.697266 724.05078 C 62.791451 720.35779 64.508561 716.37554 65.675781 710.31641 L 66.25 706.5 C 68.961951 689.36182 68.961225 689.36152 72.021484 651.34766 L 72.25 648.5 C 92.421717 642.45672 111.11069 633.47928 128.9707 622.33398 C 131.94555 620.47415 134.9346 618.67562 138 616.96875 C 140.32432 616.24351 140.32433 616.24351 142.54688 617.63281 L 145 619.625 L 147.91797 621.90234 C 150.93041 624.28135 154.03512 626.49884 157.17969 628.69922 C 161.67623 631.83557 166.16732 634.98077 170.5957 638.21289 C 179.03147 644.41889 189.47037 654.82529 200.22266 655.75781 C 212.08195 654.74786 221.97402 645.30508 229.5625 636.875 C 232.80952 633.13068 236.12051 629.47056 239.51172 625.85742 C 243.15052 621.98792 246.80992 618.1388 250.31641 614.14844 C 252.69768 611.35976 255.08833 608.66116 257.6875 606.07031 C 263.98726 599.89583 269.94003 593.56836 275.56641 586.77344 C 276.45921 585.68088 277.35359 584.5896 278.25 583.5 C 280.7644 580.61431 282.88491 578.09782 284.25 574.5 C 285.68859 562.37852 285.68907 562.37898 274.61719 546.46289 L 273.25 544.5 C 267.1907 535.79833 261.05965 527.17929 254.625 518.75 C 252.12683 515.53366 249.75052 512.3983 247.76562 508.83594 C 247.02443 506.48619 247.02443 506.48619 248.08594 504.27344 C 256.2753 491.51133 261.20442 477.30589 265.58203 462.87695 L 266.1875 460.875 C 268.17965 454.3498 270.2403 447.90361 271.00391 441.10156 L 271.25 437.5 C 280.63102 437.5 280.63058 437.4995 317.4043 430.19727 L 321.1875 429.4375 C 329.52305 427.81223 337.89561 426.8463 344.10938 420.64258 C 350.33228 412.48551 350.33333 412.48647 350.02148 392.125 C 349.9866 389.96558 349.96349 387.80616 349.95312 385.64648 C 349.94087 379.96144 349.90331 374.27642 349.83203 368.5918 C 349.77299 363.89253 349.73319 359.19373 349.71094 354.49414 C 349.66817 344.57636 349.62038 334.65948 349.50977 324.74219 L 349.47461 321.86719 L 349.45312 319.1582 L 349.41797 316.66602 C 349.35629 311.29028 348.0595 307.12208 345.25 302.5 C 340.90246 297.79142 336.76295 294.78063 330.50391 293.31055 L 328 292.8125 C 310.22621 288.93192 292.052 286.81089 273.98438 284.79688 L 271.25 284.5 C 271.25 280.70083 270.57666 277.97326 269.37109 274.4082 L 268.5 271.9375 C 262.85821 255.92373 256.24249 239.78552 247.625 225.125 C 245.97085 222.42392 244.36985 219.71867 242.84766 216.94141 C 241.96747 214.4699 241.96747 214.46989 243.34766 212.23828 L 245.3125 209.8125 L 247.58594 206.89844 C 250.09069 203.73664 252.45531 200.48651 254.80859 197.21094 C 258.19522 192.48204 261.56749 187.74245 265.05859 183.08984 L 266.87109 180.69141 C 268.03867 179.12732 269.20663 177.5635 270.375 176 C 275.68213 169.12941 279.1656 162.1948 279.6875 153.375 C 278.69918 144.62133 274.05719 139.90408 267.92969 134.0625 C 265.77812 132.0165 263.67119 129.97714 261.70508 127.75 C 257.29954 122.59886 252.6412 117.75169 247.84961 112.96289 C 246.32948 111.44913 244.80919 109.93565 243.29492 108.41602 C 237.98481 103.08356 232.64919 97.830253 226.92773 92.933594 C 225.47321 91.691482 224.05031 90.413115 222.63281 89.128906 C 215.46537 82.569085 207.87496 74.078115 198.25 71.5 C 189.55073 71.321624 184.52164 74.538898 177.62891 79.421875 C 176.17257 80.459111 174.71613 81.492898 173.25781 82.527344 L 170.94531 84.167969 C 168.62425 85.816436 166.30309 87.462761 163.97656 89.103516 L 161.74219 90.675781 C 160.28656 91.700662 158.83083 92.725406 157.375 93.75 C 154.07196 96.069954 150.75998 98.378146 147.51953 100.78516 L 145.91406 101.99609 L 143 104.1875 C 140.58328 106.04622 138.63226 107.36236 135.76562 108.39453 C 133.16831 108.72683 133.1683 108.72731 130.92383 107.17188 C 111.27048 94.886735 87.406972 86.897918 64.652344 82.875 L 62.25 82.5 C 62.319694 76.744321 62.117832 71.033082 61.818359 65.285156 L 61.628906 61.792969 C 61.497156 59.326152 61.364981 56.859351 61.232422 54.392578 C 61.021058 50.523665 60.81102 46.654487 60.607422 42.785156 C 60.474084 40.247241 60.338407 37.709583 60.201172 35.171875 L 60.003906 31.542969 L 59.820312 28.019531 L 59.638672 24.761719 C 59.347622 19.36927 58.212247 15.698212 54.939453 11.265625 C 49.668211 5.7574821 42.127949 3.9200309 34.800781 3.09375 L 31.6875 2.8125 C 28.173741 2.4628722 24.660954 2.1300802 21.142578 1.8300781 C 19.15397 1.6611799 17.164821 1.4925843 15.177734 1.3066406 C 11.561522 0.96164198 7.9453069 0.62978812 4.3242188 0.33984375 C 2.8825884 0.22816347 1.4413373 0.11539968 0 0 C -2.5785986 -0.24236619 -5.0099956 -0.39534158 -7.3574219 -0.421875 z M -5.75 24.5 C 29.249895 26.499998 29.250016 26.500001 35.25 27.5 L 35.388672 29.246094 C 35.871721 35.331518 36.35955 41.417089 36.849609 47.501953 C 37.031079 49.762271 37.211455 52.022705 37.390625 54.283203 C 38.651444 70.234797 38.650964 70.234152 40.195312 86.160156 L 40.59375 89.996094 C 41.873219 96.863197 41.873479 96.862749 46.328125 101.95898 L 48.722656 102.76172 L 51.417969 103.68164 C 56.143034 105.04807 60.893545 106.21514 65.6875 107.3125 C 87.281528 112.5344 107.24949 121.01695 126.1875 132.6875 C 130.4478 135.20716 133.22298 136.73305 138.25 135.5 C 139.67376 134.65905 141.06463 133.76135 142.42969 132.82812 L 144.83984 131.18359 C 148.48385 128.63948 152.09469 126.05333 155.6875 123.4375 C 157.2591 122.29816 158.83073 121.15883 160.40234 120.01953 L 162.82031 118.26367 C 166.79364 115.37927 170.77087 112.5014 174.75 109.625 L 177.02148 107.98438 C 182.39575 104.1048 187.7967 100.26799 193.25 96.5 C 196.25681 97.839989 198.24763 99.298462 200.5 101.6875 C 202.93033 104.19523 205.40506 106.54697 208.0625 108.8125 C 212.11032 112.2966 215.83805 116.04989 219.5625 119.875 C 221.68059 121.94384 223.8199 123.88458 226.05859 125.81641 C 230.32511 129.51644 234.33201 133.43384 238.3125 137.4375 L 240.33789 139.45117 C 245.67333 144.79698 251.04975 150.19964 255.25 156.5 L 254.17188 157.94336 C 246.90365 167.68276 239.745 177.47714 232.96484 187.56445 C 230.38744 191.39876 227.77409 195.17385 224.99219 198.86328 L 223.43164 200.98047 C 222.47492 202.27344 221.5002 203.55091 220.5 204.81055 C 217.25981 209.2531 216.46049 213.10107 216.71484 218.58594 C 217.71795 224.03969 220.44414 228.46894 223.25 233.1875 C 224.44981 235.2984 225.64773 237.41039 226.84375 239.52344 L 228.61719 242.61328 C 232.09951 248.77192 235.17303 255.13208 238.25 261.5 L 239.59766 264.21484 C 242.85679 271.01608 245.2748 278.08119 247.71875 285.20508 C 249.52918 290.48207 251.43678 295.68397 253.62109 300.82031 C 254.25 302.5 254.25 302.5 254.25 304.5 C 258.92372 306.21847 263.54505 307.14894 268.45312 307.86719 L 270.86328 308.23438 C 273.40798 308.61988 275.95415 308.99717 278.5 309.375 C 280.13158 309.6206 281.7631 309.86669 283.39453 310.11328 C 288.67939 310.91076 293.96473 311.70531 299.25 312.5 L 325.25 316.5 L 326.25 404.5 C 295.03551 410.28046 295.03538 410.28049 280.29492 412.70312 C 266.78419 414.5673 266.78411 414.56732 254.25 419.5 C 251.16774 425.0866 249.91391 431.71805 248.4375 437.875 C 244.65771 453.44593 239.18041 468.1481 232.625 482.75 L 231.7832 484.62695 C 228.85006 491.14324 225.83756 497.53132 222.1875 503.67969 C 220.52529 506.91095 220.56622 508.95676 221.25 512.5 C 224.90785 521.07359 231.71215 528.35352 237.4375 535.61328 C 243.02547 542.72616 248.33034 550.0465 253.66797 557.34766 C 256.17016 560.75031 258.7076 564.12732 261.25 567.5 C 259.89297 570.53579 258.37524 572.61809 256.01367 574.94922 L 254.01953 576.93164 L 251.86328 579.04688 L 249.63477 581.25977 C 247.28187 583.59485 244.92294 585.92253 242.5625 588.25 C 240.22074 590.56399 237.8802 592.8787 235.54297 595.19727 C 234.08991 596.63822 232.63465 598.07664 231.17578 599.51172 C 226.64514 603.99844 222.40213 608.66288 218.25 613.5 C 216.73341 615.19131 215.21322 616.87943 213.6875 618.5625 C 210.14304 622.48932 206.67081 626.46519 203.25 630.5 C 198.87288 629.96563 196.49653 628.46551 193.0625 625.75 C 191.99743 624.92406 190.93093 624.09995 189.86328 623.27734 L 188.11133 621.92188 C 184.70454 619.32101 181.22679 616.81859 177.75 614.3125 L 175.48047 612.67578 C 156.20496 596.47681 156.20581 596.4765 133.25 591.5 C 129.48539 593.01391 126.31969 595.12332 123 597.4375 C 121.16689 598.64035 119.33224 599.84086 117.49609 601.03906 L 114.79688 602.83203 C 99.275531 612.99308 82.254699 620.1358 64.972656 626.71094 C 60.345461 628.50626 56.090156 630.27238 52.25 633.5 C 49.892382 638.86045 49.570979 644.47872 49.03125 650.24219 L 48.71875 653.39648 C 48.3896 656.72179 48.06893 660.0487 47.75 663.375 C 47.32598 667.72686 46.8981 672.07835 46.46875 676.42969 L 46.158203 679.5957 C 45.332064 687.91718 44.357429 696.21127 43.25 704.5 C 38.844884 705.0828 34.437692 705.65165 30.029297 706.20898 C 28.537628 706.3994 27.047359 706.59327 25.556641 706.79102 C 23.382813 707.07871 21.207078 707.35285 19.03125 707.625 L 15.095703 708.13281 C 8.1659501 708.65792 1.1996231 708.5 -5.75 708.5 L -5.75 558.5 C 14.24994 554.50001 14.250028 554.5 22.1875 553.125 C 52.14762 547.49431 84.909723 535.50595 108.25 515.5 C 109.39199 514.5662 110.53531 513.634 111.67969 512.70312 C 149.08876 481.89922 173.5231 433.44805 178.625 385.5 C 178.91309 382.16861 179.10314 378.84044 179.25 375.5 L 179.38281 372.51758 C 181.35619 319.39262 160.97134 272.52803 125.46289 233.83789 C 120.77551 228.85811 115.65805 224.66421 110.25 220.5 C 108.95751 219.46979 107.66589 218.43846 106.375 217.40625 C 72.728874 190.75893 36.468758 181.56625 -5.75 176.5 L -5.75 24.5 z M -29.75 31.5 L -29.75 715.5 C -33.380696 713.32158 -35.353293 712.12728 -38.0625 709.25 C -40.425988 706.79276 -42.850125 704.50288 -45.445312 702.29297 C -49.925938 698.40077 -54.128504 694.26922 -58.3125 690.0625 L -60.482422 687.9043 C -65.111537 683.26675 -69.486484 678.47378 -73.75 673.5 C -74.687899 672.4289 -75.626657 671.35854 -76.566406 670.28906 C -119.17791 621.38581 -147.14501 565.61722 -159.31055 501.76953 C -159.67713 499.87764 -160.09207 497.99626 -160.51953 496.11719 C -164.49015 472.9391 -141.81048 439.41994 -129.19727 421.26562 C -125.84164 416.57639 -122.3344 412.01583 -118.75 407.5 L -116.38281 404.48828 C -107.07538 392.87884 -96.699649 382.31379 -86.125 371.875 C -83.984102 369.76071 -81.846565 367.64306 -79.710938 365.52344 L -76.892578 362.74023 C -73.116462 358.79198 -73.362925 355.43411 -73.390625 350.14062 C -73.531565 347.24477 -73.531573 347.24475 -76.125 344.875 C -80.086926 342.79971 -82.195525 342.06207 -86.75 342.5 C -92.256944 345.62152 -96.454356 349.91404 -100.89453 354.37891 L -103.22461 356.70312 C -104.84827 358.32542 -106.47107 359.95098 -108.08984 361.57812 C -110.53779 364.03671 -112.99541 366.48479 -115.45508 368.93164 C -123.33311 376.8023 -131.0048 384.61884 -137.75 393.5 L -139.29102 395.46875 C -149.09455 408.07527 -157.67472 421.6955 -163.75 436.5 L -164.75 436.5 C -164.47017 429.49686 -164.12696 422.49856 -163.75 415.5 L -163.60352 412.61523 C -159.73366 341.00459 -134.13667 272.73667 -98.421875 211.1875 C -93.58537 203.46025 -93.585348 203.4602 -91.75 194.8125 C -92.891439 191.03149 -93.762803 189.10422 -96.75 186.5 C -101.76457 185.1847 -105.12902 184.96743 -109.99023 187.20508 C -113.78067 189.99283 -115.41034 194.53617 -117.375 198.6875 C -118.41694 200.78891 -119.46129 202.88915 -120.50781 204.98828 L -122.12109 208.26367 C -124.18866 212.37337 -126.39397 216.39788 -128.61914 220.42383 C -150.76865 260.50185 -166.60902 303.15112 -177.75 347.5 C -179.34164 345.11254 -180.38119 343.19307 -181.45117 340.58398 L -182.43945 338.19336 L -183.50391 335.59375 C -184.27539 333.73142 -185.04756 331.86961 -185.82031 330.00781 L -187.05078 327.03516 C -193.72128 310.97263 -200.61388 295.0666 -208.25 279.4375 L -209.3418 277.19336 C -213.34359 268.40965 -213.34366 268.4096 -218.75 260.5 C -222.87681 259.08576 -226.63693 259.01606 -230.625 260.75 L -232.75 262.5 L -234.5 263.75 C -236.54273 266.60983 -236.63421 269.02621 -236.75 272.5 C -234.92249 277.35716 -232.54024 281.86902 -230.13477 286.46094 C -216.99169 311.78945 -206.62756 338.625 -196.4375 365.25 L -195.6543 367.29492 C -194.44357 370.46488 -193.25618 373.64117 -192.0957 376.83008 C -191.18423 379.31671 -190.24412 381.76422 -189.25195 384.2168 C -186.22397 392.1818 -185.44793 398.50971 -186.32422 406.92773 C -189.07413 433.52867 -187.71416 461.63621 -184.5 488.125 L -184.18945 490.71484 C -179.461 529.15611 -167.67258 565.99699 -151.77344 601.2168 C -150.39277 604.2948 -149.0676 607.39453 -147.75 610.5 C -154.10712 608.59736 -159.82873 606.15806 -165.625 602.9375 L -168.16406 601.5332 C -175.9113 597.1488 -183.34887 592.31247 -190.75 587.375 L -192.44727 586.24414 C -207.70854 576.04745 -222.17047 565.00043 -235.57031 552.45703 C -238.37527 549.83361 -241.24164 547.28718 -244.125 544.75 C -247.69454 541.54833 -250.90983 538.22879 -253.99609 534.5625 C -255.89276 532.33212 -257.88035 530.20557 -259.875 528.0625 C -270.3206 516.46023 -279.38074 503.65626 -287.75 490.5 L -288.87305 488.76172 C -301.14998 469.66185 -309.49462 449.26656 -315.75 427.5 L -316.4082 425.31445 C -326.85121 390.58949 -325.99424 352.84596 -319.75 317.5 C -319.49293 315.8816 -319.23636 314.26312 -318.98047 312.64453 C -314.7699 288.14523 -304.9564 263.54314 -293.75 241.5 L -292.42383 238.88281 C -274.57845 204.17061 -248.89884 170.82388 -219.03906 145.44922 C -217.18093 143.86695 -215.34879 142.2641 -213.52344 140.64453 C -204.9269 133.04926 -196.04113 125.95918 -186.85938 119.08594 C -184.80051 117.53786 -182.75634 115.97323 -180.71484 114.40234 C -164.31468 101.83434 -146.81469 91.497686 -128.87305 81.285156 C -126.11018 79.706748 -123.35729 78.112041 -120.60938 76.507812 C -43.265022 31.500138 -43.264756 31.5 -29.75 31.5 z M -5.75 201.5 C 34.0246 201.5 69.36224 215.34224 99.25 241.5 L 101.78516 243.66797 C 131.32555 269.46445 151.77139 308.0288 156.00391 347.125 C 159.1374 393.95539 148.31889 436.9954 117.91016 473.29297 C 115.74539 475.75524 113.52204 478.13647 111.25 480.5 L 109.9082 481.91992 C 83.998799 509.25097 46.162182 529.5458 8.25 532.5 L -5.75 532.5 L -5.75 201.5 z "
     transform="translate(530.75,132.5)" />
</svg>
