<?xml version="1.0" encoding="UTF-8" standalone="no"?>
<svg version="1.1" width="1024" height="1024" id="svg9" xmlns="http://www.w3.org/2000/svg">
  <defs
     id="defs9" />
  <path
     id="path2"
     d="M 3.359375 -0.001953125 L 0 0 C -32.219411 0.0078436944 -64.327338 0.12176533 -96.457031 2.8046875 L -99.5 3.0625 C -116.99882 4.5166177 -134.44173 6.1167958 -151.8125 8.7207031 L -155.25 9.25 C -180.63283 13.136725 -207.73206 17.726086 -231.29883 28.351562 L -233.25 29.25 C -243.58636 33.920234 -253.38916 39.101856 -262.25 46.25 C -270.12224 53.560779 -276.26173 61.1584 -276.78711 72.199219 C -276.92329 83.217397 -273.88019 90.42232 -266.25 98.25 C -263.27805 100.81602 -261.45189 102.29659 -260.62305 106.19922 L -260.62109 109.52539 C -260.60146 111.4874 -260.58368 113.45006 -260.59961 115.41211 C -260.61227 116.84836 -260.61634 118.28441 -260.61133 119.7207 C -260.58672 123.63609 -260.58126 127.55137 -260.59961 131.4668 C -260.6201 135.62921 -260.62212 139.79067 -260.61719 143.95312 C -260.6087 150.92144 -260.61589 157.88916 -260.64258 164.85742 C -260.6749 172.97533 -260.69074 181.09297 -260.67383 189.21094 C -260.65712 197.07922 -260.65291 204.94811 -260.66992 212.81641 C -260.67722 216.1514 -260.68479 219.48531 -260.67969 222.82031 C -260.67082 226.81636 -260.66887 230.81259 -260.69141 234.80859 C -260.70171 236.27873 -260.70974 237.7486 -260.7168 239.21875 C -260.70981 240.6167 -260.70345 242.01611 -260.69727 243.41406 L -260.73438 247.22852 L -260.74414 250.55273 C -260.99398 253.36835 -260.99277 253.36697 -263.16992 255.01758 C -265.47356 256.3821 -266.95712 257.89468 -268.75 259.875 C -273.40962 265.34628 -277.17288 271.632 -276.68359 279.08984 C -275.52412 284.86631 -273.50461 290.45906 -268.80078 294.19336 C -266.0561 296.07154 -266.05765 296.07155 -263.45117 298.44922 C -259.70527 306.22283 -259.70552 306.22268 -259.95117 315.08594 C -259.9766 316.66389 -259.98264 318.24218 -259.97266 319.82031 C -259.92359 324.13443 -259.91043 328.4455 -259.94727 332.75977 C -259.98837 337.34389 -259.99421 341.92743 -259.98438 346.51172 C -259.96742 354.19459 -259.98169 361.87783 -260.03516 369.56055 C -260.09981 378.49735 -260.13148 387.43213 -260.09766 396.36914 C -260.0642 405.04372 -260.05585 413.71798 -260.08984 422.39258 C -260.10441 426.06789 -260.1196 429.74262 -260.10938 433.41797 C -260.09162 437.81533 -260.08589 442.2102 -260.13086 446.60742 C -260.15146 448.22911 -260.16947 449.8509 -260.18359 451.47266 C -260.13488 456.81242 -259.99982 462.0226 -261.25 467.25 C -263.11496 469.57921 -264.72872 470.84038 -267.33398 472.26562 C -269.25094 473.24969 -269.25 473.25 -271.34375 475.56641 C -275.59385 482.35475 -276.54007 488.33502 -275.25 496.25 C -272.85745 503.68003 -269.05369 508.77511 -262.06641 512.375 L -260.25 513.25 C -260.17397 532.27564 -260.1398 551.30039 -260.16992 570.32617 C -260.18512 579.57901 -260.19633 588.8312 -260.15625 598.08398 C -260.1191 606.20835 -260.09806 614.33261 -260.12305 622.45703 C -260.14033 626.75192 -260.16298 631.04693 -260.13477 635.3418 C -260.09879 639.44507 -260.07431 643.54698 -260.10352 647.65039 C -260.11844 649.16876 -260.12939 650.68665 -260.13672 652.20508 C -260.09028 654.95785 -260.08508 657.68601 -260.12891 660.44141 C -260.55578 665.85633 -261.52614 668.30432 -265.62891 671.89258 C -267.18982 672.9829 -268.73119 674.10174 -270.25 675.25 C -273.2797 679.45455 -275.04377 683.26289 -275.58203 688.44922 C -275.71553 698.50998 -272.81225 705.87434 -265.875 713.1875 C -186.44489 766.42833 -87.389142 767.79838 -7.6640625 767.45508 C -4.5335057 767.44136 -1.4020714 767.43547 1.7285156 767.43555 C 19.279236 767.43793 36.798749 767.31206 54.330078 766.38086 L 56.75 766.25 C 119.11371 763.00134 225.46713 763.56762 271.03906 714.24609 L 272.75 712.25 C 273.87635 710.95649 274.98142 709.64408 276.0625 708.3125 C 280.87889 701.59318 282.60721 694.4594 281.75 686.25 C 279.44939 679.34817 274.11687 671.54459 267.60156 668.12109 L 265.75 667.25 C 265.76316 648.14048 265.79909 629.03127 265.87109 609.92188 C 265.9064 600.63299 265.94063 591.34364 265.94531 582.05469 C 265.94835 573.89486 265.96055 565.73592 265.99805 557.57617 C 266.02011 553.26801 266.04414 548.95863 266.04102 544.65039 C 266.03306 540.52652 266.03038 536.40505 266.05859 532.28125 C 266.07127 530.7636 266.08139 529.24424 266.08984 527.72656 C 266.08069 526.2829 266.07271 524.84015 266.06445 523.39648 L 266.11133 519.45703 L 266.11914 516.02344 C 266.48017 513.03871 266.47953 513.03852 269.18555 511.45312 C 271.71712 510.26418 272.98777 509.25621 274.8125 507.1875 C 279.30579 501.6841 282.66448 494.55099 282.18359 487.30859 C 281.02578 481.8116 278.8061 476.83277 274.29688 473.36133 C 271.54854 471.47091 271.54955 471.47185 268.94336 469.08008 C 265.23003 461.20321 265.23002 461.20303 265.55859 452.25586 C 265.59708 450.65871 265.6164 449.06051 265.61914 447.46289 C 265.60415 443.09772 265.62523 438.73579 265.69336 434.37109 C 265.76625 429.73891 265.79558 425.10732 265.80859 420.47461 C 265.83087 411.72282 265.8963 402.97194 265.99609 394.2207 C 266.11062 384.18247 266.1809 374.1442 266.23242 364.10547 C 266.34051 342.48611 266.51621 320.86835 266.75 299.25 C 269.63219 297.80891 269.6322 297.8089 273.92969 293.39453 C 279.21191 287.17148 281.54484 280.94529 281.09766 272.78125 C 280.10957 265.58712 276.09698 259.99682 270.75 255.25 L 265.75 253.25 L 265.75 102.25 L 267.75 102.25 C 274.88446 95.764127 279.99102 89.080561 283.06641 79.867188 C 285.42853 70.823611 282.02452 63.025281 277.60938 55.238281 C 262.05704 32.144008 262.05655 32.144786 196.90234 16.740234 L 194.8125 16.25 C 179.29884 12.603889 163.75332 9.8362691 147.95117 7.7890625 C 145.85725 7.5210549 143.76299 7.2512137 141.66992 6.9765625 C 130.9355 5.5669823 120.1884 4.4134287 109.40234 3.4765625 L 106.75 3.25 C 72.30974 0.27161261 37.904357 -0.014898049 3.359375 -0.001953125 z M 5.4628906 23.998047 C 48.001735 23.979597 90.331514 25.081524 132.52148 30.945312 C 134.92956 31.274622 137.33969 31.589854 139.75 31.902344 C 162.72117 34.883728 185.30633 38.440532 207.75 44.25 L 210.73828 45.015625 C 227.18289 49.314147 249.09094 56.14047 258.75 71.25 C 259.57812 73.234366 259.57813 73.234384 259.75 75.25 C 252.38257 88.640014 229.47771 95.059628 215.75 99.25 L 213.32227 99.998047 C 193.18723 106.13691 172.73568 110.56966 151.9375 113.75 L 149.08203 114.19141 C 125.73296 117.77835 102.27826 120.19796 78.75 122.25 L 76.410156 122.45898 C 48.583212 124.93973 20.659554 124.55083 -7.25 124.25 L -10.064453 124.2207 C -199.68455 122.12672 -199.68563 122.12658 -248.25 81.25 C -250.58593 78.859384 -250.58594 78.859364 -252.25 76.25 C -252.11662 71.37417 -249.63163 68.730831 -246.44531 65.292969 C -204.86686 26.599855 -120.83629 27.740916 -67.591797 25.357422 C -65.956481 25.282812 -64.322496 25.204297 -62.6875 25.123047 C -40.945294 24.052019 -19.201066 24.00615 2.5625 24 L 5.4628906 23.998047 z M -137.29492 54.070312 C -145.58477 54.191315 -153.6285 55.339951 -160.25 57.25 C -169.00789 60.272539 -176.90503 63.56006 -181.25 72.25 C -181.47113 75.78131 -181.09655 79.002455 -179.0625 82 L -177.25 83.25 C -171.1697 87.962233 -164.37833 90.40047 -156.87109 91.945312 C -139.48335 94.608808 -117.31672 96.048578 -102.07812 85.765625 C -97.796333 82.215763 -94.537909 78.471012 -93.8125 72.875 C -94.507062 68.707627 -96.344574 66.297154 -99.25 63.25 C -108.97946 56.520291 -123.4785 53.868642 -137.29492 54.070312 z M -236.25 116.25 C -233.00316 116.88207 -229.89791 117.61473 -226.75 118.63281 C -151.58469 142.48622 -72.470014 147.48388 5.875 147.5 L 8.8632812 147.50195 C 53.570132 147.51244 97.422478 145.25733 141.75 139.25 L 143.84961 138.96875 C 158.92404 136.94158 173.90668 134.58933 188.75 131.25 L 191.5 130.63477 C 207.15612 127.06589 222.27558 122.28442 237.42578 116.98047 C 239.75049 116.24951 239.75 116.25 241.75 116.25 C 241.78226 126.37496 241.80152 136.5 241.8125 146.625 L 241.81445 148.99805 C 241.84446 180.27166 241.5872 211.54089 241.25 242.8125 L 241.21289 246.17383 C 241.06472 259.86577 240.91097 273.55819 240.75 287.25 C 217.25581 296.35514 217.25572 296.35517 208.8125 298.6875 L 205.83008 299.51367 C 176.69916 307.20899 146.70193 312.18889 116.75 315.25 C 114.77732 315.46333 112.80466 315.67688 110.83203 315.89062 C 100.87216 316.93514 90.890186 317.72909 80.878906 318.03516 C 77.231254 318.14917 73.653666 318.46532 70.027344 318.87109 C 56.50611 320.09181 56.506545 320.09132 51.828125 316.96484 C 48.160143 313.35459 45.651259 309.04052 43.126953 304.58984 C 40.820657 300.67299 38.078694 297.08567 35.375 293.4375 C 34.292182 291.93771 33.21147 290.43638 32.132812 288.93359 C 28.53046 283.93717 24.896982 278.96394 21.25 274 L 19.505859 271.61719 C 14.490609 263.97032 14.491056 263.971 7.75 258.25 C 5.710494 257.97625 5.7104754 257.97625 3.4375 257.9375 L 1.1367188 257.82422 C -5.4570682 259.00053 -9.1147672 265.80278 -12.75 270.875 L -14.603516 273.42578 C -16.492622 276.0289 -18.372184 278.63872 -20.25 281.25 C -21.353808 282.7789 -22.457972 284.30756 -23.5625 285.83594 C -25.151936 288.03631 -26.741719 290.23692 -28.328125 292.43945 C -32.519407 298.25476 -36.750008 304.04 -41 309.8125 L -42.845703 312.32227 L -44.546875 314.62891 L -46.058594 316.67773 C -47.250982 318.24975 -47.250002 318.25 -48.25 319.25 C -58.265 319.69364 -68.32125 319.09055 -78.3125 318.4375 L -80.378906 318.30469 C -201.99715 310.41862 -201.99731 310.41846 -235.25 288.25 C -235.64873 285.59146 -235.648 285.59097 -235.68164 282.13867 L -235.74219 278.17578 C -235.749 276.71349 -235.7556 275.25135 -235.76172 273.78906 C -235.77872 272.24872 -235.79708 270.70829 -235.81641 269.16797 C -235.86512 264.95296 -235.89441 260.73862 -235.91992 256.52344 C -235.94358 252.99278 -235.97714 249.46221 -236.01172 245.93164 C -236.43075 202.70686 -236.34846 159.47617 -236.25 116.25 z M 2.75 293.25 L 4.75 293.25 C 6.6205162 295.56835 8.3831434 297.89983 10.125 300.3125 C 14.306452 306.01284 18.590868 311.58716 23.0625 317.0625 C 27.007262 321.92666 30.528235 326.84148 33.792969 332.19531 C 36.374633 336.22499 39.181026 340.07152 42 343.9375 C 48.068338 352.27636 53.987812 360.69682 59.75 369.25 L 61.117188 371.25781 C 79.77972 398.79465 95.278384 429.19087 88.910156 463.4375 C 83.749166 486.52915 69.53046 505.22024 49.75 518.0625 C 30.745968 529.97207 8.7938756 535.41205 -13.375 530.625 C -21.176154 528.81128 -28.182554 526.04921 -35.25 522.25 L -38.328125 520.66016 C -48.045855 515.36524 -55.511106 508.05212 -63.25 500.25 L -64.988281 498.50391 C -79.810331 482.57847 -84.942687 462.37876 -84.574219 441.10938 C -83.049961 402.90958 -52.673933 366.61321 -30.779297 337.29688 C -29.468569 335.54171 -28.162663 333.78412 -26.859375 332.02344 C -21.816815 325.24398 -16.635756 318.57601 -11.429688 311.92188 C -8.7202324 308.45293 -6.0276598 304.97738 -3.421875 301.42969 L -2.1640625 299.71875 C -1.0773647 298.23091 0.0007271548 296.73678 1.078125 295.24219 L 2.75 293.25 z M 240.75 313.25 L 240.75 499.25 C 201.97678 518.63661 156.48905 523.71347 113.9375 528.625 L 110.47461 529.0293 C 98.199894 530.45073 86.118456 531.72644 73.75 531.25 C 76.712474 527.70948 79.649246 524.30066 83 521.125 C 102.92639 501.37456 113.87567 474.4635 114.0625 446.5 C 114.0625 407.78609 92.614228 374.39293 71.75 343.25 C 74.530334 342.32322 76.705592 341.98904 79.603516 341.74023 L 82.607422 341.47656 L 85.871094 341.19922 C 88.177768 340.99601 90.48441 340.79189 92.791016 340.58789 L 96.453125 340.26758 C 116.64466 338.4842 136.76243 336.69141 156.75 333.25 C 158.21108 333.00269 159.6717 332.75497 161.13281 332.50781 C 186.45496 328.1959 211.68102 323.43968 235.78516 314.31641 C 238.74998 313.25 238.75 313.25 240.75 313.25 z M -235.25 315.25 L -225.25 318.25 C -216.94689 320.69324 -208.60901 323.00593 -200.25 325.25 L -197.23438 326.06055 C -154.64002 337.26321 -109.97682 339.56362 -66.25 343.25 C -67.367798 345.17551 -68.486021 347.10084 -69.605469 349.02539 L -71.494141 352.27344 C -73.425757 355.54796 -75.456814 358.71033 -77.5625 361.875 C -98.933558 394.71866 -114.10189 430.32968 -105.74609 470.08008 C -100.18049 494.41866 -86.125544 512.06873 -68.46875 528.96484 C -67.250492 530.24902 -67.25 530.25 -67.25 531.25 C -99.368416 530.59116 -131.70199 527.30077 -163.25 521.25 L -165.47852 520.82227 C -189.98436 516.08774 -212.75943 510.49528 -235.25 499.25 L -235.25 315.25 z M -235.25 526.25 L -233.50586 526.86523 C -230.87439 527.79176 -228.24151 528.71601 -225.60938 529.64062 L -222.86523 530.60742 C -216.85887 532.71543 -210.86324 534.69339 -204.6875 536.25 L -201.88672 536.96484 C -181.38625 542.04656 -160.57824 545.92961 -139.6875 549 L -135.8457 549.56445 C -131.6505 550.15792 -127.45255 550.71151 -123.25 551.25 L -120.54688 551.60352 C -101.42945 554.07592 -82.298542 555.38975 -63.0625 556.4375 L -60.705078 556.56836 C -17.190826 558.97494 26.254236 559.32188 69.75 556.25 L 71.958984 556.0957 C 82.906992 555.32302 93.830332 554.35046 104.75 553.25 L 107.25391 553 C 150.70031 548.62233 194.8231 542.23601 236.12109 527.5 C 239.75 526.25 239.75 526.25 241.75 526.25 L 241.75195 528.62305 C 241.76692 547.67731 241.80979 566.73102 241.88281 585.78516 C 241.91746 594.99963 241.94185 604.21515 241.94531 613.42969 C 241.94835 621.46136 241.96833 629.49187 242.00977 637.52344 C 242.03109 641.77593 242.04541 646.02869 242.03711 650.28125 C 242.02957 654.28531 242.04452 658.28709 242.07812 662.29102 C 242.08636 663.7591 242.08562 665.22917 242.07617 666.69727 C 241.695 675.4092 241.6945 675.40833 245.13672 683.06055 C 248.26318 685.6809 251.43511 687.72395 254.95703 689.75781 L 256.75 691.25 C 256.75 695.25 256.74998 695.25 255.42188 696.92578 C 214.90536 731.43071 147.48474 734.34429 96.769531 739.0625 C 94.895605 739.23711 93.021994 739.41518 91.148438 739.59375 C 68.839682 741.70017 46.529482 742.40953 24.128906 742.41797 C 22.04508 742.4212 19.960779 742.42425 17.876953 742.42773 C 13.545181 742.43366 9.2145939 742.43615 4.8828125 742.43555 C 0.51918122 742.43547 -3.845373 742.44141 -8.2089844 742.45508 C -33.629424 742.53333 -58.90628 742.3692 -84.25 740.25 L -87.423828 739.98633 C -93.876146 739.43482 -100.31427 738.78069 -106.75 738.0625 L -109.625 737.74609 C -138.32391 734.56574 -167.52989 730.55648 -195.25 722.25 L -198.125 721.38867 C -214.69377 716.29398 -237.75497 709.16178 -249.25 695.25 L -249.25 691.25 C -246.91407 689.25 -246.91406 689.25 -243.875 687.25 C -239.01715 684.1043 -239.01714 684.10429 -236.25 679.25 C -235.93929 676.28495 -235.93846 676.28535 -235.9707 672.96094 L -235.9375 669.04297 C -235.93514 667.61238 -235.93365 666.18059 -235.93164 664.75 C -235.92234 663.24204 -235.91136 661.73452 -235.90039 660.22656 C -235.87308 656.13399 -235.85868 652.04186 -235.8457 647.94922 C -235.83008 643.67172 -235.80296 639.39462 -235.77734 635.11719 C -235.73054 627.01774 -235.69329 618.91787 -235.66016 610.81836 C -235.62194 601.59715 -235.5738 592.37545 -235.52344 583.1543 C -235.4201 564.18614 -235.33 545.21827 -235.25 526.25 z "
     transform="translate(509.25,128.75)" />
</svg>
