<?xml version="1.0" encoding="UTF-8"?>
<svg xmlns="http://www.w3.org/2000/svg" viewBox="0 0 60 60" width="512" height="512"><g id="Icons"><path d="M26.605,24.983c.621.815,2,.269,3.144-.416A16.85,16.85,0,0,1,27.538,21.7C26.677,22.781,25.939,24.111,26.605,24.983Z"/><path d="M22.358,15.344c.291.97,1.813.931,2.994.741l-.776-3.43C23.387,13.242,22.015,14.192,22.358,15.344Z"/><path d="M35.28,31.732c.861.536,1.939-.436,2.743-1.435l-3.049-1.863C34.574,29.686,34.361,31.159,35.28,31.732Z"/><path d="M9.7,22a2.721,2.721,0,0,0,1.694-.594l2.254-1.8A2.711,2.711,0,0,0,14.62,17l-.981-5.4A28.012,28.012,0,0,1,3.45,15.289,1.754,1.754,0,0,0,2,17v5.184A2.966,2.966,0,0,1,3,22Z"/><path d="M55,35H50.413a16.683,16.683,0,0,1-8.7-2.447l-1.976-1.208C38.2,33.316,36.854,33.9,35.806,33.9a2.987,2.987,0,0,1-1.585-.467c-1.21-.756-2.308-2.419-1-6.064l-.157-.1a16.4,16.4,0,0,1-1.8-1.295,7.273,7.273,0,0,1-3.823,1.435A2.939,2.939,0,0,1,25.015,26.2c-.9-1.182-1.325-3.235,1.518-6.393a16.6,16.6,0,0,1-.668-1.779,9.849,9.849,0,0,1-1.7.167c-2.581,0-3.436-1.334-3.718-2.275-.365-1.225-.324-3.472,3.681-5.26l-.655-2.894A1,1,0,0,0,22.3,7.02L16.174,8.583a1.021,1.021,0,0,0-.839,1.171l1.253,6.889A4.7,4.7,0,0,1,14.9,21.164l-2.254,1.8A4.724,4.724,0,0,1,9.7,24H7.074l.754,10.5a2.967,2.967,0,0,0,1.8,2.543l2.941,1.26a5,5,0,0,1,2.877,3.378l.573,2.308c.324,0,.644.013.976.013a44.063,44.063,0,0,1,10.261,1.317A61.522,61.522,0,0,0,42,47a26.705,26.705,0,0,0,16-5.494V38A3,3,0,0,0,55,35Z"/><path d="M13.946,43.92l-.437-1.759a2.986,2.986,0,0,0-1.721-2.021L8.846,38.879a4.955,4.955,0,0,1-3.013-4.242L5.069,24H3a1,1,0,0,0-1,1V39a6.364,6.364,0,0,0,.616,3.144A51.057,51.057,0,0,0,13.946,43.92Z"/><path d="M26.836,47.271A41.849,41.849,0,0,0,17,46,54.741,54.741,0,0,1,2.2,44.106,1.7,1.7,0,0,0,2,45v7a1,1,0,0,0,1,1H19.171a1,1,0,0,0,.708-.293L21.19,51.4a2.8,2.8,0,0,1,1.98-.816,2.754,2.754,0,0,1,1.495.438A13.466,13.466,0,0,0,32,53h9a29.03,29.03,0,0,0,14.768-4.043A4.547,4.547,0,0,0,58,45.065V43.97A28.563,28.563,0,0,1,42,49,63.234,63.234,0,0,1,26.836,47.271Z"/></g></svg>
