<svg clip-rule="evenodd" fill-rule="evenodd" stroke-linejoin="round" stroke-miterlimit="2" viewBox="0 0 64 64" xmlns="http://www.w3.org/2000/svg"><g transform="translate(-2008 -248)"><path d="m2018 298.832v8.168c0 .792.47 1.509 1.19 1.829s1.57.183 2.16-.349c0 0 2.97-2.702 5.82-5.297 2.96-2.692 6.82-4.183 10.82-4.183h22.01c3.18 0 6.24-1.264 8.49-3.514s3.51-5.302 3.51-8.484v-24.002c0-6.627-5.37-12-12-12-12.55 0-33.25 0-40 0-3.18 0-6.24 1.264-8.49 3.514s-3.51 5.302-3.51 8.484v24.004c0 3.182 1.26 6.234 3.51 8.484 1.78 1.773 4.05 2.934 6.49 3.346zm3.99-1.692c.01.042.01.089.01.14v5.2s2.48-2.257 2.48-2.257c3.7-3.361 8.52-5.223 13.51-5.223h22.01c2.12 0 4.16-.843 5.66-2.343 1.5-1.499 2.34-3.534 2.34-5.655v-24.002c0-4.418-3.58-8-8-8h-40c-2.12 0-4.16.843-5.66 2.343-1.5 1.499-2.34 3.534-2.34 5.655v24.004c0 2.121.84 4.156 2.34 5.655 1.5 1.5 3.54 2.343 5.66 2.343 1.1 0 2 .895 2 2 0 .047 0 .094-.01.14zm31.91-38.758c-.27-.824-1.03-1.382-1.9-1.382s-1.63.558-1.9 1.382l-2.63 8.087s-8.09 2.629-8.09 2.629c-.82.268-1.38 1.036-1.38 1.902s.56 1.634 1.38 1.902l8.09 2.629s2.63 8.087 2.63 8.087c.27.824 1.03 1.382 1.9 1.382s1.63-.558 1.9-1.382l2.63-8.087s8.09-2.629 8.09-2.629c.82-.268 1.38-1.036 1.38-1.902s-.56-1.634-1.38-1.902l-8.09-2.629s-2.63-8.087-2.63-8.087zm-31.9 26.618h24c1.1 0 2-.896 2-2s-.9-2-2-2h-24c-1.1 0-2 .896-2 2s.9 2 2 2zm0-8h14c1.1 0 2-.896 2-2s-.9-2-2-2h-14c-1.1 0-2 .896-2 2s.9 2 2 2zm0-8h14c1.1 0 2-.896 2-2s-.9-2-2-2h-14c-1.1 0-2 .896-2 2s.9 2 2 2z"/></g></svg>