<?xml version="1.0" encoding="UTF-8" standalone="no"?>
<svg version="1.1" width="1024" height="1024" id="svg10" xmlns="http://www.w3.org/2000/svg">
  <defs
     id="defs10" />
  <path
     id="path2"
     d="M -18.253906 -4.125 C -21.750159 -3.8664468 -25.25101 -2.6770826 -28.933594 -0.05078125 C -60.118764 23.071615 -94.145075 27.917095 -132.05664 27.998047 L -134.9375 28 C -149.17816 28.018129 -163.52554 28.11843 -177.64062 25.962891 L -179.625 25.625 C -200.34348 22.096664 -218.62015 14.631275 -235.9375 2.8125 C -238.85723 0.54623864 -241.5499 -1.6754903 -244.9375 -3.1875 C -261.79982 -5.3729598 -261.79918 -5.3736424 -323.9375 21.931641 L -325.9375 22.8125 C -349.34186 33.099916 -379.03062 42.485917 -396.5625 61.6875 C -398.84379 64.775824 -398.84381 64.775836 -401.20312 67.34375 C -405.00634 71.488564 -408.80716 75.631245 -412.5 79.875 C -415.11452 82.883229 -417.76702 85.853808 -420.4375 88.8125 C -422.53153 91.132146 -424.6225 93.452298 -426.67969 95.804688 C -429.73542 99.328287 -432.83203 102.80398 -435.98828 106.23828 C -439.54901 110.10634 -443.11034 113.97153 -446.5625 117.9375 C -449.86854 121.74731 -453.23838 125.49686 -456.61719 129.24219 C -458.14434 130.93389 -459.67042 132.62657 -461.19531 134.32031 L -463.4375 136.8125 L -472.4375 146.8125 C -473.93721 148.47942 -475.43721 150.14609 -476.9375 151.8125 C -481.13007 156.4568 -485.32668 161.09548 -489.4375 165.8125 C -492.79005 169.65944 -496.19916 173.4534 -499.61719 177.24219 C -501.89314 179.76335 -504.16579 182.2875 -506.4375 184.8125 C -507.93401 186.48229 -509.43408 188.14892 -510.9375 189.8125 L -513.39844 192.45312 L -515.8125 195.0625 C -519.44801 198.94559 -522.47787 202.8027 -523.30078 208.19141 L -523.25 210.375 C -523.21919 216.13657 -521.26497 219.82113 -517.22461 223.91016 L -515.69727 225.41016 C -514.00281 227.1111 -512.30583 228.80889 -510.59961 230.49805 C -509.37623 231.70827 -508.15583 232.92141 -506.9375 234.13672 C -504.38968 236.68301 -501.83955 239.2279 -499.2832 241.76562 C -495.96993 245.05058 -492.65933 248.33643 -489.35742 251.63281 C -486.15464 254.83125 -482.94829 258.02755 -479.74023 261.2207 L -477.89844 263.05469 C -472.27663 268.65874 -466.72962 274.35147 -460.70703 279.5293 C -456.98734 282.70925 -453.54912 286.12063 -450.11133 289.60156 C -448.42631 291.31683 -446.73867 293.02774 -445.04688 294.73633 C -442.32043 297.48805 -439.59644 300.24333 -436.875 303 C -434.15167 305.76912 -431.428 308.53697 -428.69336 311.29492 L -426.08984 313.91797 C -420.54789 319.58675 -415.20193 325.98971 -406.98828 327.27344 L -404.25 327.1875 C -399.7794 327.12427 -396.7728 326.39425 -393.34375 323.43945 L -391.79297 321.84766 L -390.01367 320.03711 C -388.73243 318.71528 -387.44413 317.39942 -386.15234 316.08789 C -384.07556 313.98008 -382.0058 311.86614 -379.9375 309.75 C -377.87002 307.62942 -375.80178 305.5115 -373.72266 303.40234 L -371.75 301.40234 L -369.86133 299.44922 L -368.08203 297.64844 C -365.74981 295.25839 -364.17434 294.5315 -360.9375 293.8125 C -360.85769 340.38385 -360.76765 386.95604 -360.66406 433.52734 C -360.65157 439.14001 -360.63933 444.75258 -360.62695 450.36523 L -360.62109 453.75586 C -360.58113 471.91011 -360.5458 490.06448 -360.51562 508.21875 C -360.48459 526.90609 -360.44783 545.59199 -360.40234 564.2793 C -360.37413 575.7977 -360.34856 587.31751 -360.33398 598.83594 C -360.32391 606.80256 -360.3094 614.76777 -360.28711 622.73438 C -360.27334 627.33213 -360.2576 631.93151 -360.25391 636.5293 C -360.25249 640.79362 -360.25018 645.05796 -360.23438 649.32227 C -360.2277 650.87337 -360.2218 652.42349 -360.2168 653.97461 C -360.21892 655.43374 -360.22088 656.89243 -360.22266 658.35156 L -360.19922 662.33984 C -360.18854 667.67182 -359.54518 671.47917 -356.49219 675.91016 L -354.8125 677.875 L -353.17969 679.84766 C -346.88474 685.36395 -341.32926 686.27301 -333.18945 686.32812 C -331.22503 686.31015 -329.25944 686.29439 -327.29492 686.29688 C -323.60213 686.31052 -319.91153 686.30856 -316.21875 686.28906 C -312.18742 686.26762 -308.15638 686.26307 -304.125 686.26562 C -297.13861 686.27082 -290.15043 686.26528 -283.16406 686.24414 C -272.97468 686.21166 -262.78708 686.19494 -252.59766 686.18945 C -236.08587 686.18133 -219.57229 686.15849 -203.06055 686.12109 C -186.96756 686.08434 -170.87622 686.05256 -154.7832 686.03516 L -151.77148 686.03125 C -146.77973 686.02596 -141.78669 686.02258 -136.79492 686.01758 C -94.508894 685.97535 -52.223451 685.90405 -9.9375 685.8125 L -9.9375 684.8125 C -11.163325 683.67225 -12.393316 682.53616 -13.644531 681.42383 C -40.065434 657.97698 -60.638268 627.01348 -68.417969 592.24023 L -68.9375 589.8125 C -72.22055 574.55824 -73.578604 559.86384 -73.03125 544.26562 L -72.9375 541.8125 L -72.839844 538.30859 C -70.870385 501.99985 -52.504277 460.58731 -25.921875 435.59766 L -23.9375 433.8125 C 2.9114466 408.87498 32.191704 394.11179 68.0625 386.8125 L 94.0625 383.8125 L 94.0625 292.8125 C 98.327157 294.83493 98.327098 294.83437 101.66992 298.24414 L 103.48828 300.11328 C 106.12214 302.77905 108.75182 305.44871 111.375 308.125 C 113.35844 310.14892 115.34433 312.17161 117.33594 314.1875 L 119.23828 316.11328 C 123.25783 320.24515 127.07296 323.88032 132.0625 326.8125 C 137.10899 327.77644 141.63063 327.5144 146.25 325.25 L 149.0625 322.8125 C 154.26195 318.39114 159.19928 313.78364 164.01562 308.94727 L 166.53125 306.40625 C 170.21084 302.71082 173.88852 299.0135 177.5625 295.3125 C 180.3492 292.5053 183.13685 289.69951 185.92773 286.89648 L 188.59375 284.21875 C 192.34631 280.42869 196.05741 276.59581 200.04492 273.05078 C 205.42529 268.42861 210.49319 263.55441 215.52148 258.55078 L 217.01953 257.05859 C 219.66406 254.42881 222.3075 251.79863 224.94727 249.16406 C 227.6912 246.4246 230.43956 243.68852 233.19531 240.96094 C 235.36076 238.81772 237.52109 236.6716 239.67773 234.51953 C 240.70746 233.49055 241.73865 232.46141 242.76953 231.43359 C 243.76721 230.44883 244.76449 229.46373 245.76172 228.47852 L 248.53516 225.69727 C 252.50477 221.74564 255.68806 217.8571 256.39062 212.14453 L 256.3125 209.625 C 256.16244 201.4842 256.1624 201.48414 235.0625 178.3125 C 232.1783 175.14989 229.31072 171.97809 226.5 168.75 C 224.64156 166.6117 222.77097 164.4876 220.87891 162.37891 C 217.99104 159.17937 215.09519 155.98763 212.25 152.75 C 209.05041 149.0764 205.82641 145.42926 202.5625 141.8125 C 200.44679 139.46806 198.33461 137.12214 196.25 134.75 C 193.05041 131.0764 189.82641 127.42926 186.5625 123.8125 C 184.44679 121.46806 182.33461 119.12214 180.25 116.75 C 177.05041 113.0764 173.82641 109.42926 170.5625 105.8125 C 168.4169 103.43779 166.27825 101.06093 164.17969 98.644531 C 161.97171 96.085065 159.78741 93.534016 157.39062 91.148438 C 154.77297 88.614829 152.28227 86.074286 149.9375 83.28125 C 133.42988 62.875987 117.75215 50.190523 94.085938 39.09375 C 91.071454 37.686932 88.056561 36.282523 85.048828 34.861328 C 63.728238 24.762686 42.321496 15.335466 20.136719 7.2890625 C 18.086331 6.5474392 16.037447 5.8030836 13.990234 5.0527344 C 10.604755 3.8089667 7.2167836 2.5728499 3.8203125 1.359375 C 2.5466851 0.90687358 1.2732369 0.45359892 0 0 C -6.613431 -2.4008095 -12.42682 -4.555922 -18.253906 -4.125 z M -34.9375 33.8125 C -32.125006 34 -32.124996 34.000002 -29.9375 34.8125 C -30.477869 39.782373 -32.117676 43.670795 -34.5 48 L -35.585938 49.994141 C -50.597651 76.974521 -73.170546 93.251365 -102.44922 101.80469 C -134.49159 109.61768 -168.38188 105.24762 -196.9375 88.8125 C -201.11289 86.010394 -205.04548 82.993852 -208.9375 79.8125 L -211.33203 77.917969 C -222.78706 68.388826 -230.07488 55.813038 -236.9375 42.8125 L -238.21094 40.488281 C -239.1707 38.274632 -238.73177 37.036448 -237.9375 34.8125 C -233.5715 35.345512 -231.18127 36.866141 -227.75 39.5625 C -202.69606 58.162651 -166.57249 60.038263 -136.375 60.0625 L -134.06055 60.064453 C -104.68482 60.023599 -60.796227 59.418086 -38.328125 37.222656 L -37.0625 35.8125 L -34.9375 33.8125 z M 92.070312 407.73633 C 55.472437 407.75558 18.9987 421.22859 -6.9023438 448.58203 L -8.9375 450.8125 C -11.208338 453.22096 -13.446235 455.64347 -15.632812 458.12891 L -17.9375 460.8125 C -31.560546 476.43629 -40.763947 495.56075 -46.300781 515.46094 L -46.9375 517.8125 C -50.728276 531.23843 -50.728526 531.2393 -50.060547 564.28711 C -48.923048 596.94885 -32.985548 631.0743 -9.3945312 653.55078 L -6.9375 655.8125 C -5.3200716 657.34138 -3.6950184 658.86225 -2.0625 660.375 C 27.447 686.48309 64.788209 698.9644 104.0625 696.8125 C 141.10536 694.01758 176.34713 677.42588 200.84766 649.39453 L 203.0625 646.8125 C 218.12728 629.70415 228.40692 609.27891 233.55859 587.07422 L 234.0625 584.8125 C 237.19794 570.78633 237.56464 556.90655 237.18555 542.56641 C 235.73806 510.04983 220.13928 474.39425 196.42188 451.98047 L 194.0625 449.8125 C 190.14931 446.03907 186.21353 442.32491 182.0625 438.8125 C 156.75182 418.17694 124.36256 407.71934 92.070312 407.73633 z M 94.910156 459.50781 C 97.43333 459.58366 99.933969 460.18813 102.6875 461.375 C 103.83424 462.15651 104.95872 462.9714 106.0625 463.8125 L 108.05078 465.14453 C 110.28219 466.91087 111.58968 468.36537 113.0625 470.8125 C 113.38217 473.79003 113.38266 473.79005 113.29102 477.20312 L 113.20508 480.98242 L 113.0625 484.8125 L 112.94727 488.24805 C 112.81399 491.7292 112.65011 495.20813 112.47656 498.6875 L 112.28906 502.58203 C 112.15837 505.29145 112.02544 508.00173 111.89062 510.71094 C 111.75606 513.41719 111.62511 516.1216 111.49609 518.82812 C 111.17889 525.47629 110.8434 532.12387 110.47656 538.76953 C 110.2134 543.57923 110.00144 548.38254 109.86133 553.19727 C 109.77517 555.96954 109.65895 558.7408 109.53711 561.51172 C 109.46258 563.45171 109.42832 565.39287 109.39453 567.33398 C 108.98837 575.81849 108.9887 575.81802 106.29688 578.70898 C 101.13814 582.02763 96.200942 583.39711 90.0625 582.8125 C 85.676621 581.05289 81.426187 579.17619 78.0625 575.8125 C 76.717961 568.47832 76.871044 560.76979 76.746094 553.33203 L 76.681641 550.07227 C 76.499291 540.52006 76.361449 530.96709 76.230469 521.41406 C 76.136339 514.78281 75.999861 508.15431 75.800781 501.52539 C 75.695671 497.84838 75.622501 494.17204 75.556641 490.49414 C 75.519211 488.80531 75.468574 487.11763 75.402344 485.42969 C 74.912404 472.66192 74.91091 472.66204 77.779297 468.05469 C 79.771835 466.01314 81.692842 464.39055 84.0625 462.8125 L 87 460.8125 C 89.841244 459.88475 92.386983 459.43197 94.910156 459.50781 z M 93.767578 601.48047 C 97.840916 601.39428 101.99781 602.51173 106.0625 604.8125 C 111.20361 608.33967 114.34539 611.6511 116.0625 617.8125 C 116.91519 624.93244 116.44043 630.96247 112.0625 636.8125 C 107.78292 641.3659 103.52084 644.4541 97.160156 645.11328 C 90.240442 645.14 85.389293 645.07574 80.222656 640.00781 C 74.526002 633.83355 72.561356 629.02064 72.753906 620.59375 C 73.425606 614.53997 76.039724 610.47902 80.5 606.4375 C 84.642128 603.22166 89.15113 601.57815 93.767578 601.48047 z "
     transform="translate(642.9375,167.1875)" />
</svg>
