<svg clip-rule="evenodd" fill-rule="evenodd" height="512" image-rendering="optimizeQuality" shape-rendering="geometricPrecision" text-rendering="geometricPrecision" viewBox="0 0 43.3492 43.3492" width="512" xmlns="http://www.w3.org/2000/svg"><g id="Layer_x0020_1"><g id="_210388504"><g><path id="_210390712" d="m6.6217 42.9382.0725-.852c-.7395.0117-1.4773-.0448-2.2041-.1677-.9618-.1627-1.9043-.4423-2.8059-.8351l-.0754.9086c-.0165.2.0789.5654.3263.6078l4.359.7481c.1895.0201.2933-.1918.3203-.3493.0029-.0168.0054-.037.0073-.0604z"/><path id="_210390880" d="m41.665 41.0834c-.9016.3928-1.8441.6724-2.8059.8351-.7261.1228-1.4632.1793-2.2021.1678l.0705.8519c.002.0234.0045.0437.0073.0605.027.1574.1308.3693.3203.3492l4.359-.7481c.2421-.0415.3436-.3996.3263-.6078z"/></g><g><path id="_210391288" d="m34.2839 34.6967c-2.0097.4507-4.0583.7064-6.1169.7659-2.0108.0582-4.0233-.0711-6.0106-.3887v6.28c1.9858.3275 3.9899.462 5.9842.4043 2.0412-.059 4.0816-.32 6.0911-.7819.6968-2.0301.7144-4.2384.0522-6.2796z"/><path id="_210391336" d="m21.193 41.3538v-6.2799c-1.9874.3175-3.9999.4469-6.0108.3887-2.0586-.0595-4.1071-.3152-6.1169-.7659-.6585 2.0302-.6403 4.2607.0523 6.2796 2.0095.4619 4.0498.7229 6.091.7819 1.9944.0577 3.9985-.0768 5.9844-.4044z"/></g><path id="_210390472" d="m42.808 36.8912c-.0037-1.0488-.1511-2.2614-.4421-3.6379-1.0812.6347-2.2532 1.0806-3.4658 1.3273-1.179.2398-2.3952.2917-3.6026.1465.5977 2.0552.5739 4.237-.0661 6.2803 1.1592.1704 2.3298.1556 3.4697-.0372 1.2703-.2149 2.5025-.6502 3.6379-1.2958.3166-.7403.4729-1.6681.469-2.7832z"/><path id="_210390352" d="m8.0518 34.7271c-1.2075.1452-2.4237.0933-3.6027-.1465-1.2126-.2467-2.3846-.6926-3.4658-1.3273-.291 1.3765-.4384 2.5891-.4421 3.6379-.0039 1.1151.1524 2.0429.469 2.7832 1.1354.6456 2.3676 1.0809 3.6379 1.2958 1.1398.1928 2.3105.2076 3.4696.0372-.6384-2.0357-.6617-4.2318-.0659-6.2803z"/><path id="_210390304" d="m7.6191 30.503c0-1.0483.1528-2.0987.4582-3.1176-1.1151.0204-2.2257-.0863-3.3104-.3157-1.149-.243-2.2685-.6234-3.3335-1.1358-.3458.8567-.5547 1.7696-.6265 2.7387-.0814 1.1002.0127 2.273.2825 3.5182 1.0928.7066 2.2987 1.1941 3.5516 1.449 1.1349.2308 2.3098.2706 3.4757.1093-.3317-1.059-.4976-2.1537-.4976-3.2461z"/><path id="_210390184" d="m21.193 27.8187c-1.9875.3176-4 .4469-6.0108.3887-2.0587-.0595-4.1071-.3151-6.1169-.7659-.3219.9923-.4828 2.0257-.4828 3.0615 0 1.0904.1784 2.1782.5351 3.2182 2.0094.4618 4.0498.7228 6.091.7818 1.9944.0577 3.9985-.0768 5.9844-.4044z"/><path id="_210389920" d="m34.2839 27.4415c-2.0097.4508-4.0582.7064-6.1169.7659-2.0108.0582-4.0232-.0711-6.0106-.3887v6.28c1.9858.3275 3.9899.462 5.9842.4043 2.0412-.059 4.0816-.32 6.0911-.7818.3567-1.04.5351-2.1278.5351-3.2182 0-1.0358-.161-2.0692-.4829-3.0615z"/><path id="_210390040" d="m42.5423 28.6726c-.0718-.9691-.2807-1.882-.6265-2.7387-1.065.5124-2.1845.8928-3.3335 1.1358-1.0847.2294-2.1952.3361-3.3104.3157.3055 1.0189.4583 2.0693.4583 3.1176 0 1.0924-.1659 2.1871-.4976 3.2461 1.1658.1613 2.3408.1215 3.4756-.1093 1.2529-.2549 2.4588-.7424 3.5516-1.449.2698-1.2452.3639-2.418.2825-3.5182z"/><path id="_210390160" d="m41.9446 22.2463c-.0633-.9819-.2471-2.0765-.5512-3.2835-.9577.5054-1.9804.864-3.0337 1.069-1.0049.1955-2.0382.2503-3.0699.1586.2935 1 .4404 2.0298.4404 3.0574 0 1.0681-.1586 2.1384-.4758 3.1754 1.0556.0222 2.1065-.0774 3.1322-.2943 1.161-.2455 2.2907-.6419 3.3594-1.1828.1988-.7708.265-1.6708.1986-2.6998z"/><path id="_210390640" d="m34.7668 23.2478c0-1.0358-.161-2.0691-.4829-3.0614-2.0097.4507-4.0583.7063-6.1169.7659-2.0108.0581-4.0232-.0712-6.0106-.3888v6.28c1.9859.3275 3.9899.462 5.9843.4044 2.0412-.0591 4.0815-.32 6.091-.7819.3567-1.04.5351-2.1278.5351-3.2182z"/><path id="_210389488" d="m21.193 26.8435v-6.28c-1.9875.3176-4 .4469-6.0108.3888-2.0586-.0596-4.1071-.3152-6.1169-.7659-.3219.9923-.4828 2.0256-.4828 3.0614 0 1.0904.1784 2.1782.5351 3.2182 2.0094.4619 4.0497.7228 6.0909.7819 1.9944.0576 3.9985-.0769 5.9845-.4044z"/><path id="_210389176" d="m7.6191 23.2478c0-1.0276.1468-2.0574.4404-3.0574-1.0317.0917-2.0651.0369-3.07-.1586-1.0533-.205-2.076-.5636-3.0337-1.069-.3041 1.207-.4879 2.3016-.5512 3.2835-.0664 1.029-.0002 1.929.1986 2.6998 1.0687.5409 2.1984.9373 3.3594 1.1828 1.0257.2169 2.0766.3165 3.1322.2943-.3171-1.037-.4757-2.1073-.4757-3.1754z"/><path id="_210389152" d="m8.1111 19.2207c-.328-1.0534-.492-2.1418-.492-3.228 0-1.0102.1419-2.0223.4255-3.0063-.9665.1538-1.8066.1861-2.5203.097-.725-.0906-1.3272-.306-1.8066-.6463-.4359.6787-.7826 1.4426-1.0401 2.2917-.2936.9681-.4718 2.0481-.5344 3.2398.9491.5378 1.972.9133 3.027 1.1186.9644.1877 1.9552.2343 2.9409.1335z"/><path id="_210389680" d="m21.193 13.3083c-1.9875.3176-4 .447-6.0108.3888-2.0586-.0596-4.1071-.3152-6.1169-.7659-.3219.9923-.4828 2.0257-.4828 3.0615 0 1.0904.1783 2.1781.5351 3.2181 2.0094.4619 4.0497.7229 6.091.7819 1.9943.0577 3.9985-.0769 5.9844-.4044z"/><path id="_210389416" d="m21.193 12.3331v-6.1927c-2.5316-.0722-5.0495-.7143-7.3225-1.9261-1.8846.8414-3.1287 1.2489-4.0158 1.5395-.4699.1539-.834.2732-1.1276.4033.233.9556.3944 1.9283.4837 2.9099.0885.974.1058 1.9505.051 2.9214 1.9628.4415 3.9544.6915 5.9468.7491 1.9943.0577 3.9984-.0768 5.9844-.4044z"/><path id="_210389560" d="m8.2994 11.9659c.0551-.9427.0401-1.8828-.0445-2.8124-.0794-.8744-.2205-1.7453-.4226-2.6062-.4557.2207-.9384.592-1.4488 1.1952-.6921.818-1.4221 2.0425-2.1862 3.8559.3571.2771.8383.4536 1.4437.5292.7229.0903 1.6091.0364 2.6584-.1617z"/><path id="_210389824" d="m34.1385 9.067c.0892-.9816.2507-1.9543.4837-2.9099-.2936-.1301-.6577-.2494-1.1276-.4033-.8871-.2906-2.1312-.6981-4.0159-1.5395-2.2729 1.2118-4.7908 1.8538-7.3223 1.9261v6.1927c1.9859.3276 3.9899.4621 5.9842.4044 1.9924-.0576 3.984-.3076 5.9468-.7491-.0547-.9709-.0374-1.9474.0511-2.9214z"/><path id="_210389800" d="m34.7668 15.9927c0-1.0358-.161-2.0692-.4829-3.0615-2.0097.4507-4.0583.7063-6.1169.7659-2.0108.0582-4.0232-.0712-6.0106-.3888v6.28c1.9859.3275 3.9899.4621 5.9842.4044 2.0413-.059 4.0816-.32 6.0911-.7819.3567-1.04.5351-2.1277.5351-3.2181z"/><path id="_210389032" d="m39.1519 11.5984c-.7638-1.8137-1.4897-3.0382-2.1794-3.8559-.511-.6058-.9949-.9776-1.4549-1.1979-.2024.8618-.3438 1.7336-.4233 2.6089-.0845.9296-.0995 1.8697-.0444 2.8125 1.0492.198 1.9354.2519 2.6583.1616.6054-.0756 1.0866-.2521 1.4437-.5292z"/><path id="_210388984" d="m41.206 17.9686c-.0626-1.1917-.2408-2.2717-.5344-3.2398-.2575-.8491-.6042-1.6131-1.0401-2.2917-.4794.3403-1.0816.5557-1.8066.6463-.7136.0891-1.5538.0568-2.5203-.097.2837.984.4256 1.9961.4256 3.0063 0 1.0862-.164 2.1746-.492 3.228.9856.1007 1.9764.0542 2.9408-.1335 1.055-.2053 2.0779-.5808 3.027-1.1186z"/><path id="_210388840" d="m21.193 5.1766v-2.6322c-1.8702-.0601-3.7336-.4708-5.4894-1.232l-1.1622 2.1673c2.0731 1.0619 4.3551 1.6276 6.6516 1.6969z"/><path id="_210388720" d="m26.5167.7302c-1.5763-.4868-3.2089-.7303-4.8421-.7303-1.6333 0-3.2659.2435-4.8422.7303 1.5612.5723 3.2009.8586 4.8422.8586 1.6412 0 3.281-.2863 4.8421-.8586z"/><path id="_210388696" d="m28.8078 3.4797-1.1623-2.1673c-1.7557.7611-3.619 1.1718-5.4891 1.232v2.6322c2.2964-.0693 4.5784-.6351 6.6514-1.6969z"/></g></g></svg>