<?xml version="1.0"?>
<svg xmlns="http://www.w3.org/2000/svg" id="Solid" viewBox="0 0 64 64" width="512" height="512"><polygon points="36 13 37.414 15.586 40 17 37.414 18.414 36 21 34.586 18.414 32 17 34.586 15.586 36 13"/><polygon points="25 5 26.768 8.232 30 10 26.768 11.768 25 15 23.232 11.768 20 10 23.232 8.232 25 5"/><polygon points="6 21 10.525 18.525 13 14 15.475 18.525 20 21 15.475 23.475 13 28 10.525 23.475 6 21"/><path d="M60.9536,56.3376c.2859,1.0669-.78,2.2795-2.38,2.7083s-3.1295-.0884-3.4154-1.1554L44.8053,19.2535l5.7956-1.5529Z"/><path d="M50.0832,15.7686c-.85-3.1728-1.708-6.3745-2.5881-9.6592C47.2092,5.0425,45.68,4.5252,44.08,4.954S41.4136,6.5955,41.7,7.6624l2.5882,9.6594Z"/><path d="M28,47a47.0661,47.0661,0,0,1-15-2.25V55s2.7941,5,15,5,15-5,15-5V44.7006A47.1155,47.1155,0,0,1,28,47Z"/><path d="M44.5551,26.045A42.4065,42.4065,0,0,0,28,23a49.5292,49.5292,0,0,0-8.94.7938l-2.1116,1.1549L14.7547,28.96a2,2,0,0,1-3.5095,0l-1.2264-2.2427C6.2751,28.6572,4,31.2063,4,34c0,6.0751,10.7452,11,24,11,8.5273,0,16.0081-2.0406,20.264-5.1124ZM28,38c-8.2843,0-15-1.7909-15-4s6.7157-4,15-4,15,1.7908,15,4S36.2843,38,28,38Z"/></svg>
