<svg fill="none" height="100" viewBox="0 0 100 100" width="100" xmlns="http://www.w3.org/2000/svg"><g fill="rgb(0,0,0)"><path d="m77.4003 15.6916-11.119 2.9793c-1.0964-.4459-2.2484-.8063-3.4377-1.0768l-.8436-1.5941-.4905 1.3313c-5.5095-1.3313-14.7583.2628-19.1107 5.6694-.8412.0129-1.6436.1855-2.3783.4889-.5062-8.4581 7.8503-14.62946 15.1759-16.59233 7.8452-2.10214 19.7305-.43633 22.2039 8.79433z"/><path d="m43.608 23.094c3.637-3.5265 8.9114-5.094 13.892-5.094 7.5384 0 17.5 4.2826 17.5 13h-12.2677l-1.732-3-1.7321 3h-10.4111l-.0201-.0471c.1067-.4671.163-.9535.163-1.4529 0-3.2122-2.33-5.8801-5.392-6.406z"/><path d="m32.085 33.5366c-.3542 1.9911.4641 4.1024 2.0761 5.3339 2.9948 2.2879 7.6267.6869 8.6322-2.877-2.1239.0943-4.2325-.8919-5.5238-2.5819-1.6115.7212-3.5402.7834-5.1845.125z"/><path clip-rule="evenodd" d="m34.0359 40c-2.2989-1.448-3.4704-4.2853-2.878-6.9239-.2663-.16-.5201-.3384-.7598-.5336-8.9045 11.8675-14.433 25.6841-15.2832 40.4575h-7.17625c-1.07069 0-1.93865.868-1.93865 1.9387v13.0613c0 3.3137 2.68629 6 6 6h66c-.7684-.6362-1.5462-1.259-2.3328-1.8681l-.1708-.1319c-11.7618-9.0629-25.5036-15.085-40.0072-17.6275-2.6316-.4613-5.2882-.808-7.9626-1.0376.0634-1.7836.1734-3.5626.3303-5.3349h-7.8569c-.5523 0-1-.4478-1-1 0-.5523.4477-1 1-1h8.0543c.4404-4.0457 1.1278-8.0532 2.0672-12h-6.1215c-.5523 0-1-.4478-1-1 0-.5523.4477-1 1-1h6.6205c.8841-3.3862 1.9563-6.7243 3.2199-10h-3.8404c-.5523 0-1-.4478-1-1 0-.5523.4477-1 1-1zm-20.0359 50c-.5523 0-1-.4477-1-1s.4477-1 1-1 1 .4477 1 1-.4477 1-1 1zm2-4c0 .5523.4477 1 1 1s1-.4477 1-1-.4477-1-1-1-1 .4477-1 1zm33 1c-.5523 0-1-.4477-1-1s.4477-1 1-1 1 .4477 1 1-.4477 1-1 1z" fill-rule="evenodd"/><path d="m42.5 24c-3.0336 0-5.5 2.4609-5.5 5.5 0 3.0375 2.4624 5.5 5.5 5.5s5.5-2.4625 5.5-5.5c0-3.0376-2.4624-5.5-5.5-5.5z"/><path d="m38.8433 24.1253c-1.0063-1.2933-2.5776-2.1253-4.3433-2.1253-3.0376 0-5.5 2.4624-5.5 5.5 0 3.8702 4.1566 6.6281 7.7442 5.0228-1.5129-2.8748-.5979-6.559 2.0991-8.3975z"/><path d="m24.9004 18.0644c4.2633 0 8.3661 1.1556 11.5497 3.2333-5.7346-1.8018-10.5656 4.9278-7.3865 9.7667h-5.9314l-1.7321-3-1.732 3h-12.26771c0-8.7232 10.08601-13 17.50001-13z"/><path d="m40.6135 16.5539c-2.8066-4.9083-8.0486-8.15571-13.4096-9.59217-7.8452-2.10214-19.73055-.43634-22.2039 8.79437l11.119 2.9793c1.0964-.4459 2.2484-.8064 3.4376-1.0768l1.1078-1.1077.2264.8448c1.3087-.2189 2.6529-.3313 4.0096-.3313 4.8257 0 9.4935 1.4218 12.9707 4.0049.4057.3014.7919.6163 1.1577.9435.1245-1.8434.665-3.6917 1.5847-5.4589z"/><path d="m80.4705 23.4184c.5112-.2724 1.0965-.4184 1.6964-.4184.5998 0 1.1852.146 1.6963.4184.5108.2722.925.6584 1.2086 1.1119.2832.4527.4284.9593.4284 1.4697h2c0-.5104.1452-1.017.4284-1.4697.2836-.4535.6978-.8397 1.2086-1.1119.5111-.2724 1.0965-.4184 1.6963-.4184.5999 0 1.1852.146 1.6964.4184.4874.2597 1.093.0752 1.3528-.4122.2597-.4874.0752-1.0931-.4122-1.3528-.8063-.4297-1.7155-.6534-2.637-.6534-.9214 0-1.8306.2237-2.637.6534-.6662.355-1.2459.8423-1.6963 1.4308-.4504-.5885-1.0301-1.0758-1.6964-1.4308-.8063-.4297-1.7155-.6534-2.6369-.6534-.9215 0-1.8307.2237-2.637.6534-.4874.2597-.672.8654-.4122 1.3528.2597.4874.8654.6719 1.3528.4122z"/><path d="m81.1361 94h6.8639c3.3137 0 6-2.6863 6-6v-12c0-1.1046-.8954-2-2-2h-48.8097c13.1433 3.4142 25.4791 9.6781 36.0852 18.4595z"/><path d="m50.1669 47c-.5999 0-1.1852.146-1.6964.4184-.4874.2597-1.0931.0752-1.3528-.4122s-.0752-1.093.4122-1.3528c.8063-.4297 1.7155-.6534 2.637-.6534.9214 0 1.8306.2237 2.6369.6534.6663.355 1.246.8423 1.6964 1.4308.4504-.5885 1.0301-1.0758 1.6963-1.4308.8064-.4297 1.7156-.6534 2.637-.6534.9215 0 1.8307.2237 2.637.6534.4874.2598.6719.8654.4122 1.3528-.2598.4874-.8654.6719-1.3528.4122-.5112-.2724-1.0965-.4184-1.6964-.4184-.5998 0-1.1852.146-1.6963.4184-.5108.2722-.925.6584-1.2086 1.1119-.2832.4527-.4284.9593-.4284 1.4697h-2c0-.5104-.1452-1.017-.4284-1.4697-.2836-.4535-.6978-.8397-1.2086-1.1119-.5111-.2724-1.0965-.4184-1.6963-.4184z"/><path d="m73.4705 61.4184c.5112-.2724 1.0965-.4184 1.6964-.4184.5998 0 1.1852.146 1.6963.4184.5108.2722.925.6584 1.2086 1.1119.2832.4527.4284.9593.4284 1.4697h2c0-.5104.1452-1.017.4284-1.4697.2836-.4535.6978-.8397 1.2086-1.1119.5111-.2724 1.0965-.4184 1.6963-.4184.5999 0 1.1852.146 1.6964.4184.4874.2597 1.093.0752 1.3528-.4122.2597-.4874.0752-1.093-.4122-1.3528-.8063-.4297-1.7155-.6534-2.637-.6534-.9214 0-1.8306.2237-2.637.6534-.6662.355-1.2459.8423-1.6963 1.4308-.4504-.5885-1.0301-1.0758-1.6964-1.4308-.8063-.4297-1.7155-.6534-2.6369-.6534-.9215 0-1.8307.2237-2.637.6534-.4874.2598-.672.8654-.4122 1.3528.2597.4874.8654.6719 1.3528.4122z"/></g></svg>