<?xml version="1.0" encoding="UTF-8" standalone="no"?>
<svg
    height="24px"
    viewBox="0 -960 960 960"
    width="24px"
    fill="#D3D3D3"
    version="1.1"
    id="svg1"
    xmlns="http://www.w3.org/2000/svg">
  <defs
      id="defs1" />
  <path
      d="M 480,-80 Q 397,-80 324,-111.5 251,-143 197,-197 143,-251 111.5,-324 80,-397 80,-480 q 0,-83 31.5,-156 31.5,-73 85.5,-127 54,-54 127,-85.5 73,-31.5 156,-31.5 83,0 156,31.5 73,31.5 127,85.5 54,54 85.5,127 31.5,73 31.5,156 0,83 -31.5,156 -31.5,73 -85.5,127 -54,54 -127,85.5 Q 563,-80 480,-80 Z m 0,-80 q 134,0 227,-93 93,-93 93,-227 0,-134 -93,-227 -93,-93 -227,-93 -134,0 -227,93 -93,93 -93,227 0,134 93,227 93,93 227,93 z m 0,0 q -134,0 -227,-93 -93,-93 -93,-227 0,-134 93,-227 93,-93 227,-93 134,0 227,93 93,93 93,227 0,134 -93,227 -93,93 -227,93 z"
      id="path1"
      style="fill:#666666;fill-opacity:1" />
</svg>
