<?xml version="1.0" encoding="UTF-8" standalone="no"?>
<svg
    height="24px"
    viewBox="0 -960 960 960"
    width="24px"
    fill="#255163"
    version="1.1"
    id="svg1"
    xmlns="http://www.w3.org/2000/svg">
  <defs id="defs1" />
  <path
      d="M480-260q68 0 123.5-38.5T684-400H276q25 63 80.5 101.5T480-260ZM312-520l44-42 42 42 42-42-84-86-86 86 42 42Zm250 0 42-42 44 42 42-42-86-86-84 86 42 42ZM480-80q-83 0-156-31.5T197-197q-54-54-85.5-127T80-480q0-83 31.5-156T197-763q54-54 127-85.5T480-880q83 0 156 31.5T763-763q54 54 85.5 127T880-480q0 83-31.5 156T763-197q-54 54-127 85.5T480-80Z"
      id="path1"
      style="fill:#366d59;fill-opacity:1" />
</svg>
